<svg width="586" height="284" xmlns="http://www.w3.org/2000/svg" xmlns:xlink="http://www.w3.org/1999/xlink" overflow="hidden"><defs><clipPath id="clip0"><rect x="0" y="0" width="586" height="284"/></clipPath></defs><g clip-path="url(#clip0)"><rect x="0" y="0" width="586" height="284.42" fill="#FFFFFF"/><rect x="32.5" y="43.5644" width="80.0001" height="65.0961" stroke="#000000" stroke-width="1.33371" stroke-linejoin="round" stroke-miterlimit="10" fill="none"/><text font-family="Yu Gothic,Yu Gothic_MSFontService,sans-serif" font-weight="700" font-size="14.6925" transform="matrix(1 0 0 1.00148 41.1404 63)">乳製品に</text><text font-family="Yu Gothic,Yu Gothic_MSFontService,sans-serif" font-weight="700" font-size="14.6925" transform="matrix(1 0 0 1.00148 41.1404 80)">含まれる</text><text font-family="Yu Gothic,Yu Gothic_MSFontService,sans-serif" font-weight="700" font-size="14.6925" transform="matrix(1 0 0 1.00148 41.1404 98)">アミノ酸</text><rect x="192.5" y="43.5644" width="93" height="27.0399" stroke="#000000" stroke-width="1.33371" stroke-linejoin="round" stroke-miterlimit="10" fill="none"/><text font-family="Yu Gothic,Yu Gothic_MSFontService,sans-serif" font-weight="700" font-size="14.6925" transform="matrix(1 0 0 1.00148 201.574 62)">アルギニン</text><rect x="364.5" y="43.5644" width="110" height="47.0694" stroke="#000000" stroke-width="1.33371" stroke-linejoin="round" stroke-miterlimit="10" fill="none"/><text font-family="Yu Gothic,Yu Gothic_MSFontService,sans-serif" font-weight="700" font-size="14.6925" transform="matrix(1 0 0 1.00148 373.864 63)">電荷を帯びた</text><text font-family="Yu Gothic,Yu Gothic_MSFontService,sans-serif" font-weight="700" font-size="14.6925" transform="matrix(1 0 0 1.00148 373.864 80)">側鎖</text><rect x="198.5" y="142.711" width="80.9999" height="27.0399" stroke="#000000" stroke-width="1.33371" stroke-linejoin="round" stroke-miterlimit="10" fill="none"/><text font-family="Yu Gothic,Yu Gothic_MSFontService,sans-serif" font-weight="700" font-size="14.6925" transform="matrix(1 0 0 1.00148 207.612 161)">アミノ酸</text><rect x="32.5" y="226.835" width="80.0001" height="28.0414" stroke="#000000" stroke-width="1.33371" stroke-linejoin="round" stroke-miterlimit="10" fill="none"/><text font-family="Yu Gothic,Yu Gothic_MSFontService,sans-serif" font-weight="700" font-size="14.6925" transform="matrix(1 0 0 1.00148 41.1406 246)">アミノ基</text><rect x="373.5" y="226.835" width="93" height="28.0414" stroke="#000000" stroke-width="1.33371" stroke-linejoin="round" stroke-miterlimit="10" fill="none"/><text font-family="Yu Gothic,Yu Gothic_MSFontService,sans-serif" font-weight="700" font-size="14.6925" transform="matrix(1 0 0 1.00148 382.223 246)">カルボン酸</text><rect x="388.5" y="142.711" width="62" height="28.0415" stroke="#000000" stroke-width="1.33371" stroke-linejoin="round" stroke-miterlimit="10" fill="none"/><text font-family="Yu Gothic,Yu Gothic_MSFontService,sans-serif" font-weight="700" font-size="14.6925" transform="matrix(1 0 0 1.00148 397.426 162)">側鎖</text><text font-family="Cambria Math,Cambria Math_MSFontService,sans-serif" font-weight="400" font-size="14.6925" transform="matrix(1 0 0 1.00148 66.448 34)">𝑫</text><text font-family="Cambria Math,Cambria Math_MSFontService,sans-serif" font-weight="400" font-size="14.6925" transform="matrix(1 0 0 1.00148 232.84 34)">𝑨</text><text font-family="Cambria Math,Cambria Math_MSFontService,sans-serif" font-weight="400" font-size="14.6925" transform="matrix(1 0 0 1.00148 414.162 34)">𝑬</text><text font-family="Cambria Math,Cambria Math_MSFontService,sans-serif" font-weight="400" font-size="14.6925" transform="matrix(1 0 0 1.00148 232.84 135)">𝑿</text><text font-family="Cambria Math,Cambria Math_MSFontService,sans-serif" font-weight="400" font-size="14.6925" transform="matrix(1 0 0 1.00148 413.91 134)">𝑹</text><text font-family="Cambria Math,Cambria Math_MSFontService,sans-serif" font-weight="400" font-size="14.6925" transform="matrix(1 0 0 1.00148 66.448 222)">𝑵</text><text font-family="Cambria Math,Cambria Math_MSFontService,sans-serif" font-weight="400" font-size="14.6925" transform="matrix(1 0 0 1.00148 413.91 222)">𝑪</text><path d="M184.5 57.2513 118.82 57.2513 118.82 55.9157 184.5 55.9157ZM126.487 61.8353 117.497 56.5835 126.487 51.3317C126.805 51.1459 127.213 51.2535 127.399 51.5721 127.584 51.8907 127.477 52.2996 127.159 52.4855L119.156 57.1604 119.156 56.0066 127.159 60.6815C127.477 60.8674 127.584 61.2763 127.399 61.5949 127.213 61.9135 126.805 62.0211 126.487 61.8353Z" fill="#172C51"/><path d="M359.18 57.2513 293.5 57.2513 293.5 55.9157 359.18 55.9157ZM351.513 51.3317 360.503 56.5835 351.513 61.8353C351.195 62.0211 350.787 61.9135 350.601 61.5949 350.416 61.2763 350.523 60.8674 350.841 60.6815L358.844 56.0066 358.844 57.1604 350.841 52.4855C350.523 52.2996 350.416 51.8907 350.601 51.5721 350.787 51.2535 351.195 51.1459 351.513 51.3317Z" fill="#172C51"/><path d="M237.167 75.6116 237.167 116.351 235.833 116.351 235.833 75.6116ZM241.744 108.674 236.5 117.677 231.256 108.674C231.07 108.355 231.178 107.946 231.496 107.76 231.814 107.575 232.222 107.682 232.408 108.001L237.076 116.015 235.924 116.015 240.592 108.001C240.778 107.682 241.186 107.575 241.504 107.76 241.822 107.946 241.93 108.355 241.744 108.674Z" fill="#172C51"/><path d="M117.729 109.035 190.488 135.621 190.031 136.876 117.271 110.289ZM184.855 128.683 191.503 136.703 181.26 138.551C180.898 138.616 180.551 138.375 180.486 138.012 180.421 137.649 180.661 137.302 181.024 137.236L190.141 135.591 189.747 136.675 183.829 129.537C183.594 129.253 183.633 128.832 183.916 128.596 184.2 128.361 184.62 128.4 184.855 128.683Z" fill="#172C51"/><path d="M286.844 174.186 363.713 220.573 363.025 221.717 286.156 175.33ZM359.509 212.684 364.503 221.829 354.096 221.681C353.728 221.676 353.434 221.372 353.439 221.004 353.444 220.635 353.747 220.34 354.115 220.345L363.379 220.477 362.784 221.465 358.339 213.325C358.162 213.002 358.281 212.596 358.604 212.419 358.927 212.242 359.333 212.361 359.509 212.684Z" fill="#172C51"/><path d="M0.340958-0.573101 78.2067 45.752 77.5248 46.8982-0.340958 0.573101ZM73.958 37.8984 79.0027 47.0015 68.5956 46.9119C68.2273 46.9087 67.9313 46.6076 67.9345 46.2393 67.9377 45.871 68.2388 45.575 68.6071 45.5782L77.871 45.658 77.282 46.6481 72.7915 38.5449C72.613 38.2227 72.7294 37.8169 73.0515 37.6383 73.3737 37.4598 73.7795 37.5763 73.958 37.8984Z" fill="#172C51" transform="matrix(-1 0 0 1.00148 196.5 174.758)"/><path d="M285.5 155.062 381.18 155.062 381.18 156.398 285.5 156.398ZM373.513 150.478 382.503 155.73 373.513 160.982C373.195 161.168 372.787 161.06 372.601 160.741 372.416 160.423 372.523 160.014 372.841 159.828L380.844 155.153 380.844 156.307 372.841 151.632C372.523 151.446 372.416 151.037 372.601 150.719 372.787 150.4 373.195 150.292 373.513 150.478Z" fill="#172C51"/><path d="M420.167 92.6368 420.167 116.351 418.833 116.351 418.833 92.6368ZM424.744 108.674 419.5 117.677 414.256 108.674C414.07 108.355 414.178 107.946 414.496 107.76 414.814 107.575 415.222 107.682 415.408 108.001L420.076 116.015 418.924 116.015 423.592 108.001C423.778 107.682 424.186 107.575 424.504 107.76 424.822 107.946 424.93 108.355 424.744 108.674Z" fill="#172C51"/><text font-family="Cambria Math,Cambria Math_MSFontService,sans-serif" font-weight="400" font-size="14.6925" transform="matrix(1 0 0 1.00148 146.519 50)">𝒊𝒔</text><text font-family="Cambria Math,Cambria Math_MSFontService,sans-serif" font-weight="400" font-size="14.6925" transform="matrix(1 0 0 1.00148 310.121 50)">𝒉𝒂𝒔</text><text font-family="Cambria Math,Cambria Math_MSFontService,sans-serif" font-weight="400" font-size="14.6925" transform="matrix(1 0 0 1.00148 131.404 133)">𝒊𝒔</text><text font-family="Cambria Math,Cambria Math_MSFontService,sans-serif" font-weight="400" font-size="14.6925" transform="matrix(1 0 0 1.00148 242.546 92)">𝒊𝒔</text><text font-family="Cambria Math,Cambria Math_MSFontService,sans-serif" font-weight="400" font-size="14.6925" transform="matrix(1 0 0 1.00148 426.599 107)">𝒊𝒔</text><text font-family="Cambria Math,Cambria Math_MSFontService,sans-serif" font-weight="400" font-size="14.6925" transform="matrix(1 0 0 1.00148 319.013 150)">𝒉𝒂𝒔</text><text font-family="Cambria Math,Cambria Math_MSFontService,sans-serif" font-weight="400" font-size="14.6925" transform="matrix(1 0 0 1.00148 327.904 195)">𝒉𝒂𝒔</text><text font-family="Cambria Math,Cambria Math_MSFontService,sans-serif" font-weight="400" font-size="14.6925" transform="matrix(1 0 0 1.00148 127.846 193)">𝒉𝒂𝒔</text><text font-family="Segoe UI Symbol,Segoe UI Symbol_MSFontService,sans-serif" font-weight="700" font-size="14.6925" transform="matrix(1 0 0 1.00148 175.294 106)">✔</text><text font-family="Segoe UI Symbol,Segoe UI Symbol_MSFontService,sans-serif" font-weight="700" font-size="14.6925" transform="matrix(1 0 0 1.00148 290.864 103)">✔</text><rect x="13.5" y="8.51252" width="478" height="267.395" stroke="#172C51" stroke-width="1.33371" stroke-miterlimit="8" fill="none"/><path d="M32.0286 3.02368C33.4252 3.39195 34.4977 4.18708 35.2462 5.40907 35.9947 6.63105 36.3689 8.10533 36.3689 9.83189 36.3689 11.5632 35.9959 13.0375 35.2498 14.2547 34.5037 15.4719 33.43 16.2647 32.0286 16.6329L31.8564 16.0805C32.9613 15.7123 33.7827 14.9853 34.3207 13.8996 34.8588 12.8139 35.1278 11.4341 35.1278 9.76015 35.1278 8.14359 34.86 6.80084 34.3243 5.7319 33.7887 4.66296 32.9589 3.94436 31.8349 3.57609ZM7.98566 3.02368 8.17936 3.57609C7.06021 3.94436 6.2316 4.66296 5.69354 5.7319 5.15549 6.80084 4.88646 8.14359 4.88646 9.76015 4.88646 11.4341 5.15549 12.8139 5.69354 13.8996 6.2316 14.9853 7.05303 15.7123 8.15784 16.0805L7.98566 16.6329C6.58432 16.2647 5.5106 15.4719 4.7645 14.2547 4.01839 13.0375 3.64534 11.5632 3.64534 9.83189 3.64534 8.10533 4.01959 6.63105 4.76808 5.40907 5.51658 4.18708 6.58911 3.39195 7.98566 3.02368Z" fill-rule="evenodd" transform="matrix(1 0 0 1.00148 523.046 132.357)"/><text font-family="Cambria Math,Cambria Math_MSFontService,sans-serif" font-weight="400" font-size="14.6925" transform="matrix(1 0 0 1.00148 531.489 146)">𝟐</text><text font-family="Cambria Math,Cambria Math_MSFontService,sans-serif" font-weight="400" font-size="14.6925" transform="matrix(1 0 0 1.00148 540.324 146)">.</text><text font-family="Cambria Math,Cambria Math_MSFontService,sans-serif" font-weight="400" font-size="14.6925" transform="matrix(1 0 0 1.00148 545.773 146)">𝟕</text></g></svg>