<svg width="454" height="113" xmlns="http://www.w3.org/2000/svg" xmlns:xlink="http://www.w3.org/1999/xlink" overflow="hidden"><g><rect x="0" y="0" width="454" height="112.544" fill="#FFFFFF"/><text font-family="Cambria Math,Cambria Math_MSFontService,sans-serif" font-weight="400" font-size="14.6235" transform="matrix(1 0 0 0.995961 36.7639 44)">𝑨</text><rect x="25.5" y="53.2839" width="34" height="27.887" stroke="#000000" stroke-width="1.0011" stroke-linejoin="round" stroke-miterlimit="10" fill="none"/><text font-family="Yu Gothic,Yu Gothic_MSFontService,sans-serif" font-weight="700" font-size="14.6235" transform="matrix(1 0 0 0.995961 34.5948 72)">人</text><text font-family="Cambria Math,Cambria Math_MSFontService,sans-serif" font-weight="400" font-size="14.6235" transform="matrix(1 0 0 0.995961 190.867 41)">𝑪</text><text font-family="Cambria Math,Cambria Math_MSFontService,sans-serif" font-weight="400" font-size="14.6235" transform="matrix(1 0 0 0.995961 204.122 41)">=</text><text font-family="Cambria Math,Cambria Math_MSFontService,sans-serif" font-weight="400" font-size="14.6235" transform="matrix(1 0 0 0.995961 219.212 41)">𝑨</text><text font-family="Cambria Math,Cambria Math_MSFontService,sans-serif" font-weight="400" font-size="14.6235" transform="matrix(1 0 0 0.995961 232.153 41)">⊔</text><text font-family="Cambria Math,Cambria Math_MSFontService,sans-serif" font-weight="400" font-size="14.6235" transform="matrix(1 0 0 0.995961 245.928 41)">𝑩</text><text font-family="Cambria Math,Cambria Math_MSFontService,sans-serif" font-weight="400" font-size="14.6235" transform="matrix(1 0 0 0.995961 405.423 42)">𝑩</text><rect x="179.5" y="52.288" width="93" height="26.891" stroke="#000000" stroke-width="1.0011" stroke-linejoin="round" stroke-miterlimit="10" fill="none"/><text font-family="Yu Gothic,Yu Gothic_MSFontService,sans-serif" font-weight="700" font-size="14.6235" transform="matrix(1 0 0 0.995961 188.364 70)">人または猫</text><rect x="396.5" y="53.2839" width="35" height="26.891" stroke="#000000" stroke-width="1.0011" stroke-linejoin="round" stroke-miterlimit="10" fill="none"/><text font-family="Yu Gothic,Yu Gothic_MSFontService,sans-serif" font-weight="700" font-size="14.6235" transform="matrix(1 0 0 0.995961 406.034 71)">猫</text><text font-family="Yu Gothic,Yu Gothic_MSFontService,sans-serif" font-weight="700" font-size="14.6235" transform="matrix(1 0 0 0.995961 71.4996 58)">～</text><text font-family="Yu Gothic,Yu Gothic_MSFontService,sans-serif" font-weight="700" font-size="14.6235" transform="matrix(1 0 0 0.995961 86.1825 58)">は</text><text font-family="Yu Gothic,Yu Gothic_MSFontService,sans-serif" font-weight="700" font-size="14.6235" transform="matrix(1 0 0 0.995961 100.865 58)">･･･</text><text font-family="Yu Gothic,Yu Gothic_MSFontService,sans-serif" font-weight="700" font-size="14.6235" transform="matrix(1 0 0 0.995961 122.89 58)">である</text><path d="M65.5 66.5626 172.179 66.5626 172.179 67.892 65.5 67.892ZM164.506 62.0002 173.503 67.2273 164.506 72.4544C164.188 72.6394 163.779 72.5323 163.593 72.2152 163.407 71.8981 163.515 71.4911 163.833 71.3061L171.842 66.6531 171.842 67.8015 163.833 63.1485C163.515 62.9635 163.407 62.5565 163.593 62.2394 163.779 61.9223 164.188 61.8152 164.506 62.0002Z" fill="#172C51"/><path d="M281.821 66.5626 388.5 66.5626 388.5 67.892 281.821 67.892ZM289.494 72.4544 280.497 67.2273 289.494 62.0002C289.812 61.8152 290.221 61.9223 290.407 62.2394 290.592 62.5565 290.485 62.9635 290.167 63.1485L282.158 67.8015 282.158 66.6531 290.167 71.3061C290.485 71.4911 290.592 71.8981 290.407 72.2152 290.221 72.5323 289.812 72.6394 289.494 72.4544Z" fill="#172C51"/><text font-family="Yu Gothic,Yu Gothic_MSFontService,sans-serif" font-weight="700" font-size="14.6235" transform="matrix(1 0 0 0.995961 295.464 62)">～</text><text font-family="Yu Gothic,Yu Gothic_MSFontService,sans-serif" font-weight="700" font-size="14.6235" transform="matrix(1 0 0 0.995961 310.147 62)">は</text><text font-family="Yu Gothic,Yu Gothic_MSFontService,sans-serif" font-weight="700" font-size="14.6235" transform="matrix(1 0 0 0.995961 324.83 62)">･･･</text><text font-family="Yu Gothic,Yu Gothic_MSFontService,sans-serif" font-weight="700" font-size="14.6235" transform="matrix(1 0 0 0.995961 346.854 62)">である</text><rect x="13.5" y="19.4212" width="428" height="72.7051" stroke="#172C51" stroke-width="1.3348" stroke-miterlimit="8" fill="none"/></g></svg>