<svg width="367" height="287" xmlns="http://www.w3.org/2000/svg" xmlns:xlink="http://www.w3.org/1999/xlink" overflow="hidden"><g><rect x="0" y="0" width="367" height="286.573" fill="#FFFFFF"/><rect x="78.5" y="33.4502" width="162" height="98.8526" stroke="#000000" stroke-width="1.33455" stroke-linejoin="round" stroke-miterlimit="10" fill="none"/><text font-family="Yu Gothic,Yu Gothic_MSFontService,sans-serif" font-weight="700" font-size="14.6582" transform="matrix(1 0 0 0.998512 87.7514 52)">シーケンス</text><path d="M118.043 3.01212C119.434 3.37898 120.503 4.17107 121.248 5.38838 121.994 6.60569 122.367 8.07433 122.367 9.79429 122.367 11.519 121.995 12.9877 121.252 14.2002 120.509 15.4127 119.439 16.2025 118.043 16.5693L117.871 16.019C118.972 15.6522 119.79 14.928 120.326 13.8464 120.862 12.7649 121.13 11.3904 121.13 9.72282 121.13 8.11244 120.863 6.77483 120.33 5.70998 119.796 4.64513 118.97 3.92927 117.85 3.56241ZM82.2323 3.01212 82.4253 3.56241C81.3104 3.92927 80.4849 4.64513 79.9489 5.70998 79.4129 6.77483 79.1449 8.11244 79.1449 9.72282 79.1449 11.3904 79.4129 12.7649 79.9489 13.8464 80.4849 14.928 81.3032 15.6522 82.4038 16.019L82.2323 16.5693C80.8363 16.2025 79.7667 15.4127 79.0234 14.2002 78.2802 12.9877 77.9086 11.519 77.9086 9.79429 77.9086 8.07433 78.2814 6.60569 79.027 5.38838 79.7727 4.17107 80.8411 3.37898 82.2323 3.01212Z" fill-rule="evenodd" transform="matrix(1.00149 0 0 1 87.7514 37.7616)"/><text font-family="Cambria Math,Cambria Math_MSFontService,sans-serif" font-weight="400" font-size="14.6582" transform="matrix(1 0 0 0.998512 170.58 52)">𝒑</text><text font-family="Cambria Math,Cambria Math_MSFontService,sans-serif" font-weight="400" font-size="14.6582" transform="matrix(1 0 0 0.998512 179.755 52)">,</text><text font-family="Cambria Math,Cambria Math_MSFontService,sans-serif" font-weight="400" font-size="14.6582" transform="matrix(1 0 0 0.998512 185.207 52)">𝒂</text><text font-family="Cambria Math,Cambria Math_MSFontService,sans-serif" font-weight="400" font-size="14.6582" transform="matrix(1 0 0 0.998512 194.382 52)">,</text><text font-family="Cambria Math,Cambria Math_MSFontService,sans-serif" font-weight="400" font-size="14.6582" transform="matrix(1 0 0 0.998512 199.833 52)">𝒋</text><text font-family="Cambria Math,Cambria Math_MSFontService,sans-serif" font-weight="400" font-size="14.6582" transform="matrix(1 0 0 0.998512 211.597 52)">,</text><text font-family="Yu Gothic,Yu Gothic_MSFontService,sans-serif" font-weight="700" font-size="14.6582" transform="matrix(1 0 0 0.998512 87.7514 69)">ここで</text><text font-family="Cambria Math,Cambria Math_MSFontService,sans-serif" font-weight="400" font-size="14.6582" transform="matrix(1 0 0 0.998512 135.128 69)">𝒑</text><text font-family="Yu Gothic,Yu Gothic_MSFontService,sans-serif" font-weight="700" font-size="14.6582" transform="matrix(1 0 0 0.998512 147.639 69)">は論文</text><text font-family="Calibri,Calibri_MSFontService,sans-serif" font-weight="700" font-size="14.6582" transform="matrix(1 0 0 0.998512 191.679 69)">,</text><text font-family="Cambria Math,Cambria Math_MSFontService,sans-serif" font-weight="400" font-size="14.6582" transform="matrix(1 0 0 0.998512 87.7514 87)">𝒂</text><text font-family="Yu Gothic,Yu Gothic_MSFontService,sans-serif" font-weight="700" font-size="14.6582" transform="matrix(1 0 0 0.998512 100.263 87)">は</text><text font-family="Cambria Math,Cambria Math_MSFontService,sans-serif" font-weight="400" font-size="14.6582" transform="matrix(1 0 0 0.998512 118.279 87)">𝒑</text><text font-family="Yu Gothic,Yu Gothic_MSFontService,sans-serif" font-weight="700" font-size="14.6582" transform="matrix(1 0 0 0.998512 130.79 87)">の著者</text><text font-family="Calibri,Calibri_MSFontService,sans-serif" font-weight="700" font-size="14.6582" transform="matrix(1 0 0 0.998512 174.83 87)">,</text><text font-family="Cambria Math,Cambria Math_MSFontService,sans-serif" font-weight="400" font-size="14.6582" transform="matrix(1 0 0 0.998512 87.7514 104)">𝒋</text><text font-family="Yu Gothic,Yu Gothic_MSFontService,sans-serif" font-weight="700" font-size="14.6582" transform="matrix(1 0 0 0.998512 96.7596 104)">は</text><text font-family="Cambria Math,Cambria Math_MSFontService,sans-serif" font-weight="400" font-size="14.6582" transform="matrix(1 0 0 0.998512 114.776 104)">𝒑</text><text font-family="Yu Gothic,Yu Gothic_MSFontService,sans-serif" font-weight="700" font-size="14.6582" transform="matrix(1 0 0 0.998512 127.287 104)">が出版された</text><text font-family="Yu Gothic,Yu Gothic_MSFontService,sans-serif" font-weight="700" font-size="14.6582" transform="matrix(1 0 0 0.998512 87.7514 122)">ジャーナル。</text><rect x="27.5" y="231.156" width="50.9999" height="26.9598" stroke="#000000" stroke-width="1.33455" stroke-linejoin="round" stroke-miterlimit="10" fill="none"/><text font-family="Yu Gothic,Yu Gothic_MSFontService,sans-serif" font-weight="700" font-size="14.6582" transform="matrix(1 0 0 0.998512 37.7551 249)">論文</text><rect x="133.5" y="231.156" width="52" height="26.9598" stroke="#000000" stroke-width="1.33455" stroke-linejoin="round" stroke-miterlimit="10" fill="none"/><text font-family="Yu Gothic,Yu Gothic_MSFontService,sans-serif" font-weight="700" font-size="14.6582" transform="matrix(1 0 0 0.998512 144.21 249)">著者</text><rect x="240.5" y="231.156" width="98" height="26.9598" stroke="#000000" stroke-width="1.33455" stroke-linejoin="round" stroke-miterlimit="10" fill="none"/><text font-family="Yu Gothic,Yu Gothic_MSFontService,sans-serif" font-weight="700" font-size="14.6582" transform="matrix(1 0 0 0.998512 252.076 249)">ジャーナル</text><text font-family="Cambria Math,Cambria Math_MSFontService,sans-serif" font-weight="400" font-size="14.6582" transform="matrix(1 0 0 0.998512 76.7589 175)">𝒑</text><path d="M133.975 138.762 65.9022 207.718 64.9518 206.783 133.025 137.826ZM74.5495 205.473 64.4978 208.192 67.0755 198.117C67.1667 197.761 67.5301 197.545 67.8872 197.636 68.2443 197.728 68.4598 198.09 68.3685 198.447L66.0739 207.415 65.253 206.607 74.2006 204.187C74.5563 204.091 74.9228 204.301 75.0191 204.656 75.1155 205.011 74.9052 205.377 74.5495 205.473Z" fill="#172C51"/><text font-family="Cambria Math,Cambria Math_MSFontService,sans-serif" font-weight="400" font-size="14.6582" transform="matrix(1 0 0 0.998512 44.1748 225)">𝑨</text><text font-family="Cambria Math,Cambria Math_MSFontService,sans-serif" font-weight="400" font-size="10.7005" transform="matrix(1 0 0 0.998512 53.8503 228)">𝟏</text><text font-family="Cambria Math,Cambria Math_MSFontService,sans-serif" font-weight="400" font-size="14.6582" transform="matrix(1 0 0 0.998512 151.219 226)">𝑨</text><text font-family="Cambria Math,Cambria Math_MSFontService,sans-serif" font-weight="400" font-size="10.7005" transform="matrix(1 0 0 0.998512 160.895 229)">𝟐</text><text font-family="Cambria Math,Cambria Math_MSFontService,sans-serif" font-weight="400" font-size="14.6582" transform="matrix(1 0 0 0.998512 279.673 225)">𝑨</text><text font-family="Cambria Math,Cambria Math_MSFontService,sans-serif" font-weight="400" font-size="10.7005" transform="matrix(1 0 0 0.998512 289.349 228)">𝟑</text><path d="M69.3718 0.467729 1.40058 69.4241 0.451568 68.4887 68.4228-0.467729ZM10.0346 67.1795-0.00216789 69.8981 2.57174 59.8232C2.66283 59.4667 3.02568 59.2515 3.38221 59.3426 3.73873 59.4337 3.95392 59.7966 3.86283 60.1531L1.57165 69.1213 0.751907 68.3133 9.68621 65.8933C10.0414 65.7971 10.4073 66.007 10.5035 66.3622 10.5997 66.7173 10.3898 67.0833 10.0346 67.1795Z" fill="#172C51" transform="matrix(-1.00149 0 0 1 266.5 138.294)"/><path d="M162.167 136.297 162.167 205.872 160.833 205.872 160.833 136.297ZM166.747 198.212 161.5 207.194 156.253 198.212C156.067 197.894 156.175 197.486 156.493 197.301 156.811 197.116 157.22 197.223 157.405 197.541L162.076 205.536 160.924 205.536 165.594 197.541C165.78 197.223 166.189 197.116 166.507 197.301 166.825 197.486 166.933 197.894 166.747 198.212Z" fill="#172C51"/><text font-family="Cambria Math,Cambria Math_MSFontService,sans-serif" font-weight="400" font-size="14.6582" transform="matrix(1 0 0 0.998512 146.38 176)">𝒂</text><text font-family="Cambria Math,Cambria Math_MSFontService,sans-serif" font-weight="400" font-size="14.6582" transform="matrix(1 0 0 0.998512 243.226 175)">𝒋</text><rect x="8.5" y="10.4844" width="349" height="267.601" stroke="#172C51" stroke-width="1.33455" stroke-miterlimit="8" fill="none"/><text font-family="Cambria Math,Cambria Math_MSFontService,sans-serif" font-weight="400" font-size="14.6582" transform="matrix(1 0 0 0.998512 152.954 29)">𝑹</text></g></svg>