<svg width="397" height="227" xmlns="http://www.w3.org/2000/svg" xmlns:xlink="http://www.w3.org/1999/xlink" overflow="hidden"><defs><clipPath id="clip0"><rect x="0" y="0" width="397" height="227"/></clipPath></defs><g clip-path="url(#clip0)"><rect x="0" y="0" width="397" height="227.071" fill="#FFFFFF"/><text font-family="Calibri,Calibri_MSFontService,sans-serif" font-weight="700" font-size="14.6774" transform="matrix(1 0 0 1.00031 285.346 24)">B</text><text font-family="Calibri,Calibri_MSFontService,sans-serif" font-weight="700" font-size="14.6774" transform="matrix(1 0 0 1.00031 293.517 24)">:</text><text font-family="Yu Gothic,Yu Gothic_MSFontService,sans-serif" font-weight="700" font-size="14.6774" transform="matrix(1 0 0 1.00031 297.518 24)">＝</text><rect x="205.5" y="33.5106" width="173" height="174.055" stroke="#172C51" stroke-width="1.33389" stroke-miterlimit="8" fill="none"/><path d="M242 151.048C242 147.733 244.686 145.046 248 145.046 251.314 145.046 254 147.733 254 151.048 254 154.362 251.314 157.049 248 157.049 244.686 157.049 242 154.362 242 151.048Z" fill-rule="evenodd"/><path d="M332 76.0239C332 72.7092 334.686 70.022 338 70.022 341.314 70.022 344 72.7092 344 76.0239 344 79.3387 341.314 82.0258 338 82.0258 334.686 82.0258 332 79.3387 332 76.0239Z" fill-rule="evenodd"/><path d="M291 184.058C291 180.743 293.91 178.056 297.5 178.056 301.09 178.056 304 180.743 304 184.058 304 187.373 301.09 190.06 297.5 190.06 293.91 190.06 291 187.373 291 184.058Z" fill-rule="evenodd"/><text font-family="Yu Gothic,Yu Gothic_MSFontService,sans-serif" font-weight="700" font-size="14.6774" transform="matrix(1 0 0 1.00031 228.707 138)">”</text><text font-family="Calibri,Calibri_MSFontService,sans-serif" font-weight="700" font-size="14.6774" transform="matrix(1 0 0 1.00031 235.71 138)">Bob”</text><text font-family="Calibri,Calibri_MSFontService,sans-serif" font-weight="700" font-size="14.6774" transform="matrix(1 0 0 1.00031 331.369 66)">r8</text><text font-family="Yu Gothic,Yu Gothic_MSFontService,sans-serif" font-weight="700" font-size="14.6774" transform="matrix(1 0 0 1.00031 289.85 174)">♣</text><rect x="19.5" y="52.5166" width="127" height="127.04" stroke="#172C51" stroke-width="1.33389" stroke-miterlimit="8" fill="none"/><text font-family="Calibri,Calibri_MSFontService,sans-serif" font-weight="700" font-size="14.6774" transform="matrix(1 0 0 1.00031 67.4598 41)">A:</text><text font-family="Yu Gothic,Yu Gothic_MSFontService,sans-serif" font-weight="700" font-size="14.6774" transform="matrix(1 0 0 1.00031 80.2985 41)">＝</text><path d="M107 88.0277C107 84.7129 109.686 82.0258 113 82.0258 116.314 82.0258 119 84.7129 119 88.0277 119 91.3424 116.314 94.0296 113 94.0296 109.686 94.0296 107 91.3424 107 88.0277Z" fill-rule="evenodd"/><path d="M46 88.0277C46 84.7129 48.6863 82.0258 52 82.0258 55.3137 82.0258 58 84.7129 58 88.0277 58 91.3424 55.3137 94.0296 52 94.0296 48.6863 94.0296 46 91.3424 46 88.0277Z" fill-rule="evenodd"/><path d="M76 153.048C76 149.733 78.6863 147.046 82 147.046 85.3137 147.046 88 149.733 88 153.048 88 156.363 85.3137 159.05 82 159.05 78.6863 159.05 76 156.363 76 153.048Z" fill-rule="evenodd"/><text font-family="Calibri,Calibri_MSFontService,sans-serif" font-weight="700" font-size="14.6774" transform="matrix(1 0 0 1.00031 48.0391 78)">a</text><text font-family="Calibri,Calibri_MSFontService,sans-serif" font-weight="700" font-size="14.6774" transform="matrix(1 0 0 1.00031 109.185 79)">7</text><text font-family="Calibri,Calibri_MSFontService,sans-serif" font-weight="700" font-size="14.6774" transform="matrix(1 0 0 1.00031 76.4826 143)">Q</text></g></svg>