<svg width="236" height="217" xmlns="http://www.w3.org/2000/svg" xmlns:xlink="http://www.w3.org/1999/xlink" overflow="hidden"><g><rect x="0" y="0" width="236" height="216.82" fill="#FFFFFF"/><text font-family="Cambria Math,Cambria Math_MSFontService,sans-serif" font-weight="400" font-size="13.6058" transform="matrix(1 0 0 0.999171 98.6631 33)">𝑿</text><text font-family="Cambria Math,Cambria Math_MSFontService,sans-serif" font-weight="400" font-size="13.6058" transform="matrix(1 0 0 0.999171 111.174 33)">×</text><text font-family="Cambria Math,Cambria Math_MSFontService,sans-serif" font-weight="400" font-size="13.6058" transform="matrix(1 0 0 0.999171 123.852 33)">𝒀</text><text font-family="Cambria Math,Cambria Math_MSFontService,sans-serif" font-weight="400" font-size="13.6058" transform="matrix(1 0 0 0.999171 98.6631 197)">𝒀</text><text font-family="Cambria Math,Cambria Math_MSFontService,sans-serif" font-weight="400" font-size="13.6058" transform="matrix(1 0 0 0.999171 110.342 197)">×</text><text font-family="Cambria Math,Cambria Math_MSFontService,sans-serif" font-weight="400" font-size="13.6058" transform="matrix(1 0 0 0.999171 123.019 197)">𝑿</text><text font-family="Cambria Math,Cambria Math_MSFontService,sans-serif" font-weight="400" font-size="13.6058" transform="matrix(1 0 0 0.999171 23.4246 115)">𝑿</text><text font-family="Cambria Math,Cambria Math_MSFontService,sans-serif" font-weight="400" font-size="13.6058" transform="matrix(1 0 0 0.999171 203.774 115)">𝒀</text><text font-family="Cambria Math,Cambria Math_MSFontService,sans-serif" font-weight="400" font-size="13.6058" transform="matrix(1 0 0 0.999171 51.219 161)">𝒑</text><text font-family="Cambria Math,Cambria Math_MSFontService,sans-serif" font-weight="400" font-size="9.93221" transform="matrix(1 0 0 0.999171 59.713 163)">𝟐</text><text font-family="Cambria Math,Cambria Math_MSFontService,sans-serif" font-weight="400" font-size="13.6058" transform="matrix(1 0 0 0.999171 170.519 158)">𝒑</text><text font-family="Cambria Math,Cambria Math_MSFontService,sans-serif" font-weight="400" font-size="9.93221" transform="matrix(1 0 0 0.999171 179.013 161)">𝟏</text><text font-family="Cambria Math,Cambria Math_MSFontService,sans-serif" font-weight="400" font-size="13.6058" transform="matrix(1 0 0 0.999171 162.951 61)">𝝅</text><text font-family="Cambria Math,Cambria Math_MSFontService,sans-serif" font-weight="400" font-size="9.93221" transform="matrix(1 0 0 0.999171 172.278 64)">𝟐</text><text font-family="Cambria Math,Cambria Math_MSFontService,sans-serif" font-weight="400" font-size="13.6058" transform="matrix(1 0 0 0.999171 54.9054 62)">𝝅</text><text font-family="Cambria Math,Cambria Math_MSFontService,sans-serif" font-weight="400" font-size="9.93221" transform="matrix(1 0 0 0.999171 64.2322 65)">𝟏</text><path d="M44.9603 2.8852 47.6089 8.84607 47.6089 9.33728 44.9603 15.3048 44.2501 15.0525 46.3808 9.09167 44.2501 3.12417ZM5.28883 2.8852 5.99245 3.13744 3.86168 9.09831 5.99245 15.0658 5.28883 15.3048 2.6403 9.34392 2.6403 8.85271Z" fill-rule="evenodd" transform="matrix(1.00083 0 0 1 118.743 93.4965)"/><text font-family="Cambria Math,Cambria Math_MSFontService,sans-serif" font-weight="400" font-size="13.6058" transform="matrix(1 0 0 0.999171 125.452 106)">𝝅</text><text font-family="Cambria Math,Cambria Math_MSFontService,sans-serif" font-weight="400" font-size="9.93221" transform="matrix(1 0 0 0.999171 134.779 109)">𝟏</text><text font-family="Cambria Math,Cambria Math_MSFontService,sans-serif" font-weight="400" font-size="13.6058" transform="matrix(1 0 0 0.999171 141.341 106)">,</text><text font-family="Cambria Math,Cambria Math_MSFontService,sans-serif" font-weight="400" font-size="13.6058" transform="matrix(1 0 0 0.999171 146.437 106)">𝝅</text><text font-family="Cambria Math,Cambria Math_MSFontService,sans-serif" font-weight="400" font-size="9.93221" transform="matrix(1 0 0 0.999171 155.764 109)">𝟐</text><path d="M117.166 44.4631 117.166 175.036 115.834 175.036 115.834 44.4631ZM121.739 167.383 116.5 176.357 111.261 167.383C111.076 167.066 111.183 166.658 111.501 166.473 111.819 166.288 112.227 166.395 112.412 166.713L117.075 174.7 115.925 174.7 120.588 166.713C120.773 166.395 121.181 166.288 121.499 166.473 121.817 166.658 121.924 167.066 121.739 167.383Z" fill="#172C51"/><path d="M105.889 45.0033 31.9591 98.189 31.1806 97.1086 105.111 43.923ZM40.8469 97.4249 30.4975 98.4202 34.7247 88.929C34.8743 88.5932 35.2681 88.442 35.6042 88.5915 35.9404 88.741 36.0916 89.1344 35.942 89.4703L32.1792 97.9189 31.5067 96.9857 40.7192 96.0998C41.0854 96.0646 41.4109 96.3327 41.4462 96.6986 41.4814 97.0645 41.2131 97.3897 40.8469 97.4249Z" fill="#172C51"/><path d="M74.3311 0.537702 1.457 53.716 0.672248 52.6406 73.5463-0.537702ZM10.3317 52.8959-0.00249217 53.9571 4.16059 44.4392C4.30791 44.1023 4.70039 43.9487 5.0372 44.0961 5.37402 44.2434 5.52763 44.6358 5.38031 44.9727L1.67451 53.4451 0.996658 52.5162 10.1957 51.5716C10.5614 51.534 10.8883 51.8 10.9259 52.1657 10.9634 52.5314 10.6974 52.8584 10.3317 52.8959Z" fill="#172C51" transform="matrix(-1.00083 1.22465e-16 1.22566e-16 1 106.5 122.399)"/><path d="M74.3311 0.537702 1.457 53.716 0.672248 52.6406 73.5463-0.537702ZM10.3317 52.8959-0.00249217 53.9571 4.16059 44.4392C4.30791 44.1023 4.70039 43.9487 5.0372 44.0961 5.37402 44.2434 5.52763 44.6358 5.38031 44.9727L1.67451 53.4451 0.996658 52.5162 10.1957 51.5716C10.5614 51.534 10.8883 51.8 10.9259 52.1657 10.9634 52.5314 10.6974 52.8584 10.3317 52.8959Z" fill="#172C51" transform="matrix(-1.00083 0 0 1 201.5 43.4639)"/><path d="M201.893 121.937 128.958 175.115 128.173 174.04 201.107 120.862ZM137.84 174.295 127.497 175.356 131.664 165.839C131.811 165.502 132.204 165.348 132.541 165.495 132.878 165.643 133.032 166.035 132.885 166.372L129.176 174.844 128.497 173.916 137.704 172.971C138.07 172.933 138.397 173.199 138.435 173.565 138.473 173.931 138.206 174.258 137.84 174.295Z" fill="#172C51"/></g></svg>