<svg width="284" height="217" xmlns="http://www.w3.org/2000/svg" xmlns:xlink="http://www.w3.org/1999/xlink" overflow="hidden"><defs><clipPath id="clip0"><rect x="0" y="0" width="284" height="217"/></clipPath></defs><g clip-path="url(#clip0)"><rect x="0" y="0" width="284" height="217.282" fill="#FFFFFF"/><text font-family="Cambria Math,Cambria Math_MSFontService,sans-serif" font-weight="400" font-size="14.6442" transform="matrix(1 0 0 0.996708 61.8373 22)">𝑿</text><text font-family="Cambria Math,Cambria Math_MSFontService,sans-serif" font-weight="400" font-size="14.6442" transform="matrix(1 0 0 0.996708 75.2876 22)">×</text><text font-family="Cambria Math,Cambria Math_MSFontService,sans-serif" font-weight="400" font-size="14.6442" transform="matrix(1 0 0 0.996708 89.0719 22)">𝒀</text><text font-family="Cambria Math,Cambria Math_MSFontService,sans-serif" font-weight="400" font-size="14.6442" transform="matrix(1 0 0 0.996708 74.0444 204)">𝑨</text><text font-family="Cambria Math,Cambria Math_MSFontService,sans-serif" font-weight="400" font-size="14.6442" transform="matrix(1 0 0 0.996708 9.90905 116)">𝑿</text><text font-family="Cambria Math,Cambria Math_MSFontService,sans-serif" font-weight="400" font-size="14.6442" transform="matrix(1 0 0 0.996708 137.98 119)">𝒀</text><text font-family="Cambria Math,Cambria Math_MSFontService,sans-serif" font-weight="400" font-size="14.6442" transform="matrix(1 0 0 0.996708 16.8507 61)">𝝅</text><text font-family="Cambria Math,Cambria Math_MSFontService,sans-serif" font-weight="400" font-size="10.6902" transform="matrix(1 0 0 0.996708 26.8683 64)">𝟏</text><text font-family="Cambria Math,Cambria Math_MSFontService,sans-serif" font-weight="400" font-size="14.6442" transform="matrix(1 0 0 0.996708 111.147 55)">𝝅</text><text font-family="Cambria Math,Cambria Math_MSFontService,sans-serif" font-weight="400" font-size="10.6902" transform="matrix(1 0 0 0.996708 121.164 58)">𝟐</text><text font-family="Cambria Math,Cambria Math_MSFontService,sans-serif" font-weight="400" font-size="14.6442" transform="matrix(1 0 0 0.996708 22.2821 163)">𝒇</text><text font-family="Cambria Math,Cambria Math_MSFontService,sans-serif" font-weight="400" font-size="14.6442" transform="matrix(1 0 0 0.996708 114.436 163)">𝒈</text><path d="M68.9638 188.276 20.7522 123.552 21.8246 122.758 70.0362 187.483ZM21.6482 132.419 20.4982 122.094 30.0816 126.179C30.4207 126.323 30.5781 126.715 30.4331 127.053 30.288 127.391 29.8956 127.547 29.5564 127.403L21.0257 123.767 21.952 123.082 22.9757 132.272C23.0164 132.638 22.7522 132.967 22.3857 133.008 22.0191 133.048 21.6889 132.785 21.6482 132.419Z" fill="#172C51"/><path d="M48.3043 66.1796 0.251335 1.4552 1.32024 0.661617 49.3732 65.386ZM1.14439 10.3226-0.00183901-0.00247713 9.55002 4.08207C9.88804 4.22662 10.0449 4.61781 9.90034 4.95583 9.75579 5.29384 9.3646 5.45069 9.02658 5.30614L0.523928 1.67025 1.44723 0.984771 2.46755 10.1757C2.50811 10.5411 2.24479 10.8702 1.87941 10.9108 1.51403 10.9513 1.18495 10.688 1.14439 10.3226Z" fill="#172C51" transform="matrix(-1.0033 0 0 1 137.5 123.093)"/><path d="M48.3014 67.1725 0.240716 1.45675 1.31529 0.670864 49.376 66.3866ZM1.07021 10.3306-0.00182125-0.00249043 9.52045 4.15057C9.85742 4.29754 10.0114 4.68985 9.86448 5.02682 9.71751 5.36379 9.3252 5.51782 8.98823 5.37085L0.511917 1.67397 1.44011 0.995142 2.39439 10.1932C2.43232 10.5589 2.16665 10.886 1.80099 10.924 1.43532 10.9619 1.10814 10.6962 1.07021 10.3306Z" fill="#172C51" transform="matrix(1.0033 0 0 -1 21.5 103.159)"/><path d="M89.0323 34.9812 138.234 99.713 137.169 100.517 87.9676 35.7851ZM137.251 90.8548 138.502 101.168 128.879 97.1766C128.539 97.0353 128.377 96.6457 128.519 96.3063 128.661 95.9669 129.052 95.8063 129.392 95.9475L137.958 99.5008 137.038 100.195 135.925 91.0145C135.881 90.6496 136.142 90.3179 136.508 90.2738 136.874 90.2297 137.207 90.4898 137.251 90.8548Z" fill="#172C51"/><path d="M78.8321 186.883 78.8321 181.558 80.1678 181.558 80.1678 186.883ZM78.8321 177.564 78.8321 172.239 80.1678 172.239 80.1678 177.564ZM78.8321 168.245 78.8321 162.92 80.1678 162.92 80.1678 168.245ZM78.8321 158.926 78.8321 153.601 80.1678 153.601 80.1678 158.926ZM78.8321 149.607 78.8321 144.282 80.1678 144.282 80.1678 149.607ZM78.8321 140.288 78.8321 134.963 80.1678 134.963 80.1678 140.288ZM78.8321 130.969 78.8321 125.644 80.1678 125.644 80.1678 130.969ZM78.8321 121.65 78.8321 116.325 80.1678 116.325 80.1678 121.65ZM78.8321 112.331 78.8321 107.006 80.1678 107.006 80.1678 112.331ZM78.8321 103.012 78.8321 97.6865 80.1678 97.6865 80.1678 103.012ZM78.8321 93.6926 78.8321 88.3675 80.1678 88.3675 80.1678 93.6926ZM78.8321 84.3736 78.8321 79.0484 80.1678 79.0484 80.1678 84.3736ZM78.8321 75.0546 78.8321 69.7294 80.1678 69.7294 80.1678 75.0546ZM78.8321 65.7356 78.8321 60.4104 80.1678 60.4104 80.1678 65.7356ZM78.8321 56.4165 78.8321 51.0914 80.1678 51.0914 80.1678 56.4165ZM78.8321 47.0975 78.8321 41.7724 80.1678 41.7724 80.1678 47.0975ZM78.8321 37.7785 78.8321 35.7044 80.1678 35.7044 80.1678 37.7785ZM74.2482 43.3568 79.5 34.3834 84.7517 43.3568C84.9376 43.6743 84.83 44.0819 84.5114 44.2671 84.1928 44.4524 83.7838 44.3451 83.598 44.0275L78.9231 36.0398 80.0768 36.0398 75.4019 44.0275C75.2161 44.3451 74.8072 44.4524 74.4886 44.2671 74.17 44.0819 74.0623 43.6743 74.2482 43.3568Z" fill="#172C51"/><path d="M32.8566 3.10113 35.7002 9.50112 35.7002 10.0285 32.8566 16.4356 32.094 16.1648 34.3817 9.76481 32.094 3.3577ZM6.06427 3.10113 6.81973 3.37195 4.53198 9.77194 6.81973 16.1791 6.06427 16.4356 3.22062 10.0356 3.22062 9.50824Z" fill-rule="evenodd" transform="matrix(1.0033 0 0 1 30.9283 105.134)"/><text font-family="Cambria Math,Cambria Math_MSFontService,sans-serif" font-weight="400" font-size="14.6442" transform="matrix(1 0 0 0.996708 38.5483 119)">𝒇</text><text font-family="Cambria Math,Cambria Math_MSFontService,sans-serif" font-weight="400" font-size="14.6442" transform="matrix(1 0 0 0.996708 46.8964 119)">,</text><text font-family="Cambria Math,Cambria Math_MSFontService,sans-serif" font-weight="400" font-size="14.6442" transform="matrix(1 0 0 0.996708 52.3526 119)">𝒈</text><path d="M31.5555 3.00381C32.9429 3.36966 34.0083 4.15956 34.7519 5.37352 35.4955 6.58747 35.8673 8.05206 35.8673 9.76727 35.8673 11.4872 35.4967 12.9518 34.7555 14.161 34.0143 15.3702 32.9476 16.1578 31.5555 16.5236L31.3844 15.9748C32.482 15.609 33.298 14.8868 33.8325 13.8082 34.3671 12.7297 34.6343 11.359 34.6343 9.69601 34.6343 8.09007 34.3683 6.75614 33.8361 5.69423 33.304 4.63232 32.4796 3.91843 31.3631 3.55258ZM7.53167 3.00381 7.7241 3.55258C6.6123 3.91843 5.78913 4.63232 5.25461 5.69423 4.72009 6.75614 4.45283 8.09007 4.45283 9.69601 4.45283 11.359 4.72009 12.7297 5.25461 13.8082 5.78913 14.8868 6.60517 15.609 7.70272 15.9748L7.53167 16.5236C6.13954 16.1578 5.07288 15.3702 4.33168 14.161 3.59047 12.9518 3.21987 11.4872 3.21987 9.76727 3.21987 8.05206 3.59166 6.58747 4.33524 5.37352 5.07882 4.15956 6.14429 3.36966 7.53167 3.00381Z" fill-rule="evenodd" transform="matrix(1.0033 0 0 1 235.129 104.6)"/><text font-family="Cambria Math,Cambria Math_MSFontService,sans-serif" font-weight="400" font-size="14.6442" transform="matrix(1 0 0 0.996708 243.17 119)">𝟑</text><text font-family="Cambria Math,Cambria Math_MSFontService,sans-serif" font-weight="400" font-size="14.6442" transform="matrix(1 0 0 0.996708 252.019 119)">.</text><text font-family="Cambria Math,Cambria Math_MSFontService,sans-serif" font-weight="400" font-size="14.6442" transform="matrix(1 0 0 0.996708 257.475 119)">𝟐</text></g></svg>