<svg width="110" height="110" xmlns="http://www.w3.org/2000/svg" xmlns:xlink="http://www.w3.org/1999/xlink" overflow="hidden"><g><rect x="0" y="0" width="110" height="110" fill="#FFFFFF"/><text font-family="Calibri,Calibri_MSFontService,sans-serif" font-weight="700" font-size="14.2298" transform="matrix(1 0 0 1 19.5811 60)">X</text><text font-family="Calibri,Calibri_MSFontService,sans-serif" font-weight="700" font-size="14.2298" transform="matrix(1 0 0 1 82.8033 60)">Y</text><path d="M33.1726 47.6335 33.6796 45.1844 35.1301 42.7824 37.3556 40.5646 40.2218 38.5915 43.6011 36.9298 47.3672 35.6507 51.3934 34.8276 55.5518 34.5363 59.7098 34.823 63.7355 35.633 67.5011 36.892 70.8988 38.5365 74.3376 41.542 73.8975 42.0455 70.4926 39.0696 70.567 39.1188 67.229 37.5032 67.2687 37.5194 63.5431 36.2738 63.5832 36.2845 59.5992 35.4829 59.6422 35.4886 55.529 35.205 55.5753 35.205 51.4621 35.4931 51.5057 35.4872 47.5217 36.3016 47.5623 36.2906 43.8367 37.556 43.8767 37.5395 40.5388 39.1808 40.5809 39.1562 37.7598 41.0982 37.8062 41.0596 35.6311 43.2272 35.6813 43.1632 34.2816 45.4811 34.3228 45.376 33.8275 47.7691ZM76.844 38.5607 77.6039 47.5 69.9966 42.7443Z"/><path d="M77.9327 65.5605 77.4279 68.306 75.9847 70.9964 73.7629 73.489 70.8971 75.7099 67.5161 77.5815 63.7468 79.0228 59.7161 79.9504 55.5521 80.2788 51.3885 79.955 47.3583 79.0405 43.5895 77.6194 40.2086 75.774 37.3186 73.5655 36.245 71.8395 36.8129 71.4864 37.8541 73.1604 37.7732 73.0713 40.5943 75.2271 40.5515 75.1993 43.8894 77.0213 43.8472 77.0019 47.5727 78.4067 47.5288 78.3935 51.5127 79.2975 51.4647 79.2902 55.5779 79.6101 55.5257 79.6101 59.6389 79.2857 59.5902 79.2932 63.5742 78.3764 63.5297 78.3899 67.2553 76.9653 67.2128 76.9851 70.5507 75.1373 70.5078 75.1656 73.3289 72.9793 73.2842 73.0211 75.4592 70.581 75.4142 70.6454 76.8139 68.036 76.7797 68.1336 77.275 65.4396ZM33.5578 74.6726 33.5 65.7014 40.7117 71.0379Z"/><text font-family="Cambria Math,Cambria Math_MSFontService,sans-serif" font-weight="400" font-size="14.2298" transform="matrix(1 0 0 1 49.9305 92)">𝒈</text><text font-family="Cambria Math,Cambria Math_MSFontService,sans-serif" font-weight="400" font-size="14.2298" transform="matrix(1 0 0 1 50.7473 26)">𝒇</text></g></svg>