<svg width="662" height="238" xmlns="http://www.w3.org/2000/svg" xmlns:xlink="http://www.w3.org/1999/xlink" overflow="hidden"><defs><clipPath id="clip0"><rect x="0" y="0" width="662" height="238"/></clipPath></defs><g clip-path="url(#clip0)"><rect x="0" y="0" width="662" height="237.654" fill="#FFFFFF"/><rect x="29.5" y="33.4512" width="78" height="45.9332" stroke="#000000" stroke-width="1.00076" stroke-linejoin="round" stroke-miterlimit="10" fill="none"/><text font-family="Yu Gothic,Yu Gothic_MSFontService,sans-serif" font-weight="700" font-size="14.6564" transform="matrix(1 0 0 0.998545 38.2215 52)">自動車の</text><text font-family="Yu Gothic,Yu Gothic_MSFontService,sans-serif" font-weight="700" font-size="14.6564" transform="matrix(1 0 0 0.998545 38.2215 69)">所有者</text><rect x="51.5" y="200.208" width="34" height="26.9608" stroke="#000000" stroke-width="1.00076" stroke-linejoin="round" stroke-miterlimit="10" fill="none"/><text font-family="Yu Gothic,Yu Gothic_MSFontService,sans-serif" font-weight="700" font-size="14.6564" transform="matrix(1 0 0 0.998545 60.4531 218)">人</text><rect x="322.5" y="23.4658" width="91.0001" height="62.9084" stroke="#000000" stroke-width="1.00076" stroke-linejoin="round" stroke-miterlimit="10" fill="none"/><text font-family="Yu Gothic,Yu Gothic_MSFontService,sans-serif" font-weight="700" font-size="14.6564" transform="matrix(1 0 0 0.998545 331.777 41)">ペア</text><path d="M58.6238 3.01186C60.0149 3.37869 61.0832 4.17071 61.8288 5.38792 62.5743 6.60513 62.9471 8.07364 62.9471 9.79345 62.9471 11.518 62.5755 12.9865 61.8323 14.199 61.0891 15.4114 60.0196 16.2011 58.6238 16.5679L58.4523 16.0176C59.5527 15.6508 60.371 14.9267 60.9069 13.8453 61.4429 12.7638 61.7109 11.3894 61.7109 9.72199 61.7109 8.11175 61.4441 6.77425 60.9105 5.70949 60.3769 4.64473 59.5504 3.92894 58.4308 3.5621ZM34.9224 3.01186 35.1154 3.5621C34.0006 3.92894 33.1752 4.64473 32.6393 5.70949 32.1033 6.77425 31.8354 8.11175 31.8354 9.72199 31.8354 11.3894 32.1033 12.7638 32.6393 13.8453 33.1752 14.9267 33.9935 15.6508 35.0939 16.0176L34.9224 16.5679C33.5266 16.2011 32.4571 15.4114 31.7139 14.199 30.9707 12.9865 30.5991 11.518 30.5991 9.79345 30.5991 8.07364 30.9719 6.60513 31.7174 5.38792 32.463 4.17071 33.5313 3.37869 34.9224 3.01186Z" fill-rule="evenodd" transform="matrix(1.00146 0 0 1 331.777 27.3542)"/><text font-family="Cambria Math,Cambria Math_MSFontService,sans-serif" font-weight="400" font-size="14.6564" transform="matrix(1 0 0 0.998545 367.223 41)">𝒙</text><text font-family="Cambria Math,Cambria Math_MSFontService,sans-serif" font-weight="400" font-size="14.6564" transform="matrix(1 0 0 0.998545 375.73 41)">,</text><text font-family="Cambria Math,Cambria Math_MSFontService,sans-serif" font-weight="400" font-size="14.6564" transform="matrix(1 0 0 0.998545 381.181 41)">𝒚</text><text font-family="Cambria Math,Cambria Math_MSFontService,sans-serif" font-weight="400" font-size="14.6564" transform="matrix(1 0 0 0.998545 396.112 41)">,</text><text font-family="Cambria Math,Cambria Math_MSFontService,sans-serif" font-weight="400" font-size="14.6564" transform="matrix(1 0 0 0.998545 331.777 58)">𝒙</text><text font-family="Cambria Math,Cambria Math_MSFontService,sans-serif" font-weight="400" font-size="14.6564" transform="matrix(1 0 0 0.998545 340.283 58)"></text><text font-family="Yu Gothic,Yu Gothic_MSFontService,sans-serif" font-weight="700" font-size="14.6564" transform="matrix(1 0 0 0.998545 343.452 58)">は人</text><text font-family="Calibri,Calibri_MSFontService,sans-serif" font-weight="700" font-size="14.6564" transform="matrix(1 0 0 0.998545 372.808 58)">,</text><text font-family="Cambria Math,Cambria Math_MSFontService,sans-serif" font-weight="400" font-size="14.6564" transform="matrix(1 0 0 0.998545 331.777 76)">𝒚</text><text font-family="Cambria Math,Cambria Math_MSFontService,sans-serif" font-weight="400" font-size="14.6564" transform="matrix(1 0 0 0.998545 340.617 76)"></text><text font-family="Yu Gothic,Yu Gothic_MSFontService,sans-serif" font-weight="700" font-size="14.6564" transform="matrix(1 0 0 0.998545 343.786 76)">は自動車</text><rect x="334.5" y="198.211" width="64.0001" height="26.9608" stroke="#000000" stroke-width="1.00076" stroke-linejoin="round" stroke-miterlimit="10" fill="none"/><text font-family="Yu Gothic,Yu Gothic_MSFontService,sans-serif" font-weight="700" font-size="14.6564" transform="matrix(1 0 0 0.998545 343.916 216)">自動車</text><text font-family="Yu Gothic,Yu Gothic_MSFontService,sans-serif" font-weight="700" font-size="14.6564" transform="matrix(1 0 0 0.998545 374.514 136)">ペア</text><path d="M58.6238 3.01186C60.0149 3.37869 61.0832 4.17071 61.8288 5.38792 62.5743 6.60513 62.9471 8.07364 62.9471 9.79345 62.9471 11.518 62.5755 12.9865 61.8323 14.199 61.0891 15.4114 60.0196 16.2011 58.6238 16.5679L58.4523 16.0176C59.5527 15.6508 60.371 14.9267 60.9069 13.8453 61.4429 12.7638 61.7109 11.3894 61.7109 9.72199 61.7109 8.11175 61.4441 6.77425 60.9105 5.70949 60.3769 4.64473 59.5504 3.92894 58.4308 3.5621ZM34.9224 3.01186 35.1154 3.5621C34.0006 3.92894 33.1752 4.64473 32.6393 5.70949 32.1033 6.77425 31.8354 8.11175 31.8354 9.72199 31.8354 11.3894 32.1033 12.7638 32.6393 13.8453 33.1752 14.9267 33.9935 15.6508 35.0939 16.0176L34.9224 16.5679C33.5266 16.2011 32.4571 15.4114 31.7139 14.199 30.9707 12.9865 30.5991 11.518 30.5991 9.79345 30.5991 8.07364 30.9719 6.60513 31.7174 5.38792 32.463 4.17071 33.5313 3.37869 34.9224 3.01186Z" fill-rule="evenodd" transform="matrix(1.00146 0 0 1 374.514 122.137)"/><text font-family="Cambria Math,Cambria Math_MSFontService,sans-serif" font-weight="400" font-size="14.6564" transform="matrix(1 0 0 0.998545 409.961 136)">𝒙</text><text font-family="Cambria Math,Cambria Math_MSFontService,sans-serif" font-weight="400" font-size="14.6564" transform="matrix(1 0 0 0.998545 418.467 136)">,</text><text font-family="Cambria Math,Cambria Math_MSFontService,sans-serif" font-weight="400" font-size="14.6564" transform="matrix(1 0 0 0.998545 423.918 136)">𝒚</text><text font-family="Yu Gothic,Yu Gothic_MSFontService,sans-serif" font-weight="700" font-size="14.6564" transform="matrix(1 0 0 0.998545 438.85 136)">の</text><text font-family="Cambria Math,Cambria Math_MSFontService,sans-serif" font-weight="400" font-size="14.6564" transform="matrix(1 0 0 0.998545 374.514 153)">𝒚</text><text font-family="Cambria Math,Cambria Math_MSFontService,sans-serif" font-weight="400" font-size="14.6564" transform="matrix(1 0 0 0.998545 383.354 153)"></text><text font-family="Yu Gothic,Yu Gothic_MSFontService,sans-serif" font-weight="700" font-size="14.6564" transform="matrix(1 0 0 0.998545 386.523 153)">は</text><text font-family="Yu Gothic,Yu Gothic_MSFontService,sans-serif" font-weight="700" font-size="14.6564" transform="matrix(1 0 0 0.998545 401.201 153)">･･･</text><text font-family="Yu Gothic,Yu Gothic_MSFontService,sans-serif" font-weight="700" font-size="14.6564" transform="matrix(1 0 0 0.998545 149.01 200)">ペア</text><path d="M58.6238 3.01186C60.0149 3.37869 61.0832 4.17071 61.8288 5.38792 62.5743 6.60513 62.9471 8.07364 62.9471 9.79345 62.9471 11.518 62.5755 12.9865 61.8323 14.199 61.0891 15.4114 60.0196 16.2011 58.6238 16.5679L58.4523 16.0176C59.5527 15.6508 60.371 14.9267 60.9069 13.8453 61.4429 12.7638 61.7109 11.3894 61.7109 9.72199 61.7109 8.11175 61.4441 6.77425 60.9105 5.70949 60.3769 4.64473 59.5504 3.92894 58.4308 3.5621ZM34.9224 3.01186 35.1154 3.5621C34.0006 3.92894 33.1752 4.64473 32.6393 5.70949 32.1033 6.77425 31.8354 8.11175 31.8354 9.72199 31.8354 11.3894 32.1033 12.7638 32.6393 13.8453 33.1752 14.9267 33.9935 15.6508 35.0939 16.0176L34.9224 16.5679C33.5266 16.2011 32.4571 15.4114 31.7139 14.199 30.9707 12.9865 30.5991 11.518 30.5991 9.79345 30.5991 8.07364 30.9719 6.60513 31.7174 5.38792 32.463 4.17071 33.5313 3.37869 34.9224 3.01186Z" fill-rule="evenodd" transform="matrix(1.00146 0 0 1 149.01 186.046)"/><text font-family="Cambria Math,Cambria Math_MSFontService,sans-serif" font-weight="400" font-size="14.6564" transform="matrix(1 0 0 0.998545 184.457 200)">𝒙</text><text font-family="Cambria Math,Cambria Math_MSFontService,sans-serif" font-weight="400" font-size="14.6564" transform="matrix(1 0 0 0.998545 192.964 200)">,</text><text font-family="Cambria Math,Cambria Math_MSFontService,sans-serif" font-weight="400" font-size="14.6564" transform="matrix(1 0 0 0.998545 198.414 200)">𝒚</text><text font-family="Yu Gothic,Yu Gothic_MSFontService,sans-serif" font-weight="700" font-size="14.6564" transform="matrix(1 0 0 0.998545 213.346 200)">の</text><text font-family="Cambria Math,Cambria Math_MSFontService,sans-serif" font-weight="400" font-size="14.6564" transform="matrix(1 0 0 0.998545 149.01 217)">𝒙</text><text font-family="Cambria Math,Cambria Math_MSFontService,sans-serif" font-weight="400" font-size="14.6564" transform="matrix(1 0 0 0.998545 157.517 217)"></text><text font-family="Yu Gothic,Yu Gothic_MSFontService,sans-serif" font-weight="700" font-size="14.6564" transform="matrix(1 0 0 0.998545 160.686 217)">は</text><text font-family="Yu Gothic,Yu Gothic_MSFontService,sans-serif" font-weight="700" font-size="14.6564" transform="matrix(1 0 0 0.998545 175.364 217)">･･･</text><text font-family="Yu Gothic,Yu Gothic_MSFontService,sans-serif" font-weight="700" font-size="14.6564" transform="matrix(1 0 0 0.998545 122.068 27)">～は人で</text><text font-family="Yu Gothic,Yu Gothic_MSFontService,sans-serif" font-weight="700" font-size="14.6564" transform="matrix(1 0 0 0.998545 180.779 27)">あり所有物として</text><text font-family="Yu Gothic,Yu Gothic_MSFontService,sans-serif" font-weight="700" font-size="14.6564" transform="matrix(1 0 0 0.998545 122.068 44)">主要な</text><text font-family="Yu Gothic,Yu Gothic_MSFontService,sans-serif" font-weight="700" font-size="14.6564" transform="matrix(1 0 0 0.998545 166.101 44)">自動車</text><text font-family="Yu Gothic,Yu Gothic_MSFontService,sans-serif" font-weight="700" font-size="14.6564" transform="matrix(1 0 0 0.998545 210.134 44)">を</text><text font-family="Yu Gothic,Yu Gothic_MSFontService,sans-serif" font-weight="700" font-size="14.6564" transform="matrix(1 0 0 0.998545 224.812 44)">持</text><text font-family="Yu Gothic,Yu Gothic_MSFontService,sans-serif" font-weight="700" font-size="14.6564" transform="matrix(1 0 0 0.998545 239.49 44)">つので</text><text font-family="Yu Gothic,Yu Gothic_MSFontService,sans-serif" font-weight="700" font-size="14.6564" transform="matrix(1 0 0 0.998545 283.523 44)">･･･</text><text font-family="Yu Gothic,Yu Gothic_MSFontService,sans-serif" font-weight="700" font-size="14.6564" transform="matrix(0.88696 0.460504 -0.46252 0.88567 98.91 94)">～</text><text font-family="Yu Gothic,Yu Gothic_MSFontService,sans-serif" font-weight="700" font-size="14.6564" transform="matrix(0.88696 0.460504 -0.46252 0.88567 111.929 100)">は所有物として</text><text font-family="Yu Gothic,Yu Gothic_MSFontService,sans-serif" font-weight="700" font-size="14.6564" transform="matrix(0.88696 0.460504 -0.46252 0.88567 91.0468 109)">主要な</text><text font-family="Yu Gothic,Yu Gothic_MSFontService,sans-serif" font-weight="700" font-size="14.6564" transform="matrix(0.88696 0.460504 -0.46252 0.88567 130.103 129)">･</text><text font-family="Yu Gothic,Yu Gothic_MSFontService,sans-serif" font-weight="700" font-size="14.6564" transform="matrix(0.88696 0.460504 -0.46252 0.88567 136.612 132)">･･</text><text font-family="Yu Gothic,Yu Gothic_MSFontService,sans-serif" font-weight="700" font-size="14.6564" transform="matrix(0.88696 0.460504 -0.46252 0.88567 149.63 139)">を持つ</text><path d="M115.5 54.7531 315.179 54.7531 315.179 56.0854 115.5 56.0854ZM307.509 50.1804 316.503 55.4193 307.509 60.6581C307.191 60.8435 306.782 60.7361 306.597 60.4183 306.411 60.1005 306.519 59.6926 306.837 59.5072L314.843 54.8438 314.843 55.9947 306.837 51.3313C306.519 51.1459 306.411 50.738 306.597 50.4202 306.782 50.1024 307.191 49.995 307.509 50.1804Z" fill="#172C51"/><path d="M113.808 80.7906 327.64 192.02 327.023 193.201 113.192 81.9723ZM322.95 184.425 328.503 193.22 318.102 193.717C317.734 193.735 317.422 193.451 317.404 193.083 317.386 192.716 317.67 192.404 318.038 192.386L327.297 191.944 326.764 192.964 321.821 185.135C321.625 184.824 321.718 184.412 322.03 184.216 322.342 184.02 322.754 184.113 322.95 184.425Z" fill="#172C51"/><path d="M0.438694-0.501368 13.5763 10.9939 13.5615 10.9814 26.5545 21.697 26.538 21.6838 39.4451 31.6581 39.427 31.6446 52.3068 40.9159 52.2871 40.9023 65.1981 49.509 65.1771 49.4955 78.1779 57.4759 78.1559 57.4629 91.3052 64.8554 91.2825 64.8432 104.639 71.686 104.616 71.6748 118.238 78.0064 118.215 77.9963 132.161 83.8549 132.139 83.8461 146.468 89.2702 146.447 89.2626 161.218 94.2904 161.198 94.284 176.468 98.954 176.45 98.9487 192.279 103.299 192.263 103.295 208.709 107.364 208.694 107.361 224.529 110.899 224.239 112.2 208.396 108.659 191.934 104.586 176.088 100.231 160.798 95.5551 146.007 90.5203 131.656 85.088 117.688 79.2199 104.043 72.8777 90.6635 66.0231 77.4918 58.6181 64.4694 50.6245 51.5381 42.0043 38.6394 32.7193 25.7149 22.7316 12.7062 12.0031-0.438694 0.501368ZM218.052 104.766 225.674 111.838 215.767 114.992C215.416 115.103 215.042 114.91 214.93 114.559 214.818 114.208 215.012 113.834 215.363 113.722L224.182 110.915 223.931 112.038 217.146 105.743C216.876 105.493 216.86 105.071 217.111 104.802 217.361 104.532 217.782 104.516 218.052 104.766Z" fill="#172C51" transform="matrix(-1.00146 0 0 1 317.5 88.3713)"/><path d="M69.1672 83.3786 69.1672 175.923 67.8329 175.923 67.8329 83.3786ZM73.7465 168.264 68.5 177.245 63.2535 168.264C63.0679 167.946 63.1754 167.538 63.4937 167.353 63.8119 167.168 64.2205 167.275 64.4061 167.593L69.0763 175.587 67.9237 175.587 72.5939 167.593C72.7796 167.275 73.1881 167.168 73.5064 167.353 73.8247 167.538 73.9322 167.946 73.7465 168.264Z" fill="#172C51"/><text font-family="Yu Gothic,Yu Gothic_MSFontService,sans-serif" font-weight="700" font-size="14.6564" transform="matrix(1 0 0 0.998545 9.93569 149)">～</text><text font-family="Yu Gothic,Yu Gothic_MSFontService,sans-serif" font-weight="700" font-size="14.6564" transform="matrix(1 0 0 0.998545 24.6134 149)">は</text><text font-family="Yu Gothic,Yu Gothic_MSFontService,sans-serif" font-weight="700" font-size="14.6564" transform="matrix(1 0 0 0.998545 39.2912 149)">･･･</text><path d="M369.167 90.3683 369.167 177.92 367.833 177.92 367.833 90.3683ZM373.746 170.261 368.5 179.242 363.253 170.261C363.068 169.943 363.175 169.535 363.494 169.35 363.812 169.165 364.22 169.272 364.406 169.59L369.076 177.584 367.924 177.584 372.594 169.59C372.78 169.272 373.188 169.165 373.506 169.35 373.825 169.535 373.932 169.943 373.746 170.261Z" fill="#172C51"/><text font-family="Yu Gothic,Yu Gothic_MSFontService,sans-serif" font-weight="700" font-size="14.6564" transform="matrix(1 0 0 0.998545 422.589 27)">ペア</text><path d="M58.6238 3.01186C60.0149 3.37869 61.0832 4.17071 61.8288 5.38792 62.5743 6.60513 62.9471 8.07364 62.9471 9.79345 62.9471 11.518 62.5755 12.9865 61.8323 14.199 61.0891 15.4114 60.0196 16.2011 58.6238 16.5679L58.4523 16.0176C59.5527 15.6508 60.371 14.9267 60.9069 13.8453 61.4429 12.7638 61.7109 11.3894 61.7109 9.72199 61.7109 8.11175 61.4441 6.77425 60.9105 5.70949 60.3769 4.64473 59.5504 3.92894 58.4308 3.5621ZM34.9224 3.01186 35.1154 3.5621C34.0006 3.92894 33.1752 4.64473 32.6393 5.70949 32.1033 6.77425 31.8354 8.11175 31.8354 9.72199 31.8354 11.3894 32.1033 12.7638 32.6393 13.8453 33.1752 14.9267 33.9935 15.6508 35.0939 16.0176L34.9224 16.5679C33.5266 16.2011 32.4571 15.4114 31.7139 14.199 30.9707 12.9865 30.5991 11.518 30.5991 9.79345 30.5991 8.07364 30.9719 6.60513 31.7174 5.38792 32.463 4.17071 33.5313 3.37869 34.9224 3.01186Z" fill-rule="evenodd" transform="matrix(1.00146 0 0 1 422.589 12.85)"/><text font-family="Cambria Math,Cambria Math_MSFontService,sans-serif" font-weight="400" font-size="14.6564" transform="matrix(1 0 0 0.998545 458.036 27)">𝒙</text><text font-family="Cambria Math,Cambria Math_MSFontService,sans-serif" font-weight="400" font-size="14.6564" transform="matrix(1 0 0 0.998545 466.543 27)">,</text><text font-family="Cambria Math,Cambria Math_MSFontService,sans-serif" font-weight="400" font-size="14.6564" transform="matrix(1 0 0 0.998545 471.993 27)">𝒚</text><text font-family="Yu Gothic,Yu Gothic_MSFontService,sans-serif" font-weight="700" font-size="14.6564" transform="matrix(1 0 0 0.998545 490.094 27)">には効用</text><text font-family="Yu Gothic,Yu Gothic_MSFontService,sans-serif" font-weight="700" font-size="14.6564" transform="matrix(1 0 0 0.998545 548.805 27)">として</text><text font-family="Yu Gothic,Yu Gothic_MSFontService,sans-serif" font-weight="700" font-size="14.6564" transform="matrix(1 0 0 0.998545 422.589 44)">･･･</text><text font-family="Yu Gothic,Yu Gothic_MSFontService,sans-serif" font-weight="700" font-size="14.6564" transform="matrix(1 0 0 0.998545 444.606 44)">が割り当てられる</text><rect x="587.5" y="40.4411" width="64.0001" height="26.9608" stroke="#000000" stroke-width="1.00076" stroke-linejoin="round" stroke-miterlimit="10" fill="none"/><text font-family="Yu Gothic,Yu Gothic_MSFontService,sans-serif" font-weight="700" font-size="14.6564" transform="matrix(1 0 0 0.998545 596.46 58)">ドル値</text><path d="M416.5 52.756 581.179 52.756 581.179 54.0884 416.5 54.0884ZM573.509 48.1834 582.503 53.4222 573.509 58.6611C573.191 58.8465 572.782 58.7391 572.597 58.4213 572.411 58.1035 572.518 57.6956 572.837 57.5102L580.843 52.8468 580.843 53.9977 572.837 49.3343C572.518 49.1489 572.411 48.741 572.597 48.4231 572.782 48.1053 573.191 47.998 573.509 48.1834Z" fill="#172C51"/><text font-family="Cambria Math,Cambria Math_MSFontService,sans-serif" font-weight="400" font-size="14.6564" transform="matrix(1 0 0 0.998545 62.8748 25)">𝑶</text><text font-family="Cambria Math,Cambria Math_MSFontService,sans-serif" font-weight="400" font-size="14.6564" transform="matrix(1 0 0 0.998545 63.6224 195)">𝑷</text><text font-family="Cambria Math,Cambria Math_MSFontService,sans-serif" font-weight="400" font-size="14.6564" transform="matrix(1 0 0 0.998545 363.628 192)">𝑪</text><text font-family="Cambria Math,Cambria Math_MSFontService,sans-serif" font-weight="400" font-size="14.6564" transform="matrix(1 0 0 0.998545 348.233 19)">𝑷</text><text font-family="Cambria Math,Cambria Math_MSFontService,sans-serif" font-weight="400" font-size="14.6564" transform="matrix(1 0 0 0.998545 361.503 19)">×</text><text font-family="Cambria Math,Cambria Math_MSFontService,sans-serif" font-weight="400" font-size="14.6564" transform="matrix(1 0 0 0.998545 375.273 19)">𝑪</text><text font-family="Cambria Math,Cambria Math_MSFontService,sans-serif" font-weight="400" font-size="14.6564" transform="matrix(1 0 0 0.998545 615.285 34)">𝑽</text><text font-family="Segoe UI Symbol,Segoe UI Symbol_MSFontService,sans-serif" font-weight="700" font-size="14.6564" transform="matrix(1 0 0 0.998545 219.099 95)">✔</text></g></svg>