<svg width="620" height="499" xmlns="http://www.w3.org/2000/svg" xmlns:xlink="http://www.w3.org/1999/xlink" overflow="hidden"><defs><clipPath id="clip0"><rect x="0" y="0" width="620" height="499"/></clipPath></defs><g clip-path="url(#clip0)"><rect x="0" y="0" width="620" height="499.033" fill="#FFFFFF"/><path d="M42.5503 3.01937C43.9449 3.38711 45.0159 4.18111 45.7633 5.40135 46.5107 6.62159 46.8844 8.09376 46.8844 9.81786 46.8844 11.5467 46.5119 13.0189 45.7669 14.2344 45.0218 15.4498 43.9496 16.2414 42.5503 16.6092L42.3784 16.0576C43.4816 15.6898 44.3019 14.9639 44.8391 13.8798 45.3764 12.7956 45.6451 11.4178 45.6451 9.74622 45.6451 8.13197 45.3776 6.79114 44.8427 5.72372 44.3078 4.65631 43.4792 3.93873 42.3569 3.57098ZM8.33102 3.01937 8.52444 3.57098C7.40688 3.93873 6.57946 4.65631 6.04217 5.72372 5.50488 6.79114 5.23623 8.13197 5.23623 9.74622 5.23623 11.4178 5.50488 12.7956 6.04217 13.8798 6.57946 14.9639 7.39972 15.6898 8.50295 16.0576L8.33102 16.6092C6.93168 16.2414 5.85949 15.4498 5.11445 14.2344 4.36941 13.0189 3.99689 11.5467 3.99689 9.81786 3.99689 8.09376 4.3706 6.62159 5.11803 5.40135 5.86546 4.18111 6.93645 3.38711 8.33102 3.01937Z" fill-rule="evenodd" transform="matrix(1 0 0 1.00007 25.2427 96.9705)"/><text font-family="Cambria Math,Cambria Math_MSFontService,sans-serif" font-weight="400" font-size="14.6716" transform="matrix(1 0 0 1.00007 34.0384 111)">𝑓′</text><text font-family="Cambria Math,Cambria Math_MSFontService,sans-serif" font-weight="400" font-size="14.6716" transform="matrix(1 0 0 1.00007 49.1358 111)">∘</text><text font-family="Cambria Math,Cambria Math_MSFontService,sans-serif" font-weight="400" font-size="14.6716" transform="matrix(1 0 0 1.00007 58.8984 111)">𝑓</text><text font-family="Cambria Math,Cambria Math_MSFontService,sans-serif" font-weight="400" font-size="14.6716" transform="matrix(1 0 0 1.00007 76.6765 111)">∘</text><path d="M102.867 3.01937C104.261 3.38711 105.332 4.18111 106.079 5.40135 106.827 6.62159 107.201 8.09376 107.201 9.81786 107.201 11.5467 106.828 13.0189 106.083 14.2344 105.338 15.4498 104.266 16.2414 102.867 16.6092L102.695 16.0576C103.798 15.6898 104.618 14.9639 105.155 13.8798 105.693 12.7956 105.961 11.4178 105.961 9.74622 105.961 8.13197 105.694 6.79114 105.159 5.72372 104.624 4.65631 103.795 3.93873 102.673 3.57098ZM66.8201 3.01937 67.0135 3.57098C65.8959 3.93873 65.0685 4.65631 64.5312 5.72372 63.9939 6.79114 63.7253 8.13197 63.7253 9.74622 63.7253 11.4178 63.9939 12.7956 64.5312 13.8798 65.0685 14.9639 65.8888 15.6898 66.992 16.0576L66.8201 16.6092C65.4207 16.2414 64.3485 15.4498 63.6035 14.2344 62.8585 13.0189 62.4859 11.5467 62.4859 9.81786 62.4859 8.09376 62.8597 6.62159 63.6071 5.40135 64.3545 4.18111 65.4255 3.38711 66.8201 3.01937Z" fill-rule="evenodd" transform="matrix(1 0 0 1.00007 25.2427 96.9705)"/><text font-family="Cambria Math,Cambria Math_MSFontService,sans-serif" font-weight="400" font-size="14.6716" transform="matrix(1 0 0 1.00007 92.5274 111)">𝑔</text><text font-family="Cambria Math,Cambria Math_MSFontService,sans-serif" font-weight="400" font-size="14.6716" transform="matrix(1 0 0 1.00007 105.044 111)">∘</text><text font-family="Cambria Math,Cambria Math_MSFontService,sans-serif" font-weight="400" font-size="14.6716" transform="matrix(1 0 0 1.00007 114.807 111)">𝑔′</text><text font-family="Cambria Math,Cambria Math_MSFontService,sans-serif" font-weight="400" font-size="14.6716" transform="matrix(1 0 0 1.00007 25.9804 154)">=</text><text font-family="Cambria Math,Cambria Math_MSFontService,sans-serif" font-weight="400" font-size="14.6716" transform="matrix(1 0 0 1.00007 41.0578 154)">𝑓′</text><text font-family="Cambria Math,Cambria Math_MSFontService,sans-serif" font-weight="400" font-size="14.6716" transform="matrix(1 0 0 1.00007 56.1551 154)">∘</text><path d="M79.8737 3.01937C81.2682 3.38711 82.3392 4.18111 83.0866 5.40135 83.8341 6.62159 84.2078 8.09376 84.2078 9.81786 84.2078 11.5467 83.8353 13.0189 83.0902 14.2344 82.3452 15.4498 81.273 16.2414 79.8737 16.6092L79.7017 16.0576C80.805 15.6898 81.6252 14.9639 82.1625 13.8798 82.6998 12.7956 82.9684 11.4178 82.9684 9.74622 82.9684 8.13197 82.701 6.79114 82.1661 5.72372 81.6312 4.65631 80.8026 3.93873 79.6802 3.57098ZM48.2351 3.01937 48.4285 3.57098C47.3109 3.93873 46.4835 4.65631 45.9462 5.72372 45.4089 6.79114 45.1403 8.13197 45.1403 9.74622 45.1403 11.4178 45.4089 12.7956 45.9462 13.8798 46.4835 14.9639 47.3038 15.6898 48.407 16.0576L48.2351 16.6092C46.8357 16.2414 45.7635 15.4498 45.0185 14.2344 44.2735 13.0189 43.9009 11.5467 43.9009 9.81786 43.9009 8.09376 44.2747 6.62159 45.0221 5.40135 45.7695 4.18111 46.8405 3.38711 48.2351 3.01937Z" fill-rule="evenodd" transform="matrix(1 0 0 1.00007 23.3063 140.02)"/><text font-family="Cambria Math,Cambria Math_MSFontService,sans-serif" font-weight="400" font-size="14.6716" transform="matrix(1 0 0 1.00007 72.0061 154)">𝑓</text><text font-family="Cambria Math,Cambria Math_MSFontService,sans-serif" font-weight="400" font-size="14.6716" transform="matrix(1 0 0 1.00007 83.6959 154)">∘</text><text font-family="Cambria Math,Cambria Math_MSFontService,sans-serif" font-weight="400" font-size="14.6716" transform="matrix(1 0 0 1.00007 93.4585 154)">𝑔</text><text font-family="Cambria Math,Cambria Math_MSFontService,sans-serif" font-weight="400" font-size="14.6716" transform="matrix(1 0 0 1.00007 112.064 154)">∘</text><text font-family="Cambria Math,Cambria Math_MSFontService,sans-serif" font-weight="400" font-size="14.6716" transform="matrix(1 0 0 1.00007 121.826 154)">𝑔′</text><text font-family="Cambria Math,Cambria Math_MSFontService,sans-serif" font-weight="400" font-size="14.6716" transform="matrix(1 0 0 1.00007 24.8942 197)">=</text><text font-family="Cambria Math,Cambria Math_MSFontService,sans-serif" font-weight="400" font-size="14.6716" transform="matrix(1 0 0 1.00007 39.9716 197)">𝑓′</text><text font-family="Cambria Math,Cambria Math_MSFontService,sans-serif" font-weight="400" font-size="14.6716" transform="matrix(1 0 0 1.00007 55.069 197)">∘</text><text font-family="Cambria Math,Cambria Math_MSFontService,sans-serif" font-weight="400" font-size="14.6716" transform="matrix(1 0 0 1.00007 64.8316 197)">𝑖𝑑𝐵</text><text font-family="Cambria Math,Cambria Math_MSFontService,sans-serif" font-weight="400" font-size="14.6716" transform="matrix(1 0 0 1.00007 91.3254 197)">∘</text><text font-family="Cambria Math,Cambria Math_MSFontService,sans-serif" font-weight="400" font-size="14.6716" transform="matrix(1 0 0 1.00007 101.088 197)">𝑔′</text><text font-family="Cambria Math,Cambria Math_MSFontService,sans-serif" font-weight="400" font-size="14.6716" transform="matrix(1 0 0 1.00007 27.6967 233)">=</text><text font-family="Cambria Math,Cambria Math_MSFontService,sans-serif" font-weight="400" font-size="14.6716" transform="matrix(1 0 0 1.00007 42.7741 233)">𝑓′</text><text font-family="Cambria Math,Cambria Math_MSFontService,sans-serif" font-weight="400" font-size="14.6716" transform="matrix(1 0 0 1.00007 57.8715 233)">∘</text><text font-family="Cambria Math,Cambria Math_MSFontService,sans-serif" font-weight="400" font-size="14.6716" transform="matrix(1 0 0 1.00007 67.6341 233)">𝑔′</text><text font-family="Cambria Math,Cambria Math_MSFontService,sans-serif" font-weight="400" font-size="14.6716" transform="matrix(1 0 0 1.00007 27.55 270)">=</text><text font-family="Cambria Math,Cambria Math_MSFontService,sans-serif" font-weight="400" font-size="14.6716" transform="matrix(1 0 0 1.00007 42.6274 270)">𝑖𝑑𝐶</text><path d="M44.3775 3.01937C45.772 3.38711 46.843 4.18111 47.5904 5.40135 48.3379 6.62159 48.7116 8.09376 48.7116 9.81786 48.7116 11.5467 48.3391 13.0189 47.594 14.2344 46.849 15.4498 45.7768 16.2414 44.3775 16.6092L44.2055 16.0576C45.3088 15.6898 46.129 14.9639 46.6663 13.8798 47.2036 12.7956 47.4722 11.4178 47.4722 9.74622 47.4722 8.13197 47.2048 6.79114 46.6699 5.72372 46.135 4.65631 45.3064 3.93873 44.184 3.57098ZM8.33102 3.01937 8.52444 3.57098C7.40688 3.93873 6.57946 4.65631 6.04217 5.72372 5.50488 6.79114 5.23623 8.13197 5.23623 9.74622 5.23623 11.4178 5.50488 12.7956 6.04217 13.8798 6.57946 14.9639 7.39972 15.6898 8.50295 16.0576L8.33102 16.6092C6.93168 16.2414 5.85949 15.4498 5.11445 14.2344 4.36941 13.0189 3.99689 11.5467 3.99689 9.81786 3.99689 8.09376 4.3706 6.62159 5.11803 5.40135 5.86546 4.18111 6.93646 3.38711 8.33102 3.01937Z" fill-rule="evenodd" transform="matrix(1 0 0 1.00007 22.6395 312.287)"/><text font-family="Cambria Math,Cambria Math_MSFontService,sans-serif" font-weight="400" font-size="14.6716" transform="matrix(1 0 0 1.00007 31.4352 326)">𝑔</text><text font-family="Cambria Math,Cambria Math_MSFontService,sans-serif" font-weight="400" font-size="14.6716" transform="matrix(1 0 0 1.00007 43.9519 326)">∘</text><text font-family="Cambria Math,Cambria Math_MSFontService,sans-serif" font-weight="400" font-size="14.6716" transform="matrix(1 0 0 1.00007 53.7145 326)">𝑔′</text><text font-family="Cambria Math,Cambria Math_MSFontService,sans-serif" font-weight="400" font-size="14.6716" transform="matrix(1 0 0 1.00007 75.9005 326)">∘</text><path d="M102.867 3.01937C104.261 3.38711 105.332 4.18111 106.079 5.40135 106.827 6.62159 107.201 8.09376 107.201 9.81786 107.201 11.5467 106.828 13.0189 106.083 14.2344 105.338 15.4498 104.266 16.2414 102.867 16.6092L102.695 16.0576C103.798 15.6898 104.618 14.9639 105.155 13.8798 105.693 12.7956 105.961 11.4178 105.961 9.74622 105.961 8.13197 105.694 6.79114 105.159 5.72372 104.624 4.65631 103.795 3.93873 102.673 3.57098ZM68.6472 3.01937 68.8407 3.57098C67.7231 3.93873 66.8957 4.65631 66.3584 5.72372 65.8211 6.79114 65.5524 8.13197 65.5524 9.74622 65.5524 11.4178 65.8211 12.7956 66.3584 13.8798 66.8957 14.9639 67.7159 15.6898 68.8192 16.0576L68.6472 16.6092C67.2479 16.2414 66.1757 15.4498 65.4307 14.2344 64.6856 13.0189 64.3131 11.5467 64.3131 9.81786 64.3131 8.09376 64.6868 6.62159 65.4342 5.40135 66.1817 4.18111 67.2527 3.38711 68.6472 3.01937Z" fill-rule="evenodd" transform="matrix(1 0 0 1.00007 22.6395 312.287)"/><text font-family="Cambria Math,Cambria Math_MSFontService,sans-serif" font-weight="400" font-size="14.6716" transform="matrix(1 0 0 1.00007 91.7514 326)">𝑓′</text><text font-family="Cambria Math,Cambria Math_MSFontService,sans-serif" font-weight="400" font-size="14.6716" transform="matrix(1 0 0 1.00007 106.849 326)">∘</text><text font-family="Cambria Math,Cambria Math_MSFontService,sans-serif" font-weight="400" font-size="14.6716" transform="matrix(1 0 0 1.00007 116.611 326)">𝑓</text><text font-family="Cambria Math,Cambria Math_MSFontService,sans-serif" font-weight="400" font-size="14.6716" transform="matrix(1 0 0 1.00007 25.1243 369)">=</text><text font-family="Cambria Math,Cambria Math_MSFontService,sans-serif" font-weight="400" font-size="14.6716" transform="matrix(1 0 0 1.00007 40.2017 369)">𝑔</text><text font-family="Cambria Math,Cambria Math_MSFontService,sans-serif" font-weight="400" font-size="14.6716" transform="matrix(1 0 0 1.00007 52.7184 369)">∘</text><path d="M86.0286 3.01937C87.4232 3.38711 88.4942 4.18111 89.2416 5.40135 89.9891 6.62159 90.3628 8.09376 90.3628 9.81786 90.3628 11.5467 89.9903 13.0189 89.2452 14.2344 88.5002 15.4498 87.428 16.2414 86.0286 16.6092L85.8567 16.0576C86.96 15.6898 87.7802 14.9639 88.3175 13.8798 88.8548 12.7956 89.1234 11.4178 89.1234 9.74622 89.1234 8.13197 88.856 6.79114 88.3211 5.72372 87.7862 4.65631 86.9576 3.93873 85.8352 3.57098ZM47.4015 3.01937 47.5949 3.57098C46.4774 3.93873 45.65 4.65631 45.1127 5.72372 44.5754 6.79114 44.3067 8.13197 44.3067 9.74622 44.3067 11.4178 44.5754 12.7956 45.1127 13.8798 45.65 14.9639 46.4702 15.6898 47.5735 16.0576L47.4015 16.6092C46.0022 16.2414 44.93 15.4498 44.185 14.2344 43.4399 13.0189 43.0674 11.5467 43.0674 9.81786 43.0674 8.09376 43.4411 6.62159 44.1885 5.40135 44.936 4.18111 46.007 3.38711 47.4015 3.01937Z" fill-rule="evenodd" transform="matrix(1 0 0 1.00007 20.7031 355.336)"/><text font-family="Cambria Math,Cambria Math_MSFontService,sans-serif" font-weight="400" font-size="14.6716" transform="matrix(1 0 0 1.00007 68.5693 369)">𝑔′</text><text font-family="Cambria Math,Cambria Math_MSFontService,sans-serif" font-weight="400" font-size="14.6716" transform="matrix(1 0 0 1.00007 84.667 369)">∘</text><text font-family="Cambria Math,Cambria Math_MSFontService,sans-serif" font-weight="400" font-size="14.6716" transform="matrix(1 0 0 1.00007 94.4296 369)">𝑓′</text><text font-family="Cambria Math,Cambria Math_MSFontService,sans-serif" font-weight="400" font-size="14.6716" transform="matrix(1 0 0 1.00007 115.615 369)">∘</text><text font-family="Cambria Math,Cambria Math_MSFontService,sans-serif" font-weight="400" font-size="14.6716" transform="matrix(1 0 0 1.00007 125.378 369)">𝑓</text><text font-family="Cambria Math,Cambria Math_MSFontService,sans-serif" font-weight="400" font-size="14.6716" transform="matrix(1 0 0 1.00007 21.8642 412)">=</text><text font-family="Cambria Math,Cambria Math_MSFontService,sans-serif" font-weight="400" font-size="14.6716" transform="matrix(1 0 0 1.00007 36.9416 412)">𝑔</text><text font-family="Cambria Math,Cambria Math_MSFontService,sans-serif" font-weight="400" font-size="14.6716" transform="matrix(1 0 0 1.00007 49.4583 412)">∘</text><text font-family="Cambria Math,Cambria Math_MSFontService,sans-serif" font-weight="400" font-size="14.6716" transform="matrix(1 0 0 1.00007 59.2209 412)">𝑖𝑑𝐵</text><text font-family="Cambria Math,Cambria Math_MSFontService,sans-serif" font-weight="400" font-size="14.6716" transform="matrix(1 0 0 1.00007 85.7147 412)">∘</text><text font-family="Cambria Math,Cambria Math_MSFontService,sans-serif" font-weight="400" font-size="14.6716" transform="matrix(1 0 0 1.00007 95.4773 412)">𝑓</text><text font-family="Cambria Math,Cambria Math_MSFontService,sans-serif" font-weight="400" font-size="14.6716" transform="matrix(1 0 0 1.00007 25.0001 449)">=</text><text font-family="Cambria Math,Cambria Math_MSFontService,sans-serif" font-weight="400" font-size="14.6716" transform="matrix(1 0 0 1.00007 40.0775 449)">𝑔</text><text font-family="Cambria Math,Cambria Math_MSFontService,sans-serif" font-weight="400" font-size="14.6716" transform="matrix(1 0 0 1.00007 52.5942 449)">∘</text><text font-family="Cambria Math,Cambria Math_MSFontService,sans-serif" font-weight="400" font-size="14.6716" transform="matrix(1 0 0 1.00007 62.3568 449)">𝑓</text><text font-family="Cambria Math,Cambria Math_MSFontService,sans-serif" font-weight="400" font-size="14.6716" transform="matrix(1 0 0 1.00007 24.9468 485)">=</text><text font-family="Cambria Math,Cambria Math_MSFontService,sans-serif" font-weight="400" font-size="14.6716" transform="matrix(1 0 0 1.00007 40.0241 485)">𝑖𝑑𝐴</text><text font-family="Cambria Math,Cambria Math_MSFontService,sans-serif" font-weight="400" font-size="14.6716" transform="matrix(1 0 0 1.00007 374.83 43)">𝐴</text><text font-family="Cambria Math,Cambria Math_MSFontService,sans-serif" font-weight="400" font-size="14.6716" transform="matrix(1 0 0 1.00007 482.286 43)">𝐵</text><text font-family="Cambria Math,Cambria Math_MSFontService,sans-serif" font-weight="400" font-size="14.6716" transform="matrix(1 0 0 1.00007 590.705 43)">𝐶</text><path d="M395.5 31.8352 475.18 31.8352 475.18 33.169 395.5 33.169ZM467.513 27.2578 476.503 32.5021 467.513 37.7464C467.195 37.9319 466.787 37.8245 466.601 37.5063 466.416 37.1882 466.523 36.7799 466.841 36.5943L474.844 31.926 474.844 33.0781 466.841 28.4099C466.523 28.2243 466.416 27.816 466.601 27.4978 466.787 27.1797 467.195 27.0722 467.513 27.2578Z" fill="#172C51"/><path d="M505.5 31.8352 585.18 31.8352 585.18 33.169 505.5 33.169ZM577.513 27.2578 586.503 32.5021 577.513 37.7464C577.195 37.9319 576.787 37.8245 576.602 37.5063 576.416 37.1882 576.523 36.7799 576.841 36.5943L584.844 31.926 584.844 33.0781 576.841 28.4099C576.523 28.2243 576.416 27.816 576.602 27.4978 576.787 27.1797 577.195 27.0722 577.513 27.2578Z" fill="#172C51"/><path d="M394.82 40.8358 474.5 40.8358 474.5 42.1696 394.82 42.1696ZM402.487 46.747 393.497 41.5027 402.487 36.2584C402.805 36.0728 403.213 36.1803 403.398 36.4984 403.584 36.8166 403.477 37.2249 403.159 37.4105L395.156 42.0787 395.156 40.9266 403.159 45.5949C403.477 45.7804 403.584 46.1888 403.398 46.5069 403.213 46.8251 402.805 46.9325 402.487 46.747Z" fill="#172C51"/><path d="M504.82 40.8358 584.5 40.8358 584.5 42.1696 504.82 42.1696ZM512.486 46.747 503.497 41.5027 512.486 36.2584C512.805 36.0728 513.213 36.1803 513.398 36.4984 513.584 36.8166 513.477 37.2249 513.159 37.4105L505.156 42.0787 505.156 40.9266 513.159 45.5949C513.477 45.7804 513.584 46.1888 513.398 46.5069 513.213 46.8251 512.805 46.9325 512.486 46.747Z" fill="#172C51"/><text font-family="Cambria Math,Cambria Math_MSFontService,sans-serif" font-weight="400" font-size="14.6716" transform="matrix(1 0 0 1.00007 428.858 28)">𝑓</text><text font-family="Cambria Math,Cambria Math_MSFontService,sans-serif" font-weight="400" font-size="14.6716" transform="matrix(1 0 0 1.00007 539.238 28)">𝑓′</text><text font-family="Cambria Math,Cambria Math_MSFontService,sans-serif" font-weight="400" font-size="14.6716" transform="matrix(1 0 0 1.00007 535.904 58)">𝑔′</text><text font-family="Cambria Math,Cambria Math_MSFontService,sans-serif" font-weight="400" font-size="14.6716" transform="matrix(1 0 0 1.00007 425.834 54)">𝑔</text><text font-family="Cambria Math,Cambria Math_MSFontService,sans-serif" font-weight="400" font-size="14.6716" transform="matrix(1 0 0 1.00007 373.94 112)">𝐶</text><path d="M44.0307 3.01937C45.4253 3.38711 46.4963 4.18111 47.2437 5.40135 47.9911 6.62159 48.3648 8.09376 48.3648 9.81786 48.3648 11.5467 47.9923 13.0189 47.2473 14.2344 46.5022 15.4498 45.43 16.2414 44.0307 16.6092L43.8588 16.0576C44.962 15.6898 45.7823 14.9639 46.3195 13.8798 46.8568 12.7956 47.1255 11.4178 47.1255 9.74622 47.1255 8.13197 46.858 6.79114 46.3231 5.72372 45.7882 4.65631 44.9596 3.93873 43.8373 3.57098ZM7.98426 3.01937 8.17768 3.57098C7.06012 3.93873 6.2327 4.65631 5.69541 5.72372 5.15812 6.79114 4.88947 8.13197 4.88947 9.74622 4.88947 11.4178 5.15812 12.7956 5.69541 13.8798 6.2327 14.9639 7.05296 15.6898 8.15619 16.0576L7.98426 16.6092C6.58492 16.2414 5.51273 15.4498 4.76769 14.2344 4.02265 13.0189 3.65013 11.5467 3.65013 9.81786 3.65013 8.09376 4.02384 6.62159 4.77127 5.40135 5.5187 4.18111 6.58969 3.38711 7.98426 3.01937Z" fill-rule="evenodd" transform="matrix(1 0 0 1.00007 400.526 82.9874)"/><text font-family="Cambria Math,Cambria Math_MSFontService,sans-serif" font-weight="400" font-size="14.6716" transform="matrix(1 0 0 1.00007 408.975 97)">𝑔</text><text font-family="Cambria Math,Cambria Math_MSFontService,sans-serif" font-weight="400" font-size="14.6716" transform="matrix(1 0 0 1.00007 421.492 97)">∘</text><text font-family="Cambria Math,Cambria Math_MSFontService,sans-serif" font-weight="400" font-size="14.6716" transform="matrix(1 0 0 1.00007 431.255 97)">𝑔′</text><path d="M389.5 105.84 469.18 105.84 469.18 107.174 389.5 107.174ZM461.513 101.263 470.503 106.507 461.513 111.751C461.195 111.937 460.787 111.829 460.602 111.511 460.416 111.193 460.523 110.785 460.841 110.599L468.844 105.931 468.844 107.083 460.841 102.415C460.523 102.229 460.416 101.821 460.602 101.503 460.787 101.185 461.195 101.077 461.513 101.263Z" fill="#172C51"/><text font-family="Cambria Math,Cambria Math_MSFontService,sans-serif" font-weight="400" font-size="14.6716" transform="matrix(1 0 0 1.00007 472.062 112)">𝐴</text><path d="M487.5 105.84 567.18 105.84 567.18 107.174 487.5 107.174ZM559.513 101.263 568.503 106.507 559.513 111.751C559.195 111.937 558.787 111.829 558.602 111.511 558.416 111.193 558.523 110.785 558.841 110.599L566.844 105.931 566.844 107.083 558.841 102.415C558.523 102.229 558.416 101.821 558.602 101.503 558.787 101.185 559.195 101.077 559.513 101.263Z" fill="#172C51"/><path d="M42.1969 3.01937C43.5914 3.38711 44.6624 4.18111 45.4099 5.40135 46.1573 6.62159 46.531 8.09376 46.531 9.81786 46.531 11.5467 46.1585 13.0189 45.4134 14.2344 44.6684 15.4498 43.5962 16.2414 42.1969 16.6092L42.0249 16.0576C43.1282 15.6898 43.9484 14.9639 44.4857 13.8798 45.023 12.7956 45.2917 11.4178 45.2917 9.74622 45.2917 8.13197 45.0242 6.79114 44.4893 5.72372 43.9544 4.65631 43.1258 3.93873 42.0034 3.57098ZM7.97759 3.01937 8.17101 3.57098C7.05345 3.93873 6.22603 4.65631 5.68874 5.72372 5.15145 6.79114 4.88281 8.13197 4.88281 9.74622 4.88281 11.4178 5.15145 12.7956 5.68874 13.8798 6.22603 14.9639 7.04629 15.6898 8.14952 16.0576L7.97759 16.6092C6.57825 16.2414 5.50606 15.4498 4.76102 14.2344 4.01598 13.0189 3.64346 11.5467 3.64346 9.81786 3.64346 8.09376 4.01717 6.62159 4.7646 5.40135 5.51203 4.18111 6.58303 3.38711 7.97759 3.01937Z" fill-rule="evenodd" transform="matrix(1 0 0 1.00007 495.381 83.8017)"/><text font-family="Cambria Math,Cambria Math_MSFontService,sans-serif" font-weight="400" font-size="14.6716" transform="matrix(1 0 0 1.00007 503.824 98)">𝑓′</text><text font-family="Cambria Math,Cambria Math_MSFontService,sans-serif" font-weight="400" font-size="14.6716" transform="matrix(1 0 0 1.00007 518.921 98)">∘</text><text font-family="Cambria Math,Cambria Math_MSFontService,sans-serif" font-weight="400" font-size="14.6716" transform="matrix(1 0 0 1.00007 528.684 98)">𝑓</text><text font-family="Cambria Math,Cambria Math_MSFontService,sans-serif" font-weight="400" font-size="14.6716" transform="matrix(1 0 0 1.00007 573.977 112)">𝐶</text><text font-family="Cambria Math,Cambria Math_MSFontService,sans-serif" font-weight="400" font-size="14.6716" transform="matrix(1 0 0 1.00007 373.94 155)">𝐶</text><text font-family="Cambria Math,Cambria Math_MSFontService,sans-serif" font-weight="400" font-size="14.6716" transform="matrix(1 0 0 1.00007 397.983 142)">𝑔′</text><path d="M0-0.666846 34.6797-0.666846 34.6797 0.666846 0 0.666846ZM27.0135-5.24393 36.0031 0 27.0135 5.24393C26.6954 5.4295 26.2871 5.32205 26.1015 5.00393 25.9159 4.68581 26.0234 4.27748 26.3415 4.09191L34.3437-0.576007 34.3437 0.576007 26.3415-4.09191C26.0234-4.27748 25.9159-4.68581 26.1015-5.00393 26.2871-5.32205 26.6954-5.4295 27.0135-5.24393Z" fill="#172C51" transform="matrix(1 0 0 -1.00007 389.5 149.51)"/><text font-family="Cambria Math,Cambria Math_MSFontService,sans-serif" font-weight="400" font-size="14.6716" transform="matrix(1 0 0 1.00007 429.424 155)">𝐵</text><path d="M0-0.666846 65.6796-0.666846 65.6796 0.666846 0 0.666846ZM58.0134-5.24393 67.003 0 58.0134 5.24393C57.6953 5.4295 57.287 5.32205 57.1014 5.00393 56.9159 4.68581 57.0233 4.27748 57.3414 4.09191L65.3436-0.576007 65.3436 0.576007 57.3414-4.09191C57.0233-4.27748 56.9159-4.68581 57.1014-5.00393 57.287-5.32205 57.6953-5.4295 58.0134-5.24393Z" fill="#172C51" transform="matrix(1 0 0 -1.00007 443.5 149.51)"/><path d="M39.6562 3.01937C41.0507 3.38711 42.1217 4.18111 42.8692 5.40135 43.6166 6.62159 43.9903 8.09376 43.9903 9.81786 43.9903 11.5467 43.6178 13.0189 42.8728 14.2344 42.1277 15.4498 41.0555 16.2414 39.6562 16.6092L39.4843 16.0576C40.5875 15.6898 41.4077 14.9639 41.945 13.8798 42.4823 12.7956 42.751 11.4178 42.751 9.74622 42.751 8.13197 42.4835 6.79114 41.9486 5.72372 41.4137 4.65631 40.5851 3.93873 39.4628 3.57098ZM8.0176 3.01937 8.21103 3.57098C7.09346 3.93873 6.26604 4.65631 5.72875 5.72372 5.19146 6.79114 4.92282 8.13197 4.92282 9.74622 4.92282 11.4178 5.19146 12.7956 5.72875 13.8798 6.26604 14.9639 7.0863 15.6898 8.18953 16.0576L8.0176 16.6092C6.61826 16.2414 5.54607 15.4498 4.80103 14.2344 4.05599 13.0189 3.68347 11.5467 3.68347 9.81786 3.68347 8.09376 4.05718 6.62159 4.80461 5.40135 5.55204 4.18111 6.62304 3.38711 8.0176 3.01937Z" fill-rule="evenodd" transform="matrix(1 0 0 1.00007 445.906 129.183)"/><text font-family="Cambria Math,Cambria Math_MSFontService,sans-serif" font-weight="400" font-size="14.6716" transform="matrix(1 0 0 1.00007 454.388 143)">𝑓</text><text font-family="Cambria Math,Cambria Math_MSFontService,sans-serif" font-weight="400" font-size="14.6716" transform="matrix(1 0 0 1.00007 466.078 143)">∘</text><text font-family="Cambria Math,Cambria Math_MSFontService,sans-serif" font-weight="400" font-size="14.6716" transform="matrix(1 0 0 1.00007 475.841 143)">𝑔</text><text font-family="Cambria Math,Cambria Math_MSFontService,sans-serif" font-weight="400" font-size="14.6716" transform="matrix(1 0 0 1.00007 573.977 155)">𝐶</text><text font-family="Cambria Math,Cambria Math_MSFontService,sans-serif" font-weight="400" font-size="14.6716" transform="matrix(1 0 0 1.00007 516.781 154)">𝐵</text><path d="M0-0.666846 34.6796-0.666846 34.6796 0.666846 0 0.666846ZM27.0134-5.24393 36.003 0 27.0134 5.24393C26.6953 5.4295 26.287 5.32205 26.1014 5.00393 25.9158 4.68581 26.0233 4.27748 26.3414 4.09191L34.3436-0.576007 34.3436 0.576007 26.3414-4.09191C26.0233-4.27748 25.9158-4.68581 26.1014-5.00393 26.287-5.32205 26.6953-5.4295 27.0134-5.24393Z" fill="#172C51" transform="matrix(1 0 0 -1.00007 531.5 149.51)"/><text font-family="Cambria Math,Cambria Math_MSFontService,sans-serif" font-weight="400" font-size="14.6716" transform="matrix(1 0 0 1.00007 540.521 143)">𝑓′</text><text font-family="Cambria Math,Cambria Math_MSFontService,sans-serif" font-weight="400" font-size="14.6716" transform="matrix(1 0 0 1.00007 373.273 195)">𝐶</text><text font-family="Cambria Math,Cambria Math_MSFontService,sans-serif" font-weight="400" font-size="14.6716" transform="matrix(1 0 0 1.00007 397.316 182)">𝑔′</text><path d="M0-0.666846 34.6797-0.666846 34.6797 0.666846 0 0.666846ZM27.0135-5.24393 36.0031 0 27.0135 5.24393C26.6954 5.4295 26.2871 5.32205 26.1015 5.00393 25.9159 4.68581 26.0234 4.27748 26.3415 4.09191L34.3437-0.576007 34.3437 0.576007 26.3415-4.09191C26.0234-4.27748 25.9159-4.68581 26.1015-5.00393 26.2871-5.32205 26.6954-5.4295 27.0135-5.24393Z" fill="#172C51" transform="matrix(1 0 0 -1.00007 388.5 189.512)"/><text font-family="Cambria Math,Cambria Math_MSFontService,sans-serif" font-weight="400" font-size="14.6716" transform="matrix(1 0 0 1.00007 428.757 195)">𝐵</text><path d="M0-0.666846 65.6796-0.666846 65.6796 0.666846 0 0.666846ZM58.0134-5.24393 67.003 0 58.0134 5.24393C57.6953 5.4295 57.287 5.32205 57.1014 5.00393 56.9159 4.68581 57.0233 4.27748 57.3414 4.09191L65.3436-0.576007 65.3436 0.576007 57.3414-4.09191C57.0233-4.27748 56.9159-4.68581 57.1014-5.00393 57.287-5.32205 57.6953-5.4295 58.0134-5.24393Z" fill="#172C51" transform="matrix(1 0 0 -1.00007 443.5 189.512)"/><text font-family="Cambria Math,Cambria Math_MSFontService,sans-serif" font-weight="400" font-size="14.6716" transform="matrix(1 0 0 1.00007 460.21 185)">𝑖𝑑𝐵</text><text font-family="Cambria Math,Cambria Math_MSFontService,sans-serif" font-weight="400" font-size="14.6716" transform="matrix(1 0 0 1.00007 573.31 195)">𝐶</text><text font-family="Cambria Math,Cambria Math_MSFontService,sans-serif" font-weight="400" font-size="14.6716" transform="matrix(1 0 0 1.00007 516.114 194)">𝐵</text><path d="M0-0.666846 34.6796-0.666846 34.6796 0.666846 0 0.666846ZM27.0134-5.24393 36.003 0 27.0134 5.24393C26.6953 5.4295 26.287 5.32205 26.1014 5.00393 25.9158 4.68581 26.0233 4.27748 26.3414 4.09191L34.3436-0.576007 34.3436 0.576007 26.3414-4.09191C26.0233-4.27748 25.9158-4.68581 26.1014-5.00393 26.287-5.32205 26.6953-5.4295 27.0134-5.24393Z" fill="#172C51" transform="matrix(1 0 0 -1.00007 531.5 189.512)"/><text font-family="Cambria Math,Cambria Math_MSFontService,sans-serif" font-weight="400" font-size="14.6716" transform="matrix(1 0 0 1.00007 539.854 183)">𝑓′</text><text font-family="Cambria Math,Cambria Math_MSFontService,sans-serif" font-weight="400" font-size="14.6716" transform="matrix(1 0 0 1.00007 371.939 232)">𝐶</text><path d="M0-0.666846 34.6797-0.666846 34.6797 0.666846 0 0.666846ZM27.0135-5.24393 36.0031 0 27.0135 5.24393C26.6954 5.4295 26.2871 5.32205 26.1015 5.00393 25.9159 4.68581 26.0234 4.27748 26.3415 4.09191L34.3437-0.576007 34.3437 0.576007 26.3415-4.09191C26.0234-4.27748 25.9159-4.68581 26.1015-5.00393 26.2871-5.32205 26.6954-5.4295 27.0135-5.24393Z" fill="#172C51" transform="matrix(1 0 0 -1.00007 387.5 226.515)"/><text font-family="Cambria Math,Cambria Math_MSFontService,sans-serif" font-weight="400" font-size="14.6716" transform="matrix(1 0 0 1.00007 427.423 232)">𝐵</text><text font-family="Cambria Math,Cambria Math_MSFontService,sans-serif" font-weight="400" font-size="14.6716" transform="matrix(1 0 0 1.00007 487.287 232)">𝐶</text><path d="M0-0.666846 34.6797-0.666846 34.6797 0.666846 0 0.666846ZM27.0135-5.24393 36.0031 0 27.0135 5.24393C26.6954 5.4295 26.2871 5.32205 26.1015 5.00393 25.9159 4.68581 26.0234 4.27748 26.3415 4.09191L34.3437-0.576007 34.3437 0.576007 26.3415-4.09191C26.0234-4.27748 25.9159-4.68581 26.1015-5.00393 26.2871-5.32205 26.6954-5.4295 27.0135-5.24393Z" fill="#172C51" transform="matrix(1 0 0 -1.00007 445.5 226.515)"/><text font-family="Cambria Math,Cambria Math_MSFontService,sans-serif" font-weight="400" font-size="14.6716" transform="matrix(1 0 0 1.00007 453.831 220)">𝑓′</text><text font-family="Cambria Math,Cambria Math_MSFontService,sans-serif" font-weight="400" font-size="14.6716" transform="matrix(1 0 0 1.00007 396.649 218)">𝑔′</text><text font-family="Cambria Math,Cambria Math_MSFontService,sans-serif" font-weight="400" font-size="14.6716" transform="matrix(1 0 0 1.00007 371.939 268)">𝐶</text><text font-family="Cambria Math,Cambria Math_MSFontService,sans-serif" font-weight="400" font-size="14.6716" transform="matrix(1 0 0 1.00007 424.603 268)">𝐶</text><path d="M0-0.666846 37.6797-0.666846 37.6797 0.666846 0 0.666846ZM30.0135-5.24393 39.0031 0 30.0135 5.24393C29.6954 5.4295 29.287 5.32205 29.1015 5.00393 28.9159 4.68581 29.0234 4.27748 29.3415 4.09191L37.3436-0.576007 37.3436 0.576007 29.3415-4.09191C29.0234-4.27748 28.9159-4.68581 29.1015-5.00393 29.287-5.32205 29.6954-5.4295 30.0135-5.24393Z" fill="#172C51" transform="matrix(1 0 0 -1.00007 384.5 262.517)"/><text font-family="Cambria Math,Cambria Math_MSFontService,sans-serif" font-weight="400" font-size="14.6716" transform="matrix(1 0 0 1.00007 387.47 259)">𝑖𝑑</text><text font-family="Cambria Math,Cambria Math_MSFontService,sans-serif" font-weight="400" font-size="14.6716" transform="matrix(1 0 0 1.00007 400.64 259)">C</text><text font-family="Cambria Math,Cambria Math_MSFontService,sans-serif" font-weight="400" font-size="14.6716" transform="matrix(1 0 0 1.00007 371.343 327)">𝐴</text><path d="M42.1969 3.01937C43.5914 3.38711 44.6624 4.18111 45.4099 5.40135 46.1573 6.62159 46.531 8.09376 46.531 9.81786 46.531 11.5467 46.1585 13.0189 45.4134 14.2344 44.6684 15.4498 43.5962 16.2414 42.1969 16.6092L42.0249 16.0576C43.1282 15.6898 43.9484 14.9639 44.4857 13.8798 45.023 12.7956 45.2917 11.4178 45.2917 9.74622 45.2917 8.13197 45.0242 6.79114 44.4893 5.72372 43.9544 4.65631 43.1258 3.93873 42.0034 3.57098ZM7.97759 3.01937 8.17101 3.57098C7.05345 3.93873 6.22603 4.65631 5.68874 5.72372 5.15145 6.79114 4.88281 8.13197 4.88281 9.74622 4.88281 11.4178 5.15145 12.7956 5.68874 13.8798 6.22603 14.9639 7.04629 15.6898 8.14952 16.0576L7.97759 16.6092C6.57825 16.2414 5.50606 15.4498 4.76102 14.2344 4.01598 13.0189 3.64346 11.5467 3.64346 9.81786 3.64346 8.09376 4.01717 6.62159 4.7646 5.40135 5.51203 4.18111 6.58303 3.38711 7.97759 3.01937Z" fill-rule="evenodd" transform="matrix(1 0 0 1.00007 397.923 298.303)"/><text font-family="Cambria Math,Cambria Math_MSFontService,sans-serif" font-weight="400" font-size="14.6716" transform="matrix(1 0 0 1.00007 406.365 312)">𝑓′</text><text font-family="Cambria Math,Cambria Math_MSFontService,sans-serif" font-weight="400" font-size="14.6716" transform="matrix(1 0 0 1.00007 421.463 312)">∘</text><text font-family="Cambria Math,Cambria Math_MSFontService,sans-serif" font-weight="400" font-size="14.6716" transform="matrix(1 0 0 1.00007 431.225 312)">𝑓</text><path d="M386.5 320.854 466.18 320.854 466.18 322.188 386.5 322.188ZM458.513 316.277 467.503 321.521 458.513 326.765C458.195 326.951 457.787 326.843 457.601 326.525 457.416 326.207 457.523 325.799 457.841 325.613L465.844 320.945 465.844 322.097 457.841 317.429C457.523 317.243 457.416 316.835 457.601 316.517 457.787 316.199 458.195 316.091 458.513 316.277Z" fill="#172C51"/><text font-family="Cambria Math,Cambria Math_MSFontService,sans-serif" font-weight="400" font-size="14.6716" transform="matrix(1 0 0 1.00007 469.452 327)">𝐶</text><path d="M485.5 320.854 565.18 320.854 565.18 322.188 485.5 322.188ZM557.513 316.277 566.503 321.521 557.513 326.765C557.195 326.951 556.787 326.843 556.602 326.525 556.416 326.207 556.523 325.799 556.841 325.613L564.844 320.945 564.844 322.097 556.841 317.429C556.523 317.243 556.416 316.835 556.602 316.517 556.787 316.199 557.195 316.091 557.513 316.277Z" fill="#172C51"/><path d="M44.0307 3.01937C45.4253 3.38711 46.4963 4.18111 47.2437 5.40135 47.9911 6.62159 48.3648 8.09376 48.3648 9.81786 48.3648 11.5467 47.9923 13.0189 47.2473 14.2344 46.5022 15.4498 45.43 16.2414 44.0307 16.6092L43.8588 16.0576C44.962 15.6898 45.7823 14.9639 46.3195 13.8798 46.8568 12.7956 47.1255 11.4178 47.1255 9.74622 47.1255 8.13197 46.858 6.79114 46.3231 5.72372 45.7882 4.65631 44.9596 3.93873 43.8373 3.57098ZM7.98426 3.01937 8.17768 3.57098C7.06012 3.93873 6.2327 4.65631 5.69541 5.72372 5.15812 6.79114 4.88947 8.13197 4.88947 9.74622 4.88947 11.4178 5.15812 12.7956 5.69541 13.8798 6.2327 14.9639 7.05296 15.6898 8.15619 16.0576L7.98426 16.6092C6.58492 16.2414 5.51273 15.4498 4.76769 14.2344 4.02265 13.0189 3.65013 11.5467 3.65013 9.81786 3.65013 8.09376 4.02384 6.62159 4.77127 5.40135 5.5187 4.18111 6.58969 3.38711 7.98426 3.01937Z" fill-rule="evenodd" transform="matrix(1 0 0 1.00007 492.778 299.118)"/><text font-family="Cambria Math,Cambria Math_MSFontService,sans-serif" font-weight="400" font-size="14.6716" transform="matrix(1 0 0 1.00007 501.227 313)">𝑔</text><text font-family="Cambria Math,Cambria Math_MSFontService,sans-serif" font-weight="400" font-size="14.6716" transform="matrix(1 0 0 1.00007 513.744 313)">∘</text><text font-family="Cambria Math,Cambria Math_MSFontService,sans-serif" font-weight="400" font-size="14.6716" transform="matrix(1 0 0 1.00007 523.506 313)">𝑔′</text><text font-family="Cambria Math,Cambria Math_MSFontService,sans-serif" font-weight="400" font-size="14.6716" transform="matrix(1 0 0 1.00007 571.38 327)">𝐴</text><text font-family="Cambria Math,Cambria Math_MSFontService,sans-serif" font-weight="400" font-size="14.6716" transform="matrix(1 0 0 1.00007 370.843 370)">𝐴</text><text font-family="Cambria Math,Cambria Math_MSFontService,sans-serif" font-weight="400" font-size="14.6716" transform="matrix(1 0 0 1.00007 395.333 357)">𝑓</text><path d="M0-0.666846 34.6797-0.666846 34.6797 0.666846 0 0.666846ZM27.0135-5.24393 36.0031 0 27.0135 5.24393C26.6954 5.4295 26.2871 5.32205 26.1015 5.00393 25.9159 4.68581 26.0234 4.27748 26.3415 4.09191L34.3437-0.576007 34.3437 0.576007 26.3415-4.09191C26.0234-4.27748 25.9159-4.68581 26.1015-5.00393 26.2871-5.32205 26.6954-5.4295 27.0135-5.24393Z" fill="#172C51" transform="matrix(1 0 0 -1.00007 386.5 364.524)"/><text font-family="Cambria Math,Cambria Math_MSFontService,sans-serif" font-weight="400" font-size="14.6716" transform="matrix(1 0 0 1.00007 426.821 370)">𝐵</text><path d="M0-0.666846 65.6796-0.666846 65.6796 0.666846 0 0.666846ZM58.0134-5.24393 67.003 0 58.0134 5.24393C57.6953 5.4295 57.287 5.32205 57.1014 5.00393 56.9159 4.68581 57.0233 4.27748 57.3414 4.09191L65.3436-0.576007 65.3436 0.576007 57.3414-4.09191C57.0233-4.27748 56.9159-4.68581 57.1014-5.00393 57.287-5.32205 57.6953-5.4295 58.0134-5.24393Z" fill="#172C51" transform="matrix(1 0 0 -1.00007 441.5 364.524)"/><path d="M46.6514 3.01937C48.046 3.38711 49.117 4.18111 49.8644 5.40135 50.6118 6.62159 50.9855 8.09376 50.9855 9.81786 50.9855 11.5467 50.613 13.0189 49.868 14.2344 49.1229 15.4498 48.0507 16.2414 46.6514 16.6092L46.4795 16.0576C47.5827 15.6898 48.403 14.9639 48.9403 13.8798 49.4775 12.7956 49.7462 11.4178 49.7462 9.74622 49.7462 8.13197 49.4787 6.79114 48.9438 5.72372 48.4089 4.65631 47.5803 3.93873 46.458 3.57098ZM8.02427 3.01937 8.21769 3.57098C7.10013 3.93873 6.27271 4.65631 5.73542 5.72372 5.19813 6.79114 4.92949 8.13197 4.92949 9.74622 4.92949 11.4178 5.19813 12.7956 5.73542 13.8798 6.27271 14.9639 7.09297 15.6898 8.1962 16.0576L8.02427 16.6092C6.62493 16.2414 5.55274 15.4498 4.8077 14.2344 4.06266 13.0189 3.69014 11.5467 3.69014 9.81786 3.69014 8.09376 4.06385 6.62159 4.81128 5.40135 5.55871 4.18111 6.62971 3.38711 8.02427 3.01937Z" fill-rule="evenodd" transform="matrix(1 0 0 1.00007 443.303 344.499)"/><text font-family="Cambria Math,Cambria Math_MSFontService,sans-serif" font-weight="400" font-size="14.6716" transform="matrix(1 0 0 1.00007 451.792 359)">𝑔′</text><text font-family="Cambria Math,Cambria Math_MSFontService,sans-serif" font-weight="400" font-size="14.6716" transform="matrix(1 0 0 1.00007 467.889 359)">∘</text><text font-family="Cambria Math,Cambria Math_MSFontService,sans-serif" font-weight="400" font-size="14.6716" transform="matrix(1 0 0 1.00007 477.652 359)">𝑓′</text><text font-family="Cambria Math,Cambria Math_MSFontService,sans-serif" font-weight="400" font-size="14.6716" transform="matrix(1 0 0 1.00007 571.38 370)">𝐴</text><text font-family="Cambria Math,Cambria Math_MSFontService,sans-serif" font-weight="400" font-size="14.6716" transform="matrix(1 0 0 1.00007 514.178 370)">𝐵</text><path d="M0-0.666846 34.6797-0.666846 34.6797 0.666846 0 0.666846ZM27.0135-5.24393 36.0031 0 27.0135 5.24393C26.6954 5.4295 26.2871 5.32205 26.1015 5.00393 25.9159 4.68581 26.0234 4.27748 26.3415 4.09191L34.3437-0.576007 34.3437 0.576007 26.3415-4.09191C26.0234-4.27748 25.9159-4.68581 26.1015-5.00393 26.2871-5.32205 26.6954-5.4295 27.0135-5.24393Z" fill="#172C51" transform="matrix(1 0 0 -1.00007 529.5 364.524)"/><text font-family="Cambria Math,Cambria Math_MSFontService,sans-serif" font-weight="400" font-size="14.6716" transform="matrix(1 0 0 1.00007 537.878 359)">𝑔</text><text font-family="Cambria Math,Cambria Math_MSFontService,sans-serif" font-weight="400" font-size="14.6716" transform="matrix(1 0 0 1.00007 370.676 410)">𝐴</text><text font-family="Cambria Math,Cambria Math_MSFontService,sans-serif" font-weight="400" font-size="14.6716" transform="matrix(1 0 0 1.00007 394.666 397)">𝑓</text><path d="M0-0.666846 34.6797-0.666846 34.6797 0.666846 0 0.666846ZM27.0135-5.24393 36.0031 0 27.0135 5.24393C26.6954 5.4295 26.2871 5.32205 26.1015 5.00393 25.9159 4.68581 26.0234 4.27748 26.3415 4.09191L34.3437-0.576007 34.3437 0.576007 26.3415-4.09191C26.0234-4.27748 25.9159-4.68581 26.1015-5.00393 26.2871-5.32205 26.6954-5.4295 27.0135-5.24393Z" fill="#172C51" transform="matrix(1 0 0 -1.00007 385.5 404.526)"/><text font-family="Cambria Math,Cambria Math_MSFontService,sans-serif" font-weight="400" font-size="14.6716" transform="matrix(1 0 0 1.00007 426.154 410)">𝐵</text><path d="M0-0.666846 65.6796-0.666846 65.6796 0.666846 0 0.666846ZM58.0134-5.24393 67.003 0 58.0134 5.24393C57.6953 5.4295 57.287 5.32205 57.1014 5.00393 56.9159 4.68581 57.0233 4.27748 57.3414 4.09191L65.3436-0.576007 65.3436 0.576007 57.3414-4.09191C57.0233-4.27748 56.9159-4.68581 57.1014-5.00393 57.287-5.32205 57.6953-5.4295 58.0134-5.24393Z" fill="#172C51" transform="matrix(1 0 0 -1.00007 440.5 404.526)"/><text font-family="Cambria Math,Cambria Math_MSFontService,sans-serif" font-weight="400" font-size="14.6716" transform="matrix(1 0 0 1.00007 457.606 401)">𝑖𝑑𝐵</text><text font-family="Cambria Math,Cambria Math_MSFontService,sans-serif" font-weight="400" font-size="14.6716" transform="matrix(1 0 0 1.00007 570.713 410)">𝐴</text><text font-family="Cambria Math,Cambria Math_MSFontService,sans-serif" font-weight="400" font-size="14.6716" transform="matrix(1 0 0 1.00007 513.511 410)">𝐵</text><path d="M0-0.666846 34.6797-0.666846 34.6797 0.666846 0 0.666846ZM27.0135-5.24393 36.0031 0 27.0135 5.24393C26.6954 5.4295 26.2871 5.32205 26.1015 5.00393 25.9159 4.68581 26.0234 4.27748 26.3415 4.09191L34.3437-0.576007 34.3437 0.576007 26.3415-4.09191C26.0234-4.27748 25.9159-4.68581 26.1015-5.00393 26.2871-5.32205 26.6954-5.4295 27.0135-5.24393Z" fill="#172C51" transform="matrix(1 0 0 -1.00007 528.5 404.526)"/><text font-family="Cambria Math,Cambria Math_MSFontService,sans-serif" font-weight="400" font-size="14.6716" transform="matrix(1 0 0 1.00007 537.211 399)">𝑔</text><text font-family="Cambria Math,Cambria Math_MSFontService,sans-serif" font-weight="400" font-size="14.6716" transform="matrix(1 0 0 1.00007 369.343 447)">𝐴</text><path d="M0-0.666846 34.6797-0.666846 34.6797 0.666846 0 0.666846ZM27.0135-5.24393 36.0031 0 27.0135 5.24393C26.6954 5.4295 26.2871 5.32205 26.1015 5.00393 25.9159 4.68581 26.0234 4.27748 26.3415 4.09191L34.3437-0.576007 34.3437 0.576007 26.3415-4.09191C26.0234-4.27748 25.9159-4.68581 26.1015-5.00393 26.2871-5.32205 26.6954-5.4295 27.0135-5.24393Z" fill="#172C51" transform="matrix(1 0 0 -1.00007 384.5 441.529)"/><text font-family="Cambria Math,Cambria Math_MSFontService,sans-serif" font-weight="400" font-size="14.6716" transform="matrix(1 0 0 1.00007 424.82 447)">𝐵</text><text font-family="Cambria Math,Cambria Math_MSFontService,sans-serif" font-weight="400" font-size="14.6716" transform="matrix(1 0 0 1.00007 484.69 447)">𝐴</text><path d="M0-0.666846 34.6797-0.666846 34.6797 0.666846 0 0.666846ZM27.0135-5.24393 36.0031 0 27.0135 5.24393C26.6954 5.4295 26.2871 5.32205 26.1015 5.00393 25.9159 4.68581 26.0234 4.27748 26.3415 4.09191L34.3437-0.576007 34.3437 0.576007 26.3415-4.09191C26.0234-4.27748 25.9159-4.68581 26.1015-5.00393 26.2871-5.32205 26.6954-5.4295 27.0135-5.24393Z" fill="#172C51" transform="matrix(1 0 0 -1.00007 442.5 441.529)"/><text font-family="Cambria Math,Cambria Math_MSFontService,sans-serif" font-weight="400" font-size="14.6716" transform="matrix(1 0 0 1.00007 451.188 435)">𝑔</text><text font-family="Cambria Math,Cambria Math_MSFontService,sans-serif" font-weight="400" font-size="14.6716" transform="matrix(1 0 0 1.00007 393.999 434)">𝑓</text><text font-family="Cambria Math,Cambria Math_MSFontService,sans-serif" font-weight="400" font-size="14.6716" transform="matrix(1 0 0 1.00007 369.343 484)">𝐴</text><text font-family="Cambria Math,Cambria Math_MSFontService,sans-serif" font-weight="400" font-size="14.6716" transform="matrix(1 0 0 1.00007 422.007 484)">𝐴</text><path d="M0-0.666846 37.6797-0.666846 37.6797 0.666846 0 0.666846ZM30.0135-5.24393 39.0031 0 30.0135 5.24393C29.6954 5.4295 29.287 5.32205 29.1015 5.00393 28.9159 4.68581 29.0234 4.27748 29.3415 4.09191L37.3436-0.576007 37.3436 0.576007 29.3415-4.09191C29.0234-4.27748 28.9159-4.68581 29.1015-5.00393 29.287-5.32205 29.6954-5.4295 30.0135-5.24393Z" fill="#172C51" transform="matrix(1 0 0 -1.00007 381.5 478.531)"/><text font-family="Cambria Math,Cambria Math_MSFontService,sans-serif" font-weight="400" font-size="14.6716" transform="matrix(1 0 0 1.00007 384.88 474)">𝑖𝑑𝐴</text><path d="M27.5 75.5049 607.5 75.5049" stroke="#172C51" stroke-width="1.33369" stroke-miterlimit="8" fill="none" fill-rule="evenodd"/><path d="M25.5 287.519 605.5 287.519" stroke="#172C51" stroke-width="1.33369" stroke-miterlimit="8" fill="none" fill-rule="evenodd"/><path d="M150.39 110.962 155.213 114.368 158.654 118.278 160.644 122.543 161.159 127.021 160.203 131.55 157.805 135.991 154.141 139.754 153.185 138.823 156.784 135.127 156.675 135.276 158.983 131.001 158.918 131.18 159.831 126.852 159.821 127.066 159.331 122.803 159.389 123.008 157.486 118.928 157.59 119.087 154.264 115.308 154.38 115.412 149.621 112.052ZM157.228 141.542 148.5 143.509 152.163 135.346Z" fill="#172C51"/><path d="M150.398 151.971 155.22 155.482 158.659 159.511 160.645 163.901 161.158 168.507 160.205 173.166 157.81 177.739 154.092 181.681 153.122 180.766 156.777 176.89 156.671 177.039 158.979 172.63 158.917 172.806 159.831 168.343 159.821 168.55 159.331 164.154 159.386 164.355 157.483 160.147 157.583 160.305 154.257 156.408 154.372 156.514 149.613 153.049ZM157.201 183.43 148.5 185.512 152.055 177.302Z" fill="#172C51"/><path d="M149.391 191.968 154.213 195.373 157.654 199.283 159.644 203.548 160.159 208.027 159.203 212.555 156.805 216.997 153.141 220.759 152.185 219.828 155.784 216.133 155.675 216.281 157.983 212.006 157.918 212.186 158.831 207.857 158.821 208.071 158.331 203.808 158.389 204.014 156.486 199.934 156.59 200.092 153.264 196.313 153.38 196.417 148.621 193.057ZM156.228 222.547 147.5 224.515 151.163 216.352Z" fill="#172C51"/><path d="M149.391 231.97 154.213 235.375 157.654 239.285 159.644 243.551 160.159 248.029 159.203 252.558 156.805 256.999 153.141 260.762 152.185 259.831 155.784 256.135 155.675 256.284 157.983 252.009 157.918 252.188 158.831 247.86 158.821 248.074 158.331 243.811 158.389 244.016 156.486 239.936 156.59 240.095 153.264 236.316 153.38 236.42 148.621 233.06ZM156.228 262.55 147.5 264.517 151.163 256.354Z" fill="#172C51"/><text font-family="Yu Gothic,Yu Gothic_MSFontService,sans-serif" font-weight="400" font-size="14.6716" transform="matrix(1 0 0 1.00007 166.157 132)">結合律</text><text font-family="Cambria Math,Cambria Math_MSFontService,sans-serif" font-weight="400" font-size="14.6716" transform="matrix(1 0 0 1.00007 167.655 170)">𝑓</text><text font-family="Cambria Math,Cambria Math_MSFontService,sans-serif" font-weight="400" font-size="14.6716" transform="matrix(1 0 0 1.00007 176.084 170)">,</text><text font-family="Cambria Math,Cambria Math_MSFontService,sans-serif" font-weight="400" font-size="14.6716" transform="matrix(1 0 0 1.00007 181.532 170)">𝑔</text><text font-family="Yu Gothic,Yu Gothic_MSFontService,sans-serif" font-weight="400" font-size="14.6716" transform="matrix(1 0 0 1.00007 190.534 170)">は</text><text font-family="Yu Gothic,Yu Gothic_MSFontService,sans-serif" font-weight="400" font-size="14.6716" transform="matrix(1 0 0 1.00007 205.205 170)">可逆</text><text font-family="Cambria Math,Cambria Math_MSFontService,sans-serif" font-weight="400" font-size="14.6716" transform="matrix(1 0 0 1.00007 234.546 170)">⇒</text><text font-family="Cambria Math,Cambria Math_MSFontService,sans-serif" font-weight="400" font-size="14.6716" transform="matrix(1 0 0 1.00007 247.216 170)">𝑓</text><text font-family="Cambria Math,Cambria Math_MSFontService,sans-serif" font-weight="400" font-size="14.6716" transform="matrix(1 0 0 1.00007 258.906 170)">∘</text><text font-family="Cambria Math,Cambria Math_MSFontService,sans-serif" font-weight="400" font-size="14.6716" transform="matrix(1 0 0 1.00007 268.669 170)">𝑔</text><text font-family="Cambria Math,Cambria Math_MSFontService,sans-serif" font-weight="400" font-size="14.6716" transform="matrix(1 0 0 1.00007 281.999 170)">=</text><text font-family="Cambria Math,Cambria Math_MSFontService,sans-serif" font-weight="400" font-size="14.6716" transform="matrix(1 0 0 1.00007 297.076 170)">𝑖𝑑𝐵</text><text font-family="Cambria Math,Cambria Math_MSFontService,sans-serif" font-weight="400" font-size="14.6716" transform="matrix(1 0 0 1.00007 167.655 211)">𝑖𝑑𝐵</text><text font-family="MS Mincho,MS Mincho_MSFontService,sans-serif" font-weight="400" font-size="14.6716" transform="matrix(1 0 0 1.00007 190.494 211)">は</text><text font-family="Yu Gothic,Yu Gothic_MSFontService,sans-serif" font-weight="400" font-size="14.6716" transform="matrix(1 0 0 1.00007 205.165 211)">削除可能</text><text font-family="Cambria Math,Cambria Math_MSFontService,sans-serif" font-weight="400" font-size="14.6716" transform="matrix(1 0 0 1.00007 167.655 250)">𝑓′</text><text font-family="Cambria Math,Cambria Math_MSFontService,sans-serif" font-weight="400" font-size="14.6716" transform="matrix(1 0 0 1.00007 179.491 250)">,</text><text font-family="Cambria Math,Cambria Math_MSFontService,sans-serif" font-weight="400" font-size="14.6716" transform="matrix(1 0 0 1.00007 184.939 250)">𝑔′</text><text font-family="Yu Gothic,Yu Gothic_MSFontService,sans-serif" font-weight="400" font-size="14.6716" transform="matrix(1 0 0 1.00007 197.776 250)">は</text><text font-family="Yu Gothic,Yu Gothic_MSFontService,sans-serif" font-weight="400" font-size="14.6716" transform="matrix(1 0 0 1.00007 212.447 250)">可逆</text><text font-family="Cambria Math,Cambria Math_MSFontService,sans-serif" font-weight="400" font-size="14.6716" transform="matrix(1 0 0 1.00007 241.788 250)">⇒</text><text font-family="Cambria Math,Cambria Math_MSFontService,sans-serif" font-weight="400" font-size="14.6716" transform="matrix(1 0 0 1.00007 254.458 250)">𝑓′</text><text font-family="Cambria Math,Cambria Math_MSFontService,sans-serif" font-weight="400" font-size="14.6716" transform="matrix(1 0 0 1.00007 269.556 250)">∘</text><text font-family="Cambria Math,Cambria Math_MSFontService,sans-serif" font-weight="400" font-size="14.6716" transform="matrix(1 0 0 1.00007 279.318 250)">𝑔′</text><text font-family="Cambria Math,Cambria Math_MSFontService,sans-serif" font-weight="400" font-size="14.6716" transform="matrix(1 0 0 1.00007 296.229 250)">=</text><text font-family="Cambria Math,Cambria Math_MSFontService,sans-serif" font-weight="400" font-size="14.6716" transform="matrix(1 0 0 1.00007 311.307 250)">𝑖𝑑𝐶</text><path d="M151.391 322.976 156.213 326.381 159.654 330.291 161.644 334.557 162.159 339.035 161.203 343.564 158.805 348.005 155.141 351.768 154.185 350.837 157.784 347.141 157.675 347.29 159.983 343.015 159.918 343.194 160.831 338.866 160.821 339.08 160.331 334.817 160.389 335.022 158.486 330.942 158.59 331.101 155.264 327.322 155.38 327.426 150.621 324.066ZM158.228 353.556 149.5 355.523 153.163 347.36Z" fill="#172C51"/><path d="M151.391 364.979 156.213 368.384 159.654 372.294 161.644 376.559 162.159 381.038 161.203 385.567 158.805 390.008 155.141 393.77 154.185 392.84 157.784 389.144 157.675 389.292 159.983 385.018 159.918 385.197 160.831 380.869 160.821 381.083 160.331 376.819 160.389 377.025 158.486 372.945 158.59 373.103 155.264 369.324 155.38 369.428 150.621 366.069ZM158.228 395.559 149.5 397.526 153.163 389.363Z" fill="#172C51"/><path d="M150.39 403.982 155.213 407.387 158.654 411.297 160.644 415.562 161.159 420.041 160.203 424.569 157.805 429.01 154.141 432.773 153.185 431.842 156.784 428.147 156.675 428.295 158.983 424.02 158.918 424.199 159.831 419.871 159.821 420.085 159.331 415.822 159.389 416.028 157.486 411.947 157.59 412.106 154.264 408.327 154.38 408.431 149.621 405.071ZM157.228 434.561 148.5 436.528 152.163 428.366Z" fill="#172C51"/><path d="M150.39 443.984 155.213 447.389 158.654 451.299 160.644 455.564 161.159 460.043 160.203 464.572 157.805 469.013 154.141 472.775 153.185 471.845 156.784 468.149 156.675 468.297 158.983 464.023 158.918 464.202 159.831 459.874 159.821 460.088 159.331 455.824 159.389 456.03 157.486 451.95 157.59 452.109 154.264 448.329 154.38 448.434 149.621 445.074ZM157.228 474.564 148.5 476.531 152.163 468.368Z" fill="#172C51"/><text font-family="Yu Gothic,Yu Gothic_MSFontService,sans-serif" font-weight="400" font-size="14.6716" transform="matrix(1 0 0 1.00007 166.994 344)">結合律</text><text font-family="Cambria Math,Cambria Math_MSFontService,sans-serif" font-weight="400" font-size="14.6716" transform="matrix(1 0 0 1.00007 168.493 382)">𝑔′</text><text font-family="Cambria Math,Cambria Math_MSFontService,sans-serif" font-weight="400" font-size="14.6716" transform="matrix(1 0 0 1.00007 181.329 382)">,</text><text font-family="Cambria Math,Cambria Math_MSFontService,sans-serif" font-weight="400" font-size="14.6716" transform="matrix(1 0 0 1.00007 186.777 382)">𝑓′</text><text font-family="Yu Gothic,Yu Gothic_MSFontService,sans-serif" font-weight="400" font-size="14.6716" transform="matrix(1 0 0 1.00007 198.614 382)">は</text><text font-family="Yu Gothic,Yu Gothic_MSFontService,sans-serif" font-weight="400" font-size="14.6716" transform="matrix(1 0 0 1.00007 213.285 382)">可逆</text><text font-family="Cambria Math,Cambria Math_MSFontService,sans-serif" font-weight="400" font-size="14.6716" transform="matrix(1 0 0 1.00007 242.626 382)">⇒</text><text font-family="Cambria Math,Cambria Math_MSFontService,sans-serif" font-weight="400" font-size="14.6716" transform="matrix(1 0 0 1.00007 255.296 382)">𝑔′</text><text font-family="Cambria Math,Cambria Math_MSFontService,sans-serif" font-weight="400" font-size="14.6716" transform="matrix(1 0 0 1.00007 271.394 382)">∘</text><text font-family="Cambria Math,Cambria Math_MSFontService,sans-serif" font-weight="400" font-size="14.6716" transform="matrix(1 0 0 1.00007 281.156 382)">𝑓′</text><text font-family="Cambria Math,Cambria Math_MSFontService,sans-serif" font-weight="400" font-size="14.6716" transform="matrix(1 0 0 1.00007 297.067 382)">=</text><text font-family="Cambria Math,Cambria Math_MSFontService,sans-serif" font-weight="400" font-size="14.6716" transform="matrix(1 0 0 1.00007 312.144 382)">𝑖𝑑𝐵</text><text font-family="Cambria Math,Cambria Math_MSFontService,sans-serif" font-weight="400" font-size="14.6716" transform="matrix(1 0 0 1.00007 168.493 423)">𝑖𝑑𝐵</text><text font-family="MS Mincho,MS Mincho_MSFontService,sans-serif" font-weight="400" font-size="14.6716" transform="matrix(1 0 0 1.00007 191.332 423)">は</text><text font-family="Yu Gothic,Yu Gothic_MSFontService,sans-serif" font-weight="400" font-size="14.6716" transform="matrix(1 0 0 1.00007 206.003 423)">削除可能</text><text font-family="Cambria Math,Cambria Math_MSFontService,sans-serif" font-weight="400" font-size="14.6716" transform="matrix(1 0 0 1.00007 168.493 462)">𝑔</text><text font-family="Cambria Math,Cambria Math_MSFontService,sans-serif" font-weight="400" font-size="14.6716" transform="matrix(1 0 0 1.00007 177.748 462)">,</text><text font-family="Cambria Math,Cambria Math_MSFontService,sans-serif" font-weight="400" font-size="14.6716" transform="matrix(1 0 0 1.00007 183.196 462)">𝑓</text><text font-family="Yu Gothic,Yu Gothic_MSFontService,sans-serif" font-weight="400" font-size="14.6716" transform="matrix(1 0 0 1.00007 191.199 462)">は</text><text font-family="Yu Gothic,Yu Gothic_MSFontService,sans-serif" font-weight="400" font-size="14.6716" transform="matrix(1 0 0 1.00007 205.869 462)">可逆</text><text font-family="Cambria Math,Cambria Math_MSFontService,sans-serif" font-weight="400" font-size="14.6716" transform="matrix(1 0 0 1.00007 235.21 462)">⇒</text><text font-family="Cambria Math,Cambria Math_MSFontService,sans-serif" font-weight="400" font-size="14.6716" transform="matrix(1 0 0 1.00007 247.881 462)">𝑔</text><text font-family="Cambria Math,Cambria Math_MSFontService,sans-serif" font-weight="400" font-size="14.6716" transform="matrix(1 0 0 1.00007 260.397 462)">∘</text><text font-family="Cambria Math,Cambria Math_MSFontService,sans-serif" font-weight="400" font-size="14.6716" transform="matrix(1 0 0 1.00007 270.16 462)">𝑓</text><text font-family="Cambria Math,Cambria Math_MSFontService,sans-serif" font-weight="400" font-size="14.6716" transform="matrix(1 0 0 1.00007 282.663 462)">=</text><text font-family="Cambria Math,Cambria Math_MSFontService,sans-serif" font-weight="400" font-size="14.6716" transform="matrix(1 0 0 1.00007 297.741 462)">𝑖𝑑𝐴</text></g></svg>