<svg width="539" height="293" xmlns="http://www.w3.org/2000/svg" xmlns:xlink="http://www.w3.org/1999/xlink" overflow="hidden"><defs><clipPath id="clip0"><rect x="0" y="0" width="539" height="293"/></clipPath></defs><g clip-path="url(#clip0)"><rect x="0" y="0" width="539" height="292.895" fill="#FFFFFF"/><text font-family="Cambria Math,Cambria Math_MSFontService,sans-serif" font-weight="400" font-size="13.6344" transform="matrix(1 0 0 0.999641 208.036 129)">𝑿</text><text font-family="Cambria Math,Cambria Math_MSFontService,sans-serif" font-weight="400" font-size="13.6344" transform="matrix(1 0 0 0.999641 220.568 129)">⊔</text><text font-family="Cambria Math,Cambria Math_MSFontService,sans-serif" font-weight="400" font-size="13.6344" transform="matrix(1 0 0 0.999641 233.267 129)">𝒀</text><text font-family="Cambria Math,Cambria Math_MSFontService,sans-serif" font-weight="400" font-size="13.6344" transform="matrix(1 0 0 0.999641 59.2521 119)">𝑿</text><text font-family="Cambria Math,Cambria Math_MSFontService,sans-serif" font-weight="400" font-size="13.6344" transform="matrix(1 0 0 0.999641 386.831 117)">𝒀</text><text font-family="Cambria Math,Cambria Math_MSFontService,sans-serif" font-weight="400" font-size="13.6344" transform="matrix(1 0 0 0.999641 144.277 149)">𝒊𝒔</text><path d="M64.5049 65.4483 0.462218 1.40556 1.40556 0.462218 65.4483 64.5049ZM2.64719 10.0655-0.00218628-0.00218628 10.0655 2.64719C10.4217 2.74095 10.6345 3.10577 10.5408 3.46203 10.447 3.8183 10.0822 4.03111 9.72594 3.93736L0.764153 1.579 1.579 0.764153 3.93736 9.72594C4.03111 10.0822 3.8183 10.447 3.46203 10.5408 3.10577 10.6345 2.74095 10.4217 2.64719 10.0655Z" fill="#172C51" transform="matrix(-1.00036 0 0 1 184.5 53.4808)"/><path d="M29.249 2.80607C30.5445 3.1477 31.5394 3.8853 32.2338 5.01887 32.9281 6.15245 33.2753 7.52006 33.2753 9.12171 33.2753 10.7278 32.9292 12.0954 32.2371 13.2245 31.545 14.3537 30.5489 15.0891 29.249 15.4307L29.0892 14.9182C30.1141 14.5766 30.8761 13.9022 31.3753 12.8951 31.8744 11.888 32.1239 10.608 32.1239 9.05516 32.1239 7.55555 31.8755 6.30995 31.3786 5.31835 30.8817 4.32675 30.1119 3.66014 29.0693 3.31851ZM6.93852 2.80607 7.1182 3.31851C6.08002 3.66014 5.31136 4.32675 4.81223 5.31835 4.3131 6.30995 4.06354 7.55555 4.06354 9.05516 4.06354 10.608 4.3131 11.888 4.81223 12.8951 5.31136 13.9022 6.07336 14.5766 7.09824 14.9182L6.93852 15.4307C5.63857 15.0891 4.64253 14.3537 3.9504 13.2245 3.25828 12.0954 2.91222 10.7278 2.91222 9.12171 2.91222 7.52006 3.25939 6.15245 3.95373 5.01887 4.64807 3.8853 5.643 3.1477 6.93852 2.80607Z" fill-rule="evenodd" transform="matrix(1.00036 0 0 1 490.364 146.316)"/><text font-family="Cambria Math,Cambria Math_MSFontService,sans-serif" font-weight="400" font-size="13.6344" transform="matrix(1 0 0 0.999641 497.737 159)">𝟑</text><text font-family="Cambria Math,Cambria Math_MSFontService,sans-serif" font-weight="400" font-size="13.6344" transform="matrix(1 0 0 0.999641 505.911 159)">.</text><text font-family="Cambria Math,Cambria Math_MSFontService,sans-serif" font-weight="400" font-size="13.6344" transform="matrix(1 0 0 0.999641 511.016 159)">𝟕</text><text font-family="Cambria Math,Cambria Math_MSFontService,sans-serif" font-weight="400" font-size="13.6344" transform="matrix(1 0 0 0.999641 298.792 148)">𝒊𝒔</text><rect x="10.5" y="126.455" width="102" height="58.9787" stroke="#000000" stroke-width="1.00093" stroke-linejoin="round" stroke-miterlimit="10" fill="none"/><text font-family="Yu Gothic,Yu Gothic_MSFontService,sans-serif" font-weight="700" font-size="13.6344" transform="matrix(1 0 0 0.999641 19.7429 144)">飛行機の</text><text font-family="Yu Gothic,Yu Gothic_MSFontService,sans-serif" font-weight="700" font-size="13.6344" transform="matrix(1 0 0 0.999641 19.7429 160)">エコノミー</text><text font-family="Yu Gothic,Yu Gothic_MSFontService,sans-serif" font-weight="700" font-size="13.6344" transform="matrix(1 0 0 0.999641 19.7429 176)">クラスの座席</text><rect x="340.5" y="125.455" width="102" height="58.9787" stroke="#000000" stroke-width="1.00093" stroke-linejoin="round" stroke-miterlimit="10" fill="none"/><text font-family="Yu Gothic,Yu Gothic_MSFontService,sans-serif" font-weight="700" font-size="13.6344" transform="matrix(1 0 0 0.999641 349.318 142)">飛行機の</text><text font-family="Yu Gothic,Yu Gothic_MSFontService,sans-serif" font-weight="700" font-size="13.6344" transform="matrix(1 0 0 0.999641 349.318 158)">ファースト</text><text font-family="Yu Gothic,Yu Gothic_MSFontService,sans-serif" font-weight="700" font-size="13.6344" transform="matrix(1 0 0 0.999641 349.318 174)">クラスの座席</text><rect x="189.5" y="134.452" width="74" height="41.9849" stroke="#000000" stroke-width="1.00093" stroke-linejoin="round" stroke-miterlimit="10" fill="none"/><text font-family="Yu Gothic,Yu Gothic_MSFontService,sans-serif" font-weight="700" font-size="13.6344" transform="matrix(1 0 0 0.999641 198.352 151)">飛行機の</text><text font-family="Yu Gothic,Yu Gothic_MSFontService,sans-serif" font-weight="700" font-size="13.6344" transform="matrix(1 0 0 0.999641 198.352 167)">座席</text><rect x="189.5" y="21.4923" width="74" height="25.9906" stroke="#000000" stroke-width="1.00093" stroke-linejoin="round" stroke-miterlimit="10" fill="none"/><text font-family="Yu Gothic,Yu Gothic_MSFontService,sans-serif" font-weight="700" font-size="13.6344" transform="matrix(1 0 0 0.999641 198.352 39)">ドル金額</text><text font-family="Yu Gothic,Yu Gothic_MSFontService,sans-serif" font-weight="400" font-size="13.6344" transform="matrix(1 0 0 0.999641 60.7615 82)">～</text><text font-family="Yu Gothic,Yu Gothic_MSFontService,sans-serif" font-weight="700" font-size="13.6344" transform="matrix(1 0 0 0.999641 74.4408 82)">の</text><text font-family="Yu Gothic,Yu Gothic_MSFontService,sans-serif" font-weight="700" font-size="13.6344" transform="matrix(1 0 0 0.999641 88.1202 82)">価格</text><text font-family="Yu Gothic,Yu Gothic_MSFontService,sans-serif" font-weight="700" font-size="13.6344" transform="matrix(1 0 0 0.999641 115.479 82)">は</text><text font-family="Yu Gothic,Yu Gothic_MSFontService,sans-serif" font-weight="700" font-size="13.6344" transform="matrix(1 0 0 0.999641 129.158 82)">･･･</text><path d="M332.032 117.933 266.973 53.883 267.909 52.9325 332.968 116.983ZM269.225 62.5261 266.498 52.479 276.589 55.0514C276.946 55.1425 277.162 55.5057 277.071 55.8626 276.98 56.2196 276.616 56.4352 276.259 56.3442L267.276 54.0543 268.085 53.2333 270.513 62.1768C270.609 62.5323 270.399 62.8988 270.044 62.9952 269.688 63.0917 269.322 62.8817 269.225 62.5261Z" fill="#172C51"/><text font-family="Yu Gothic,Yu Gothic_MSFontService,sans-serif" font-weight="400" font-size="13.6344" transform="matrix(1 0 0 0.999641 310.037 82)">～</text><text font-family="Yu Gothic,Yu Gothic_MSFontService,sans-serif" font-weight="700" font-size="13.6344" transform="matrix(1 0 0 0.999641 323.716 82)">の</text><text font-family="Yu Gothic,Yu Gothic_MSFontService,sans-serif" font-weight="700" font-size="13.6344" transform="matrix(1 0 0 0.999641 337.396 82)">価格</text><text font-family="Yu Gothic,Yu Gothic_MSFontService,sans-serif" font-weight="700" font-size="13.6344" transform="matrix(1 0 0 0.999641 364.754 82)">は</text><text font-family="Yu Gothic,Yu Gothic_MSFontService,sans-serif" font-weight="700" font-size="13.6344" transform="matrix(1 0 0 0.999641 378.434 82)">･･･</text><rect x="195.5" y="260.406" width="61" height="25.9906" stroke="#000000" stroke-width="1.00093" stroke-linejoin="round" stroke-miterlimit="10" fill="none"/><text font-family="Yu Gothic,Yu Gothic_MSFontService,sans-serif" font-weight="700" font-size="13.6344" transform="matrix(1 0 0 0.999641 204.872 277)">飛行機</text><path d="M119.968 189.956 185.026 254.006 184.09 254.956 119.032 190.907ZM182.775 245.363 185.502 255.41 175.411 252.838C175.054 252.747 174.838 252.384 174.929 252.027 175.02 251.67 175.384 251.454 175.741 251.545L184.723 253.835 183.915 254.656 181.487 245.713C181.391 245.357 181.601 244.991 181.956 244.894 182.312 244.798 182.679 245.008 182.775 245.363Z" fill="#172C51"/><path d="M64.505 65.4484 0.462218 1.40556 1.40556 0.462218 65.4484 64.505ZM2.64719 10.0655-0.00218628-0.00218628 10.0655 2.64719C10.4217 2.74095 10.6345 3.10577 10.5408 3.46203 10.447 3.8183 10.0822 4.03111 9.72594 3.93736L0.764153 1.579 1.579 0.764153 3.93736 9.72594C4.03111 10.0822 3.8183 10.447 3.46203 10.5408 3.10577 10.6345 2.74095 10.4217 2.64719 10.0655Z" fill="#172C51" transform="matrix(1.00036 0 0 -1 267.5 256.408)"/><text font-family="Cambria Math,Cambria Math_MSFontService,sans-serif" font-weight="400" font-size="13.6344" transform="matrix(1 0 0 0.999641 221.704 17)">𝑨</text><text font-family="Cambria Math,Cambria Math_MSFontService,sans-serif" font-weight="400" font-size="13.6344" transform="matrix(1 0 0 0.999641 220.839 255)">𝑩</text><path d="M225.833 113.459 225.833 108.123 227.167 108.123 227.167 113.459ZM225.833 104.121 225.833 98.7843 227.167 98.7843 227.167 104.121ZM225.833 94.782 225.833 89.4456 227.167 89.4456 227.167 94.782ZM225.833 85.4434 225.833 80.107 227.167 80.107 227.167 85.4434ZM225.833 76.1047 225.833 70.7683 227.167 70.7683 227.167 76.1047ZM225.833 66.7661 225.833 61.4297 227.167 61.4297 227.167 66.7661ZM225.833 57.4274 225.833 54.8015 227.167 54.8015 227.167 57.4274ZM221.253 62.47 226.5 53.4777 231.747 62.47C231.933 62.7882 231.826 63.1967 231.507 63.3823 231.189 63.5679 230.78 63.4604 230.595 63.1422L225.924 55.1377 227.076 55.1377 222.405 63.1422C222.22 63.4604 221.811 63.5679 221.493 63.3823 221.174 63.1967 221.067 62.7882 221.253 62.47Z" fill="#172C51"/><path d="M226.167 180.435 226.167 185.772 224.833 185.772 224.833 180.435ZM226.167 189.774 226.167 195.11 224.833 195.11 224.833 189.774ZM226.167 199.113 226.167 204.449 224.833 204.449 224.833 199.113ZM226.167 208.451 226.167 213.788 224.833 213.788 224.833 208.451ZM226.167 217.79 226.167 223.126 224.833 223.126 224.833 217.79ZM226.167 227.128 226.167 232.465 224.833 232.465 224.833 227.128ZM226.167 236.467 226.167 239.093 224.833 239.093 224.833 236.467ZM230.747 231.424 225.5 240.417 220.253 231.424C220.067 231.106 220.174 230.698 220.493 230.512 220.811 230.326 221.22 230.434 221.405 230.752L226.076 238.757 224.924 238.757 229.595 230.752C229.78 230.434 230.189 230.326 230.507 230.512 230.826 230.698 230.933 231.106 230.747 231.424Z" fill="#172C51"/><text font-family="Yu Gothic,Yu Gothic_MSFontService,sans-serif" font-weight="400" font-size="13.6344" transform="matrix(1 0 0 0.999641 53.5319 234)">～</text><text font-family="Yu Gothic,Yu Gothic_MSFontService,sans-serif" font-weight="700" font-size="13.6344" transform="matrix(1 0 0 0.999641 67.2112 234)">は</text><text font-family="Yu Gothic,Yu Gothic_MSFontService,sans-serif" font-weight="700" font-size="13.6344" transform="matrix(1 0 0 0.999641 80.8906 234)">･･･</text><text font-family="Yu Gothic,Yu Gothic_MSFontService,sans-serif" font-weight="700" font-size="13.6344" transform="matrix(1 0 0 0.999641 101.41 234)">にある</text><text font-family="Yu Gothic,Yu Gothic_MSFontService,sans-serif" font-weight="400" font-size="13.6344" transform="matrix(1 0 0 0.999641 308.69 232)">～</text><text font-family="Yu Gothic,Yu Gothic_MSFontService,sans-serif" font-weight="700" font-size="13.6344" transform="matrix(1 0 0 0.999641 322.37 232)">は</text><text font-family="Yu Gothic,Yu Gothic_MSFontService,sans-serif" font-weight="700" font-size="13.6344" transform="matrix(1 0 0 0.999641 336.049 232)">･･･</text><text font-family="Yu Gothic,Yu Gothic_MSFontService,sans-serif" font-weight="700" font-size="13.6344" transform="matrix(1 0 0 0.999641 356.568 232)">にある</text><path d="M116.5 154.777 184.179 154.777 184.179 156.111 116.5 156.111ZM176.508 150.199 185.503 155.444 176.508 160.69C176.189 160.875 175.781 160.768 175.595 160.45 175.409 160.131 175.517 159.723 175.835 159.537L183.842 154.868 183.842 156.02 175.835 151.351C175.517 151.165 175.409 150.757 175.595 150.439 175.781 150.121 176.189 150.013 176.508 150.199Z" fill="#172C51"/><path d="M0-0.667046 67.6545-0.667046 67.6545 0.667046 0 0.667046ZM59.986-5.2455 68.9783 0 59.986 5.2455C59.6678 5.43113 59.2593 5.32364 59.0737 5.00543 58.8881 4.68721 58.9956 4.27877 59.3138 4.09314L67.3183-0.57618 67.3183 0.57618 59.3138-4.09314C58.9956-4.27877 58.8881-4.68721 59.0737-5.00543 59.2593-5.32364 59.6678-5.43113 59.986-5.2455Z" fill="#172C51" transform="matrix(-1.00036 0 0 1 336.5 154.444)"/><text font-family="Cambria Math,Cambria Math_MSFontService,sans-serif" font-weight="400" font-size="13.6344" transform="matrix(1 0 0 0.999641 207.464 96)">∃</text><text font-family="Cambria Math,Cambria Math_MSFontService,sans-serif" font-weight="400" font-size="13.6344" transform="matrix(1 0 0 0.999641 215.471 96)">!</text><text font-family="Cambria Math,Cambria Math_MSFontService,sans-serif" font-weight="400" font-size="13.6344" transform="matrix(1 0 0 0.999641 207.247 211)">∃</text><text font-family="Cambria Math,Cambria Math_MSFontService,sans-serif" font-weight="400" font-size="13.6344" transform="matrix(1 0 0 0.999641 215.255 211)">!</text><text font-family="Segoe UI Symbol,Segoe UI Symbol_MSFontService,sans-serif" font-weight="700" font-size="13.6344" transform="matrix(1 0 0 0.999641 165.137 201)">✔</text><text font-family="Segoe UI Symbol,Segoe UI Symbol_MSFontService,sans-serif" font-weight="700" font-size="13.6344" transform="matrix(1 0 0 0.999641 269.357 203)">✔</text><text font-family="Segoe UI Symbol,Segoe UI Symbol_MSFontService,sans-serif" font-weight="700" font-size="13.6344" transform="matrix(1 0 0 0.999641 167.512 108)">✔</text><text font-family="Segoe UI Symbol,Segoe UI Symbol_MSFontService,sans-serif" font-weight="700" font-size="13.6344" transform="matrix(1 0 0 0.999641 269.661 109)">✔</text></g></svg>