<svg width="420" height="242" xmlns="http://www.w3.org/2000/svg" xmlns:xlink="http://www.w3.org/1999/xlink" overflow="hidden"><g><rect x="0" y="0" width="420" height="241.878" fill="#FFFFFF"/><rect x="25.5" y="61.4691" width="34.0001" height="26.9865" stroke="#000000" stroke-width="1.33492" stroke-linejoin="round" stroke-miterlimit="10" fill="none"/><text font-family="Yu Gothic,Yu Gothic_MSFontService,sans-serif" font-weight="700" font-size="14.6768" transform="matrix(1 0 0 0.999498 34.5525 80)">人</text><rect x="187.5" y="43.4781" width="95" height="62.9684" stroke="#000000" stroke-width="1.33492" stroke-linejoin="round" stroke-miterlimit="10" fill="none"/><text font-family="Yu Gothic,Yu Gothic_MSFontService,sans-serif" font-weight="700" font-size="14.6768" transform="matrix(1 0 0 0.999498 196.523 62)">ペア</text><path d="M66.5444 3.01892C67.9388 3.38661 69.0096 4.18049 69.7569 5.40055 70.5043 6.62061 70.8779 8.09257 70.8779 9.81641 70.8779 11.545 70.5054 13.017 69.7605 14.2323 69.0156 15.4476 67.9436 16.2391 66.5444 16.6067L66.3725 16.0552C67.4756 15.6875 68.2957 14.9617 68.8329 13.8777 69.3701 12.7938 69.6387 11.4161 69.6387 9.74479 69.6387 8.13077 69.3713 6.79013 68.8365 5.72288 68.3017 4.65562 67.4732 3.93815 66.351 3.57046ZM34.9763 3.01892 35.1697 3.57046C34.0523 3.93815 33.225 4.65562 32.6878 5.72288 32.1506 6.79013 31.882 8.13077 31.882 9.74479 31.882 11.4161 32.1506 12.7938 32.6878 13.8777 33.225 14.9617 34.0452 15.6875 35.1483 16.0552L34.9763 16.6067C33.5772 16.2391 32.5052 15.4476 31.7602 14.2323 31.0153 13.017 30.6429 11.545 30.6429 9.81641 30.6429 8.09257 31.0165 6.62061 31.7638 5.40055 32.5111 4.18049 33.582 3.38661 34.9763 3.01892Z" fill-rule="evenodd" transform="matrix(1.0005 0 0 1 196.523 47.911)"/><text font-family="Cambria Math,Cambria Math_MSFontService,sans-serif" font-weight="400" font-size="14.6768" transform="matrix(1 0 0 0.999498 231.985 62)">𝒘</text><text font-family="Cambria Math,Cambria Math_MSFontService,sans-serif" font-weight="400" font-size="14.6768" transform="matrix(1 0 0 0.999498 243.499 62)">,</text><text font-family="Cambria Math,Cambria Math_MSFontService,sans-serif" font-weight="400" font-size="14.6768" transform="matrix(1 0 0 0.999498 248.952 62)">𝒎</text><text font-family="Cambria Math,Cambria Math_MSFontService,sans-serif" font-weight="400" font-size="14.6768" transform="matrix(1 0 0 0.999498 268.729 62)">,</text><text font-family="Cambria Math,Cambria Math_MSFontService,sans-serif" font-weight="400" font-size="14.6768" transform="matrix(1 0 0 0.999498 196.523 79)">𝒘</text><text font-family="Cambria Math,Cambria Math_MSFontService,sans-serif" font-weight="400" font-size="14.6768" transform="matrix(1 0 0 0.999498 208.037 79)"></text><text font-family="Yu Gothic,Yu Gothic_MSFontService,sans-serif" font-weight="700" font-size="14.6768" transform="matrix(1 0 0 0.999498 211.207 79)">は女性</text><text font-family="Calibri,Calibri_MSFontService,sans-serif" font-weight="700" font-size="14.6768" transform="matrix(1 0 0 0.999498 255.26 79)">,</text><text font-family="Cambria Math,Cambria Math_MSFontService,sans-serif" font-weight="400" font-size="14.6768" transform="matrix(1 0 0 0.999498 196.523 97)">𝒎</text><text font-family="Yu Gothic,Yu Gothic_MSFontService,sans-serif" font-weight="700" font-size="14.6768" transform="matrix(1 0 0 0.999498 213.543 97)">は男性</text><rect x="210.5" y="186.406" width="49" height="27.9859" stroke="#000000" stroke-width="1.33492" stroke-linejoin="round" stroke-miterlimit="10" fill="none"/><text font-family="Yu Gothic,Yu Gothic_MSFontService,sans-serif" font-weight="700" font-size="14.6768" transform="matrix(1 0 0 0.999498 219.667 205)">女性</text><text font-family="Cambria Math,Cambria Math_MSFontService,sans-serif" font-weight="400" font-size="14.6768" transform="matrix(1 0 0 0.999498 36.7218 54)">𝑨</text><text font-family="Cambria Math,Cambria Math_MSFontService,sans-serif" font-weight="400" font-size="14.6768" transform="matrix(1 0 0 0.999498 229.166 34)">𝑩</text><text font-family="Cambria Math,Cambria Math_MSFontService,sans-serif" font-weight="400" font-size="14.6768" transform="matrix(1 0 0 0.999498 229.166 178)">𝑪</text><text font-family="Yu Gothic,Yu Gothic_MSFontService,sans-serif" font-weight="700" font-size="14.6768" transform="matrix(1 0 0 0.999498 90.2052 65)">～の親は</text><text font-family="Yu Gothic,Yu Gothic_MSFontService,sans-serif" font-weight="700" font-size="14.6768" transform="matrix(1 0 0 0.999498 68.9045 157)">～の母は</text><text font-family="Yu Gothic,Yu Gothic_MSFontService,sans-serif" font-weight="700" font-size="14.6768" transform="matrix(1 0 0 0.999498 244.2 138)">～の</text><text font-family="Cambria Math,Cambria Math_MSFontService,sans-serif" font-weight="400" font-size="14.6768" transform="matrix(1 0 0 0.999498 273.569 138)"></text><text font-family="Cambria Math,Cambria Math_MSFontService,sans-serif" font-weight="400" font-size="14.6768" transform="matrix(1 0 0 0.999498 276.739 138)">𝒘</text><text font-family="Yu Gothic,Yu Gothic_MSFontService,sans-serif" font-weight="700" font-size="14.6768" transform="matrix(1 0 0 0.999498 291.59 138)">は</text><path d="M67.5 73.7955 178.178 73.7955 178.178 75.1298 67.5 75.1298ZM170.505 69.2165 179.503 74.4626 170.505 79.7088C170.187 79.8944 169.778 79.7869 169.592 79.4687 169.407 79.1504 169.514 78.7419 169.833 78.5563L177.842 73.8864 177.842 75.0389 169.833 70.369C169.514 70.1833 169.407 69.7748 169.592 69.4566 169.778 69.1383 170.187 69.0308 170.505 69.2165Z" fill="#172C51"/><path d="M235.167 112.444 235.167 158.099 233.832 158.099 233.832 112.444ZM239.749 150.43 234.5 159.423 229.251 150.43C229.065 150.111 229.173 149.703 229.491 149.517 229.81 149.332 230.219 149.439 230.404 149.757L235.076 157.763 233.923 157.763 238.596 149.757C238.781 149.439 239.19 149.332 239.508 149.517 239.827 149.703 239.934 150.111 239.749 150.43Z" fill="#172C51"/><path d="M62.8527 92.8866 204.731 181.144 204.025 182.277 62.1473 94.0194ZM200.637 173.204 205.503 182.41 195.09 182.112C194.722 182.101 194.431 181.794 194.442 181.426 194.452 181.058 194.76 180.768 195.128 180.778L204.397 181.044 203.788 182.022 199.457 173.827C199.284 173.501 199.409 173.098 199.735 172.926 200.061 172.754 200.465 172.878 200.637 173.204Z" fill="#172C51"/><rect x="9.50002" y="8.49572" width="309" height="223.888" stroke="#172C51" stroke-width="1.33492" stroke-miterlimit="8" fill="none"/><path d="M40.8801 3.01892C42.2744 3.38661 43.3453 4.18049 44.0926 5.40055 44.8399 6.62061 45.2136 8.09257 45.2136 9.81641 45.2136 11.545 44.8411 13.017 44.0962 14.2323 43.3512 15.4476 42.2792 16.2391 40.8801 16.6067L40.7082 16.0552C41.8112 15.6875 42.6314 14.9617 43.1686 13.8777 43.7058 12.7938 43.9744 11.4161 43.9744 9.74479 43.9744 8.13077 43.707 6.79013 43.1722 5.72288 42.6374 4.65562 41.8089 3.93815 40.6867 3.57046ZM7.97775 3.01892 8.17114 3.57046C7.05375 3.93815 6.22645 4.65562 5.68924 5.72288 5.15203 6.79013 4.88342 8.13077 4.88342 9.74479 4.88342 11.4161 5.15203 12.7938 5.68924 13.8777 6.22645 14.9617 7.04659 15.6875 8.14966 16.0552L7.97775 16.6067C6.57862 16.2391 5.50659 15.4476 4.76166 14.2323 4.01672 13.017 3.64426 11.545 3.64426 9.81641 3.64426 8.09257 4.01792 6.62061 4.76524 5.40055 5.51256 4.18049 6.58339 3.38661 7.97775 3.01892Z" fill-rule="evenodd" transform="matrix(1.0005 0 0 1 354.731 111.377)"/><text font-family="Cambria Math,Cambria Math_MSFontService,sans-serif" font-weight="400" font-size="14.6768" transform="matrix(1 0 0 0.999498 363.181 125)">𝟐</text><text font-family="Cambria Math,Cambria Math_MSFontService,sans-serif" font-weight="400" font-size="14.6768" transform="matrix(1 0 0 0.999498 372.025 125)">.</text><text font-family="Cambria Math,Cambria Math_MSFontService,sans-serif" font-weight="400" font-size="14.6768" transform="matrix(1 0 0 0.999498 377.478 125)">𝟏𝟕</text><text font-family="Segoe UI Symbol,Segoe UI Symbol_MSFontService,sans-serif" font-weight="700" font-size="14.6768" transform="matrix(1 0 0 0.999498 147.625 129)">✔</text></g></svg>