<svg width="548" height="404" xmlns="http://www.w3.org/2000/svg" xmlns:xlink="http://www.w3.org/1999/xlink" overflow="hidden"><g><rect x="0" y="0" width="548" height="403.667" fill="#FFFFFF"/><text font-family="Cambria Math,Cambria Math_MSFontService,sans-serif" font-weight="400" font-size="14.6546" transform="matrix(1 0 0 0.999176 160.007 41)">ℤ</text><text font-family="Cambria Math,Cambria Math_MSFontService,sans-serif" font-weight="400" font-size="14.6546" transform="matrix(1 0 0 0.999176 172.1 41)">×</text><text font-family="Cambria Math,Cambria Math_MSFontService,sans-serif" font-weight="400" font-size="14.6546" transform="matrix(1 0 0 0.999176 185.86 41)">ℤ</text><text font-family="Cambria Math,Cambria Math_MSFontService,sans-serif" font-weight="400" font-size="14.6546" transform="matrix(1 0 0 0.999176 197.954 41)">×</text><text font-family="Cambria Math,Cambria Math_MSFontService,sans-serif" font-weight="400" font-size="14.6546" transform="matrix(1 0 0 0.999176 211.714 41)">ℤ</text><text font-family="Cambria Math,Cambria Math_MSFontService,sans-serif" font-weight="400" font-size="14.6546" transform="matrix(1 0 0 0.999176 428.479 41)">ℤ</text><text font-family="Cambria Math,Cambria Math_MSFontService,sans-serif" font-weight="400" font-size="14.6546" transform="matrix(1 0 0 0.999176 440.572 41)">×</text><text font-family="Cambria Math,Cambria Math_MSFontService,sans-serif" font-weight="400" font-size="14.6546" transform="matrix(1 0 0 0.999176 454.332 41)">ℤ</text><text font-family="Cambria Math,Cambria Math_MSFontService,sans-serif" font-weight="400" font-size="14.6546" transform="matrix(1 0 0 0.999176 172.9 135)">ℤ</text><text font-family="Cambria Math,Cambria Math_MSFontService,sans-serif" font-weight="400" font-size="14.6546" transform="matrix(1 0 0 0.999176 184.993 135)">×</text><text font-family="Cambria Math,Cambria Math_MSFontService,sans-serif" font-weight="400" font-size="14.6546" transform="matrix(1 0 0 0.999176 198.753 135)">ℤ</text><text font-family="Cambria Math,Cambria Math_MSFontService,sans-serif" font-weight="400" font-size="14.6546" transform="matrix(1 0 0 0.999176 441.378 134)">ℤ</text><path d="M45.5609 3.01339C46.9527 3.3804 48.0215 4.17282 48.7675 5.39065 49.5134 6.60847 49.8864 8.07772 49.8864 9.79841 49.8864 11.5239 49.5146 12.9931 48.771 14.2062 48.0275 15.4192 46.9574 16.2093 45.5609 16.5763L45.3893 16.0258C46.4903 15.6587 47.3089 14.9342 47.8452 13.8523 48.3814 12.7703 48.6495 11.3952 48.6495 9.72691 48.6495 8.11586 48.3826 6.77768 47.8487 5.71238 47.3149 4.64708 46.4879 3.93092 45.3678 3.56391ZM8.43015 3.01339 8.6232 3.56391C7.50785 3.93092 6.68207 4.64708 6.14584 5.71238 5.60962 6.77768 5.3415 8.11586 5.3415 9.72691 5.3415 11.3952 5.60962 12.7703 6.14584 13.8523 6.68207 14.9342 7.5007 15.6587 8.60175 16.0258L8.43015 16.5763C7.03359 16.2093 5.96352 15.4192 5.21996 14.2062 4.4764 12.9931 4.10461 11.5239 4.10461 9.79841 4.10461 8.07772 4.47759 6.60847 5.22354 5.39065 5.96948 4.17282 7.03836 3.3804 8.43015 3.01339Z" fill-rule="evenodd" transform="matrix(1.00083 0 0 1 50.2262 70.713)"/><text font-family="Cambria Math,Cambria Math_MSFontService,sans-serif" font-weight="400" font-size="14.6546" transform="matrix(1 0 0 0.999176 59.1329 85)">𝒂</text><text font-family="Cambria Math,Cambria Math_MSFontService,sans-serif" font-weight="400" font-size="14.6546" transform="matrix(1 0 0 0.999176 68.2996 85)">,</text><text font-family="Cambria Math,Cambria Math_MSFontService,sans-serif" font-weight="400" font-size="14.6546" transform="matrix(1 0 0 0.999176 73.7462 85)">𝒃</text><text font-family="Cambria Math,Cambria Math_MSFontService,sans-serif" font-weight="400" font-size="14.6546" transform="matrix(1 0 0 0.999176 82.5796 85)">,</text><text font-family="Cambria Math,Cambria Math_MSFontService,sans-serif" font-weight="400" font-size="14.6546" transform="matrix(1 0 0 0.999176 88.0262 85)">𝒄</text><text font-family="Cambria Math,Cambria Math_MSFontService,sans-serif" font-weight="400" font-size="14.6546" transform="matrix(1 0 0 0.999176 105.52 85)">↦</text><path d="M126.947 3.01339C128.339 3.3804 129.408 4.17282 130.154 5.39065 130.9 6.60847 131.273 8.07772 131.273 9.79841 131.273 11.5239 130.901 12.9931 130.157 14.2062 129.414 15.4192 128.344 16.2093 126.947 16.5763L126.775 16.0258C127.876 15.6587 128.695 14.9342 129.231 13.8523 129.768 12.7703 130.036 11.3952 130.036 9.72691 130.036 8.11586 129.769 6.77768 129.235 5.71238 128.701 4.64708 127.874 3.93092 126.754 3.56391ZM77.753 3.01339 77.946 3.56391C76.8307 3.93092 76.0049 4.64708 75.4687 5.71238 74.9324 6.77768 74.6643 8.11586 74.6643 9.72691 74.6643 11.3952 74.9324 12.7703 75.4687 13.8523 76.0049 14.9342 76.8235 15.6587 77.9246 16.0258L77.753 16.5763C76.3564 16.2093 75.2863 15.4192 74.5428 14.2062 73.7992 12.9931 73.4274 11.5239 73.4274 9.79841 73.4274 8.07772 73.8004 6.60847 74.5463 5.39065 75.2923 4.17282 76.3612 3.3804 77.753 3.01339Z" fill-rule="evenodd" transform="matrix(1.00083 0 0 1 50.2262 70.713)"/><text font-family="Cambria Math,Cambria Math_MSFontService,sans-serif" font-weight="400" font-size="14.6546" transform="matrix(1 0 0 0.999176 128.513 85)">𝒂</text><text font-family="Cambria Math,Cambria Math_MSFontService,sans-serif" font-weight="400" font-size="14.6546" transform="matrix(1 0 0 0.999176 140.94 85)">+</text><text font-family="Cambria Math,Cambria Math_MSFontService,sans-serif" font-weight="400" font-size="14.6546" transform="matrix(1 0 0 0.999176 155.2 85)">𝒃</text><text font-family="Cambria Math,Cambria Math_MSFontService,sans-serif" font-weight="400" font-size="14.6546" transform="matrix(1 0 0 0.999176 164.033 85)">,</text><text font-family="Cambria Math,Cambria Math_MSFontService,sans-serif" font-weight="400" font-size="14.6546" transform="matrix(1 0 0 0.999176 169.48 85)">𝒄</text><path d="M45.5542 3.01339C46.946 3.3804 48.0149 4.17282 48.7608 5.39065 49.5068 6.60847 49.8797 8.07772 49.8797 9.79841 49.8797 11.5239 49.508 12.9931 48.7644 14.2062 48.0208 15.4192 46.9508 16.2093 45.5542 16.5763L45.3826 16.0258C46.4836 15.6587 47.3023 14.9342 47.8385 13.8523 48.3747 12.7703 48.6428 11.3952 48.6428 9.72691 48.6428 8.11586 48.3759 6.77768 47.8421 5.71238 47.3082 4.64708 46.4813 3.93092 45.3612 3.56391ZM8.42349 3.01339 8.61654 3.56391C7.50119 3.93092 6.6754 4.64708 6.13918 5.71238 5.60295 6.77768 5.33484 8.11586 5.33484 9.72691 5.33484 11.3952 5.60295 12.7703 6.13918 13.8523 6.6754 14.9342 7.49404 15.6587 8.59509 16.0258L8.42349 16.5763C7.02693 16.2093 5.95686 15.4192 5.2133 14.2062 4.46973 12.9931 4.09795 11.5239 4.09795 9.79841 4.09795 8.07772 4.47093 6.60847 5.21687 5.39065 5.96282 4.17282 7.03169 3.3804 8.42349 3.01339Z" fill-rule="evenodd" transform="matrix(1.00083 0 0 1 249.606 15.219)"/><text font-family="Cambria Math,Cambria Math_MSFontService,sans-serif" font-weight="400" font-size="14.6546" transform="matrix(1 0 0 0.999176 258.506 29)">𝒂</text><text font-family="Cambria Math,Cambria Math_MSFontService,sans-serif" font-weight="400" font-size="14.6546" transform="matrix(1 0 0 0.999176 267.673 29)">,</text><text font-family="Cambria Math,Cambria Math_MSFontService,sans-serif" font-weight="400" font-size="14.6546" transform="matrix(1 0 0 0.999176 273.119 29)">𝒃</text><text font-family="Cambria Math,Cambria Math_MSFontService,sans-serif" font-weight="400" font-size="14.6546" transform="matrix(1 0 0 0.999176 281.953 29)">,</text><text font-family="Cambria Math,Cambria Math_MSFontService,sans-serif" font-weight="400" font-size="14.6546" transform="matrix(1 0 0 0.999176 287.399 29)">𝒄</text><text font-family="Cambria Math,Cambria Math_MSFontService,sans-serif" font-weight="400" font-size="14.6546" transform="matrix(1 0 0 0.999176 304.893 29)">↦</text><path d="M139.95 3.01339C141.341 3.3804 142.41 4.17282 143.156 5.39065 143.902 6.60847 144.275 8.07772 144.275 9.79841 144.275 11.5239 143.903 12.9931 143.16 14.2062 142.416 15.4192 141.346 16.2093 139.95 16.5763L139.778 16.0258C140.879 15.6587 141.698 14.9342 142.234 13.8523 142.77 12.7703 143.038 11.3952 143.038 9.72691 143.038 8.11586 142.771 6.77768 142.238 5.71238 141.704 4.64708 140.877 3.93092 139.757 3.56391ZM77.7463 3.01339 77.9393 3.56391C76.824 3.93092 75.9982 4.64708 75.462 5.71238 74.9258 6.77768 74.6576 8.11586 74.6576 9.72691 74.6576 11.3952 74.9258 12.7703 75.462 13.8523 75.9982 14.9342 76.8168 15.6587 77.9179 16.0258L77.7463 16.5763C76.3497 16.2093 75.2797 15.4192 74.5361 14.2062 73.7925 12.9931 73.4208 11.5239 73.4208 9.79841 73.4208 8.07772 73.7937 6.60847 74.5397 5.39065 75.2856 4.17282 76.3545 3.3804 77.7463 3.01339Z" fill-rule="evenodd" transform="matrix(1.00083 0 0 1 249.606 15.219)"/><text font-family="Cambria Math,Cambria Math_MSFontService,sans-serif" font-weight="400" font-size="14.6546" transform="matrix(1 0 0 0.999176 327.886 29)">𝒂</text><text font-family="Cambria Math,Cambria Math_MSFontService,sans-serif" font-weight="400" font-size="14.6546" transform="matrix(1 0 0 0.999176 340.313 29)">∙</text><text font-family="Cambria Math,Cambria Math_MSFontService,sans-serif" font-weight="400" font-size="14.6546" transform="matrix(1 0 0 0.999176 347.739 29)">𝒃</text><text font-family="Cambria Math,Cambria Math_MSFontService,sans-serif" font-weight="400" font-size="14.6546" transform="matrix(1 0 0 0.999176 356.573 29)">,</text><text font-family="Cambria Math,Cambria Math_MSFontService,sans-serif" font-weight="400" font-size="14.6546" transform="matrix(1 0 0 0.999176 362.019 29)">𝒂</text><text font-family="Cambria Math,Cambria Math_MSFontService,sans-serif" font-weight="400" font-size="14.6546" transform="matrix(1 0 0 0.999176 374.446 29)">∙</text><text font-family="Cambria Math,Cambria Math_MSFontService,sans-serif" font-weight="400" font-size="14.6546" transform="matrix(1 0 0 0.999176 381.873 29)">𝒄</text><path d="M29.3076 3.01339C30.6994 3.3804 31.7683 4.17282 32.5142 5.39065 33.2602 6.60847 33.6331 8.07772 33.6331 9.79841 33.6331 11.5239 33.2614 12.9931 32.5178 14.2062 31.7742 15.4192 30.7042 16.2093 29.3076 16.5763L29.136 16.0258C30.2371 15.6587 31.0557 14.9342 31.5919 13.8523 32.1281 12.7703 32.3962 11.3952 32.3962 9.72691 32.3962 8.11586 32.1293 6.77768 31.5955 5.71238 31.0616 4.64708 30.2347 3.93092 29.1146 3.56391ZM5.61248 3.01339 5.80552 3.56391C4.69017 3.93092 3.86439 4.64708 3.32816 5.71238 2.79194 6.77768 2.52383 8.11586 2.52383 9.72691 2.52383 11.3952 2.79194 12.7703 3.32816 13.8523 3.86439 14.9342 4.68302 15.6587 5.78407 16.0258L5.61248 16.5763C4.21591 16.2093 3.14585 15.4192 2.40228 14.2062 1.65872 12.9931 1.28694 11.5239 1.28694 9.79841 1.28694 8.07772 1.65991 6.60847 2.40586 5.39065 3.15181 4.17282 4.22068 3.3804 5.61248 3.01339Z" fill-rule="evenodd" transform="matrix(1.00083 0 0 1 453.536 71.9741)"/><text font-family="Cambria Math,Cambria Math_MSFontService,sans-serif" font-weight="400" font-size="14.6546" transform="matrix(1 0 0 0.999176 459.623 86)">𝒙</text><text font-family="Cambria Math,Cambria Math_MSFontService,sans-serif" font-weight="400" font-size="14.6546" transform="matrix(1 0 0 0.999176 468.123 86)">,</text><text font-family="Cambria Math,Cambria Math_MSFontService,sans-serif" font-weight="400" font-size="14.6546" transform="matrix(1 0 0 0.999176 473.57 86)">𝒚</text><text font-family="Cambria Math,Cambria Math_MSFontService,sans-serif" font-weight="400" font-size="14.6546" transform="matrix(1 0 0 0.999176 492.563 86)">↦</text><text font-family="Calibri,Calibri_MSFontService,sans-serif" font-weight="700" font-size="14.6546" transform="matrix(1 0 0 0.999176 505.396 86)">x+y</text><path d="M29.3076 3.01339C30.6994 3.3804 31.7683 4.17282 32.5142 5.39065 33.2602 6.60847 33.6331 8.07772 33.6331 9.79841 33.6331 11.5239 33.2614 12.9931 32.5178 14.2062 31.7742 15.4192 30.7042 16.2093 29.3076 16.5763L29.136 16.0258C30.2371 15.6587 31.0557 14.9342 31.5919 13.8523 32.1281 12.7703 32.3962 11.3952 32.3962 9.72691 32.3962 8.11586 32.1293 6.77768 31.5955 5.71238 31.0616 4.64708 30.2347 3.93092 29.1146 3.56391ZM5.61248 3.01339 5.80552 3.56391C4.69017 3.93092 3.86439 4.64708 3.32816 5.71238 2.79194 6.77768 2.52383 8.11586 2.52383 9.72691 2.52383 11.3952 2.79194 12.7703 3.32816 13.8523 3.86439 14.9342 4.68302 15.6587 5.78407 16.0258L5.61248 16.5763C4.21591 16.2093 3.14585 15.4192 2.40228 14.2062 1.65872 12.9931 1.28694 11.5239 1.28694 9.79841 1.28694 8.07772 1.65991 6.60847 2.40586 5.39065 3.15181 4.17282 4.22068 3.3804 5.61248 3.01339Z" fill-rule="evenodd" transform="matrix(1.00083 0 0 1 292.766 134.278)"/><text font-family="Cambria Math,Cambria Math_MSFontService,sans-serif" font-weight="400" font-size="14.6546" transform="matrix(1 0 0 0.999176 298.853 148)">𝒙</text><text font-family="Cambria Math,Cambria Math_MSFontService,sans-serif" font-weight="400" font-size="14.6546" transform="matrix(1 0 0 0.999176 307.353 148)">,</text><text font-family="Cambria Math,Cambria Math_MSFontService,sans-serif" font-weight="400" font-size="14.6546" transform="matrix(1 0 0 0.999176 312.799 148)">𝒚</text><text font-family="Cambria Math,Cambria Math_MSFontService,sans-serif" font-weight="400" font-size="14.6546" transform="matrix(1 0 0 0.999176 331.793 148)">↦</text><text font-family="Calibri,Calibri_MSFontService,sans-serif" font-weight="700" font-size="14.6546" transform="matrix(1 0 0 0.999176 344.626 148)">xy</text><path d="M231.5 34.8047 421.181 34.8047 421.181 36.1369 231.5 36.1369ZM413.516 30.2326 422.503 35.4708 413.516 40.709C413.198 40.8944 412.79 40.787 412.604 40.4692 412.419 40.1515 412.526 39.7436 412.844 39.5582L420.844 34.8954 420.844 36.0462 412.844 31.3833C412.526 31.198 412.419 30.7901 412.604 30.4723 412.79 30.1546 413.198 30.0472 413.516 30.2326Z" fill="#172C51"/><path d="M217.5 128.727 434.18 128.727 434.18 130.059 217.5 130.059ZM426.516 124.155 435.503 129.393 426.516 134.632C426.198 134.817 425.79 134.71 425.604 134.392 425.419 134.074 425.526 133.666 425.844 133.481L433.844 128.818 433.844 129.969 425.844 125.306C425.526 125.12 425.419 124.713 425.604 124.395 425.79 124.077 426.198 123.97 426.516 124.155Z" fill="#172C51"/><path d="M190.167 45.4625 190.167 117.083 188.833 117.083 188.833 45.4625ZM194.743 109.426 189.5 118.405 184.258 109.426C184.072 109.108 184.179 108.7 184.497 108.515 184.816 108.329 185.224 108.437 185.409 108.754L190.076 116.748 188.924 116.748 193.591 108.754C193.776 108.437 194.185 108.329 194.503 108.515 194.821 108.7 194.928 109.108 194.743 109.426Z" fill="#172C51"/><path d="M447.167 47.4609 447.167 118.083 445.833 118.083 445.833 47.4609ZM451.743 110.425 446.5 119.405 441.258 110.425C441.072 110.107 441.179 109.699 441.497 109.514 441.816 109.328 442.224 109.436 442.409 109.754L447.076 117.747 445.924 117.747 450.591 109.754C450.776 109.436 451.185 109.328 451.503 109.514 451.821 109.699 451.928 110.107 451.743 110.425Z" fill="#172C51"/><text font-family="Cambria Math,Cambria Math_MSFontService,sans-serif" font-weight="400" font-size="14.6546" transform="matrix(1 0 0 0.999176 58.0312 206)">ℤ</text><text font-family="Cambria Math,Cambria Math_MSFontService,sans-serif" font-weight="400" font-size="14.6546" transform="matrix(1 0 0 0.999176 186.46 206)">ℤ</text><text font-family="Cambria Math,Cambria Math_MSFontService,sans-serif" font-weight="400" font-size="14.6546" transform="matrix(1 0 0 0.999176 198.553 206)">×</text><text font-family="Cambria Math,Cambria Math_MSFontService,sans-serif" font-weight="400" font-size="14.6546" transform="matrix(1 0 0 0.999176 212.313 206)">ℤ</text><text font-family="Cambria Math,Cambria Math_MSFontService,sans-serif" font-weight="400" font-size="14.6546" transform="matrix(1 0 0 0.999176 200.049 271)">ℤ</text><text font-family="Cambria Math,Cambria Math_MSFontService,sans-serif" font-weight="400" font-size="14.6546" transform="matrix(1 0 0 0.999176 91.359 195)">𝒙</text><text font-family="Cambria Math,Cambria Math_MSFontService,sans-serif" font-weight="400" font-size="14.6546" transform="matrix(1 0 0 0.999176 103.932 195)">↦</text><path d="M61.2079 3.01339C62.5997 3.3804 63.6686 4.17282 64.4146 5.39065 65.1605 6.60847 65.5335 8.07772 65.5335 9.79841 65.5335 11.5239 65.1617 12.9931 64.4181 14.2062 63.6746 15.4192 62.6045 16.2093 61.2079 16.5763L61.0364 16.0258C62.1374 15.6587 62.956 14.9342 63.4923 13.8523 64.0285 12.7703 64.2966 11.3952 64.2966 9.72691 64.2966 8.11586 64.0297 6.77768 63.4958 5.71238 62.962 4.64708 62.135 3.93092 61.0149 3.56391ZM37.5128 3.01339 37.7059 3.56391C36.5905 3.93092 35.7647 4.64708 35.2285 5.71238 34.6923 6.77768 34.4242 8.11586 34.4242 9.72691 34.4242 11.3952 34.6923 12.7703 35.2285 13.8523 35.7647 14.9342 36.5834 15.6587 37.6844 16.0258L37.5128 16.5763C36.1163 16.2093 35.0462 15.4192 34.3026 14.2062 33.5591 12.9931 33.1873 11.5239 33.1873 9.79841 33.1873 8.07772 33.5603 6.60847 34.3062 5.39065 35.0522 4.17282 36.121 3.3804 37.5128 3.01339Z" fill-rule="evenodd" transform="matrix(1.00083 0 0 1 88.9123 180.561)"/><text font-family="Cambria Math,Cambria Math_MSFontService,sans-serif" font-weight="400" font-size="14.6546" transform="matrix(1 0 0 0.999176 126.926 195)">𝒙</text><text font-family="Cambria Math,Cambria Math_MSFontService,sans-serif" font-weight="400" font-size="14.6546" transform="matrix(1 0 0 0.999176 135.426 195)">,</text><text font-family="Cambria Math,Cambria Math_MSFontService,sans-serif" font-weight="400" font-size="14.6546" transform="matrix(1 0 0 0.999176 140.872 195)">𝟎</text><path d="M32.5782 3.01339C33.97 3.3804 35.0389 4.17282 35.7849 5.39065 36.5308 6.60847 36.9038 8.07772 36.9038 9.79841 36.9038 11.5239 36.532 12.9931 35.7884 14.2062 35.0449 15.4192 33.9748 16.2093 32.5782 16.5763L32.4066 16.0258C33.5077 15.6587 34.3263 14.9342 34.8625 13.8523 35.3988 12.7703 35.6669 11.3952 35.6669 9.72691 35.6669 8.11586 35.4 6.77768 34.8661 5.71238 34.3323 4.64708 33.5053 3.93092 32.3852 3.56391ZM8.217 3.01339 8.41004 3.56391C7.29469 3.93092 6.46891 4.64708 5.93268 5.71238 5.39646 6.77768 5.12835 8.11586 5.12835 9.72691 5.12835 11.3952 5.39646 12.7703 5.93268 13.8523 6.46891 14.9342 7.28754 15.6587 8.38859 16.0258L8.217 16.5763C6.82043 16.2093 5.75037 15.4192 5.0068 14.2062 4.26324 12.9931 3.89146 11.5239 3.89146 9.79841 3.89146 8.07772 4.26443 6.60847 5.01038 5.39065 5.75632 4.17282 6.8252 3.3804 8.217 3.01339Z" fill-rule="evenodd" transform="matrix(1.00083 0 0 1 206.835 221.122)"/><text font-family="Cambria Math,Cambria Math_MSFontService,sans-serif" font-weight="400" font-size="14.6546" transform="matrix(1 0 0 0.999176 215.528 235)">𝒂</text><text font-family="Cambria Math,Cambria Math_MSFontService,sans-serif" font-weight="400" font-size="14.6546" transform="matrix(1 0 0 0.999176 224.695 235)">,</text><text font-family="Cambria Math,Cambria Math_MSFontService,sans-serif" font-weight="400" font-size="14.6546" transform="matrix(1 0 0 0.999176 230.142 235)">𝒃</text><text font-family="Cambria Math,Cambria Math_MSFontService,sans-serif" font-weight="400" font-size="14.6546" transform="matrix(1 0 0 0.999176 249.135 235)">↦</text><text font-family="Cambria Math,Cambria Math_MSFontService,sans-serif" font-weight="400" font-size="14.6546" transform="matrix(1 0 0 0.999176 266.042 235)">𝒂</text><text font-family="Cambria Math,Cambria Math_MSFontService,sans-serif" font-weight="400" font-size="14.6546" transform="matrix(1 0 0 0.999176 278.468 235)">∙</text><text font-family="Cambria Math,Cambria Math_MSFontService,sans-serif" font-weight="400" font-size="14.6546" transform="matrix(1 0 0 0.999176 285.895 235)">𝒃</text><text font-family="Cambria Math,Cambria Math_MSFontService,sans-serif" font-weight="400" font-size="14.6546" transform="matrix(1 0 0 0.999176 106.962 250)">𝒊𝒅</text><text font-family="Cambria Math,Cambria Math_MSFontService,sans-serif" font-weight="400" font-size="10.6978" transform="matrix(1 0 0 0.999176 121.962 253)">𝒁</text><path d="M72.5001 200.668 179.181 200.668 179.181 202 72.5001 202ZM171.516 196.096 180.503 201.334 171.516 206.572C171.198 206.758 170.79 206.65 170.604 206.332 170.419 206.015 170.526 205.607 170.844 205.421L178.844 200.759 178.844 201.909 170.844 197.246C170.526 197.061 170.419 196.653 170.604 196.335 170.79 196.018 171.198 195.91 171.516 196.096Z" fill="#172C51"/><path d="M205.167 211.326 205.167 253.971 203.833 253.971 203.833 211.326ZM209.743 246.313 204.5 255.293 199.258 246.313C199.072 245.995 199.179 245.587 199.497 245.402 199.816 245.216 200.224 245.324 200.409 245.641L205.076 253.635 203.924 253.635 208.591 245.641C208.776 245.324 209.185 245.216 209.503 245.402 209.821 245.587 209.928 245.995 209.743 246.313Z" fill="#172C51"/><path d="M71.7726 206.721 195.568 262.135 195.022 263.351 71.2275 207.937ZM190.445 254.832 196.503 263.284 186.158 264.393C185.792 264.432 185.463 264.168 185.424 263.802 185.384 263.436 185.649 263.108 186.016 263.069L195.224 262.081 194.753 263.131 189.361 255.608C189.146 255.309 189.215 254.893 189.514 254.679 189.814 254.464 190.23 254.533 190.445 254.832Z" fill="#172C51"/><text font-family="Cambria Math,Cambria Math_MSFontService,sans-serif" font-weight="400" font-size="14.6546" transform="matrix(1 0 0 0.999176 59.8587 322)">ℤ</text><text font-family="Cambria Math,Cambria Math_MSFontService,sans-serif" font-weight="400" font-size="14.6546" transform="matrix(1 0 0 0.999176 188.287 322)">ℤ</text><text font-family="Cambria Math,Cambria Math_MSFontService,sans-serif" font-weight="400" font-size="14.6546" transform="matrix(1 0 0 0.999176 200.38 322)">×</text><text font-family="Cambria Math,Cambria Math_MSFontService,sans-serif" font-weight="400" font-size="14.6546" transform="matrix(1 0 0 0.999176 214.14 322)">ℤ</text><text font-family="Cambria Math,Cambria Math_MSFontService,sans-serif" font-weight="400" font-size="14.6546" transform="matrix(1 0 0 0.999176 201.876 387)">ℤ</text><text font-family="Cambria Math,Cambria Math_MSFontService,sans-serif" font-weight="400" font-size="14.6546" transform="matrix(1 0 0 0.999176 93.1865 310)">𝒙</text><text font-family="Cambria Math,Cambria Math_MSFontService,sans-serif" font-weight="400" font-size="14.6546" transform="matrix(1 0 0 0.999176 105.76 310)">↦</text><path d="M61.2079 3.01339C62.5997 3.3804 63.6686 4.17282 64.4146 5.39065 65.1605 6.60847 65.5335 8.07772 65.5335 9.79841 65.5335 11.5239 65.1617 12.9931 64.4181 14.2062 63.6746 15.4192 62.6045 16.2093 61.2079 16.5763L61.0364 16.0258C62.1374 15.6587 62.956 14.9342 63.4923 13.8523 64.0285 12.7703 64.2966 11.3952 64.2966 9.72691 64.2966 8.11586 64.0297 6.77768 63.4958 5.71238 62.962 4.64708 62.135 3.93092 61.0149 3.56391ZM37.5128 3.01339 37.7059 3.56391C36.5905 3.93092 35.7647 4.64708 35.2285 5.71238 34.6923 6.77768 34.4242 8.11586 34.4242 9.72691 34.4242 11.3952 34.6923 12.7703 35.2285 13.8523 35.7647 14.9342 36.5834 15.6587 37.6844 16.0258L37.5128 16.5763C36.1163 16.2093 35.0462 15.4192 34.3026 14.2062 33.5591 12.9931 33.1873 11.5239 33.1873 9.79841 33.1873 8.07772 33.5603 6.60847 34.3062 5.39065 35.0522 4.17282 36.121 3.3804 37.5128 3.01339Z" fill-rule="evenodd" transform="matrix(1.00083 0 0 1 90.7398 296.428)"/><text font-family="Cambria Math,Cambria Math_MSFontService,sans-serif" font-weight="400" font-size="14.6546" transform="matrix(1 0 0 0.999176 128.753 310)">𝒙</text><text font-family="Cambria Math,Cambria Math_MSFontService,sans-serif" font-weight="400" font-size="14.6546" transform="matrix(1 0 0 0.999176 137.253 310)">,</text><text font-family="Cambria Math,Cambria Math_MSFontService,sans-serif" font-weight="400" font-size="14.6546" transform="matrix(1 0 0 0.999176 142.7 310)">𝟏</text><path d="M32.5782 3.01339C33.97 3.3804 35.0389 4.17282 35.7849 5.39065 36.5308 6.60847 36.9038 8.07772 36.9038 9.79841 36.9038 11.5239 36.532 12.9931 35.7884 14.2062 35.0449 15.4192 33.9748 16.2093 32.5782 16.5763L32.4066 16.0258C33.5077 15.6587 34.3263 14.9342 34.8625 13.8523 35.3988 12.7703 35.6669 11.3952 35.6669 9.72691 35.6669 8.11586 35.4 6.77768 34.8661 5.71238 34.3323 4.64708 33.5053 3.93092 32.3852 3.56391ZM8.217 3.01339 8.41004 3.56391C7.29469 3.93092 6.46891 4.64708 5.93268 5.71238 5.39646 6.77768 5.12835 8.11586 5.12835 9.72691 5.12835 11.3952 5.39646 12.7703 5.93268 13.8523 6.46891 14.9342 7.28754 15.6587 8.38859 16.0258L8.217 16.5763C6.82043 16.2093 5.75037 15.4192 5.0068 14.2062 4.26324 12.9931 3.89146 11.5239 3.89146 9.79841 3.89146 8.07772 4.26443 6.60847 5.01038 5.39065 5.75632 4.17282 6.8252 3.3804 8.217 3.01339Z" fill-rule="evenodd" transform="matrix(1.00083 0 0 1 208.662 336.99)"/><text font-family="Cambria Math,Cambria Math_MSFontService,sans-serif" font-weight="400" font-size="14.6546" transform="matrix(1 0 0 0.999176 217.356 351)">𝒂</text><text font-family="Cambria Math,Cambria Math_MSFontService,sans-serif" font-weight="400" font-size="14.6546" transform="matrix(1 0 0 0.999176 226.522 351)">,</text><text font-family="Cambria Math,Cambria Math_MSFontService,sans-serif" font-weight="400" font-size="14.6546" transform="matrix(1 0 0 0.999176 231.969 351)">𝒃</text><text font-family="Cambria Math,Cambria Math_MSFontService,sans-serif" font-weight="400" font-size="14.6546" transform="matrix(1 0 0 0.999176 250.962 351)">↦</text><text font-family="Cambria Math,Cambria Math_MSFontService,sans-serif" font-weight="400" font-size="14.6546" transform="matrix(1 0 0 0.999176 267.869 351)">𝒂</text><text font-family="Cambria Math,Cambria Math_MSFontService,sans-serif" font-weight="400" font-size="14.6546" transform="matrix(1 0 0 0.999176 280.296 351)">∙</text><text font-family="Cambria Math,Cambria Math_MSFontService,sans-serif" font-weight="400" font-size="14.6546" transform="matrix(1 0 0 0.999176 287.722 351)">𝒃</text><text font-family="Cambria Math,Cambria Math_MSFontService,sans-serif" font-weight="400" font-size="14.6546" transform="matrix(1 0 0 0.999176 108.789 366)">𝒊𝒅</text><text font-family="Cambria Math,Cambria Math_MSFontService,sans-serif" font-weight="400" font-size="10.6978" transform="matrix(1 0 0 0.999176 123.789 369)">𝒁</text><path d="M74.5001 316.572 181.181 316.572 181.181 317.904 74.5001 317.904ZM173.516 312 182.503 317.238 173.516 322.477C173.198 322.662 172.79 322.555 172.604 322.237 172.419 321.919 172.526 321.511 172.844 321.326L180.844 316.663 180.844 317.814 172.844 313.151C172.526 312.966 172.419 312.558 172.604 312.24 172.79 311.922 173.198 311.815 173.516 312Z" fill="#172C51"/><path d="M207.167 327.23 207.167 369.875 205.833 369.875 205.833 327.23ZM211.743 362.217 206.5 371.197 201.258 362.217C201.072 361.899 201.179 361.491 201.497 361.306 201.816 361.121 202.224 361.228 202.409 361.546L207.076 369.539 205.924 369.539 210.591 361.546C210.776 361.228 211.185 361.121 211.503 361.306 211.821 361.491 211.928 361.899 211.743 362.217Z" fill="#172C51"/><path d="M73.7744 322.626 196.572 378.038 196.023 379.252 73.2257 323.84ZM191.47 370.719 197.503 379.188 187.154 380.266C186.788 380.305 186.46 380.039 186.422 379.673 186.384 379.307 186.65 378.98 187.016 378.941L196.228 377.982 195.754 379.031 190.384 371.491C190.17 371.191 190.24 370.775 190.54 370.562 190.84 370.349 191.257 370.419 191.47 370.719Z" fill="#172C51"/><path d="M47.5001 157.37C43.3579 157.37 40.0001 153.456 40.0001 148.627L40.0001 92.6745C40.0001 87.8455 36.6422 83.9308 32.5001 83.9308 36.6422 83.9308 40.0001 80.0161 40.0001 75.1871L40.0001 19.2351C40.0001 14.4061 43.3579 10.4914 47.5001 10.4914" stroke="#000000" stroke-width="1.33333" stroke-miterlimit="8" fill="none" fill-rule="evenodd"/><path d="M48.5001 279.27C44.3579 279.27 41.0001 275.355 41.0001 270.526L41.0001 241.052C41.0001 236.223 37.6422 232.308 33.5001 232.308 37.6422 232.308 41.0001 228.394 41.0001 223.565L41.0001 194.091C41.0001 189.262 44.3579 185.347 48.5001 185.347" stroke="#000000" stroke-width="1.33333" stroke-miterlimit="8" fill="none" fill-rule="evenodd"/><path d="M47.5001 393.176C43.3579 393.176 40.0001 389.261 40.0001 384.432L40.0001 354.958C40.0001 350.129 36.6422 346.214 32.5001 346.214 36.6422 346.214 40.0001 342.3 40.0001 337.471L40.0001 307.997C40.0001 303.168 43.3579 299.253 47.5001 299.253" stroke="#000000" stroke-width="1.33333" stroke-miterlimit="8" fill="none" fill-rule="evenodd"/><text font-family="Cambria Math,Cambria Math_MSFontService,sans-serif" font-weight="400" font-size="14.6546" transform="matrix(1 0 0 0.999176 14.7875 89)">𝒂</text><text font-family="Cambria Math,Cambria Math_MSFontService,sans-serif" font-weight="400" font-size="14.6546" transform="matrix(1 0 0 0.999176 14.9557 237)">𝒃</text><text font-family="Cambria Math,Cambria Math_MSFontService,sans-serif" font-weight="400" font-size="14.6546" transform="matrix(1 0 0 0.999176 15.7131 352)">𝒄</text></g></svg>