<svg width="276" height="189" xmlns="http://www.w3.org/2000/svg" xmlns:xlink="http://www.w3.org/1999/xlink" overflow="hidden"><defs><clipPath id="clip0"><rect x="0" y="0" width="276" height="189"/></clipPath></defs><g clip-path="url(#clip0)"><rect x="0" y="0" width="276" height="188.886" fill="#FFFFFF"/><rect x="24.5" y="48.4708" width="30.9999" height="27.983" stroke="#000000" stroke-width="1.33414" stroke-linejoin="round" stroke-miterlimit="10" fill="none"/><text font-family="Yu Gothic,Yu Gothic_MSFontService,sans-serif" font-weight="700" font-size="14.6667" transform="matrix(1 0 0 0.999396 33.9856 67)">人</text><rect x="213.5" y="48.4708" width="31" height="27.983" stroke="#000000" stroke-width="1.33414" stroke-linejoin="round" stroke-miterlimit="10" fill="none"/><text font-family="Yu Gothic,Yu Gothic_MSFontService,sans-serif" font-weight="700" font-size="14.6667" transform="matrix(1 0 0 0.999396 222.544 67)">人</text><rect x="116.5" y="137.417" width="31" height="26.9836" stroke="#000000" stroke-width="1.33414" stroke-linejoin="round" stroke-miterlimit="10" fill="none"/><text font-family="Yu Gothic,Yu Gothic_MSFontService,sans-serif" font-weight="700" font-size="14.6667" transform="matrix(1 0 0 0.999396 125.596 156)">母</text><text font-family="Cambria Math,Cambria Math_MSFontService,sans-serif" font-weight="400" font-size="14.6667" transform="matrix(1 0 0 0.999396 34.8194 43)">𝑷</text><text font-family="Cambria Math,Cambria Math_MSFontService,sans-serif" font-weight="400" font-size="14.6667" transform="matrix(1 0 0 0.999396 224.268 45)">𝑷</text><text font-family="Cambria Math,Cambria Math_MSFontService,sans-serif" font-weight="400" font-size="14.6667" transform="matrix(1 0 0 0.999396 117.18 36)">𝒇</text><text font-family="Cambria Math,Cambria Math_MSFontService,sans-serif" font-weight="400" font-size="14.6667" transform="matrix(1 0 0 0.999396 125.518 36)">:</text><text font-family="Cambria Math,Cambria Math_MSFontService,sans-serif" font-weight="400" font-size="14.6667" transform="matrix(1 0 0 0.999396 131.802 36)">𝑷</text><text font-family="Cambria Math,Cambria Math_MSFontService,sans-serif" font-weight="400" font-size="14.6667" transform="matrix(1 0 0 0.999396 145.884 36)">→</text><text font-family="Cambria Math,Cambria Math_MSFontService,sans-serif" font-weight="400" font-size="14.6667" transform="matrix(1 0 0 0.999396 162.301 36)">𝑷</text><text font-family="Yu Gothic,Yu Gothic_MSFontService,sans-serif" font-weight="700" font-size="14.6667" transform="matrix(1 0 0 0.999396 73.1202 53)">～</text><text font-family="Yu Gothic,Yu Gothic_MSFontService,sans-serif" font-weight="700" font-size="14.6667" transform="matrix(1 0 0 0.999396 87.7957 53)">は</text><text font-family="Yu Gothic,Yu Gothic_MSFontService,sans-serif" font-weight="700" font-size="14.6667" transform="matrix(1 0 0 0.999396 102.471 53)">･･･</text><text font-family="Yu Gothic,Yu Gothic_MSFontService,sans-serif" font-weight="700" font-size="14.6667" transform="matrix(1 0 0 0.999396 124.485 53)">を母とする</text><path d="M59.5 61.7956 207.179 61.7956 207.179 63.1289 59.5 63.1289ZM199.51 57.2197 208.503 62.4623 199.51 67.7048C199.192 67.8903 198.784 67.7829 198.598 67.4648 198.413 67.1468 198.52 66.7386 198.838 66.5531L206.843 61.8864 206.843 63.0381 198.838 58.3714C198.52 58.1859 198.413 57.7777 198.598 57.4597 198.784 57.1416 199.192 57.0342 199.51 57.2197Z" fill="#172C51"/><path d="M47.9445 80.9537 93.9597 122.049 93.0707 123.043 47.0555 81.9479ZM91.2923 113.53 94.5023 123.427 84.3016 121.348C83.9406 121.275 83.7076 120.922 83.7812 120.562 83.8549 120.201 84.2072 119.968 84.5682 120.042L93.6485 121.893 92.8806 122.751 90.0231 113.941C89.9095 113.591 90.1016 113.215 90.452 113.101 90.8025 112.988 91.1787 113.18 91.2923 113.53Z" fill="#172C51"/><path d="M1.44071 0.332787 48.3978 39.4637 47.5442 40.488 0.587134 1.35708ZM3.5456 9.77888-0.00237369-0.00197804 10.2579 1.72404C10.621 1.78512 10.8659 2.12898 10.8048 2.49207 10.7437 2.85516 10.3998 3.09998 10.0368 3.0389L0.903458 1.50247 1.64076 0.617706 4.79902 9.32421C4.92457 9.67033 4.74577 10.0527 4.39964 10.1783 4.05352 10.3038 3.67115 10.125 3.5456 9.77888Z" fill="#172C51" transform="matrix(-1.0006 0 0 1 226.5 81.4508)"/><text font-family="Cambria Math,Cambria Math_MSFontService,sans-serif" font-weight="400" font-size="14.6667" transform="matrix(1 0 0 0.999396 101.477 128)">𝐌</text><text font-family="Cambria Math,Cambria Math_MSFontService,sans-serif" font-weight="400" font-size="14.6667" transform="matrix(1 0 0 0.999396 118.227 128)">=</text><text font-family="Cambria Math,Cambria Math_MSFontService,sans-serif" font-weight="400" font-size="14.6667" transform="matrix(1 0 0 0.999396 133.31 128)">𝐢𝐦</text><path d="M101.205 3.01654C102.598 3.38394 103.668 4.17719 104.415 5.39628 105.162 6.61538 105.535 8.08617 105.535 9.80866 105.535 11.5359 105.163 13.0067 104.419 14.221 103.674 15.4354 102.603 16.2262 101.205 16.5936L101.033 16.0425C102.136 15.6751 102.955 14.9499 103.492 13.8668 104.029 12.7836 104.297 11.4071 104.297 9.73709 104.297 8.12435 104.03 6.78477 103.495 5.71836 102.961 4.65194 102.133 3.93504 101.012 3.56764ZM91.9384 3.01654 92.1316 3.56764C91.0151 3.93504 90.1884 4.65194 89.6517 5.71836 89.1149 6.78477 88.8465 8.12435 88.8465 9.73709 88.8465 11.4071 89.1149 12.7836 89.6517 13.8668 90.1884 14.9499 91.0079 15.6751 92.1101 16.0425L91.9384 16.5936C90.5403 16.2262 89.4691 15.4354 88.7248 14.221 87.9805 13.0067 87.6083 11.5359 87.6083 9.80866 87.6083 8.08617 87.9817 6.61538 88.7284 5.39628 89.4751 4.17719 90.5451 3.38394 91.9384 3.01654Z" fill-rule="evenodd" transform="matrix(1.0006 0 0 1 65.1152 113.547)"/><text font-family="Cambria Math,Cambria Math_MSFontService,sans-serif" font-weight="400" font-size="14.6667" transform="matrix(1 0 0 0.999396 157.578 128)">𝒇</text><text font-family="Cambria Math,Cambria Math_MSFontService,sans-serif" font-weight="400" font-size="14.6667" transform="matrix(1 0 0 0.999396 33.6222 110)">𝒉𝒂𝒔</text><text font-family="Cambria Math,Cambria Math_MSFontService,sans-serif" font-weight="400" font-size="14.6667" transform="matrix(1 0 0 0.999396 210.504 114)">𝒊𝒔</text><text font-family="Segoe UI Symbol,Segoe UI Symbol_MSFontService,sans-serif" font-weight="700" font-size="14.6667" transform="matrix(1 0 0 0.999396 127.209 94)">✔</text><rect x="5.50001" y="6.49606" width="266" height="176.893" stroke="#172C51" stroke-width="1.33414" stroke-miterlimit="8" fill="none"/></g></svg>