<svg width="654" height="197" xmlns="http://www.w3.org/2000/svg" xmlns:xlink="http://www.w3.org/1999/xlink" overflow="hidden"><defs><clipPath id="clip0"><rect x="0" y="0" width="654" height="197"/></clipPath></defs><g clip-path="url(#clip0)"><rect x="0" y="0" width="654" height="197.451" fill="#FFFFFF"/><rect x="28.5" y="41.595" width="64" height="28.0641" stroke="#000000" stroke-width="1.33367" stroke-linejoin="round" stroke-miterlimit="10" fill="none"/><text font-family="Yu Gothic,Yu Gothic_MSFontService,sans-serif" font-weight="700" font-size="14.704" transform="matrix(1 0 0 1.00229 37.4585 60)">子ども</text><rect x="152.5" y="41.595" width="35" height="28.0641" stroke="#000000" stroke-width="1.33367" stroke-linejoin="round" stroke-miterlimit="10" fill="none"/><text font-family="Yu Gothic,Yu Gothic_MSFontService,sans-serif" font-weight="700" font-size="14.704" transform="matrix(1 0 0 1.00229 161.935 60)">人</text><rect x="351.5" y="28.5652" width="96" height="63.1442" stroke="#000000" stroke-width="1.33367" stroke-linejoin="round" stroke-miterlimit="10" fill="none"/><text font-family="Yu Gothic,Yu Gothic_MSFontService,sans-serif" font-weight="700" font-size="14.704" transform="matrix(1 0 0 1.00229 361.097 47)">ペア</text><path d="M66.5168 3.02604C67.9145 3.3946 68.9878 4.19035 69.7369 5.41328 70.486 6.63622 70.8605 8.11165 70.8605 9.83956 70.8605 11.5723 70.4872 13.0477 69.7405 14.2658 68.9938 15.484 67.9193 16.2773 66.5168 16.6459L66.3445 16.0931C67.4502 15.7245 68.2723 14.997 68.8107 13.9104 69.3492 12.8239 69.6185 11.443 69.6185 9.76776 69.6185 8.14994 69.3504 6.80614 68.8143 5.73637 68.2783 4.6666 67.4478 3.94743 66.323 3.57888ZM34.9769 3.02604 35.1707 3.57888C34.0507 3.94743 33.2214 4.6666 32.6829 5.73637 32.1445 6.80614 31.8752 8.14994 31.8752 9.76776 31.8752 11.443 32.1445 12.8239 32.6829 13.9104 33.2214 14.997 34.0435 15.7245 35.1492 16.0931L34.9769 16.6459C33.5744 16.2773 32.4999 15.484 31.7532 14.2658 31.0065 13.0477 30.6332 11.5723 30.6332 9.83956 30.6332 8.11165 31.0077 6.63622 31.7568 5.41328 32.5058 4.19035 33.5792 3.3946 34.9769 3.02604Z" fill-rule="evenodd" transform="matrix(1 0 0 1.00229 361.097 32.535)"/><text font-family="Cambria Math,Cambria Math_MSFontService,sans-serif" font-weight="400" font-size="14.704" transform="matrix(1 0 0 1.00229 396.526 47)">𝒘</text><text font-family="Cambria Math,Cambria Math_MSFontService,sans-serif" font-weight="400" font-size="14.704" transform="matrix(1 0 0 1.00229 408.029 47)">,</text><text font-family="Cambria Math,Cambria Math_MSFontService,sans-serif" font-weight="400" font-size="14.704" transform="matrix(1 0 0 1.00229 413.477 47)">𝒎</text><text font-family="Cambria Math,Cambria Math_MSFontService,sans-serif" font-weight="400" font-size="14.704" transform="matrix(1 0 0 1.00229 433.235 47)">,</text><text font-family="Cambria Math,Cambria Math_MSFontService,sans-serif" font-weight="400" font-size="14.704" transform="matrix(1 0 0 1.00229 361.097 64)">𝒘</text><text font-family="Yu Gothic,Yu Gothic_MSFontService,sans-serif" font-weight="700" font-size="14.704" transform="matrix(1 0 0 1.00229 375.767 64)">は女性</text><text font-family="Cambria Math,Cambria Math_MSFontService,sans-serif" font-weight="400" font-size="14.704" transform="matrix(1 0 0 1.00229 361.097 82)">𝒎</text><text font-family="Cambria Math,Cambria Math_MSFontService,sans-serif" font-weight="400" font-size="14.704" transform="matrix(1 0 0 1.00229 374.767 82)"></text><text font-family="Yu Gothic,Yu Gothic_MSFontService,sans-serif" font-weight="700" font-size="14.704" transform="matrix(1 0 0 1.00229 377.934 82)">は男性</text><rect x="520.5" y="45.6041" width="49" height="28.0641" stroke="#000000" stroke-width="1.33367" stroke-linejoin="round" stroke-miterlimit="10" fill="none"/><text font-family="Yu Gothic,Yu Gothic_MSFontService,sans-serif" font-weight="700" font-size="14.704" transform="matrix(1 0 0 1.00229 529.139 64)">女性</text><rect x="252.5" y="141.824" width="51" height="28.0641" stroke="#000000" stroke-width="1.33367" stroke-linejoin="round" stroke-miterlimit="10" fill="none"/><text font-family="Yu Gothic,Yu Gothic_MSFontService,sans-serif" font-weight="700" font-size="14.704" transform="matrix(1 0 0 1.00229 262.055 161)">日付</text><rect x="399.5" y="141.824" width="33" height="28.0641" stroke="#000000" stroke-width="1.33367" stroke-linejoin="round" stroke-miterlimit="10" fill="none"/><text font-family="Yu Gothic,Yu Gothic_MSFontService,sans-serif" font-weight="700" font-size="14.704" transform="matrix(1 0 0 1.00229 408.415 161)">年</text><text font-family="Cambria Math,Cambria Math_MSFontService,sans-serif" font-weight="400" font-size="14.704" transform="matrix(1 0 0 1.00229 113.925 47)">𝒊𝒔</text><text font-family="Yu Gothic,Yu Gothic_MSFontService,sans-serif" font-weight="700" font-size="14.704" transform="matrix(1 0 0 1.00229 206.425 48)">～</text><text font-family="Yu Gothic,Yu Gothic_MSFontService,sans-serif" font-weight="700" font-size="14.704" transform="matrix(1 0 0 1.00229 221.096 48)">の</text><text font-family="Yu Gothic,Yu Gothic_MSFontService,sans-serif" font-weight="700" font-size="14.704" transform="matrix(1 0 0 1.00229 235.766 48)">両親</text><text font-family="Yu Gothic,Yu Gothic_MSFontService,sans-serif" font-weight="700" font-size="14.704" transform="matrix(1 0 0 1.00229 265.107 48)">は</text><text font-family="Yu Gothic,Yu Gothic_MSFontService,sans-serif" font-weight="700" font-size="14.704" transform="matrix(1 0 0 1.00229 279.777 48)">･･･</text><text font-family="Cambria Math,Cambria Math_MSFontService,sans-serif" font-weight="400" font-size="14.704" transform="matrix(1 0 0 1.00229 475.73 51)">𝒘</text><text font-family="Yu Gothic,Yu Gothic_MSFontService,sans-serif" font-weight="700" font-size="14.704" transform="matrix(1 0 0 1.00229 103.097 120)">～</text><text font-family="Yu Gothic,Yu Gothic_MSFontService,sans-serif" font-weight="700" font-size="14.704" transform="matrix(1 0 0 1.00229 117.768 120)">の</text><text font-family="Yu Gothic,Yu Gothic_MSFontService,sans-serif" font-weight="700" font-size="14.704" transform="matrix(1 0 0 1.00229 132.438 120)">誕生日</text><text font-family="Yu Gothic,Yu Gothic_MSFontService,sans-serif" font-weight="700" font-size="14.704" transform="matrix(1 0 0 1.00229 176.449 120)">は</text><text font-family="Yu Gothic,Yu Gothic_MSFontService,sans-serif" font-weight="700" font-size="14.704" transform="matrix(1 0 0 1.00229 191.12 120)">･･･</text><text font-family="Cambria Math,Cambria Math_MSFontService,sans-serif" font-weight="400" font-size="14.704" transform="matrix(1 0 0 1.00229 316.327 149)">𝒊𝒏𝒄𝒍𝒖𝒅𝒆𝒔</text><path d="M95.5 53.9564 148.18 53.9564 148.18 55.2931 95.5 55.2931ZM140.514 49.3689 149.503 54.6247 140.514 59.8806C140.196 60.0666 139.787 59.9589 139.602 59.64 139.416 59.3212 139.524 58.9119 139.842 58.726L147.844 54.0474 147.844 55.202 139.842 50.5235C139.524 50.3375 139.416 49.9283 139.602 49.6094 139.787 49.2906 140.196 49.1829 140.514 49.3689Z" fill="#172C51"/><path d="M187.5 54.9587 338.18 54.9587 338.18 56.2954 187.5 56.2954ZM330.514 50.3712 339.503 55.6271 330.514 60.8829C330.195 61.0689 329.787 60.9612 329.602 60.6424 329.416 60.3235 329.523 59.9143 329.842 59.7283L337.844 55.0497 337.844 56.2044 329.842 51.5258C329.523 51.3398 329.416 50.9306 329.602 50.6118 329.787 50.2929 330.195 50.1852 330.514 50.3712Z" fill="#172C51"/><path d="M456.5 58.9678 514.18 58.9678 514.18 60.3046 456.5 60.3046ZM506.514 54.3803 515.503 59.6362 506.514 64.892C506.195 65.078 505.787 64.9703 505.602 64.6515 505.416 64.3327 505.523 63.9234 505.842 63.7374L513.844 59.0589 513.844 60.2135 505.842 55.535C505.523 55.349 505.416 54.9397 505.602 54.6209 505.787 54.302 506.195 54.1943 506.514 54.3803Z" fill="#172C51"/><path d="M310.5 154.185 390.18 154.185 390.18 155.522 310.5 155.522ZM382.514 149.598 391.503 154.854 382.514 160.109C382.195 160.295 381.787 160.188 381.602 159.869 381.416 159.55 381.523 159.141 381.842 158.955L389.844 154.276 389.844 155.431 381.842 150.752C381.523 150.566 381.416 150.157 381.602 149.838 381.787 149.519 382.195 149.412 382.514 149.598Z" fill="#172C51"/><path d="M176.888 74.1267 259.813 133.495 259.038 134.582 176.112 75.2144ZM256.235 125.296 260.503 134.81 250.14 133.85C249.773 133.816 249.503 133.49 249.537 133.123 249.571 132.755 249.896 132.485 250.262 132.519L259.487 133.373 258.817 134.313 255.019 125.844C254.868 125.507 255.018 125.112 255.354 124.96 255.69 124.809 256.084 124.959 256.235 125.296Z" fill="#172C51"/><path d="M38.5097 3.02604C39.9073 3.3946 40.9807 4.19035 41.7298 5.41328 42.4789 6.63622 42.8534 8.11165 42.8534 9.83956 42.8534 11.5723 42.4801 13.0477 41.7334 14.2658 40.9867 15.484 39.9121 16.2773 38.5097 16.6459L38.3374 16.0931C39.4431 15.7245 40.2651 14.997 40.8036 13.9104 41.3421 12.8239 41.6113 11.443 41.6113 9.76776 41.6113 8.14994 41.3433 6.80614 40.8072 5.73637 40.2711 4.6666 39.4407 3.94743 38.3159 3.57888ZM5.63605 3.02604 5.8299 3.57888C4.70987 3.94743 3.88062 4.6666 3.34214 5.73637 2.80367 6.80614 2.53443 8.14994 2.53443 9.76776 2.53443 11.443 2.80367 12.8239 3.34214 13.9104 3.88062 14.997 4.70269 15.7245 5.80836 16.0931L5.63605 16.6459C4.23362 16.2773 3.15906 15.484 2.41237 14.2658 1.66569 13.0477 1.29234 11.5723 1.29234 9.83956 1.29234 8.11165 1.66688 6.63622 2.41596 5.41328 3.16504 4.19035 4.2384 3.3946 5.63605 3.02604Z" fill-rule="evenodd" transform="matrix(1 0 0 1.00229 603.245 87.5368)"/><text font-family="Cambria Math,Cambria Math_MSFontService,sans-serif" font-weight="400" font-size="14.704" transform="matrix(1 0 0 1.00229 609.333 102)">𝟐</text><text font-family="Cambria Math,Cambria Math_MSFontService,sans-serif" font-weight="400" font-size="14.704" transform="matrix(1 0 0 1.00229 618.169 102)">.</text><text font-family="Cambria Math,Cambria Math_MSFontService,sans-serif" font-weight="400" font-size="14.704" transform="matrix(1 0 0 1.00229 623.617 102)">𝟏𝟔</text><rect x="10.5" y="11.5264" width="581" height="172.394" stroke="#172C51" stroke-width="1.33367" stroke-miterlimit="8" fill="none"/></g></svg>