<svg width="348" height="113" xmlns="http://www.w3.org/2000/svg" xmlns:xlink="http://www.w3.org/1999/xlink" overflow="hidden"><g><rect x="0" y="0" width="348" height="112.56" fill="#FFFFFF"/><rect x="7.49999" y="18.4279" width="34" height="26.8947" stroke="#000000" stroke-width="1.33461" stroke-linejoin="round" stroke-miterlimit="10" fill="none"/><text font-family="Yu Gothic,Yu Gothic_MSFontService,sans-serif" font-weight="700" font-size="14.6235" transform="matrix(1 0 0 0.996104 16.9893 36)">人</text><rect x="122.5" y="18.4279" width="64" height="26.8947" stroke="#000000" stroke-width="1.33461" stroke-linejoin="round" stroke-miterlimit="10" fill="none"/><text font-family="Yu Gothic,Yu Gothic_MSFontService,sans-serif" font-weight="700" font-size="14.6235" transform="matrix(1 0 0 0.996104 132.392 36)">子ども</text><rect x="7.49999" y="75.2059" width="138" height="27.8908" stroke="#000000" stroke-width="1.33461" stroke-linejoin="round" stroke-miterlimit="10" fill="none"/><text font-family="Yu Gothic,Yu Gothic_MSFontService,sans-serif" font-weight="700" font-size="14.6235" transform="matrix(1 0 0 0.996104 17.4911 93)">シャープペンシル</text><rect x="215.5" y="75.2059" width="36" height="27.8908" stroke="#000000" stroke-width="1.33461" stroke-linejoin="round" stroke-miterlimit="10" fill="none"/><text font-family="Yu Gothic,Yu Gothic_MSFontService,sans-serif" font-weight="700" font-size="14.6235" transform="matrix(1 0 0 0.996104 225.609 93)">芯</text><path d="M47.5 29.7164 116.179 29.7164 116.179 31.0458 47.5 31.0458ZM108.507 25.154 117.503 30.3811 108.507 35.6082C108.189 35.7932 107.78 35.6861 107.595 35.369 107.409 35.0519 107.516 34.6449 107.835 34.4599L115.842 29.807 115.842 30.9553 107.835 26.3024C107.516 26.1174 107.409 25.7104 107.595 25.3933 107.78 25.0762 108.189 24.9691 108.507 25.154Z" fill="#172C51"/><text font-family="Cambria Math,Cambria Math_MSFontService,sans-serif" font-weight="400" font-size="14.6235" transform="matrix(1 0 0 0.996104 67.3621 24)">𝒉𝒂𝒔</text><text font-family="Yu Gothic,Yu Gothic_MSFontService,sans-serif" font-weight="700" font-size="14.6235" transform="matrix(1 0 0 0.996104 165.336 84)">使う</text><path d="M152.5 88.4866 206.179 88.4866 206.179 89.816 152.5 89.816ZM198.507 83.9242 207.503 89.1513 198.507 94.3784C198.189 94.5634 197.78 94.4563 197.595 94.1392 197.409 93.8221 197.516 93.4151 197.835 93.2301L205.842 88.5771 205.842 89.7255 197.835 85.0725C197.516 84.8875 197.409 84.4805 197.595 84.1634 197.78 83.8463 198.189 83.7392 198.507 83.9242Z" fill="#172C51"/><path d="M50.9999 2.99776C52.3845 3.36287 53.4478 4.15118 54.1899 5.36269 54.932 6.5742 55.303 8.03583 55.303 9.74759 55.303 11.4641 54.9332 12.9257 54.1935 14.1325 53.4537 15.3393 52.3892 16.1252 50.9999 16.4903L50.8292 15.9426C51.9245 15.5775 52.7389 14.8568 53.2724 13.7804 53.8058 12.7041 54.0725 11.3361 54.0725 9.67646 54.0725 8.07376 53.807 6.74253 53.2759 5.68275 52.7449 4.62298 51.9222 3.91054 50.8079 3.54542ZM7.96967 2.99776 8.16171 3.54542C7.05214 3.91054 6.23064 4.62298 5.6972 5.68275 5.16376 6.74253 4.89703 8.07376 4.89703 9.67646 4.89703 11.3361 5.16376 12.7041 5.6972 13.7804 6.23064 14.8568 7.04503 15.5775 8.14037 15.9426L7.96967 16.4903C6.58034 16.1252 5.51583 15.3393 4.77612 14.1325 4.03641 12.9257 3.66656 11.4641 3.66656 9.74759 3.66656 8.03583 4.0376 6.5742 4.77968 5.36269 5.52175 4.15118 6.58508 3.36287 7.96967 2.99776Z" fill-rule="evenodd" transform="matrix(1.00391 0 0 1 279.811 22.2086)"/><text font-family="Cambria Math,Cambria Math_MSFontService,sans-serif" font-weight="400" font-size="14.6235" transform="matrix(1 0 0 0.996104 288.299 36)">𝟐</text><text font-family="Cambria Math,Cambria Math_MSFontService,sans-serif" font-weight="400" font-size="14.6235" transform="matrix(1 0 0 0.996104 297.141 36)">.</text><text font-family="Cambria Math,Cambria Math_MSFontService,sans-serif" font-weight="400" font-size="14.6235" transform="matrix(1 0 0 0.996104 302.593 36)">𝟏𝟐</text><text font-family="Cambria Math,Cambria Math_MSFontService,sans-serif" font-weight="400" font-size="14.6235" transform="matrix(1 0 0 0.996104 323.539 36)">∗</text><path d="M50.9999 2.99776C52.3845 3.36287 53.4478 4.15118 54.1899 5.36269 54.932 6.5742 55.303 8.03583 55.303 9.74759 55.303 11.4641 54.9332 12.9257 54.1935 14.1325 53.4537 15.3393 52.3892 16.1252 50.9999 16.4903L50.8292 15.9426C51.9245 15.5775 52.7389 14.8568 53.2724 13.7804 53.8058 12.7041 54.0725 11.3361 54.0725 9.67646 54.0725 8.07376 53.807 6.74253 53.2759 5.68275 52.7449 4.62298 51.9222 3.91054 50.8079 3.54542ZM7.96967 2.99776 8.16171 3.54542C7.05214 3.91054 6.23064 4.62298 5.6972 5.68275 5.16376 6.74253 4.89703 8.07376 4.89703 9.67646 4.89703 11.3361 5.16376 12.7041 5.6972 13.7804 6.23064 14.8568 7.04503 15.5775 8.14037 15.9426L7.96967 16.4903C6.58034 16.1252 5.51583 15.3393 4.77612 14.1325 4.03641 12.9257 3.66656 11.4641 3.66656 9.74759 3.66656 8.03583 4.0376 6.5742 4.77968 5.36269 5.52175 4.15118 6.58508 3.36287 7.96967 2.99776Z" fill-rule="evenodd" transform="matrix(1.00391 0 0 1 279.811 79.2482)"/><text font-family="Cambria Math,Cambria Math_MSFontService,sans-serif" font-weight="400" font-size="14.6235" transform="matrix(1 0 0 0.996104 288.299 93)">𝟐</text><text font-family="Cambria Math,Cambria Math_MSFontService,sans-serif" font-weight="400" font-size="14.6235" transform="matrix(1 0 0 0.996104 297.141 93)">.</text><text font-family="Cambria Math,Cambria Math_MSFontService,sans-serif" font-weight="400" font-size="14.6235" transform="matrix(1 0 0 0.996104 302.593 93)">𝟏𝟑</text><text font-family="Cambria Math,Cambria Math_MSFontService,sans-serif" font-weight="400" font-size="14.6235" transform="matrix(1 0 0 0.996104 323.539 93)">∗</text></g></svg>