<svg width="314" height="280" xmlns="http://www.w3.org/2000/svg" xmlns:xlink="http://www.w3.org/1999/xlink" overflow="hidden"><defs><clipPath id="clip0"><rect x="0" y="0" width="314" height="280"/></clipPath></defs><g clip-path="url(#clip0)"><rect x="0" y="0" width="314" height="280.036" fill="#FFFFFF"/><text font-family="Calibri,Calibri_MSFontService,sans-serif" font-weight="700" font-size="14.6841" transform="matrix(1 0 0 1.00013 49.5813 30)">X</text><text font-family="Calibri,Calibri_MSFontService,sans-serif" font-weight="700" font-size="14.6841" transform="matrix(1 0 0 1.00013 255.306 30)">Y</text><path d="M11.5 156.52C11.5 95.2086 30.5279 45.5058 54 45.5058 77.4721 45.5058 96.5 95.2086 96.5 156.52 96.5 217.832 77.4721 267.535 54 267.535 30.5279 267.535 11.5 217.832 11.5 156.52Z" stroke="#172C51" stroke-width="1.33475" stroke-miterlimit="8" fill="none" fill-rule="evenodd"/><path d="M48.5 84.0109C48.5 80.9729 50.9624 78.5102 54 78.5102 57.0376 78.5102 59.5 80.9729 59.5 84.0109 59.5 87.0488 57.0376 89.5116 54 89.5116 50.9624 89.5116 48.5 87.0488 48.5 84.0109Z" stroke="#172C51" stroke-width="1.33475" stroke-miterlimit="8" fill-rule="evenodd"/><path d="M48.5 132.517C48.5 129.755 50.9624 127.516 54 127.516 57.0376 127.516 59.5 129.755 59.5 132.517 59.5 135.279 57.0376 137.518 54 137.518 50.9624 137.518 48.5 135.279 48.5 132.517Z" stroke="#172C51" stroke-width="1.33475" stroke-miterlimit="8" fill-rule="evenodd"/><path d="M48.5 178.023C48.5 174.985 50.9624 172.522 54 172.522 57.0376 172.522 59.5 174.985 59.5 178.023 59.5 181.061 57.0376 183.524 54 183.524 50.9624 183.524 48.5 181.061 48.5 178.023Z" stroke="#172C51" stroke-width="1.33475" stroke-miterlimit="8" fill-rule="evenodd"/><path d="M50.5 218.528C50.5 215.766 52.7386 213.528 55.5 213.528 58.2614 213.528 60.5 215.766 60.5 218.528 60.5 221.29 58.2614 223.529 55.5 223.529 52.7386 223.529 50.5 221.29 50.5 218.528Z" stroke="#172C51" stroke-width="1.33475" stroke-miterlimit="8" fill-rule="evenodd"/><path d="M218.5 157.02C218.5 95.9849 237.528 46.506 261 46.506 284.472 46.506 303.5 95.9849 303.5 157.02 303.5 218.056 284.472 267.535 261 267.535 237.528 267.535 218.5 218.056 218.5 157.02Z" stroke="#172C51" stroke-width="1.33475" stroke-miterlimit="8" fill="none" fill-rule="evenodd"/><text font-family="Cambria Math,Cambria Math_MSFontService,sans-serif" font-weight="400" font-size="14.6841" transform="matrix(1 0 0 1.00013 30.6992 85)">𝒙</text><text font-family="Cambria Math,Cambria Math_MSFontService,sans-serif" font-weight="400" font-size="10.7194" transform="matrix(1 0 0 1.00013 39.2082 88)">𝟏</text><text font-family="Cambria Math,Cambria Math_MSFontService,sans-serif" font-weight="400" font-size="14.6841" transform="matrix(1 0 0 1.00013 29.0062 136)">𝒙</text><text font-family="Cambria Math,Cambria Math_MSFontService,sans-serif" font-weight="400" font-size="10.7194" transform="matrix(1 0 0 1.00013 37.5152 139)">𝟐</text><text font-family="Cambria Math,Cambria Math_MSFontService,sans-serif" font-weight="400" font-size="14.6841" transform="matrix(1 0 0 1.00013 29.0062 180)">𝒙</text><text font-family="Cambria Math,Cambria Math_MSFontService,sans-serif" font-weight="400" font-size="10.7194" transform="matrix(1 0 0 1.00013 37.5152 183)">𝟑</text><text font-family="Cambria Math,Cambria Math_MSFontService,sans-serif" font-weight="400" font-size="14.6841" transform="matrix(1 0 0 1.00013 29.0062 222)">𝒙</text><text font-family="Cambria Math,Cambria Math_MSFontService,sans-serif" font-weight="400" font-size="10.7194" transform="matrix(1 0 0 1.00013 37.5152 225)">𝟒</text><path d="M254.5 79.5102C254.5 76.7485 256.739 74.5096 259.5 74.5096 262.261 74.5096 264.5 76.7485 264.5 79.5102 264.5 82.272 262.261 84.5109 259.5 84.5109 256.739 84.5109 254.5 82.272 254.5 79.5102Z" stroke="#172C51" stroke-width="1.33475" stroke-miterlimit="8" fill-rule="evenodd"/><path d="M254.5 124.516C254.5 121.754 256.739 119.515 259.5 119.515 262.261 119.515 264.5 121.754 264.5 124.516 264.5 127.278 262.261 129.517 259.5 129.517 256.739 129.517 254.5 127.278 254.5 124.516Z" stroke="#172C51" stroke-width="1.33475" stroke-miterlimit="8" fill-rule="evenodd"/><path d="M254.5 163.521C254.5 160.759 256.739 158.52 259.5 158.52 262.261 158.52 264.5 160.759 264.5 163.521 264.5 166.283 262.261 168.522 259.5 168.522 256.739 168.522 254.5 166.283 254.5 163.521Z" stroke="#172C51" stroke-width="1.33475" stroke-miterlimit="8" fill-rule="evenodd"/><path d="M254.5 199.026C254.5 195.988 256.739 193.525 259.5 193.525 262.261 193.525 264.5 195.988 264.5 199.026 264.5 202.064 262.261 204.526 259.5 204.526 256.739 204.526 254.5 202.064 254.5 199.026Z" stroke="#172C51" stroke-width="1.33475" stroke-miterlimit="8" fill-rule="evenodd"/><text font-family="Cambria Math,Cambria Math_MSFontService,sans-serif" font-weight="400" font-size="14.6841" transform="matrix(1 0 0 1.00013 267.218 82)">𝒚</text><text font-family="Cambria Math,Cambria Math_MSFontService,sans-serif" font-weight="400" font-size="10.7194" transform="matrix(1 0 0 1.00013 276.061 85)">𝟏</text><text font-family="Cambria Math,Cambria Math_MSFontService,sans-serif" font-weight="400" font-size="14.6841" transform="matrix(1 0 0 1.00013 267.218 128)">𝒚</text><text font-family="Cambria Math,Cambria Math_MSFontService,sans-serif" font-weight="400" font-size="10.7194" transform="matrix(1 0 0 1.00013 276.061 131)">𝟐</text><text font-family="Cambria Math,Cambria Math_MSFontService,sans-serif" font-weight="400" font-size="14.6841" transform="matrix(1 0 0 1.00013 267.218 166)">𝒚</text><text font-family="Cambria Math,Cambria Math_MSFontService,sans-serif" font-weight="400" font-size="10.7194" transform="matrix(1 0 0 1.00013 276.061 169)">𝟑</text><text font-family="Cambria Math,Cambria Math_MSFontService,sans-serif" font-weight="400" font-size="14.6841" transform="matrix(1 0 0 1.00013 267.218 202)">𝒚</text><text font-family="Cambria Math,Cambria Math_MSFontService,sans-serif" font-weight="400" font-size="10.7194" transform="matrix(1 0 0 1.00013 276.061 205)">𝟒</text><path d="M0.0269409-0.666831 189.844 7.00204 189.79 8.33571-0.0269409 0.666831ZM188.646 3.61402 196.486 7.9383 188.322 11.616Z" transform="matrix(1 0 0 -1.00013 59.5 83.4491)"/><path d="M0.0315664-0.666628 190.544 8.35455 190.48 9.68781-0.0315664 0.666628ZM189.368 4.95827 197.178 9.33684 188.989 12.9578Z" transform="matrix(1 0 0 -1.00013 59.5 132.854)"/><path d="M254.5 238.031C254.5 234.993 256.739 232.53 259.5 232.53 262.261 232.53 264.5 234.993 264.5 238.031 264.5 241.069 262.261 243.531 259.5 243.531 256.739 243.531 254.5 241.069 254.5 238.031Z" stroke="#172C51" stroke-width="1.33475" stroke-miterlimit="8" fill-rule="evenodd"/><text font-family="Cambria Math,Cambria Math_MSFontService,sans-serif" font-weight="400" font-size="14.6841" transform="matrix(1 0 0 1.00013 267.218 241)">𝒚</text><text font-family="Cambria Math,Cambria Math_MSFontService,sans-serif" font-weight="400" font-size="10.7194" transform="matrix(1 0 0 1.00013 276.061 244)">𝟓</text><path d="M59.5657 177.859 250.102 196.694 249.971 198.023 59.4344 179.187ZM249.102 193.242 256.678 198.015 248.315 201.213Z"/><path d="M0.380327-0.548398 189.992 130.952 189.231 132.048-0.380327 0.548398ZM190.797 127.449 195.095 135.303 186.233 134.03Z" transform="matrix(1 0 0 -1.00013 60.5 218.831)"/></g></svg>