<svg width="314" height="280" xmlns="http://www.w3.org/2000/svg" xmlns:xlink="http://www.w3.org/1999/xlink" overflow="hidden"><defs><clipPath id="clip0"><rect x="0" y="0" width="314" height="280"/></clipPath></defs><g clip-path="url(#clip0)"><rect x="0" y="0" width="314" height="280.036" fill="#FFFFFF"/><text font-family="Calibri,Calibri_MSFontService,sans-serif" font-weight="700" font-size="14.6841" transform="matrix(1 0 0 1.00013 49.5813 30)">X</text><text font-family="Calibri,Calibri_MSFontService,sans-serif" font-weight="700" font-size="14.6841" transform="matrix(1 0 0 1.00013 255.306 30)">Y</text><path d="M11.5 156.52C11.5 95.2086 30.5279 45.5058 54 45.5058 77.4721 45.5058 96.5 95.2086 96.5 156.52 96.5 217.832 77.4721 267.535 54 267.535 30.5279 267.535 11.5 217.832 11.5 156.52Z" stroke="#172C51" stroke-width="1.33475" stroke-miterlimit="8" fill="none" fill-rule="evenodd"/><path d="M48.5 83.5108C48.5 80.749 50.9624 78.5102 54 78.5102 57.0376 78.5102 59.5 80.749 59.5 83.5108 59.5 86.2726 57.0376 88.5115 54 88.5115 50.9624 88.5115 48.5 86.2726 48.5 83.5108Z" stroke="#172C51" stroke-width="1.33475" stroke-miterlimit="8" fill-rule="evenodd"/><path d="M28.5 106.014C28.5 102.976 30.9624 100.513 34 100.513 37.0376 100.513 39.5 102.976 39.5 106.014 39.5 109.052 37.0376 111.514 34 111.514 30.9624 111.514 28.5 109.052 28.5 106.014Z" stroke="#172C51" stroke-width="1.33475" stroke-miterlimit="8" fill-rule="evenodd"/><path d="M40.5 118.015C40.5 114.977 42.9624 112.515 46 112.515 49.0376 112.515 51.5 114.977 51.5 118.015 51.5 121.053 49.0376 123.516 46 123.516 42.9624 123.516 40.5 121.053 40.5 118.015Z" stroke="#172C51" stroke-width="1.33475" stroke-miterlimit="8" fill-rule="evenodd"/><path d="M67.5 102.013C67.5 98.9752 69.7386 96.5125 72.5 96.5125 75.2614 96.5125 77.5 98.9752 77.5 102.013 77.5 105.051 75.2614 107.514 72.5 107.514 69.7386 107.514 67.5 105.051 67.5 102.013Z" stroke="#172C51" stroke-width="1.33475" stroke-miterlimit="8" fill-rule="evenodd"/><path d="M61.5 151.52C61.5 148.758 63.9625 146.519 67 146.519 70.0375 146.519 72.5 148.758 72.5 151.52 72.5 154.281 70.0375 156.52 67 156.52 63.9625 156.52 61.5 154.281 61.5 151.52Z" stroke="#172C51" stroke-width="1.33475" stroke-miterlimit="8" fill-rule="evenodd"/><path d="M31.5 164.521C31.5 161.759 33.7386 159.521 36.5 159.521 39.2614 159.521 41.5 161.759 41.5 164.521 41.5 167.283 39.2614 169.522 36.5 169.522 33.7386 169.522 31.5 167.283 31.5 164.521Z" stroke="#172C51" stroke-width="1.33475" stroke-miterlimit="8" fill-rule="evenodd"/><path d="M39.5 212.027C39.5 208.989 41.7386 206.527 44.5 206.527 47.2614 206.527 49.5 208.989 49.5 212.027 49.5 215.065 47.2614 217.528 44.5 217.528 41.7386 217.528 39.5 215.065 39.5 212.027Z" stroke="#172C51" stroke-width="1.33475" stroke-miterlimit="8" fill-rule="evenodd"/><path d="M76.5 212.527C76.5 209.766 78.7386 207.527 81.5 207.527 84.2614 207.527 86.5 209.766 86.5 212.527 86.5 215.289 84.2614 217.528 81.5 217.528 78.7386 217.528 76.5 215.289 76.5 212.527Z" stroke="#172C51" stroke-width="1.33475" stroke-miterlimit="8" fill-rule="evenodd"/><path d="M67.5 237.031C67.5 233.993 69.7386 231.53 72.5 231.53 75.2614 231.53 77.5 233.993 77.5 237.031 77.5 240.069 75.2614 242.531 72.5 242.531 69.7386 242.531 67.5 240.069 67.5 237.031Z" stroke="#172C51" stroke-width="1.33475" stroke-miterlimit="8" fill-rule="evenodd"/><path d="M218.5 157.02C218.5 95.9849 237.528 46.506 261 46.506 284.472 46.506 303.5 95.9849 303.5 157.02 303.5 218.056 284.472 267.535 261 267.535 237.528 267.535 218.5 218.056 218.5 157.02Z" stroke="#172C51" stroke-width="1.33475" stroke-miterlimit="8" fill="none" fill-rule="evenodd"/></g></svg>