<svg width="510" height="132" xmlns="http://www.w3.org/2000/svg" xmlns:xlink="http://www.w3.org/1999/xlink" overflow="hidden"><defs><clipPath id="clip0"><rect x="0" y="0" width="510" height="132"/></clipPath></defs><g clip-path="url(#clip0)"><rect x="0" y="0" width="510" height="131.711" fill="#FFFFFF"/><rect x="17.5" y="18.4594" width="54" height="27.9386" stroke="#000000" stroke-width="1.3329" stroke-linejoin="round" stroke-miterlimit="10" fill="none"/><text font-family="Yu Gothic,Yu Gothic_MSFontService,sans-serif" font-weight="700" font-size="14.6297" transform="matrix(1 0 0 0.997807 29.085 37)">女性</text><rect x="155.5" y="18.4594" width="34.9999" height="27.9386" stroke="#000000" stroke-width="1.3329" stroke-linejoin="round" stroke-miterlimit="10" fill="none"/><text font-family="Yu Gothic,Yu Gothic_MSFontService,sans-serif" font-weight="700" font-size="14.6297" transform="matrix(1 0 0 0.997807 164.873 37)">人</text><rect x="17.5" y="84.3148" width="83" height="27.9386" stroke="#000000" stroke-width="1.3329" stroke-linejoin="round" stroke-miterlimit="10" fill="none"/><text font-family="Yu Gothic,Yu Gothic_MSFontService,sans-serif" font-weight="700" font-size="14.6297" transform="matrix(1 0 0 0.997807 43.7242 103)">分子</text><text font-family="Yu Gothic,Yu Gothic_MSFontService,sans-serif" font-weight="700" font-size="14.6297" transform="matrix(1 0 0 0.997807 107.035 91)">～は</text><text font-family="Yu Gothic,Yu Gothic_MSFontService,sans-serif" font-weight="700" font-size="14.6297" transform="matrix(1 0 0 0.997807 136.359 91)">分子量</text><text font-family="Calibri,Calibri_MSFontService,sans-serif" font-weight="700" font-size="14.6297" transform="matrix(1 0 0 0.997807 183.677 91)">(Da)</text><text font-family="Yu Gothic,Yu Gothic_MSFontService,sans-serif" font-weight="700" font-size="14.6297" transform="matrix(1 0 0 0.997807 212.334 91)">と</text><text font-family="Yu Gothic,Yu Gothic_MSFontService,sans-serif" font-weight="700" font-size="14.6297" transform="matrix(1 0 0 0.997807 226.996 91)">して</text><text font-family="Yu Gothic,Yu Gothic_MSFontService,sans-serif" font-weight="700" font-size="14.6297" transform="matrix(1 0 0 0.997807 256.319 91)">･･･</text><text font-family="Yu Gothic,Yu Gothic_MSFontService,sans-serif" font-weight="700" font-size="14.6297" transform="matrix(1 0 0 0.997807 278.312 91)">を</text><text font-family="Yu Gothic,Yu Gothic_MSFontService,sans-serif" font-weight="700" font-size="14.6297" transform="matrix(1 0 0 0.997807 292.974 91)">持つ</text><rect x="333.5" y="84.3148" width="83" height="27.9386" stroke="#000000" stroke-width="1.3329" stroke-linejoin="round" stroke-miterlimit="10" fill="none"/><text font-family="Yu Gothic,Yu Gothic_MSFontService,sans-serif" font-weight="700" font-size="14.6297" transform="matrix(1 0 0 0.997807 345.061 103)">正の実数</text><path d="M61.0304 3.00415C62.4179 3.37005 63.4835 4.16004 64.2272 5.37413 64.9708 6.58823 65.3427 8.05298 65.3427 9.76839 65.3427 11.4886 64.972 12.9533 64.2307 14.1627 63.4894 15.372 62.4226 16.1596 61.0304 16.5255L60.8593 15.9767C61.957 15.6108 62.7731 14.8885 63.3077 13.8098 63.8423 12.7312 64.1096 11.3603 64.1096 9.69712 64.1096 8.091 63.8434 6.75692 63.3112 5.69488 62.779 4.63285 61.9546 3.91888 60.8379 3.55299ZM28.2248 3.00415 28.4173 3.55299C27.3053 3.91888 26.4821 4.63285 25.9475 5.69488 25.4129 6.75692 25.1456 8.091 25.1456 9.69712 25.1456 11.3603 25.4129 12.7312 25.9475 13.8098 26.4821 14.8885 27.2982 15.6108 28.3959 15.9767L28.2248 16.5255C26.8325 16.1596 25.7657 15.372 25.0244 14.1627 24.2832 12.9533 23.9125 11.4886 23.9125 9.76839 23.9125 8.05298 24.2843 6.58823 25.028 5.37413 25.7717 4.16004 26.8373 3.37005 28.2248 3.00415Z" fill-rule="evenodd" transform="matrix(1.0022 0 0 1 418.174 22.8764)"/><text font-family="Cambria Math,Cambria Math_MSFontService,sans-serif" font-weight="400" font-size="14.6297" transform="matrix(1 0 0 0.997807 446.938 37)">𝟐</text><text font-family="Cambria Math,Cambria Math_MSFontService,sans-serif" font-weight="400" font-size="14.6297" transform="matrix(1 0 0 0.997807 455.768 37)">.</text><text font-family="Cambria Math,Cambria Math_MSFontService,sans-serif" font-weight="400" font-size="14.6297" transform="matrix(1 0 0 0.997807 461.213 37)">𝟏𝟎</text><path d="M61.0304 3.00415C62.4179 3.37005 63.4835 4.16004 64.2272 5.37413 64.9708 6.58823 65.3427 8.05298 65.3427 9.76839 65.3427 11.4886 64.972 12.9533 64.2307 14.1627 63.4894 15.372 62.4226 16.1596 61.0304 16.5255L60.8593 15.9767C61.957 15.6108 62.7731 14.8885 63.3077 13.8098 63.8423 12.7312 64.1096 11.3603 64.1096 9.69712 64.1096 8.091 63.8434 6.75692 63.3112 5.69488 62.779 4.63285 61.9546 3.91888 60.8379 3.55299ZM28.2248 3.00415 28.4173 3.55299C27.3053 3.91888 26.4821 4.63285 25.9475 5.69488 25.4129 6.75692 25.1456 8.091 25.1456 9.69712 25.1456 11.3603 25.4129 12.7312 25.9475 13.8098 26.4821 14.8885 27.2982 15.6108 28.3959 15.9767L28.2248 16.5255C26.8325 16.1596 25.7657 15.372 25.0244 14.1627 24.2832 12.9533 23.9125 11.4886 23.9125 9.76839 23.9125 8.05298 24.2843 6.58823 25.028 5.37413 25.7717 4.16004 26.8373 3.37005 28.2248 3.00415Z" fill-rule="evenodd" transform="matrix(1.0022 0 0 1 418.174 88.7963)"/><text font-family="Cambria Math,Cambria Math_MSFontService,sans-serif" font-weight="400" font-size="14.6297" transform="matrix(1 0 0 0.997807 446.938 103)">𝟐</text><text font-family="Cambria Math,Cambria Math_MSFontService,sans-serif" font-weight="400" font-size="14.6297" transform="matrix(1 0 0 0.997807 455.768 103)">.</text><text font-family="Cambria Math,Cambria Math_MSFontService,sans-serif" font-weight="400" font-size="14.6297" transform="matrix(1 0 0 0.997807 461.213 103)">𝟏𝟏</text><text font-family="Cambria Math,Cambria Math_MSFontService,sans-serif" font-weight="400" font-size="14.6297" transform="matrix(1 0 0 0.997807 102.348 23)">𝒊𝒔</text><path d="M71.5 31.7638 154.271 31.7639 154.271 33.0939 71.5 33.0938ZM146.609 27.1995 155.593 32.4289 146.609 37.6582C146.291 37.8432 145.883 37.7361 145.698 37.4188 145.512 37.1016 145.62 36.6944 145.938 36.5094L153.935 31.8545 153.935 33.0033 145.938 28.3483C145.62 28.1633 145.512 27.7561 145.698 27.4389 145.883 27.1216 146.291 27.0145 146.609 27.1995Z"/><path d="M100.5 97.619 331.816 97.6191 331.816 98.9491 100.5 98.949ZM324.155 93.0548 333.139 98.2841 324.155 103.513C323.837 103.698 323.429 103.591 323.244 103.274 323.058 102.957 323.166 102.55 323.484 102.365L331.481 97.7097 331.481 98.8585 323.484 94.2036C323.166 94.0185 323.058 93.6113 323.244 93.2941 323.429 92.9769 323.837 92.8697 324.155 93.0548Z"/></g></svg>