<svg width="113" height="110" xmlns="http://www.w3.org/2000/svg" xmlns:xlink="http://www.w3.org/1999/xlink" overflow="hidden"><g><rect x="0" y="0" width="113" height="109.654" fill="#FFFFFF"/><text font-family="Cambria Math,Cambria Math_MSFontService,sans-serif" font-weight="400" font-size="14.7112" transform="matrix(1 0 0 1.006 15.0541 31)">𝑺</text><text font-family="Cambria Math,Cambria Math_MSFontService,sans-serif" font-weight="400" font-size="14.7112" transform="matrix(1 0 0 1.006 84.9546 31)">𝑨</text><text font-family="Cambria Math,Cambria Math_MSFontService,sans-serif" font-weight="400" font-size="14.7112" transform="matrix(1 0 0 1.006 14.8922 93)">𝑩</text><path d="M0-0.664706 48.6838-0.664706 48.6838 0.664706 0 0.664706ZM41.0422-5.2271 50.003 0 41.0422 5.2271C40.7251 5.41207 40.3181 5.30497 40.1332 4.98787 39.9482 4.67077 40.0553 4.26376 40.3724 4.07878L48.3489-0.574159 48.3489 0.574159 40.3724-4.07878C40.0553-4.26376 39.9482-4.67077 40.1332-4.98787 40.3181-5.30497 40.7251-5.41207 41.0422-5.2271Z" fill="#172C51" transform="matrix(1 0 0 -1.006 31.5 27.6649)"/><path d="M91.1647 35.7129 91.1647 78.6529 89.8353 78.6529 89.8353 35.7129ZM95.7271 70.9654 90.5 79.9799 85.2729 70.9654C85.0879 70.6464 85.195 70.237 85.5121 70.0509 85.8292 69.8648 86.2362 69.9726 86.4212 70.2916L91.0741 78.3159 89.9258 78.3159 94.5788 70.2916C94.7637 69.9726 95.1707 69.8648 95.4878 70.0509 95.8049 70.237 95.912 70.6464 95.7271 70.9654Z" fill="#172C51"/><path d="M21.1647 35.7129 21.1647 78.6529 19.8352 78.6529 19.8352 35.7129ZM25.727 70.9654 20.4999 79.9799 15.2728 70.9654C15.0879 70.6464 15.195 70.237 15.5121 70.0509 15.8292 69.8648 16.2362 69.9726 16.4212 70.2916L21.0741 78.3159 19.9258 78.3159 24.5787 70.2916C24.7637 69.9726 25.1707 69.8648 25.4878 70.0509 25.8049 70.237 25.912 70.6464 25.727 70.9654Z" fill="#172C51"/><text font-family="Cambria Math,Cambria Math_MSFontService,sans-serif" font-weight="400" font-size="14.7112" transform="matrix(1 0 0 1.006 83.9827 93)">𝑷</text><path d="M0-0.664706 48.6838-0.664706 48.6838 0.664706 0 0.664706ZM41.0422-5.2271 50.003 0 41.0422 5.2271C40.7251 5.41207 40.3181 5.30497 40.1332 4.98787 39.9482 4.67077 40.0553 4.26376 40.3724 4.07878L48.3489-0.574159 48.3489 0.574159 40.3724-4.07878C40.0553-4.26376 39.9482-4.67077 40.1332-4.98787 40.3181-5.30497 40.7251-5.41207 41.0422-5.2271Z" fill="#172C51" transform="matrix(1 0 0 -1.006 31.5 86.0129)"/></g></svg>