<svg width="287" height="223" xmlns="http://www.w3.org/2000/svg" xmlns:xlink="http://www.w3.org/1999/xlink" overflow="hidden"><defs><clipPath id="clip0"><rect x="0" y="0" width="287" height="223"/></clipPath></defs><g clip-path="url(#clip0)"><rect x="0" y="0" width="287" height="223.129" fill="#FFFFFF"/><rect x="63.5" y="23.5136" width="146" height="81.0471" stroke="#000000" stroke-width="1.33256" stroke-linejoin="round" stroke-miterlimit="10" fill="none"/><text font-family="Yu Gothic,Yu Gothic_MSFontService,sans-serif" font-weight="700" font-size="14.6667" transform="matrix(1 0 0 1.00058 72.5102 42)">ペア</text><path d="M61.1303 3.01836C62.5244 3.38598 63.595 4.17971 64.3422 5.39954 65.0894 6.61938 65.4629 8.09106 65.4629 9.81458 65.4629 11.5429 65.0906 13.0146 64.3458 14.2296 63.601 15.4447 62.5291 16.236 61.1303 16.6036L60.9584 16.0522C62.0613 15.6846 62.8812 14.9589 63.4184 13.8751 63.9555 12.7914 64.224 11.414 64.224 9.74297 64.224 8.12925 63.9567 6.78887 63.4219 5.72181 62.8872 4.65475 62.0589 3.93741 60.9369 3.56979ZM38.2695 3.01836 38.4628 3.56979C37.3456 3.93741 36.5185 4.65475 35.9814 5.72181 35.4443 6.78887 35.1757 8.12925 35.1757 9.74297 35.1757 11.414 35.4443 12.7914 35.9814 13.8751 36.5185 14.9589 37.3385 15.6846 38.4413 16.0522L38.2695 16.6036C36.8706 16.236 35.7987 15.4447 35.054 14.2296 34.3092 13.0146 33.9368 11.5429 33.9368 9.81458 33.9368 8.09106 34.3104 6.61938 35.0575 5.39954 35.8047 4.17971 36.8754 3.38598 38.2695 3.01836Z" fill-rule="evenodd" transform="matrix(1 0 0 1.00058 72.5102 28.1449)"/><text font-family="Cambria Math,Cambria Math_MSFontService,sans-serif" font-weight="400" font-size="14.6667" transform="matrix(1 0 0 1.00058 111.241 42)">𝒑</text><text font-family="Cambria Math,Cambria Math_MSFontService,sans-serif" font-weight="400" font-size="14.6667" transform="matrix(1 0 0 1.00058 120.402 42)">,</text><text font-family="Cambria Math,Cambria Math_MSFontService,sans-serif" font-weight="400" font-size="14.6667" transform="matrix(1 0 0 1.00058 125.846 42)">𝒄</text><text font-family="Yu Gothic,Yu Gothic_MSFontService,sans-serif" font-weight="700" font-size="14.6667" transform="matrix(1 0 0 1.00058 139.258 42)">。</text><text font-family="Yu Gothic,Yu Gothic_MSFontService,sans-serif" font-weight="700" font-size="14.6667" transform="matrix(1 0 0 1.00058 72.5102 59)">ここで、</text><text font-family="Cambria Math,Cambria Math_MSFontService,sans-serif" font-weight="400" font-size="14.6667" transform="matrix(1 0 0 1.00058 131.143 59)">𝒑</text><text font-family="Yu Gothic,Yu Gothic_MSFontService,sans-serif" font-weight="700" font-size="14.6667" transform="matrix(1 0 0 1.00058 143.636 59)">は人</text><text font-family="Calibri,Calibri_MSFontService,sans-serif" font-weight="700" font-size="14.6667" transform="matrix(1 0 0 1.00058 172.952 59)">,</text><text font-family="Cambria Math,Cambria Math_MSFontService,sans-serif" font-weight="400" font-size="14.6667" transform="matrix(1 0 0 1.00058 72.5102 77)">𝒄</text><text font-family="Yu Gothic,Yu Gothic_MSFontService,sans-serif" font-weight="700" font-size="14.6667" transform="matrix(1 0 0 1.00058 83.1707 77)">は自動車</text><text font-family="Calibri,Calibri_MSFontService,sans-serif" font-weight="700" font-size="14.6667" transform="matrix(1 0 0 1.00058 141.803 77)">,</text><text font-family="Cambria Math,Cambria Math_MSFontService,sans-serif" font-weight="400" font-size="14.6667" transform="matrix(1 0 0 1.00058 145.634 77)"></text><text font-family="Cambria Math,Cambria Math_MSFontService,sans-serif" font-weight="400" font-size="14.6667" transform="matrix(1 0 0 1.00058 72.5102 94)">𝒑</text><text font-family="Yu Gothic,Yu Gothic_MSFontService,sans-serif" font-weight="700" font-size="14.6667" transform="matrix(1 0 0 1.00058 89.2205 94)">は</text><text font-family="Cambria Math,Cambria Math_MSFontService,sans-serif" font-weight="400" font-size="14.6667" transform="matrix(1 0 0 1.00058 111.434 94)">𝒄</text><text font-family="Yu Gothic,Yu Gothic_MSFontService,sans-serif" font-weight="700" font-size="14.6667" transform="matrix(1 0 0 1.00058 126.312 94)">を所有する。</text><rect x="22.5" y="172.6" width="34" height="28.0163" stroke="#000000" stroke-width="1.33256" stroke-linejoin="round" stroke-miterlimit="10" fill="none"/><text font-family="Yu Gothic,Yu Gothic_MSFontService,sans-serif" font-weight="700" font-size="14.6667" transform="matrix(1 0 0 1.00058 31.3353 191)">人</text><rect x="202.5" y="175.602" width="64" height="27.0157" stroke="#000000" stroke-width="1.33256" stroke-linejoin="round" stroke-miterlimit="10" fill="none"/><text font-family="Yu Gothic,Yu Gothic_MSFontService,sans-serif" font-weight="700" font-size="14.6667" transform="matrix(1 0 0 1.00058 211.627 194)">自動車</text><text font-family="Cambria Math,Cambria Math_MSFontService,sans-serif" font-weight="400" font-size="14.6667" transform="matrix(1 0 0 1.00058 60.3816 135)">𝒑</text><text font-family="Cambria Math,Cambria Math_MSFontService,sans-serif" font-weight="400" font-size="14.6667" transform="matrix(1 0 0 1.00058 206.766 136)">𝒄</text><path d="M96.0308 109.966 52.8281 166.949 51.7664 166.143 94.9692 109.161ZM61.1009 163.608 51.4981 167.6 52.7524 157.271C52.7968 156.906 53.1289 156.645 53.4942 156.69 53.8595 156.734 54.1196 157.067 54.0752 157.432L52.9587 166.626 52.0417 165.93 60.5897 162.377C60.9295 162.236 61.3194 162.397 61.4606 162.737 61.6018 163.077 61.4407 163.467 61.1009 163.608Z" fill="#172C51"/><path d="M44.5308 0.40269 1.32813 57.3517 0.266486 56.5463 43.4691-0.40269ZM9.60095 54.0133-0.00186638 58.0025 1.25245 47.68C1.29684 47.3147 1.62894 47.0545 1.99423 47.0989 2.35952 47.1433 2.61967 47.4754 2.57528 47.8407L1.45874 57.0294 0.541718 56.3337 9.08973 52.7827C9.42955 52.6415 9.81947 52.8026 9.96064 53.1424 10.1018 53.4822 9.94077 53.8721 9.60095 54.0133Z" fill="#172C51" transform="matrix(-1 0 0 1.00058 224.5 109.564)"/><rect x="4.49996" y="5.5032" width="278" height="212.123" stroke="#172C51" stroke-width="1.33256" stroke-miterlimit="8" fill="none"/></g></svg>