<svg width="567" height="189" xmlns="http://www.w3.org/2000/svg" xmlns:xlink="http://www.w3.org/1999/xlink" overflow="hidden"><g><rect x="0" y="0" width="567" height="189" fill="#FFFFFF"/><text font-family="Cambria Math,Cambria Math_MSFontService,sans-serif" font-weight="400" font-size="14.6667" transform="translate(34.2091 39)">𝑨</text><text font-family="Cambria Math,Cambria Math_MSFontService,sans-serif" font-weight="400" font-size="14.6667" transform="translate(120.611 39)">𝑩</text><text font-family="Cambria Math,Cambria Math_MSFontService,sans-serif" font-weight="400" font-size="14.6667" transform="translate(34.4615 102)">𝑪</text><path d="M54.5001 34.8334 111.18 34.8334 111.18 36.1667 54.5001 36.1667ZM103.516 30.2575 112.503 35.5001 103.516 40.7426C103.198 40.9281 102.79 40.8207 102.604 40.5026 102.419 40.1846 102.526 39.7764 102.844 39.5909L110.844 34.9242 110.844 36.0759 102.844 31.4092C102.526 31.2237 102.419 30.8155 102.604 30.4975 102.79 30.1794 103.198 30.072 103.516 30.2575Z" fill="#172C51"/><path d="M40.1667 43.5001 40.1667 86.1801 38.8334 86.1801 38.8334 43.5001ZM44.7426 78.516 39.5001 87.5031 34.2575 78.516C34.072 78.1979 34.1794 77.7897 34.4975 77.6042 34.8155 77.4187 35.2237 77.5261 35.4092 77.8441L40.0759 85.8441 38.9242 85.8441 43.5909 77.8441C43.7764 77.5261 44.1846 77.4187 44.5026 77.6042 44.8207 77.7897 44.9281 78.1979 44.7426 78.516Z" fill="#172C51"/><path d="M0.406892-0.528094 60.3618 45.6667 59.548 46.7229-0.406892 0.528094ZM57.083 37.3639 61.0024 47.0019 50.6836 45.6695C50.3185 45.6223 50.0607 45.2881 50.1078 44.9229 50.155 44.5578 50.4892 44.3 50.8544 44.3471L60.0397 45.5332 59.3368 46.4455 55.8479 37.8661C55.7092 37.5251 55.8733 37.1361 56.2144 36.9974 56.5554 36.8587 56.9443 37.0228 57.083 37.3639Z" fill="#172C51" transform="matrix(-1 0 0 1 111.5 42.5001)"/><text font-family="Cambria Math,Cambria Math_MSFontService,sans-serif" font-weight="400" font-size="14.6667" transform="translate(74.3227 28)">𝒇</text><text font-family="Cambria Math,Cambria Math_MSFontService,sans-serif" font-weight="400" font-size="14.6667" transform="translate(89.486 70)">𝒈</text><text font-family="Cambria Math,Cambria Math_MSFontService,sans-serif" font-weight="400" font-size="14.6667" transform="translate(25.3396 69)">𝒉</text><text font-family="Cambria Math,Cambria Math_MSFontService,sans-serif" font-weight="400" font-size="14.6667" transform="translate(199.009 39)">𝑨</text><text font-family="Cambria Math,Cambria Math_MSFontService,sans-serif" font-weight="400" font-size="14.6667" transform="translate(285.411 39)">𝑩</text><path d="M219.5 34.8334 276.18 34.8334 276.18 36.1667 219.5 36.1667ZM268.516 30.2575 277.503 35.5001 268.516 40.7426C268.198 40.9281 267.79 40.8207 267.604 40.5026 267.419 40.1846 267.526 39.7764 267.844 39.5909L275.844 34.9242 275.844 36.0759 267.844 31.4092C267.526 31.2237 267.419 30.8155 267.604 30.4975 267.79 30.1794 268.198 30.072 268.516 30.2575Z" fill="#172C51"/><text font-family="Cambria Math,Cambria Math_MSFontService,sans-serif" font-weight="400" font-size="14.6667" transform="translate(239.123 28)">𝒇</text><path d="M303.5 34.8334 360.18 34.8334 360.18 36.1667 303.5 36.1667ZM352.516 30.2575 361.503 35.5001 352.516 40.7426C352.198 40.9281 351.79 40.8207 351.604 40.5026 351.419 40.1846 351.526 39.7764 351.844 39.5909L359.844 34.9242 359.844 36.0759 351.844 31.4092C351.526 31.2237 351.419 30.8155 351.604 30.4975 351.79 30.1794 352.198 30.072 352.516 30.2575Z" fill="#172C51"/><text font-family="Cambria Math,Cambria Math_MSFontService,sans-serif" font-weight="400" font-size="14.6667" transform="translate(323.268 28)">𝒈</text><text font-family="Cambria Math,Cambria Math_MSFontService,sans-serif" font-weight="400" font-size="14.6667" transform="translate(365.944 40)">𝑪</text><path d="M219.812 46.9109 226.655 50.535 226.61 50.5133 233.984 53.7378 233.942 53.721 241.791 56.5305 241.751 56.5175 250.021 58.8966 249.982 58.8867 258.616 60.8198 258.579 60.8125 267.521 62.2841 267.484 62.2791 276.678 63.2737 276.642 63.2708 286.033 63.7729 285.997 63.7719 295.529 63.766 295.492 63.767 305.109 63.2376 305.072 63.2406 314.718 62.1722 314.68 62.1775 324.299 60.5546 324.26 60.5622 333.796 58.3693 333.757 58.3797 343.154 55.6013 343.114 55.6148 352.317 52.2354 352.275 52.2525 360.023 48.7946 360.566 50.0121 352.798 53.4793 343.553 56.8739 334.115 59.6642 324.54 61.866 314.883 63.4954 305.201 64.5679 295.548 65.0993 285.98 65.1053 276.553 64.6012 267.322 63.6027 258.343 62.1251 249.671 60.1835 241.362 57.793 233.471 54.9686 226.053 51.7249 219.188 48.0892ZM351.159 47.7396 361.503 48.8641 355.433 57.3143C355.218 57.6133 354.801 57.6816 354.502 57.4668 354.203 57.252 354.135 56.8354 354.35 56.5364L359.753 49.0144 360.223 50.0661 351.015 49.0651C350.649 49.0253 350.385 48.6963 350.424 48.3303 350.464 47.9642 350.793 47.6998 351.159 47.7396Z" fill="#172C51"/><text font-family="Cambria Math,Cambria Math_MSFontService,sans-serif" font-weight="400" font-size="14.6667" transform="translate(286.085 84)">𝒉</text><text font-family="Cambria Math,Cambria Math_MSFontService,sans-serif" font-weight="400" font-size="14.6667" transform="translate(479.753 42)">𝑩</text><path d="M0.666667 1.31997 0.666667 105-0.666667 105-0.666667 1.31997ZM-5.24252 8.98409 0-0.00308994 5.24252 8.98409C5.42804 9.30212 5.32061 9.71033 5.00258 9.89585 4.68455 10.0814 4.27633 9.97395 4.09081 9.65591L-0.575853 1.65591 0.575853 1.65591-4.09081 9.65591C-4.27633 9.97395-4.68455 10.0814-5.00258 9.89585-5.32061 9.71033-5.42804 9.30212-5.24252 8.98409Z" fill="#172C51" transform="matrix(-1 0 0 1 485.5 47.5001)"/><text font-family="Cambria Math,Cambria Math_MSFontService,sans-serif" font-weight="400" font-size="14.6667" transform="translate(480.763 171)">𝑨</text><text font-family="Cambria Math,Cambria Math_MSFontService,sans-serif" font-weight="400" font-size="14.6667" transform="translate(535.553 104)">𝑪</text><path d="M494.987 48.0452 536.087 92.0801 535.112 92.9899 494.013 48.9549ZM534.203 83.3551 536.502 93.5023 526.537 90.5093C526.185 90.4033 525.985 90.0316 526.091 89.679 526.197 89.3264 526.568 89.1264 526.921 89.2323L535.791 91.8966 534.949 92.6824 532.902 83.6498C532.821 83.2907 533.046 82.9337 533.405 82.8523 533.764 82.7709 534.121 82.996 534.203 83.3551Z" fill="#172C51"/><path d="M0.48737-0.454879 41.5866 43.5801 40.6119 44.4898-0.48737 0.454879ZM39.7026 34.8551 42.0021 45.0023 32.0374 42.0092C31.6848 41.9033 31.4848 41.5316 31.5907 41.1789 31.6966 40.8263 32.0684 40.6263 32.421 40.7322L41.2911 43.3965 40.4492 44.1823 38.4022 35.1498C38.3208 34.7907 38.546 34.4336 38.905 34.3522 39.2641 34.2709 39.6212 34.496 39.7026 34.8551Z" fill="#172C51" transform="matrix(1 0 0 -1 491.5 151.5)"/><text font-family="Cambria Math,Cambria Math_MSFontService,sans-serif" font-weight="400" font-size="14.6667" transform="translate(518.286 62)">𝒈</text><text font-family="Cambria Math,Cambria Math_MSFontService,sans-serif" font-weight="400" font-size="14.6667" transform="translate(513.296 148)">𝒉</text><text font-family="Cambria Math,Cambria Math_MSFontService,sans-serif" font-weight="400" font-size="14.6667" transform="translate(468.593 104)">𝒇</text></g></svg>