<svg width="359" height="113" xmlns="http://www.w3.org/2000/svg" xmlns:xlink="http://www.w3.org/1999/xlink" overflow="hidden"><g><rect x="0" y="0" width="359" height="112.668" fill="#FFFFFF"/><rect x="19.5001" y="43.3721" width="99" height="26.9206" stroke="#000000" stroke-width="1.33333" stroke-linejoin="round" stroke-miterlimit="10" fill="none"/><text font-family="Yu Gothic,Yu Gothic_MSFontService,sans-serif" font-weight="700" font-size="14.6235" transform="matrix(1 0 0 0.997059 29.0778 61)">男性と女性</text><rect x="206.5" y="25.4251" width="134" height="62.8147" stroke="#000000" stroke-width="1.33333" stroke-linejoin="round" stroke-miterlimit="10" fill="none"/><text font-family="Yu Gothic,Yu Gothic_MSFontService,sans-serif" font-weight="700" font-size="14.6235" transform="matrix(1 0 0 0.997059 215.927 44)">ペア</text><text font-family="Calibri,Calibri_MSFontService,sans-serif" font-weight="700" font-size="14.6235" transform="matrix(1 0 0 0.997059 248.594 44)">(</text><text font-family="Calibri,Calibri_MSFontService,sans-serif" font-weight="700" font-size="14.6235" transform="matrix(1 0 0 0.997059 253.094 44)">m,w</text><text font-family="Calibri,Calibri_MSFontService,sans-serif" font-weight="700" font-size="14.6235" transform="matrix(1 0 0 0.997059 279.927 44)">)</text><text font-family="Yu Gothic,Yu Gothic_MSFontService,sans-serif" font-weight="700" font-size="14.6235" transform="matrix(1 0 0 0.997059 284.427 44)">。</text><text font-family="Yu Gothic,Yu Gothic_MSFontService,sans-serif" font-weight="700" font-size="14.6235" transform="matrix(1 0 0 0.997059 215.927 61)">ここで</text><text font-family="Calibri,Calibri_MSFontService,sans-serif" font-weight="700" font-size="14.6235" transform="matrix(1 0 0 0.997059 263.26 61)">m</text><text font-family="Yu Gothic,Yu Gothic_MSFontService,sans-serif" font-weight="700" font-size="14.6235" transform="matrix(1 0 0 0.997059 278.594 61)">は</text><text font-family="Yu Gothic,Yu Gothic_MSFontService,sans-serif" font-weight="700" font-size="14.6235" transform="matrix(1 0 0 0.997059 293.26 61)">男性</text><text font-family="Yu Gothic,Yu Gothic_MSFontService,sans-serif" font-weight="700" font-size="14.6235" transform="matrix(1 0 0 0.997059 322.594 61)">、</text><text font-family="Calibri,Calibri_MSFontService,sans-serif" font-weight="700" font-size="14.6235" transform="matrix(1 0 0 0.997059 215.927 79)">w</text><text font-family="Yu Gothic,Yu Gothic_MSFontService,sans-serif" font-weight="700" font-size="14.6235" transform="matrix(1 0 0 0.997059 230.26 79)">は</text><text font-family="Yu Gothic,Yu Gothic_MSFontService,sans-serif" font-weight="700" font-size="14.6235" transform="matrix(1 0 0 0.997059 248.26 79)">女性。</text><text font-family="Yu Gothic,Yu Gothic_MSFontService,sans-serif" font-weight="700" font-size="14.6235" transform="matrix(1 0 0 0.997059 139.112 61)">または</text></g></svg>