<svg width="614" height="151" xmlns="http://www.w3.org/2000/svg" xmlns:xlink="http://www.w3.org/1999/xlink" overflow="hidden"><defs><clipPath id="clip0"><rect x="0" y="0" width="614" height="151"/></clipPath></defs><g clip-path="url(#clip0)"><rect x="0" y="0" width="614" height="150.874" fill="#FFFFFF"/><text font-family="Cambria Math,Cambria Math_MSFontService,sans-serif" font-weight="400" font-size="14.6505" transform="matrix(1 0 0 0.999169 43.3658 52)">𝑨</text><rect x="16.5" y="59.4505" width="64.0001" height="45.9618" stroke="#000000" stroke-width="0.999729" stroke-linejoin="round" stroke-miterlimit="10" fill="none"/><text font-family="Yu Gothic,Yu Gothic_MSFontService,sans-serif" font-weight="700" font-size="14.6505" transform="matrix(1 0 0 0.999169 26.0708 78)">飛べる</text><text font-family="Yu Gothic,Yu Gothic_MSFontService,sans-serif" font-weight="700" font-size="14.6505" transform="matrix(1 0 0 0.999169 26.0708 95)">動物</text><text font-family="Cambria Math,Cambria Math_MSFontService,sans-serif" font-weight="400" font-size="14.6505" transform="matrix(1 0 0 0.999169 270.013 27)">𝑪</text><text font-family="Cambria Math,Cambria Math_MSFontService,sans-serif" font-weight="400" font-size="14.6505" transform="matrix(1 0 0 0.999169 283.25 27)">=</text><text font-family="Cambria Math,Cambria Math_MSFontService,sans-serif" font-weight="400" font-size="14.6505" transform="matrix(1 0 0 0.999169 298.319 27)">𝑨</text><text font-family="Cambria Math,Cambria Math_MSFontService,sans-serif" font-weight="400" font-size="14.6505" transform="matrix(1 0 0 0.999169 311.242 27)">⊔</text><text font-family="Cambria Math,Cambria Math_MSFontService,sans-serif" font-weight="400" font-size="14.6505" transform="matrix(1 0 0 0.999169 324.998 27)">𝑩</text><text font-family="Cambria Math,Cambria Math_MSFontService,sans-serif" font-weight="400" font-size="14.6505" transform="matrix(1 0 0 0.999169 560.086 56)">𝑩</text><rect x="234.5" y="33.4721" width="138" height="98.9177" stroke="#000000" stroke-width="0.999729" stroke-linejoin="round" stroke-miterlimit="10" fill="none"/><text font-family="Yu Gothic,Yu Gothic_MSFontService,sans-serif" font-weight="700" font-size="14.6505" transform="matrix(1 0 0 0.999169 243.118 52)">飛べる動物</text><text font-family="Calibri,Calibri_MSFontService,sans-serif" font-weight="700" font-size="14.6505" transform="matrix(1 0 0 0.999169 243.118 69)">(</text><text font-family="Yu Gothic,Yu Gothic_MSFontService,sans-serif" font-weight="700" font-size="14.6505" transform="matrix(1 0 0 0.999169 247.617 69)">”</text><text font-family="Calibri,Calibri_MSFontService,sans-serif" font-weight="700" font-size="14.6505" transform="matrix(1 0 0 0.999169 254.615 69)">A"</text><text font-family="Yu Gothic,Yu Gothic_MSFontService,sans-serif" font-weight="700" font-size="14.6505" transform="matrix(1 0 0 0.999169 269.944 69)">とラベルづけ</text><text font-family="Calibri,Calibri_MSFontService,sans-serif" font-weight="700" font-size="14.6505" transform="matrix(1 0 0 0.999169 357.92 69)">)</text><text font-family="Yu Gothic,Yu Gothic_MSFontService,sans-serif" font-weight="700" font-size="14.6505" transform="matrix(1 0 0 0.999169 243.118 87)">または</text><text font-family="Yu Gothic,Yu Gothic_MSFontService,sans-serif" font-weight="700" font-size="14.6505" transform="matrix(1 0 0 0.999169 243.118 104)">泳げる動物</text><text font-family="Calibri,Calibri_MSFontService,sans-serif" font-weight="700" font-size="14.6505" transform="matrix(1 0 0 0.999169 243.118 122)">("B"</text><text font-family="Yu Gothic,Yu Gothic_MSFontService,sans-serif" font-weight="700" font-size="14.6505" transform="matrix(1 0 0 0.999169 268.778 122)">とラベルづけ</text><text font-family="Calibri,Calibri_MSFontService,sans-serif" font-weight="700" font-size="14.6505" transform="matrix(1 0 0 0.999169 356.754 122)">)</text><rect x="532.5" y="60.4497" width="64.0001" height="44.9626" stroke="#000000" stroke-width="0.999729" stroke-linejoin="round" stroke-miterlimit="10" fill="none"/><text font-family="Yu Gothic,Yu Gothic_MSFontService,sans-serif" font-weight="700" font-size="14.6505" transform="matrix(1 0 0 0.999169 541.67 79)">泳げる</text><text font-family="Yu Gothic,Yu Gothic_MSFontService,sans-serif" font-weight="700" font-size="14.6505" transform="matrix(1 0 0 0.999169 541.67 96)">動物</text><text font-family="Calibri,Calibri_MSFontService,sans-serif" font-weight="700" font-size="14.6505" transform="matrix(1 0 0 0.999169 86.974 57)">"A"</text><text font-family="Yu Gothic,Yu Gothic_MSFontService,sans-serif" font-weight="700" font-size="14.6505" transform="matrix(1 0 0 0.999169 108.801 57)">とラベルづけ</text><text font-family="Yu Gothic,Yu Gothic_MSFontService,sans-serif" font-weight="700" font-size="14.6505" transform="matrix(1 0 0 0.999169 86.974 74)">される</text><text font-family="Yu Gothic,Yu Gothic_MSFontService,sans-serif" font-weight="700" font-size="14.6505" transform="matrix(1 0 0 0.999169 130.962 74)">～</text><text font-family="Yu Gothic,Yu Gothic_MSFontService,sans-serif" font-weight="700" font-size="14.6505" transform="matrix(1 0 0 0.999169 145.625 74)">は</text><text font-family="Yu Gothic,Yu Gothic_MSFontService,sans-serif" font-weight="700" font-size="14.6505" transform="matrix(1 0 0 0.999169 160.287 74)">･･･</text><text font-family="Yu Gothic,Yu Gothic_MSFontService,sans-serif" font-weight="700" font-size="14.6505" transform="matrix(1 0 0 0.999169 182.281 74)">である</text><path d="M85.5 81.7655 233.18 81.7655 233.18 83.0974 85.5 83.0974ZM225.518 77.1947 234.503 82.4314 225.518 87.6682C225.2 87.8535 224.792 87.7462 224.607 87.4285 224.421 87.1108 224.529 86.703 224.847 86.5177L232.845 81.8562 232.845 83.0066 224.847 78.3451C224.529 78.1598 224.421 77.752 224.607 77.4344 224.792 77.1167 225.2 77.0094 225.518 77.1947Z" fill="#172C51"/><rect x="5.50003" y="8.49288" width="603" height="134.888" stroke="#172C51" stroke-width="1.33297" stroke-miterlimit="8" fill="none"/><path d="M0-0.665932 146.558-0.665932 146.558 0.665932 0 0.665932ZM138.903-5.23674 147.88 0 138.903 5.23674C138.585 5.42206 138.177 5.31475 137.992 4.99707 137.807 4.67938 137.914 4.27162 138.232 4.0863L146.223-0.575218 146.223 0.575218 138.232-4.0863C137.914-4.27162 137.807-4.67938 137.992-4.99707 138.177-5.31475 138.585-5.42206 138.903-5.23674Z" fill="#172C51" transform="matrix(-1.00083 0 0 1 525.5 83.4305)"/><text font-family="Calibri,Calibri_MSFontService,sans-serif" font-weight="700" font-size="14.6505" transform="matrix(1 0 0 0.999169 389.146 56)">"B"</text><text font-family="Yu Gothic,Yu Gothic_MSFontService,sans-serif" font-weight="700" font-size="14.6505" transform="matrix(1 0 0 0.999169 410.307 56)">とラベルづけ</text><text font-family="Yu Gothic,Yu Gothic_MSFontService,sans-serif" font-weight="700" font-size="14.6505" transform="matrix(1 0 0 0.999169 389.146 73)">される</text><text font-family="Yu Gothic,Yu Gothic_MSFontService,sans-serif" font-weight="700" font-size="14.6505" transform="matrix(1 0 0 0.999169 433.134 73)">～</text><text font-family="Yu Gothic,Yu Gothic_MSFontService,sans-serif" font-weight="700" font-size="14.6505" transform="matrix(1 0 0 0.999169 447.797 73)">は</text><text font-family="Yu Gothic,Yu Gothic_MSFontService,sans-serif" font-weight="700" font-size="14.6505" transform="matrix(1 0 0 0.999169 462.46 73)">･･･</text><text font-family="Yu Gothic,Yu Gothic_MSFontService,sans-serif" font-weight="700" font-size="14.6505" transform="matrix(1 0 0 0.999169 484.454 73)">である</text></g></svg>