<svg width="318" height="200" xmlns="http://www.w3.org/2000/svg" xmlns:xlink="http://www.w3.org/1999/xlink" overflow="hidden"><defs><clipPath id="clip0"><rect x="0" y="0" width="318" height="200"/></clipPath></defs><g clip-path="url(#clip0)"><rect x="0" y="0" width="318" height="200.35" fill="#FFFFFF"/><rect x="175.5" y="19.4369" width="34" height="27.9095" stroke="#000000" stroke-width="1.33543" stroke-linejoin="round" stroke-miterlimit="10" fill="none"/><text font-family="Cambria Math,Cambria Math_MSFontService,sans-serif" font-weight="400" font-size="14.6423" transform="matrix(1 0 0 0.996766 187.075 38)">𝑹</text><rect x="20.4999" y="154" width="41" height="26.9126" stroke="#000000" stroke-width="1.33543" stroke-linejoin="round" stroke-miterlimit="10" fill="none"/><text font-family="Cambria Math,Cambria Math_MSFontService,sans-serif" font-weight="400" font-size="14.6423" transform="matrix(1 0 0 0.996766 32.0786 171)">𝑨</text><text font-family="Cambria Math,Cambria Math_MSFontService,sans-serif" font-weight="400" font-size="10.6889" transform="matrix(1 0 0 0.996766 41.7605 174)">𝟏</text><rect x="103.5" y="154" width="41" height="26.9126" stroke="#000000" stroke-width="1.33543" stroke-linejoin="round" stroke-miterlimit="10" fill="none"/><text font-family="Cambria Math,Cambria Math_MSFontService,sans-serif" font-weight="400" font-size="14.6423" transform="matrix(1 0 0 0.996766 114.904 171)">𝑨</text><text font-family="Cambria Math,Cambria Math_MSFontService,sans-serif" font-weight="400" font-size="10.6889" transform="matrix(1 0 0 0.996766 124.586 174)">𝟐</text><rect x="257.5" y="154" width="41" height="26.9126" stroke="#000000" stroke-width="1.33543" stroke-linejoin="round" stroke-miterlimit="10" fill="none"/><text font-family="Cambria Math,Cambria Math_MSFontService,sans-serif" font-weight="400" font-size="14.6423" transform="matrix(1 0 0 0.996766 268.832 171)">𝑨</text><text font-family="Cambria Math,Cambria Math_MSFontService,sans-serif" font-weight="400" font-size="10.6889" transform="matrix(1 0 0 0.996766 278.514 174)">𝒏</text><text font-family="Cambria Math,Cambria Math_MSFontService,sans-serif" font-weight="400" font-size="14.6423" transform="matrix(1 0 0 0.996766 191.541 171)">⋯</text><path d="M173.938 54.8264 68.9345 145.667 68.0592 144.661 173.062 53.8211ZM77.7374 144.1 67.4977 146.028 70.854 136.195C70.9727 135.847 71.352 135.66 71.7011 135.779 72.0503 135.897 72.237 136.275 72.1182 136.623L69.1306 145.377 68.3745 144.508 77.4895 142.792C77.8519 142.724 78.2011 142.961 78.2696 143.322 78.338 143.684 78.0998 144.032 77.7374 144.1Z" fill="#172C51"/><path d="M190.077 53.6619 137.742 143.229 136.588 142.559 188.923 52.992ZM145.566 138.916 136.498 144.035 136.491 133.648C136.491 133.281 136.79 132.982 137.159 132.982 137.527 132.982 137.826 133.28 137.827 133.647L137.833 142.893 136.836 142.315 144.908 137.758C145.229 137.577 145.636 137.689 145.818 138.009 146 138.329 145.887 138.735 145.566 138.916Z" fill="#172C51"/><path d="M52.4081 0.332963 1.2354 88.9011 0.0828383 88.2352 51.2555-0.332963ZM9.01882 84.5612-0.00154332 89.7116-0.0447114 79.3246C-0.046239 78.957 0.2505 78.6578 0.618074 78.6562 0.985648 78.6547 1.28486 78.9514 1.28639 79.319L1.32482 88.5652 0.329256 87.9899 8.35879 83.4053C8.678 83.223 9.08452 83.334 9.26678 83.6533 9.44904 83.9725 9.33802 84.379 9.01882 84.5612Z" fill="#172C51" transform="matrix(-1.00324 0 0 1 261.5 54.3237)"/><rect x="5.49999" y="5.4822" width="307" height="189.386" stroke="#172C51" stroke-width="1.33543" stroke-miterlimit="8" fill="none"/></g></svg>