<svg width="276" height="227" xmlns="http://www.w3.org/2000/svg" xmlns:xlink="http://www.w3.org/1999/xlink" overflow="hidden"><defs><clipPath id="clip0"><rect x="0" y="0" width="276" height="227"/></clipPath></defs><g clip-path="url(#clip0)"><rect x="0" y="0" width="276" height="227.03" fill="#FFFFFF"/><text font-family="Cambria Math,Cambria Math_MSFontService,sans-serif" font-weight="400" font-size="14.6774" transform="matrix(1 0 0 1.00013 112.098 25)">𝑿′</text><text font-family="Cambria Math,Cambria Math_MSFontService,sans-serif" font-weight="400" font-size="14.6774" transform="matrix(1 0 0 1.00013 129.369 25)">×</text><text font-family="Cambria Math,Cambria Math_MSFontService,sans-serif" font-weight="400" font-size="14.6774" transform="matrix(1 0 0 1.00013 143.137 25)">𝒀′</text><text font-family="Cambria Math,Cambria Math_MSFontService,sans-serif" font-weight="400" font-size="14.6774" transform="matrix(1 0 0 1.00013 116.631 213)">𝑿</text><text font-family="Cambria Math,Cambria Math_MSFontService,sans-serif" font-weight="400" font-size="14.6774" transform="matrix(1 0 0 1.00013 130.066 213)">×</text><text font-family="Cambria Math,Cambria Math_MSFontService,sans-serif" font-weight="400" font-size="14.6774" transform="matrix(1 0 0 1.00013 143.834 213)">𝒀</text><text font-family="Cambria Math,Cambria Math_MSFontService,sans-serif" font-weight="400" font-size="14.6774" transform="matrix(1 0 0 1.00013 32.4559 167)">𝑿</text><text font-family="Cambria Math,Cambria Math_MSFontService,sans-serif" font-weight="400" font-size="14.6774" transform="matrix(1 0 0 1.00013 30.2262 71)">𝑿′</text><text font-family="Cambria Math,Cambria Math_MSFontService,sans-serif" font-weight="400" font-size="14.6774" transform="matrix(1 0 0 1.00013 230.732 71)">𝒀′</text><text font-family="Cambria Math,Cambria Math_MSFontService,sans-serif" font-weight="400" font-size="14.6774" transform="matrix(1 0 0 1.00013 228.743 167)">𝒀</text><path d="M40.833 151.52 40.833 74.8306 42.1671 74.8306 42.1671 151.52ZM36.2543 82.5003 41.5 73.5065 46.7457 82.5003C46.9313 82.8186 46.8239 83.2271 46.5056 83.4127 46.1874 83.5984 45.7789 83.4909 45.5933 83.1726L40.9238 75.1667 42.0762 75.1667 37.4067 83.1726C37.2211 83.4909 36.8126 83.5984 36.4944 83.4127 36.1762 83.2271 36.0687 82.8186 36.2543 82.5003Z" fill="#172C51"/><path d="M236.833 151.52 236.833 74.8306 238.167 74.8306 238.167 151.52ZM232.254 82.5003 237.5 73.5065 242.746 82.5003C242.931 82.8186 242.824 83.2271 242.506 83.4127 242.187 83.5984 241.779 83.4909 241.593 83.1726L236.924 75.1667 238.076 75.1667 233.407 83.1726C233.221 83.4909 232.813 83.5984 232.494 83.4127 232.176 83.2271 232.069 82.8186 232.254 82.5003Z" fill="#172C51"/><path d="M54.1856 55.919 111.021 25.5375 111.65 26.7143 54.8144 57.0958ZM102.099 25.1144 112.503 25.5019 107.045 34.3683C106.851 34.6821 106.44 34.7798 106.127 34.5866 105.813 34.3935 105.715 33.9825 105.908 33.6687L110.767 25.7762 111.31 26.7927 102.049 26.4478C101.681 26.4341 101.394 26.1245 101.408 25.7563 101.421 25.3881 101.731 25.1007 102.099 25.1144Z" fill="#172C51"/><path d="M170.181 202.94 226.021 172.568 226.658 173.74 170.819 204.113ZM217.097 172.209 227.503 172.521 222.109 181.427C221.918 181.742 221.508 181.843 221.193 181.652 220.878 181.461 220.777 181.051 220.968 180.736L225.769 172.808 226.32 173.82 217.057 173.543C216.688 173.532 216.399 173.224 216.41 172.856 216.421 172.488 216.728 172.198 217.097 172.209Z" fill="#172C51"/><path d="M-0.318707 30.414 55.5209 0.0450802 56.1583 1.2171 0.318707 31.586ZM46.5966-0.313319 57.0027-0.00147717 51.6091 8.90319C51.4182 9.2183 51.008 9.31902 50.6929 9.12816 50.3778 8.93729 50.2771 8.52711 50.4679 8.212L55.2691 0.285444 55.8197 1.29781 46.5566 1.02022C46.1884 1.00919 45.8988 0.701717 45.9098 0.33347 45.9209-0.0347775 46.2284-0.324355 46.5966-0.313319Z" fill="#172C51" transform="matrix(-1 0 0 1.00013 111.5 170.522)"/><path d="M-0.314441 30.4116 56.5208 0.0342018 57.1497 1.21082 0.314441 31.5882ZM47.5991-0.388885 58.0027-0.00145737 52.5445 8.86379C52.3514 9.17751 51.9405 9.27525 51.6267 9.0821 51.313 8.88895 51.2153 8.47805 51.4084 8.16433L56.2671 0.272862 56.8103 1.2892 47.5495 0.94433C47.1813 0.930619 46.894 0.621055 46.9077 0.252898 46.9214-0.115259 47.231-0.402595 47.5991-0.388885Z" fill="#172C51" transform="matrix(-1 0 0 1.00013 228.5 24.5032)"/><path d="M-0.569082 120.652 72.7415 0.779183 73.8797 1.47525 0.569082 121.348ZM64.8347 4.93212 74.0016-0.00263764 73.7849 10.4059C73.7772 10.7742 73.4724 11.0666 73.1041 11.0589 72.7358 11.0513 72.4434 10.7464 72.451 10.3781L72.6439 1.1129 73.627 1.71415 65.467 6.10686C65.1427 6.28149 64.7381 6.16008 64.5635 5.83568 64.3889 5.51128 64.5103 5.10675 64.8347 4.93212Z" fill="#172C51" transform="matrix(-1 0 0 1.00013 122.5 73.5096)"/><path d="M153.931 194.177 227.242 74.2889 228.38 74.9851 155.069 194.873ZM219.335 78.4424 228.502 73.507 228.285 83.9169C228.277 84.2852 227.972 84.5776 227.604 84.57 227.236 84.5623 226.943 84.2575 226.951 83.8891L227.144 74.6227 228.127 75.224 219.967 79.6173C219.643 79.7919 219.238 79.6705 219.064 79.3461 218.889 79.0216 219.01 78.617 219.335 78.4424Z" fill="#172C51"/><path d="M140.833 198.526 140.833 193.189 142.167 193.189 142.167 198.526ZM140.833 189.186 140.833 183.848 142.167 183.848 142.167 189.186ZM140.833 179.846 140.833 174.508 142.167 174.508 142.167 179.846ZM140.833 170.505 140.833 165.168 142.167 165.168 142.167 170.505ZM140.833 161.165 140.833 155.828 142.167 155.828 142.167 161.165ZM140.833 151.825 140.833 146.488 142.167 146.488 142.167 151.825ZM140.833 142.485 140.833 137.148 142.167 137.148 142.167 142.485ZM140.833 133.145 140.833 127.807 142.167 127.807 142.167 133.145ZM140.833 123.804 140.833 118.467 142.167 118.467 142.167 123.804ZM140.833 114.464 140.833 109.127 142.167 109.127 142.167 114.464ZM140.833 105.124 140.833 99.7868 142.167 99.7868 142.167 105.124ZM140.833 95.7838 140.833 90.4466 142.167 90.4466 142.167 95.7838ZM140.833 86.4436 140.833 81.1064 142.167 81.1064 142.167 86.4436ZM140.833 77.1034 140.833 71.7662 142.167 71.7662 142.167 77.1034ZM140.833 67.7632 140.833 62.426 142.167 62.426 142.167 67.7632ZM140.833 58.423 140.833 53.0858 142.167 53.0858 142.167 58.423ZM140.833 49.0829 140.833 43.7456 142.167 43.7456 142.167 49.0829ZM140.833 39.7427 140.833 34.4054 142.167 34.4054 142.167 39.7427ZM140.833 30.4025 140.833 29.8247 142.167 29.8247 142.167 30.4025ZM136.254 37.4944 141.5 28.5007 146.746 37.4944C146.931 37.8127 146.824 38.2212 146.506 38.4069 146.187 38.5925 145.779 38.485 145.593 38.1668L140.924 30.1609 142.076 30.1609 137.407 38.1668C137.221 38.485 136.813 38.5925 136.494 38.4069 136.176 38.2212 136.069 37.8127 136.254 37.4944Z" fill="#172C51"/><text font-family="Cambria Math,Cambria Math_MSFontService,sans-serif" font-weight="400" font-size="14.6774" transform="matrix(1 0 0 1.00013 67.8846 201)">𝝅</text><text font-family="Cambria Math,Cambria Math_MSFontService,sans-serif" font-weight="400" font-size="10.7145" transform="matrix(1 0 0 1.00013 77.8906 204)">𝟏</text><text font-family="Cambria Math,Cambria Math_MSFontService,sans-serif" font-weight="400" font-size="14.6774" transform="matrix(1 0 0 1.00013 195.952 200)">𝝅</text><text font-family="Cambria Math,Cambria Math_MSFontService,sans-serif" font-weight="400" font-size="10.7145" transform="matrix(1 0 0 1.00013 205.959 203)">𝟐</text><text font-family="Cambria Math,Cambria Math_MSFontService,sans-serif" font-weight="400" font-size="14.6774" transform="matrix(1 0 0 1.00013 14.9357 125)">𝒎</text><text font-family="Cambria Math,Cambria Math_MSFontService,sans-serif" font-weight="400" font-size="14.6774" transform="matrix(1 0 0 1.00013 246.662 124)">𝒏</text><text font-family="Cambria Math,Cambria Math_MSFontService,sans-serif" font-weight="400" font-size="14.6774" transform="matrix(1 0 0 1.00013 56.9212 34)">𝝅</text><text font-family="Cambria Math,Cambria Math_MSFontService,sans-serif" font-weight="400" font-size="14.6774" transform="matrix(1 0 0 1.00013 66.9272 34)">′</text><text font-family="Cambria Math,Cambria Math_MSFontService,sans-serif" font-weight="400" font-size="10.7145" transform="matrix(1 0 0 1.00013 70.7629 37)">𝟏</text><text font-family="Cambria Math,Cambria Math_MSFontService,sans-serif" font-weight="400" font-size="14.6774" transform="matrix(1 0 0 1.00013 197.954 34)">𝝅</text><text font-family="Cambria Math,Cambria Math_MSFontService,sans-serif" font-weight="400" font-size="14.6774" transform="matrix(1 0 0 1.00013 207.96 34)">′</text><text font-family="Cambria Math,Cambria Math_MSFontService,sans-serif" font-weight="400" font-size="10.7145" transform="matrix(1 0 0 1.00013 211.795 37)">𝟐</text><text font-family="Cambria Math,Cambria Math_MSFontService,sans-serif" font-weight="400" font-size="14.6774" transform="matrix(1 0 0 1.00013 84.9656 126)">𝒇</text><text font-family="Cambria Math,Cambria Math_MSFontService,sans-serif" font-weight="400" font-size="14.6774" transform="matrix(1 0 0 1.00013 176.738 128)">𝒈</text><path d="M32.9321 3.11844 35.7917 9.55415 35.7917 10.0845 32.9321 16.5274 32.1653 16.255 34.4658 9.81932 32.1653 3.37644ZM6.09011 3.11844 6.84978 3.39077 4.54926 9.82649 6.84978 16.2694 6.09011 16.5274 3.23058 10.0917 3.23058 9.56132Z" fill-rule="evenodd" transform="matrix(1 0 0 1.00013 88.3008 71.3906)"/><text font-family="Cambria Math,Cambria Math_MSFontService,sans-serif" font-weight="400" font-size="14.6774" transform="matrix(1 0 0 1.00013 95.912 85)">𝒇</text><text font-family="Cambria Math,Cambria Math_MSFontService,sans-serif" font-weight="400" font-size="14.6774" transform="matrix(1 0 0 1.00013 104.25 85)">,</text><text font-family="Cambria Math,Cambria Math_MSFontService,sans-serif" font-weight="400" font-size="14.6774" transform="matrix(1 0 0 1.00013 109.7 85)">𝒈</text></g></svg>