<svg width="147" height="113" xmlns="http://www.w3.org/2000/svg" xmlns:xlink="http://www.w3.org/1999/xlink" overflow="hidden"><g><rect x="0" y="0" width="147" height="112.923" fill="#FFFFFF"/><text font-family="Cambria Math,Cambria Math_MSFontService,sans-serif" font-weight="400" font-size="14.6235" transform="matrix(1 0 0 0.99932 55.8336 24)">𝑿</text><text font-family="Cambria Math,Cambria Math_MSFontService,sans-serif" font-weight="400" font-size="14.6235" transform="matrix(1 0 0 0.99932 69.2299 24)">×</text><text font-family="Cambria Math,Cambria Math_MSFontService,sans-serif" font-weight="400" font-size="14.6235" transform="matrix(1 0 0 0.99932 82.9588 24)">𝒀</text><text font-family="Cambria Math,Cambria Math_MSFontService,sans-serif" font-weight="400" font-size="14.6235" transform="matrix(1 0 0 0.99932 13.7042 99)">𝑿</text><text font-family="Cambria Math,Cambria Math_MSFontService,sans-serif" font-weight="400" font-size="14.6235" transform="matrix(1 0 0 0.99932 123.717 99)">𝒀</text><path d="M64.0245 31.8874 25.8346 80.8156 24.7856 79.9979 62.9755 31.0698ZM34.1374 77.5963 24.4981 81.447 25.8887 71.1666C25.9379 70.8028 26.2729 70.5478 26.6369 70.5969 27.001 70.6461 27.2562 70.9809 27.207 71.3447L25.9692 80.4959 25.0631 79.7896 33.6436 76.3619C33.9847 76.2256 34.3718 76.3915 34.5082 76.7323 34.6445 77.0732 34.4785 77.46 34.1374 77.5963Z" fill="#172C51"/><path d="M39.4976 0.408815 1.33364 49.337 0.285396 48.5193 38.4493-0.408815ZM9.63083 46.1177-0.00189473 49.9684 1.38768 39.688C1.43685 39.3242 1.77164 39.0692 2.13543 39.1183 2.49923 39.1675 2.75429 39.5023 2.70511 39.8661L1.46817 49.0173 0.562721 48.311 9.13736 44.8833C9.47824 44.747 9.86505 44.9129 10.0013 45.2537 10.1376 45.5946 9.97171 45.9814 9.63083 46.1177Z" fill="#172C51" transform="matrix(-1.00068 0 0 1 123.5 30.4792)"/><text font-family="Cambria Math,Cambria Math_MSFontService,sans-serif" font-weight="400" font-size="14.6235" transform="matrix(1 0 0 0.99932 22.5319 49)">𝝅</text><text font-family="Cambria Math,Cambria Math_MSFontService,sans-serif" font-weight="400" font-size="10.6752" transform="matrix(1 0 0 0.99932 32.5093 52)">𝟏</text><text font-family="Cambria Math,Cambria Math_MSFontService,sans-serif" font-weight="400" font-size="14.6235" transform="matrix(1 0 0 0.99932 107.452 52)">𝝅</text><text font-family="Cambria Math,Cambria Math_MSFontService,sans-serif" font-weight="400" font-size="10.6752" transform="matrix(1 0 0 0.99932 117.429 55)">𝟐</text></g></svg>