<svg width="151" height="110" xmlns="http://www.w3.org/2000/svg" xmlns:xlink="http://www.w3.org/1999/xlink" overflow="hidden"><defs><clipPath id="clip0"><rect x="0" y="0" width="151" height="110"/></clipPath></defs><g clip-path="url(#clip0)"><rect x="0" y="0" width="151" height="110.456" fill="#FFFFFF"/><text font-family="Cambria Math,Cambria Math_MSFontService,sans-serif" font-weight="400" font-size="14.7112" transform="matrix(1 0 0 1.00415 13.7203 29)">𝑫𝑵𝑨</text><text font-family="Cambria Math,Cambria Math_MSFontService,sans-serif" font-weight="400" font-size="14.7112" transform="matrix(1 0 0 1.00415 104.318 26)">𝑹𝑵𝑨</text><text font-family="Cambria Math,Cambria Math_MSFontService,sans-serif" font-weight="400" font-size="14.7112" transform="matrix(1 0 0 1.00415 111.573 92)">𝑨𝑨</text><path d="M0-0.665932 48.6815-0.665932 48.6815 0.665932 0 0.665932ZM41.0259-5.23674 50.0031 0 41.0259 5.23674C40.7082 5.42206 40.3004 5.31475 40.1151 4.99707 39.9298 4.67938 40.0371 4.27162 40.3548 4.0863L48.3459-0.575218 48.3459 0.575218 40.3548-4.0863C40.0371-4.27162 39.9298-4.67938 40.1151-4.99707 40.3004-5.31475 40.7082-5.42206 41.0259-5.23674Z" fill="#172C51" transform="matrix(1 0 0 -1.00415 50.5 22.5933)"/><path d="M122.166 30.6265 122.166 73.485 120.834 73.485 120.834 30.6265ZM126.737 65.7976 121.5 74.812 116.263 65.7976C116.078 65.4786 116.185 65.0691 116.503 64.883 116.821 64.6969 117.228 64.8047 117.414 65.1237L122.075 73.148 120.925 73.148 125.586 65.1237C125.772 64.8047 126.179 64.6969 126.497 64.883 126.815 65.0691 126.922 65.4786 126.737 65.7976Z" fill="#172C51"/><path d="M50.9022 30.0936 111.852 76.4886 111.047 77.5544 50.0977 31.1593ZM108.512 68.187 112.502 77.8232 102.185 76.568C101.82 76.5236 101.56 76.1903 101.604 75.8237 101.648 75.4571 101.98 75.1959 102.345 75.2403L111.529 76.3577 110.834 77.2782 107.282 68.7005C107.141 68.3595 107.302 67.9681 107.641 67.8263 107.981 67.6845 108.371 67.846 108.512 68.187Z" fill="#172C51"/></g></svg>