<svg width="454" height="204" xmlns="http://www.w3.org/2000/svg" xmlns:xlink="http://www.w3.org/1999/xlink" overflow="hidden"><g><rect x="0" y="0" width="454" height="203.609" fill="#FFFFFF"/><rect x="25.5" y="33.4358" width="34" height="27.9463" stroke="#000000" stroke-width="1.3348" stroke-linejoin="round" stroke-miterlimit="10" fill="none"/><text font-family="Yu Gothic,Yu Gothic_MSFontService,sans-serif" font-weight="700" font-size="14.6547" transform="matrix(1 0 0 0.998083 34.7259 52)">人</text><rect x="220.5" y="33.4358" width="49" height="27.9463" stroke="#000000" stroke-width="1.3348" stroke-linejoin="round" stroke-miterlimit="10" fill="none"/><text font-family="Yu Gothic,Yu Gothic_MSFontService,sans-serif" font-weight="700" font-size="14.6547" transform="matrix(1 0 0 0.998083 229.607 52)">男性</text><rect x="220.5" y="152.208" width="49" height="26.9483" stroke="#000000" stroke-width="1.3348" stroke-linejoin="round" stroke-miterlimit="10" fill="none"/><text font-family="Yu Gothic,Yu Gothic_MSFontService,sans-serif" font-weight="700" font-size="14.6547" transform="matrix(1 0 0 0.998083 229.607 170)">都市</text><text font-family="Yu Gothic,Yu Gothic_MSFontService,sans-serif" font-weight="700" font-size="14.6547" transform="matrix(1 0 0 0.998083 84.1283 42)">～には父がいる</text><text font-family="Yu Gothic,Yu Gothic_MSFontService,sans-serif" font-weight="700" font-size="14.6547" transform="matrix(1 0 0 0.998083 254.138 98)">～</text><text font-family="Yu Gothic,Yu Gothic_MSFontService,sans-serif" font-weight="700" font-size="14.6547" transform="matrix(1 0 0 0.998083 268.821 98)">は</text><text font-family="Yu Gothic,Yu Gothic_MSFontService,sans-serif" font-weight="700" font-size="14.6547" transform="matrix(1 0 0 0.998083 283.504 98)">･･･</text><text font-family="Yu Gothic,Yu Gothic_MSFontService,sans-serif" font-weight="700" font-size="14.6547" transform="matrix(1 0 0 0.998083 305.528 98)">に</text><text font-family="Yu Gothic,Yu Gothic_MSFontService,sans-serif" font-weight="700" font-size="14.6547" transform="matrix(1 0 0 0.998083 254.138 115)">住んでいる</text><text font-family="Yu Gothic,Yu Gothic_MSFontService,sans-serif" font-weight="700" font-size="14.6547" transform="matrix(1 0 0 0.998083 55.8584 117)">～</text><text font-family="Yu Gothic,Yu Gothic_MSFontService,sans-serif" font-weight="700" font-size="14.6547" transform="matrix(1 0 0 0.998083 70.5412 117)">は</text><text font-family="Yu Gothic,Yu Gothic_MSFontService,sans-serif" font-weight="700" font-size="14.6547" transform="matrix(1 0 0 0.998083 85.2241 117)">･･･</text><text font-family="Yu Gothic,Yu Gothic_MSFontService,sans-serif" font-weight="700" font-size="14.6547" transform="matrix(1 0 0 0.998083 107.248 117)">に</text><text font-family="Yu Gothic,Yu Gothic_MSFontService,sans-serif" font-weight="700" font-size="14.6547" transform="matrix(1 0 0 0.998083 55.8584 134)">住んでいる</text><path d="M64.5 47.7409 214.179 47.7409 214.179 49.0732 64.5 49.0732ZM206.506 43.1688 215.503 48.4071 206.506 53.6453C206.188 53.8307 205.779 53.7233 205.593 53.4056 205.408 53.0878 205.515 52.6799 205.833 52.4945L213.842 47.8317 213.842 48.9824 205.833 44.3196C205.515 44.1342 205.408 43.7263 205.593 43.4086 205.779 43.0908 206.188 42.9835 206.506 43.1688Z" fill="#172C51"/><path d="M245.167 64.3764 245.167 143.902 243.833 143.902 243.833 64.3764ZM249.748 136.244 244.5 145.224 239.252 136.244C239.066 135.927 239.174 135.519 239.492 135.333 239.81 135.148 240.219 135.255 240.405 135.573L245.077 143.567 243.924 143.567 248.595 135.573C248.781 135.255 249.19 135.148 249.508 135.333 249.827 135.519 249.934 135.927 249.748 136.244Z" fill="#172C51"/><path d="M63.8182 65.787 215.656 147.998 215.019 149.17 63.1817 66.9581ZM211.097 140.329 216.503 149.215 206.092 149.537C205.723 149.549 205.415 149.26 205.404 148.892 205.393 148.524 205.682 148.217 206.05 148.206L215.318 147.919 214.768 148.93 209.956 141.02C209.765 140.706 209.865 140.296 210.18 140.105 210.495 139.914 210.906 140.014 211.097 140.329Z" fill="#172C51"/><path d="M38.4665 3.01011C39.8568 3.37673 40.9245 4.16829 41.6697 5.3848 42.4148 6.6013 42.7874 8.06896 42.7874 9.78778 42.7874 11.5114 42.416 12.979 41.6732 14.1908 40.9305 15.4025 39.8616 16.1917 38.4665 16.5583L38.2951 16.0084C39.395 15.6418 40.2127 14.918 40.7483 13.8372 41.284 12.7564 41.5518 11.3828 41.5518 9.71636 41.5518 8.10705 41.2852 6.77032 40.7519 5.70618 40.2187 4.64204 39.3926 3.92666 38.2737 3.56004ZM5.60639 3.01011 5.79922 3.56004C4.68508 3.92666 3.8602 4.64204 3.32455 5.70618 2.78891 6.77032 2.52109 8.10705 2.52109 9.71636 2.52109 11.3828 2.78891 12.7564 3.32455 13.8372 3.8602 14.918 4.67794 15.6418 5.7778 16.0084L5.60639 16.5583C4.21134 16.1917 3.14244 15.4025 2.39968 14.1908 1.65692 12.979 1.28554 11.5114 1.28554 9.78778 1.28554 8.06896 1.65811 6.6013 2.40325 5.3848 3.14839 4.16829 4.2161 3.37673 5.60639 3.01011Z" fill-rule="evenodd" transform="matrix(1.00192 0 0 1 392.553 92.9961)"/><text font-family="Cambria Math,Cambria Math_MSFontService,sans-serif" font-weight="400" font-size="14.6547" transform="matrix(1 0 0 0.998083 398.646 107)">𝟐</text><text font-family="Cambria Math,Cambria Math_MSFontService,sans-serif" font-weight="400" font-size="14.6547" transform="matrix(1 0 0 0.998083 407.49 107)">.</text><text font-family="Cambria Math,Cambria Math_MSFontService,sans-serif" font-weight="400" font-size="14.6547" transform="matrix(1 0 0 0.998083 412.942 107)">𝟏𝟖</text><rect x="8.49996" y="9.48181" width="338" height="186.642" stroke="#172C51" stroke-width="1.3348" stroke-miterlimit="8" fill="none"/></g></svg>