<svg width="397" height="227" xmlns="http://www.w3.org/2000/svg" xmlns:xlink="http://www.w3.org/1999/xlink" overflow="hidden"><defs><clipPath id="clip0"><rect x="0" y="0" width="397" height="227"/></clipPath></defs><g clip-path="url(#clip0)"><rect x="0" y="0" width="397" height="227.071" fill="#FFFFFF"/><text font-family="Calibri,Calibri_MSFontService,sans-serif" font-weight="700" font-size="14.6774" transform="matrix(1 0 0 1.00031 92.4813 29)">X:</text><text font-family="Yu Gothic,Yu Gothic_MSFontService,sans-serif" font-weight="700" font-size="14.6774" transform="matrix(1 0 0 1.00031 104.486 29)">＝</text><rect x="12.5001" y="38.5122" width="174" height="174.055" stroke="#172C51" stroke-width="1.33389" stroke-miterlimit="8" fill="none"/><path d="M47 81.0255C47 77.7107 49.6863 75.0236 53 75.0236 56.3137 75.0236 59 77.7107 59 81.0255 59 84.3402 56.3137 87.0274 53 87.0274 49.6863 87.0274 47 84.3402 47 81.0255Z" fill-rule="evenodd"/><path d="M139 81.0255C139 77.7107 141.686 75.0236 145 75.0236 148.314 75.0236 151 77.7107 151 81.0255 151 84.3402 148.314 87.0274 145 87.0274 141.686 87.0274 139 84.3402 139 81.0255Z" fill-rule="evenodd"/><path d="M95 159.05C95 155.735 97.6863 153.048 101 153.048 104.314 153.048 107 155.735 107 159.05 107 162.365 104.314 165.052 101 165.052 97.6863 165.052 95 162.365 95 159.05Z" fill-rule="evenodd"/><text font-family="Calibri,Calibri_MSFontService,sans-serif" font-weight="700" font-size="14.6774" transform="matrix(1 0 0 1.00031 48.9184 66)">1</text><text font-family="Calibri,Calibri_MSFontService,sans-serif" font-weight="700" font-size="14.6774" transform="matrix(1 0 0 1.00031 141.402 66)">2</text><text font-family="Calibri,Calibri_MSFontService,sans-serif" font-weight="700" font-size="14.6774" transform="matrix(1 0 0 1.00031 96.9386 145)">3</text><rect x="259.5" y="64.5203" width="126" height="127.04" stroke="#172C51" stroke-width="1.33389" stroke-miterlimit="8" fill="none"/><text font-family="Calibri,Calibri_MSFontService,sans-serif" font-weight="700" font-size="14.6774" transform="matrix(1 0 0 1.00031 307.156 53)">A:</text><text font-family="Yu Gothic,Yu Gothic_MSFontService,sans-serif" font-weight="700" font-size="14.6774" transform="matrix(1 0 0 1.00031 319.995 53)">＝</text><path d="M304 107.034C304 103.719 306.686 101.032 310 101.032 313.314 101.032 316 103.719 316 107.034 316 110.348 313.314 113.036 310 113.036 306.686 113.036 304 110.348 304 107.034Z" fill-rule="evenodd"/><path d="M302.5 88.0277C302.5 83.8843 305.858 80.5254 310 80.5254 314.142 80.5254 317.5 83.8843 317.5 88.0277 317.5 92.1712 314.142 95.5301 310 95.5301 305.858 95.5301 302.5 92.1712 302.5 88.0277Z" stroke="#172C51" stroke-width="1.33389" stroke-miterlimit="8" fill="none" fill-rule="evenodd"/><path d="M306 85.0267C306 84.4743 306.448 84.0264 307 84.0264 307.552 84.0264 308 84.4743 308 85.0267 308 85.5792 307.552 86.027 307 86.027 306.448 86.027 306 85.5792 306 85.0267Z" fill-rule="evenodd"/><path d="M311 85.0267C311 84.4743 311.448 84.0264 312 84.0264 312.552 84.0264 313 84.4743 313 85.0267 313 85.5792 312.552 86.027 312 86.027 311.448 86.027 311 85.5792 311 85.0267Z" fill-rule="evenodd"/><path d="M307.152 90.7725C308.82 92.9261 311.37 92.556 312.357 90.9323" stroke="#172C51" stroke-width="1.3339" stroke-miterlimit="8" fill="none" fill-rule="evenodd"/></g></svg>