<svg width="359" height="189" xmlns="http://www.w3.org/2000/svg" xmlns:xlink="http://www.w3.org/1999/xlink" overflow="hidden"><g><rect x="0" y="0" width="359" height="189" fill="#FFFFFF"/><rect x="148.5" y="34.5001" width="57" height="28" stroke="#000000" stroke-width="1.33333" stroke-linejoin="round" stroke-miterlimit="10" fill="none"/><text font-family="Yu Gothic,Yu Gothic_MSFontService,sans-serif" font-weight="700" font-size="14.6667" transform="translate(161.522 53)">結婚</text><rect x="39.5001" y="125.5" width="57" height="28" stroke="#000000" stroke-width="1.33333" stroke-linejoin="round" stroke-miterlimit="10" fill="none"/><text font-family="Yu Gothic,Yu Gothic_MSFontService,sans-serif" font-weight="700" font-size="14.6667" transform="translate(52.5763 144)">男性</text><rect x="257.5" y="125.5" width="57" height="28" stroke="#000000" stroke-width="1.33333" stroke-linejoin="round" stroke-miterlimit="10" fill="none"/><text font-family="Yu Gothic,Yu Gothic_MSFontService,sans-serif" font-weight="700" font-size="14.6667" transform="translate(270.682 144)">女性</text><path d="M160.878 66.0492 84.9653 118.301 84.2094 117.202 160.122 64.9509ZM93.8729 117.725 83.4975 118.502 87.9281 109.088C88.0849 108.755 88.482 108.612 88.8152 108.769 89.1483 108.925 89.2913 109.322 89.1345 109.656L85.1906 118.036 84.5376 117.087 93.7733 116.395C94.1405 116.368 94.4604 116.643 94.4879 117.01 94.5154 117.377 94.2401 117.697 93.8729 117.725Z" fill="#172C51"/><path d="M77.378 0.549153 1.46529 52.8008 0.709308 51.7024 76.622-0.549153ZM10.3729 52.2246-0.00254521 53.0017 4.42804 43.5878C4.58483 43.2546 4.98199 43.1117 5.31513 43.2684 5.64827 43.4252 5.79123 43.8224 5.63444 44.1555L1.69052 52.5355 1.03753 51.5868 10.2733 50.895C10.6404 50.8675 10.9604 51.1428 10.9879 51.51 11.0154 51.8772 10.74 52.1971 10.3729 52.2246Z" fill="#172C51" transform="matrix(-1 0 0 1 273.5 65.5001)"/><text font-family="Cambria Math,Cambria Math_MSFontService,sans-serif" font-weight="400" font-size="14.6667" transform="translate(56.5028 88)">𝒊𝒏𝒄𝒍𝒖𝒅𝒆𝒔</text><text font-family="Cambria Math,Cambria Math_MSFontService,sans-serif" font-weight="400" font-size="14.6667" transform="translate(242.271 88)">𝒊𝒏𝒄𝒍𝒖𝒅𝒆𝒔</text><rect x="17.5001" y="13.5001" width="328" height="163" stroke="#172C51" stroke-width="1.33333" stroke-miterlimit="8" fill="none"/></g></svg>