<svg width="537" height="284" xmlns="http://www.w3.org/2000/svg" xmlns:xlink="http://www.w3.org/1999/xlink" overflow="hidden"><defs><clipPath id="clip0"><rect x="0" y="0" width="537" height="284"/></clipPath></defs><g clip-path="url(#clip0)"><rect x="0" y="0" width="537" height="284.324" fill="#FFFFFF"/><rect x="146.5" y="45.5519" width="81" height="27.0309" stroke="#000000" stroke-width="1.33416" stroke-linejoin="round" stroke-miterlimit="10" fill="none"/><text font-family="Yu Gothic,Yu Gothic_MSFontService,sans-serif" font-weight="700" font-size="14.6925" transform="matrix(1 0 0 1.00114 155.277 64)">電話番号</text><rect x="322.5" y="45.5519" width="79" height="27.0309" stroke="#000000" stroke-width="1.33416" stroke-linejoin="round" stroke-miterlimit="10" fill="none"/><text font-family="Yu Gothic,Yu Gothic_MSFontService,sans-serif" font-weight="700" font-size="14.6925" transform="matrix(1 0 0 1.00114 331.574 64)">市外局番</text><rect x="27.5" y="166.69" width="99" height="46.0525" stroke="#000000" stroke-width="1.33416" stroke-linejoin="round" stroke-miterlimit="10" fill="none"/><text font-family="Yu Gothic,Yu Gothic_MSFontService,sans-serif" font-weight="700" font-size="14.6925" transform="matrix(1 0 0 1.00114 36.8453 186)">使用可能な</text><text font-family="Yu Gothic,Yu Gothic_MSFontService,sans-serif" font-weight="700" font-size="14.6925" transform="matrix(1 0 0 1.00114 36.8453 203)">固定電話</text><rect x="190.5" y="166.69" width="82" height="46.0525" stroke="#000000" stroke-width="1.33416" stroke-linejoin="round" stroke-miterlimit="10" fill="none"/><text font-family="Yu Gothic,Yu Gothic_MSFontService,sans-serif" font-weight="700" font-size="14.6925" transform="matrix(1 0 0 1.00114 199.783 186)">物理的な</text><text font-family="Yu Gothic,Yu Gothic_MSFontService,sans-serif" font-weight="700" font-size="14.6925" transform="matrix(1 0 0 1.00114 199.783 203)">電話</text><rect x="336.5" y="175.7" width="52.0001" height="28.0319" stroke="#000000" stroke-width="1.33416" stroke-linejoin="round" stroke-miterlimit="10" fill="none"/><text font-family="Yu Gothic,Yu Gothic_MSFontService,sans-serif" font-weight="700" font-size="14.6925" transform="matrix(1 0 0 1.00114 345.806 195)">地域</text><text font-family="Yu Gothic,Yu Gothic_MSFontService,sans-serif" font-weight="700" font-size="14.6925" transform="matrix(1 0 0 1.00114 69.0873 93)">～</text><text font-family="Yu Gothic,Yu Gothic_MSFontService,sans-serif" font-weight="700" font-size="14.6925" transform="matrix(1 0 0 1.00114 83.7631 93)">に</text><text font-family="Yu Gothic,Yu Gothic_MSFontService,sans-serif" font-weight="700" font-size="14.6925" transform="matrix(1 0 0 1.00114 98.4389 93)">･･･</text><text font-family="Yu Gothic,Yu Gothic_MSFontService,sans-serif" font-weight="700" font-size="14.6925" transform="matrix(1 0 0 1.00114 120.453 93)">が</text><text font-family="Yu Gothic,Yu Gothic_MSFontService,sans-serif" font-weight="700" font-size="14.6925" transform="matrix(1 0 0 1.00114 65.7519 110)">割り当て</text><text font-family="Yu Gothic,Yu Gothic_MSFontService,sans-serif" font-weight="700" font-size="14.6925" transform="matrix(1 0 0 1.00114 59.0811 128)">られる</text><text font-family="Cambria Math,Cambria Math_MSFontService,sans-serif" font-weight="400" font-size="14.6925" transform="matrix(1 0 0 1.00114 62.0276 161)">𝑶𝑳𝑷</text><text font-family="Cambria Math,Cambria Math_MSFontService,sans-serif" font-weight="400" font-size="14.6925" transform="matrix(1 0 0 1.00114 229.571 162)">𝑷</text><text font-family="Cambria Math,Cambria Math_MSFontService,sans-serif" font-weight="400" font-size="14.6925" transform="matrix(1 0 0 1.00114 357.726 171)">𝑹</text><text font-family="Cambria Math,Cambria Math_MSFontService,sans-serif" font-weight="400" font-size="14.6925" transform="matrix(1 0 0 1.00114 358.792 40)">𝑪</text><text font-family="Cambria Math,Cambria Math_MSFontService,sans-serif" font-weight="400" font-size="14.6925" transform="matrix(1 0 0 1.00114 181.682 39)">𝑵</text><path d="M95.0516 145.172 170.074 76.9815 170.971 77.9704 95.9484 146.161ZM161.318 78.7487 171.502 76.5853 168.37 86.5253C168.26 86.877 167.885 87.0722 167.534 86.9613 167.182 86.8503 166.987 86.4752 167.098 86.1235L169.886 77.2753 170.661 78.1295 161.595 80.0553C161.235 80.1318 160.881 79.9014 160.804 79.5406 160.728 79.1798 160.958 78.8252 161.318 78.7487Z" fill="#172C51"/><path d="M234.5 58.9001 314.179 58.9001 314.179 60.2358 234.5 60.2358ZM306.51 54.3162 315.503 59.568 306.51 64.8197C306.192 65.0056 305.784 64.898 305.598 64.5794 305.412 64.2608 305.52 63.8518 305.838 63.666L313.843 58.9911 313.843 60.1448 305.838 55.4699C305.52 55.2841 305.412 54.8752 305.598 54.5566 305.784 54.238 306.192 54.1304 306.51 54.3162Z" fill="#172C51"/><path d="M364.167 76.5873 364.167 154.355 362.833 154.355 362.833 76.5873ZM368.746 146.678 363.5 155.681 358.254 146.678C358.069 146.359 358.176 145.95 358.494 145.764 358.812 145.578 359.221 145.686 359.407 146.005L364.076 154.019 362.924 154.019 367.593 146.005C367.779 145.686 368.187 145.578 368.506 145.764 368.824 145.95 368.931 146.359 368.746 146.678Z" fill="#172C51"/><path d="M131.5 189.049 185.179 189.049 185.179 190.384 131.5 190.384ZM177.51 184.465 186.503 189.716 177.51 194.968C177.192 195.154 176.784 195.046 176.598 194.728 176.412 194.409 176.52 194 176.838 193.814L184.843 189.139 184.843 190.293 176.838 185.618C176.52 185.432 176.412 185.024 176.598 184.705 176.784 184.386 177.192 184.279 177.51 184.465Z" fill="#172C51"/><path d="M277.5 188.047 328.179 188.047 328.179 189.383 277.5 189.383ZM320.51 183.463 329.503 188.715 320.51 193.967C320.192 194.153 319.784 194.045 319.598 193.727 319.412 193.408 319.52 192.999 319.838 192.813L327.843 188.138 327.843 189.292 319.838 184.617C319.52 184.431 319.412 184.022 319.598 183.704 319.784 183.385 320.192 183.278 320.51 183.463Z" fill="#172C51"/><text font-family="Cambria Math,Cambria Math_MSFontService,sans-serif" font-weight="400" font-size="14.6925" transform="matrix(1 0 0 1.00114 258.72 52)">𝒉𝒂𝒔</text><text font-family="Cambria Math,Cambria Math_MSFontService,sans-serif" font-weight="400" font-size="14.6925" transform="matrix(1 0 0 1.00114 146.16 208)">𝒊𝒔</text><text font-family="Yu Gothic,Yu Gothic_MSFontService,sans-serif" font-weight="700" font-size="14.6925" transform="matrix(1 0 0 1.00114 277.055 218)">～は現在</text><text font-family="Yu Gothic,Yu Gothic_MSFontService,sans-serif" font-weight="700" font-size="14.6925" transform="matrix(1 0 0 1.00114 273.719 235)">･･･</text><text font-family="Yu Gothic,Yu Gothic_MSFontService,sans-serif" font-weight="700" font-size="14.6925" transform="matrix(1 0 0 1.00114 295.733 235)">に所在</text><text font-family="Yu Gothic,Yu Gothic_MSFontService,sans-serif" font-weight="700" font-size="14.6925" transform="matrix(1 0 0 1.00114 273.719 253)">している</text><path d="M38.5233 3.02368C39.9198 3.39195 40.9924 4.18708 41.7408 5.40907 42.4893 6.63105 42.8636 8.10533 42.8636 9.83189 42.8636 11.5632 42.4905 13.0375 41.7444 14.2547 40.9983 15.4719 39.9246 16.2647 38.5233 16.6329L38.3511 16.0805C39.4559 15.7123 40.2773 14.9853 40.8154 13.8996 41.3534 12.8139 41.6225 11.4341 41.6225 9.76015 41.6225 8.14359 41.3546 6.80084 40.819 5.7319 40.2833 4.66296 39.4535 3.94436 38.3296 3.57609ZM5.63166 3.02368 5.82536 3.57609C4.7062 3.94436 3.8776 4.66296 3.33954 5.7319 2.80148 6.80084 2.53245 8.14359 2.53245 9.76015 2.53245 11.4341 2.80148 12.8139 3.33954 13.8996 3.8776 14.9853 4.69903 15.7123 5.80384 16.0805L5.63166 16.6329C4.23032 16.2647 3.1566 15.4719 2.41049 14.2547 1.66439 13.0375 1.29134 11.5632 1.29134 9.83189 1.29134 8.10533 1.66559 6.63105 2.41408 5.40907 3.16258 4.18708 4.2351 3.39195 5.63166 3.02368Z" fill-rule="evenodd" transform="matrix(1 0 0 1.00114 481.121 132.711)"/><text font-family="Cambria Math,Cambria Math_MSFontService,sans-serif" font-weight="400" font-size="14.6925" transform="matrix(1 0 0 1.00114 487.212 147)">𝟐</text><text font-family="Cambria Math,Cambria Math_MSFontService,sans-serif" font-weight="400" font-size="14.6925" transform="matrix(1 0 0 1.00114 496.051 147)">.</text><text font-family="Cambria Math,Cambria Math_MSFontService,sans-serif" font-weight="400" font-size="14.6925" transform="matrix(1 0 0 1.00114 501.501 147)">𝟐𝟐</text><rect x="9.49996" y="9.51081" width="433" height="260.297" stroke="#172C51" stroke-width="1.33416" stroke-miterlimit="8" fill="none"/><text font-family="Segoe UI Symbol,Segoe UI Symbol_MSFontService,sans-serif" font-weight="700" font-size="14.6925" transform="matrix(1 0 0 1.00114 246.45 124)">✔</text><text font-family="Yu Gothic,Yu Gothic_MSFontService,sans-serif" font-weight="700" font-size="14.6925" transform="matrix(1 0 0 1.00114 372.327 102)">～</text><text font-family="Yu Gothic,Yu Gothic_MSFontService,sans-serif" font-weight="700" font-size="14.6925" transform="matrix(1 0 0 1.00114 387.002 102)">は</text><text font-family="Yu Gothic,Yu Gothic_MSFontService,sans-serif" font-weight="700" font-size="14.6925" transform="matrix(1 0 0 1.00114 368.991 119)">･･･</text><text font-family="Yu Gothic,Yu Gothic_MSFontService,sans-serif" font-weight="700" font-size="14.6925" transform="matrix(1 0 0 1.00114 391.005 119)">に</text><text font-family="Yu Gothic,Yu Gothic_MSFontService,sans-serif" font-weight="700" font-size="14.6925" transform="matrix(1 0 0 1.00114 368.991 137)">相当する</text></g></svg>