<svg width="416" height="151" xmlns="http://www.w3.org/2000/svg" xmlns:xlink="http://www.w3.org/1999/xlink" overflow="hidden"><g><rect x="0" y="0" width="416" height="150.713" fill="#FFFFFF"/><rect x="37.5" y="8.48386" width="50.0001" height="26.9486" stroke="#000000" stroke-width="1.3344" stroke-linejoin="round" stroke-miterlimit="10" fill="none"/><text font-family="Yu Gothic,Yu Gothic_MSFontService,sans-serif" font-weight="700" font-size="14.6505" transform="matrix(1 0 0 0.998097 46.7997 26)">男性</text><rect x="199.5" y="7.4857" width="64" height="27.9468" stroke="#000000" stroke-width="1.3344" stroke-linejoin="round" stroke-miterlimit="10" fill="none"/><text font-family="Yu Gothic,Yu Gothic_MSFontService,sans-serif" font-weight="700" font-size="14.6505" transform="matrix(1 0 0 0.998097 208.733 26)">自動車</text><rect x="6.50001" y="63.3792" width="113" height="62.8801" stroke="#000000" stroke-width="1.3344" stroke-linejoin="round" stroke-miterlimit="10" fill="none"/><text font-family="Calibri,Calibri_MSFontService,sans-serif" font-weight="700" font-size="14.6505" transform="matrix(1 0 0 0.998097 15.4782 82)">(a,w)</text><text font-family="Yu Gothic,Yu Gothic_MSFontService,sans-serif" font-weight="700" font-size="14.6505" transform="matrix(1 0 0 0.998097 49.8391 82)">のペア。</text><text font-family="Calibri,Calibri_MSFontService,sans-serif" font-weight="700" font-size="14.6505" transform="matrix(1 0 0 0.998097 15.4782 99)">w</text><text font-family="Yu Gothic,Yu Gothic_MSFontService,sans-serif" font-weight="700" font-size="14.6505" transform="matrix(1 0 0 0.998097 29.8231 99)">は女性、</text><text font-family="Calibri,Calibri_MSFontService,sans-serif" font-weight="700" font-size="14.6505" transform="matrix(1 0 0 0.998097 15.4782 117)">a</text><text font-family="Yu Gothic,Yu Gothic_MSFontService,sans-serif" font-weight="700" font-size="14.6505" transform="matrix(1 0 0 0.998097 25.9866 117)">は自動車</text><rect x="160.5" y="63.3792" width="143" height="80.8459" stroke="#000000" stroke-width="1.3344" stroke-linejoin="round" stroke-miterlimit="10" fill="none"/><text font-family="Calibri,Calibri_MSFontService,sans-serif" font-weight="700" font-size="14.6505" transform="matrix(1 0 0 0.998097 169.194 82)">(a,w)</text><text font-family="Yu Gothic,Yu Gothic_MSFontService,sans-serif" font-weight="700" font-size="14.6505" transform="matrix(1 0 0 0.998097 203.555 82)">のペア。</text><text font-family="Calibri,Calibri_MSFontService,sans-serif" font-weight="700" font-size="14.6505" transform="matrix(1 0 0 0.998097 169.194 99)">w</text><text font-family="Yu Gothic,Yu Gothic_MSFontService,sans-serif" font-weight="700" font-size="14.6505" transform="matrix(1 0 0 0.998097 183.539 99)">は女性、</text><text font-family="Calibri,Calibri_MSFontService,sans-serif" font-weight="700" font-size="14.6505" transform="matrix(1 0 0 0.998097 169.194 117)">a</text><text font-family="Yu Gothic,Yu Gothic_MSFontService,sans-serif" font-weight="700" font-size="14.6505" transform="matrix(1 0 0 0.998097 179.702 117)">は</text><text font-family="Calibri,Calibri_MSFontService,sans-serif" font-weight="700" font-size="14.6505" transform="matrix(1 0 0 0.998097 197.717 117)">w</text><text font-family="Yu Gothic,Yu Gothic_MSFontService,sans-serif" font-weight="700" font-size="14.6505" transform="matrix(1 0 0 0.998097 212.062 117)">が所有する</text><text font-family="Yu Gothic,Yu Gothic_MSFontService,sans-serif" font-weight="700" font-size="14.6505" transform="matrix(1 0 0 0.998097 169.194 133)">青い自動車</text><path d="M31.9826 3.00929C33.3726 3.37581 34.44 4.16715 35.1849 5.38333 35.9298 6.5995 36.3023 8.06676 36.3023 9.78511 36.3023 11.5082 35.931 12.9755 35.1885 14.1869 34.4459 15.3983 33.3773 16.1873 31.9826 16.5538L31.8113 16.004C32.9108 15.6375 33.7284 14.914 34.2639 13.8335 34.7994 12.7529 35.0671 11.3797 35.0671 9.71371 35.0671 8.10484 34.8005 6.76848 34.2674 5.70462 33.7343 4.64077 32.9085 3.92559 31.7899 3.55907ZM7.9556 3.00929 8.14838 3.55907C7.03455 3.92559 6.20988 4.64077 5.67439 5.70462 5.13889 6.76848 4.87114 8.10484 4.87114 9.71371 4.87114 11.3797 5.13889 12.7529 5.67439 13.8335 6.20988 14.914 7.02741 15.6375 8.12696 16.004L7.9556 16.5538C6.56093 16.1873 5.49232 15.3983 4.74976 14.1869 4.00721 12.9755 3.63593 11.5082 3.63593 9.78511 3.63593 8.06676 4.0084 6.5995 4.75333 5.38333 5.49827 4.16715 6.56569 3.37581 7.9556 3.00929Z" fill-rule="evenodd" transform="matrix(1.00191 0 0 1 362.151 39.4281)"/><text font-family="Cambria Math,Cambria Math_MSFontService,sans-serif" font-weight="400" font-size="14.6505" transform="matrix(1 0 0 0.998097 370.598 53)">𝟐</text><text font-family="Cambria Math,Cambria Math_MSFontService,sans-serif" font-weight="400" font-size="14.6505" transform="matrix(1 0 0 0.998097 379.438 53)">.</text><text font-family="Cambria Math,Cambria Math_MSFontService,sans-serif" font-weight="400" font-size="14.6505" transform="matrix(1 0 0 0.998097 384.889 53)">𝟖</text></g></svg>