<svg width="525" height="208" xmlns="http://www.w3.org/2000/svg" xmlns:xlink="http://www.w3.org/1999/xlink" overflow="hidden"><defs><clipPath id="clip0"><rect x="0" y="0" width="525" height="208"/></clipPath></defs><g clip-path="url(#clip0)"><rect x="0" y="0" width="525" height="208.299" fill="#FFFFFF"/><rect x="29.5" y="38.5553" width="130" height="27.0389" stroke="#000000" stroke-width="1.33249" stroke-linejoin="round" stroke-miterlimit="10" fill="none"/><text font-family="Calibri,Calibri_MSFontService,sans-serif" font-weight="700" font-size="14.6784" transform="matrix(1 0 0 1.00144 43.6293 57)">DNA</text><text font-family="Yu Gothic,Yu Gothic_MSFontService,sans-serif" font-weight="700" font-size="14.6784" transform="matrix(1 0 0 1.00144 71.2784 57)">シーケンス</text><rect x="346.5" y="38.5553" width="129" height="27.0389" stroke="#000000" stroke-width="1.33249" stroke-linejoin="round" stroke-miterlimit="10" fill="none"/><text font-family="Calibri,Calibri_MSFontService,sans-serif" font-weight="700" font-size="14.6784" transform="matrix(1 0 0 1.00144 360.551 57)">RNA</text><text font-family="Yu Gothic,Yu Gothic_MSFontService,sans-serif" font-weight="700" font-size="14.6784" transform="matrix(1 0 0 1.00144 387.367 57)">シーケンス</text><rect x="346.5" y="147.712" width="129" height="27.0388" stroke="#000000" stroke-width="1.33249" stroke-linejoin="round" stroke-miterlimit="10" fill="none"/><text font-family="Yu Gothic,Yu Gothic_MSFontService,sans-serif" font-weight="700" font-size="14.6784" transform="matrix(1 0 0 1.00144 373.959 166)">タンパク質</text><text font-family="Yu Gothic,Yu Gothic_MSFontService,sans-serif" font-weight="700" font-size="14.6784" transform="matrix(1 0 0 1.00144 178.945 45)">～</text><text font-family="Yu Gothic,Yu Gothic_MSFontService,sans-serif" font-weight="700" font-size="14.6784" transform="matrix(1 0 0 1.00144 193.602 45)">は</text><text font-family="Yu Gothic,Yu Gothic_MSFontService,sans-serif" font-weight="700" font-size="14.6784" transform="matrix(1 0 0 1.00144 208.26 45)">･･･</text><text font-family="Yu Gothic,Yu Gothic_MSFontService,sans-serif" font-weight="700" font-size="14.6784" transform="matrix(1 0 0 1.00144 230.246 45)">に転写される</text><text font-family="Yu Gothic,Yu Gothic_MSFontService,sans-serif" font-weight="700" font-size="14.6784" transform="matrix(1 0 0 1.00144 161.349 115)">～</text><text font-family="Yu Gothic,Yu Gothic_MSFontService,sans-serif" font-weight="700" font-size="14.6784" transform="matrix(1 0 0 1.00144 176.007 115)">は</text><text font-family="Yu Gothic,Yu Gothic_MSFontService,sans-serif" font-weight="700" font-size="14.6784" transform="matrix(1 0 0 1.00144 190.664 115)">･･･</text><text font-family="Yu Gothic,Yu Gothic_MSFontService,sans-serif" font-weight="700" font-size="14.6784" transform="matrix(1 0 0 1.00144 212.65 115)">を</text><text font-family="Yu Gothic,Yu Gothic_MSFontService,sans-serif" font-weight="700" font-size="14.6784" transform="matrix(1 0 0 1.00144 216.314 132)">符号化</text><text font-family="Yu Gothic,Yu Gothic_MSFontService,sans-serif" font-weight="700" font-size="14.6784" transform="matrix(1 0 0 1.00144 230.972 150)">している</text><text font-family="Yu Gothic,Yu Gothic_MSFontService,sans-serif" font-weight="700" font-size="14.6784" transform="matrix(1 0 0 1.00144 419.991 103)">～</text><text font-family="Yu Gothic,Yu Gothic_MSFontService,sans-serif" font-weight="700" font-size="14.6784" transform="matrix(1 0 0 1.00144 434.648 103)">は</text><text font-family="Yu Gothic,Yu Gothic_MSFontService,sans-serif" font-weight="700" font-size="14.6784" transform="matrix(1 0 0 1.00144 449.305 103)">･･･</text><text font-family="Yu Gothic,Yu Gothic_MSFontService,sans-serif" font-weight="700" font-size="14.6784" transform="matrix(1 0 0 1.00144 471.291 103)">に</text><text font-family="Yu Gothic,Yu Gothic_MSFontService,sans-serif" font-weight="700" font-size="14.6784" transform="matrix(1 0 0 1.00144 419.991 120)">翻訳される</text><text font-family="Segoe UI Symbol,Segoe UI Symbol_MSFontService,sans-serif" font-weight="700" font-size="14.6784" transform="matrix(1 0 0 1.00144 323.662 101)">✔</text><path d="M167.5 52.9097 339.181 52.9097 339.181 54.2441 167.5 54.2441ZM331.522 48.3302 340.503 53.5769 331.522 58.8236C331.204 59.0093 330.796 58.9018 330.61 58.5835 330.425 58.2652 330.532 57.8567 330.85 57.671L338.845 53.0006 338.845 54.1532 330.85 49.4828C330.532 49.2971 330.425 48.8886 330.61 48.5703 330.796 48.252 331.204 48.1445 331.522 48.3302Z" fill="#172C51"/><path d="M411.166 71.6028 411.166 141.384 409.834 141.384 409.834 71.6028ZM415.739 133.714 410.5 142.708 405.261 133.714C405.075 133.395 405.183 132.987 405.501 132.801 405.818 132.615 406.226 132.723 406.412 133.041L411.076 141.048 409.924 141.048 414.588 133.041C414.774 132.723 415.182 132.615 415.499 132.801 415.817 132.987 415.925 133.395 415.739 133.714Z" fill="#172C51"/><path d="M173.756 69.9854 345.539 141.582 345.027 142.814 173.244 71.2173ZM340.224 134.406 346.503 142.706 336.198 144.094C335.833 144.143 335.498 143.887 335.449 143.522 335.4 143.156 335.655 142.821 336.02 142.771L345.193 141.536 344.751 142.6 339.162 135.212C338.94 134.918 338.997 134.5 339.291 134.277 339.584 134.055 340.002 134.112 340.224 134.406Z" fill="#172C51"/><rect x="14.5" y="15.5223" width="499" height="178.256" stroke="#172C51" stroke-width="1.33249" stroke-miterlimit="8" fill="none"/></g></svg>