<svg width="832" height="227" xmlns="http://www.w3.org/2000/svg" xmlns:xlink="http://www.w3.org/1999/xlink" overflow="hidden"><defs><clipPath id="clip0"><rect x="0" y="0" width="832" height="227"/></clipPath></defs><g clip-path="url(#clip0)"><rect x="0" y="0" width="832" height="227.03" fill="#FFFFFF"/><rect x="10" y="36.0048" width="69" height="36.0048" stroke="#080B0C" stroke-width="2.0012" stroke-miterlimit="8" fill="none"/><text fill="#080B0C" font-family="Yu Gothic,Yu Gothic_MSFontService,sans-serif" font-weight="700" font-size="14.6774" transform="matrix(1 0 0 1.00013 30.1028 60)">質量</text><rect x="185" y="12.0016" width="133" height="73.0097" stroke="#080B0C" stroke-width="2.0012" stroke-miterlimit="8" fill="none"/><text fill="#080B0C" font-family="Yu Gothic,Yu Gothic_MSFontService,sans-serif" font-weight="700" font-size="14.6774" transform="matrix(1 0 0 1.00013 198.097 36)">質量</text><text fill="#080B0C" font-family="Calibri,Calibri_MSFontService,sans-serif" font-weight="700" font-size="14.6774" transform="matrix(1 0 0 1.00013 230.783 36)">m</text><text fill="#080B0C" font-family="Yu Gothic,Yu Gothic_MSFontService,sans-serif" font-weight="700" font-size="14.6774" transform="matrix(1 0 0 1.00013 246.126 36)">の物体が</text><text fill="#080B0C" font-family="Yu Gothic,Yu Gothic_MSFontService,sans-serif" font-weight="700" font-size="14.6774" transform="matrix(1 0 0 1.00013 192.847 53)">地面から</text><text fill="#080B0C" font-family="Calibri,Calibri_MSFontService,sans-serif" font-weight="700" font-size="14.6774" transform="matrix(1 0 0 1.00013 254.884 53)">h</text><text fill="#080B0C" font-family="Yu Gothic,Yu Gothic_MSFontService,sans-serif" font-weight="700" font-size="14.6774" transform="matrix(1 0 0 1.00013 266.058 53)">の高さ</text><text fill="#080B0C" font-family="Yu Gothic,Yu Gothic_MSFontService,sans-serif" font-weight="700" font-size="14.6774" transform="matrix(1 0 0 1.00013 192.76 71)">に保持されている</text><rect x="205" y="179.024" width="69" height="36.0048" stroke="#080B0C" stroke-width="2.0012" stroke-miterlimit="8" fill="none"/><text fill="#080B0C" font-family="Yu Gothic,Yu Gothic_MSFontService,sans-serif" font-weight="700" font-size="14.6774" transform="matrix(1 0 0 1.00013 219.193 202)">実数</text><text fill="#080B0C" font-family="Calibri,Calibri_MSFontService,sans-serif" font-weight="700" font-size="14.6774" transform="matrix(1 0 0 1.00013 251.879 202)">h</text><rect x="423" y="178.024" width="67.9999" height="36.0048" stroke="#080B0C" stroke-width="2.0012" stroke-miterlimit="8" fill="none"/><text fill="#080B0C" font-family="Yu Gothic,Yu Gothic_MSFontService,sans-serif" font-weight="700" font-size="14.6774" transform="matrix(1 0 0 1.00013 436.291 201)">実数</text><text fill="#080B0C" font-family="Calibri,Calibri_MSFontService,sans-serif" font-weight="700" font-size="14.6774" transform="matrix(1 0 0 1.00013 468.977 201)">t</text><path d="M177 51.0074 89.9811 51.0074 89.9811 49.006 177 49.006ZM97.4818 55.5412 87.9953 50.0067 97.4818 44.4722C97.9591 44.1937 98.5718 44.3549 98.8503 44.8324 99.1287 45.3098 98.9675 45.9225 98.4901 46.201L90.4853 50.8711 90.4853 49.1423 98.4901 53.8124C98.9675 54.0909 99.1287 54.7036 98.8503 55.181 98.5718 55.6584 97.9591 55.8197 97.4818 55.5412Z" fill="#080B0C"/><path d="M240.001 93.0124 240.001 169.041 237.999 169.041 237.999 93.0124ZM244.534 161.54 239 171.027 233.466 161.54C233.188 161.062 233.349 160.45 233.826 160.171 234.304 159.893 234.916 160.054 235.195 160.531L239.864 168.537 238.136 168.537 242.805 160.531C243.084 160.054 243.696 159.893 244.174 160.171 244.651 160.45 244.812 161.062 244.534 161.54Z" fill="#080B0C"/><path d="M278 193.025 416.019 193.025 416.019 195.027 278 195.027ZM408.518 188.491 418.005 194.026 408.518 199.56C408.041 199.839 407.428 199.678 407.15 199.2 406.871 198.723 407.032 198.11 407.51 197.832L415.515 193.162 415.515 194.89 407.51 190.22C407.032 189.942 406.871 189.329 407.15 188.852 407.428 188.374 408.041 188.213 408.518 188.491Z" fill="#080B0C"/><path d="M321.581 87.1969 434.968 168.057 433.806 169.687 320.419 88.8265ZM431.493 160.011 436.004 170.025 425.067 169.023C424.517 168.973 424.111 168.486 424.162 167.935 424.212 167.385 424.699 166.98 425.25 167.03L434.478 167.876 433.475 169.283 429.668 160.833C429.441 160.329 429.665 159.737 430.169 159.509 430.673 159.282 431.266 159.507 431.493 160.011Z" fill="#080B0C"/><text fill="#080B0C" font-family="Yu Gothic,Yu Gothic_MSFontService,sans-serif" font-weight="700" font-size="14.6774" transform="matrix(1 0 0 1.00013 102.286 41)">質量を持つ</text><text fill="#080B0C" font-family="Yu Gothic,Yu Gothic_MSFontService,sans-serif" font-weight="700" font-size="14.6774" transform="matrix(1 0 0 1.00013 158.234 122)">単位</text><text fill="#080B0C" font-family="Yu Gothic,Yu Gothic_MSFontService,sans-serif" font-weight="700" font-size="14.6774" transform="matrix(1 0 0 1.00013 190.92 122)">ｍ</text><text fill="#080B0C" font-family="Yu Gothic,Yu Gothic_MSFontService,sans-serif" font-weight="700" font-size="14.6774" transform="matrix(1 0 0 1.00013 208.931 122)">の</text><text fill="#080B0C" font-family="Yu Gothic,Yu Gothic_MSFontService,sans-serif" font-weight="700" font-size="14.6774" transform="matrix(1 0 0 1.00013 158.234 139)">高さを持つ</text><text fill="#080B0C" font-family="Yu Gothic,Yu Gothic_MSFontService,sans-serif" font-weight="700" font-size="14.6774" transform="matrix(1 0 0 1.00013 353.935 99)">落下した場合、</text><text fill="#080B0C" font-family="Yu Gothic,Yu Gothic_MSFontService,sans-serif" font-weight="700" font-size="14.6774" transform="matrix(1 0 0 1.00013 375.281 116)">地面</text><text fill="#080B0C" font-family="Yu Gothic,Yu Gothic_MSFontService,sans-serif" font-weight="700" font-size="14.6774" transform="matrix(1 0 0 1.00013 404.632 116)">に</text><text fill="#080B0C" font-family="Yu Gothic,Yu Gothic_MSFontService,sans-serif" font-weight="700" font-size="14.6774" transform="matrix(1 0 0 1.00013 419.308 116)">ぶつかる</text><text fill="#080B0C" font-family="Yu Gothic,Yu Gothic_MSFontService,sans-serif" font-weight="700" font-size="14.6774" transform="matrix(1 0 0 1.00013 478.01 116)">までの</text><text fill="#080B0C" font-family="Yu Gothic,Yu Gothic_MSFontService,sans-serif" font-weight="700" font-size="14.6774" transform="matrix(1 0 0 1.00013 522.036 116)">時間は</text><text fill="#080B0C" font-family="Yu Gothic,Yu Gothic_MSFontService,sans-serif" font-weight="700" font-size="14.6774" transform="matrix(1 0 0 1.00013 406.634 134)">秒</text><text fill="#080B0C" font-family="Yu Gothic,Yu Gothic_MSFontService,sans-serif" font-weight="700" font-size="14.6774" transform="matrix(1 0 0 1.00013 421.309 134)">単位</text><text fill="#080B0C" font-family="Yu Gothic,Yu Gothic_MSFontService,sans-serif" font-weight="700" font-size="14.6774" transform="matrix(1 0 0 1.00013 450.66 134)">の</text><text fill="#080B0C" font-family="Yu Gothic,Yu Gothic_MSFontService,sans-serif" font-weight="700" font-size="14.6774" transform="matrix(1 0 0 1.00013 465.336 134)">数</text><text fill="#080B0C" font-family="Calibri,Calibri_MSFontService,sans-serif" font-weight="700" font-size="14.6774" transform="matrix(1 0 0 1.00013 483.346 134)">t</text><text fill="#080B0C" font-family="Yu Gothic,Yu Gothic_MSFontService,sans-serif" font-weight="700" font-size="14.6774" transform="matrix(1 0 0 1.00013 491.852 134)">で</text><text fill="#080B0C" font-family="Yu Gothic,Yu Gothic_MSFontService,sans-serif" font-weight="700" font-size="14.6774" transform="matrix(1 0 0 1.00013 506.527 134)">ある</text><path d="M53 2 80.5 2 108 2 108 3 80.5 3 53.5318 3 53.5318 3.27503 52.2346 3.27503 48.3789 16.4475 47.6837 16.4475 44.7167 10.0691 43.5055 10.6066 43.2834 10.0691 45.634 8.99408 48.1639 14.5555 51.7043 2.32186 53 2.32186Z" fill="#080B0C" fill-rule="evenodd" transform="matrix(1 0 0 1.00013 259.716 168.43)"/><text fill="#080B0C" font-family="Cambria Math,Cambria Math_MSFontService,sans-serif" font-weight="400" font-size="14.6774" transform="matrix(1 0 0 1.00013 312.387 184)">𝟐𝒉</text><text fill="#080B0C" font-family="Cambria Math,Cambria Math_MSFontService,sans-serif" font-weight="400" font-size="14.6774" transform="matrix(1 0 0 1.00013 333.827 184)">÷</text><text fill="#080B0C" font-family="Cambria Math,Cambria Math_MSFontService,sans-serif" font-weight="400" font-size="14.6774" transform="matrix(1 0 0 1.00013 348.096 184)">9</text><text fill="#080B0C" font-family="Cambria Math,Cambria Math_MSFontService,sans-serif" font-weight="400" font-size="14.6774" transform="matrix(1 0 0 1.00013 356.267 184)">.</text><text fill="#080B0C" font-family="Cambria Math,Cambria Math_MSFontService,sans-serif" font-weight="400" font-size="14.6774" transform="matrix(1 0 0 1.00013 359.269 184)">8</text><text font-family="Cambria Math,Cambria Math_MSFontService,sans-serif" font-weight="400" font-size="14.6774" transform="matrix(1 0 0 1.00013 605.511 40)">𝑥</text><text font-family="Cambria Math,Cambria Math_MSFontService,sans-serif" font-weight="400" font-size="14.6774" transform="matrix(1 0 0 1.00013 617.872 40)">=</text><text font-family="Cambria Math,Cambria Math_MSFontService,sans-serif" font-weight="400" font-size="14.6774" transform="matrix(1 0 0 1.00013 632.954 40)">𝑣</text><text font-family="Cambria Math,Cambria Math_MSFontService,sans-serif" font-weight="400" font-size="10.7145" transform="matrix(1 0 0 1.00013 640.819 43)">0</text><text font-family="Cambria Math,Cambria Math_MSFontService,sans-serif" font-weight="400" font-size="14.6774" transform="matrix(1 0 0 1.00013 647.596 40)">𝑡</text><text font-family="Cambria Math,Cambria Math_MSFontService,sans-serif" font-weight="400" font-size="14.6774" transform="matrix(1 0 0 1.00013 657.055 40)">+</text><text font-family="Cambria Math,Cambria Math_MSFontService,sans-serif" font-weight="400" font-size="14.6774" transform="matrix(1 0 0 1.00013 671.324 29)">1</text><text font-family="Cambria Math,Cambria Math_MSFontService,sans-serif" font-weight="400" font-size="14.6774" transform="matrix(1 0 0 1.00013 671.324 50)">2</text><path d="M68 18 76 18 76 19 68 19Z" fill-rule="evenodd" transform="matrix(1 0 0 1.00013 603.296 17.0701)"/><text font-family="Cambria Math,Cambria Math_MSFontService,sans-serif" font-weight="400" font-size="14.6774" transform="matrix(1 0 0 1.00013 681.943 40)">𝑔</text><text font-family="Cambria Math,Cambria Math_MSFontService,sans-serif" font-weight="400" font-size="14.6774" transform="matrix(1 0 0 1.00013 691.202 40)">𝑡</text><text font-family="Cambria Math,Cambria Math_MSFontService,sans-serif" font-weight="400" font-size="10.7145" transform="matrix(1 0 0 1.00013 697.866 35)">2</text><text font-family="Yu Gothic,Yu Gothic_MSFontService,sans-serif" font-weight="400" font-size="14.6774" transform="matrix(1 0 0 1.00013 603.296 77)">初速</text><text font-family="Cambria Math,Cambria Math_MSFontService,sans-serif" font-weight="400" font-size="14.6774" transform="matrix(1 0 0 1.00013 632.647 77)"></text><text font-family="Cambria Math,Cambria Math_MSFontService,sans-serif" font-weight="400" font-size="14.6774" transform="matrix(1 0 0 1.00013 639.151 77)">𝑣</text><text font-family="Cambria Math,Cambria Math_MSFontService,sans-serif" font-weight="400" font-size="10.7145" transform="matrix(1 0 0 1.00013 647.016 80)">0</text><text font-family="Cambria Math,Cambria Math_MSFontService,sans-serif" font-weight="400" font-size="14.6774" transform="matrix(1 0 0 1.00013 657.869 77)">=</text><text font-family="Cambria Math,Cambria Math_MSFontService,sans-serif" font-weight="400" font-size="14.6774" transform="matrix(1 0 0 1.00013 672.951 77)">0</text><text font-family="Yu Gothic,Yu Gothic_MSFontService,sans-serif" font-weight="400" font-size="14.6774" transform="matrix(1 0 0 1.00013 603.296 105)">地面までの距離</text><text font-family="Cambria Math,Cambria Math_MSFontService,sans-serif" font-weight="400" font-size="14.6774" transform="matrix(1 0 0 1.00013 709.36 105)">𝑥</text><text font-family="Cambria Math,Cambria Math_MSFontService,sans-serif" font-weight="400" font-size="14.6774" transform="matrix(1 0 0 1.00013 721.721 105)">=</text><text font-family="Cambria Math,Cambria Math_MSFontService,sans-serif" font-weight="400" font-size="14.6774" transform="matrix(1 0 0 1.00013 736.803 105)">ℎ</text><text font-family="Cambria Math,Cambria Math_MSFontService,sans-serif" font-weight="400" font-size="14.6774" transform="matrix(1 0 0 1.00013 605.364 144)">ℎ</text><text font-family="Cambria Math,Cambria Math_MSFontService,sans-serif" font-weight="400" font-size="14.6774" transform="matrix(1 0 0 1.00013 617.865 144)">=</text><text font-family="Cambria Math,Cambria Math_MSFontService,sans-serif" font-weight="400" font-size="14.6774" transform="matrix(1 0 0 1.00013 632.947 133)">1</text><text font-family="Cambria Math,Cambria Math_MSFontService,sans-serif" font-weight="400" font-size="14.6774" transform="matrix(1 0 0 1.00013 632.947 154)">2</text><path d="M30 18 38 18 38 19 30 19Z" fill-rule="evenodd" transform="matrix(1 0 0 1.00013 603.296 121.05)"/><text font-family="Cambria Math,Cambria Math_MSFontService,sans-serif" font-weight="400" font-size="14.6774" transform="matrix(1 0 0 1.00013 643.567 144)">𝑔</text><text font-family="Cambria Math,Cambria Math_MSFontService,sans-serif" font-weight="400" font-size="14.6774" transform="matrix(1 0 0 1.00013 652.826 144)">𝑡</text><text font-family="Cambria Math,Cambria Math_MSFontService,sans-serif" font-weight="400" font-size="10.7145" transform="matrix(1 0 0 1.00013 659.49 139)">2</text><text font-family="Cambria Math,Cambria Math_MSFontService,sans-serif" font-weight="400" font-size="14.6774" transform="matrix(1 0 0 1.00013 605.891 198)">𝑡</text><text font-family="Cambria Math,Cambria Math_MSFontService,sans-serif" font-weight="400" font-size="10.7145" transform="matrix(1 0 0 1.00013 612.555 193)">2</text><text font-family="Cambria Math,Cambria Math_MSFontService,sans-serif" font-weight="400" font-size="14.6774" transform="matrix(1 0 0 1.00013 623.408 198)">=</text><text font-family="Cambria Math,Cambria Math_MSFontService,sans-serif" font-weight="400" font-size="14.6774" transform="matrix(1 0 0 1.00013 638.491 187)">2ℎ</text><text font-family="Cambria Math,Cambria Math_MSFontService,sans-serif" font-weight="400" font-size="14.6774" transform="matrix(1 0 0 1.00013 642.16 208)">𝑔</text><path d="M35 29 52 29 52 30 35 30Z" fill-rule="evenodd" transform="matrix(1 0 0 1.00013 603.296 164.049)"/><text font-family="Cambria Math,Cambria Math_MSFontService,sans-serif" font-weight="400" font-size="14.6774" transform="matrix(1 0 0 1.00013 659.163 198)">→</text><text font-family="Cambria Math,Cambria Math_MSFontService,sans-serif" font-weight="400" font-size="14.6774" transform="matrix(1 0 0 1.00013 675.58 198)">𝑡</text><text font-family="Cambria Math,Cambria Math_MSFontService,sans-serif" font-weight="400" font-size="14.6774" transform="matrix(1 0 0 1.00013 685.852 198)">=</text><path d="M109 4 126 4 126 5 109.399 5 109.399 5.38953 107.966 5.38953 104.762 53.3707 104.096 53.3707 99.5235 44.9498 98.169 45.6737 97.8895 45.1648 100.47 43.796 104.125 50.5614 107.163 4.43635 109 4.43635Z" fill-rule="evenodd" transform="matrix(1 0 0 1.00013 603.296 164.049)"/><text font-family="Cambria Math,Cambria Math_MSFontService,sans-serif" font-weight="400" font-size="14.6774" transform="matrix(1 0 0 1.00013 712.155 187)">2ℎ</text><text font-family="Cambria Math,Cambria Math_MSFontService,sans-serif" font-weight="400" font-size="14.6774" transform="matrix(1 0 0 1.00013 715.824 208)">𝑔</text><path d="M109 29 126 29 126 30 109 30Z" fill-rule="evenodd" transform="matrix(1 0 0 1.00013 603.296 164.049)"/><text font-family="Cambria Math,Cambria Math_MSFontService,sans-serif" font-weight="400" font-size="14.6774" transform="matrix(1 0 0 1.00013 732.827 198)">=</text><path d="M154.138 2.89522 156.374 2.89522 156.374 3 175 3 175 4 156 4 156 3.8484 154.941 3.8484 151.737 51.8296 151.071 51.8296 146.498 43.4087 145.144 44.1325 144.864 43.6237 147.444 42.2548 151.099 49.0202Z" fill-rule="evenodd" transform="matrix(1 0 0 1.00013 603.296 164.049)"/><text font-family="Cambria Math,Cambria Math_MSFontService,sans-serif" font-weight="400" font-size="14.6774" transform="matrix(1 0 0 1.00013 760.504 187)">2ℎ</text><text font-family="Cambria Math,Cambria Math_MSFontService,sans-serif" font-weight="400" font-size="14.6774" transform="matrix(1 0 0 1.00013 759.13 208)">9</text><text font-family="Cambria Math,Cambria Math_MSFontService,sans-serif" font-weight="400" font-size="14.6774" transform="matrix(1 0 0 1.00013 767.301 208)">.</text><text font-family="Cambria Math,Cambria Math_MSFontService,sans-serif" font-weight="400" font-size="14.6774" transform="matrix(1 0 0 1.00013 770.303 208)">8</text><path d="M156 29 175 29 175 30 156 30Z" fill-rule="evenodd" transform="matrix(1 0 0 1.00013 603.296 164.049)"/></g></svg>