<svg width="350" height="227" xmlns="http://www.w3.org/2000/svg" xmlns:xlink="http://www.w3.org/1999/xlink" overflow="hidden"><g><rect x="0" y="0" width="350" height="226.95" fill="#FFFFFF"/><text font-family="Cambria Math,Cambria Math_MSFontService,sans-serif" font-weight="400" font-size="13.6367" transform="matrix(1 0 0 0.999782 124.761 169)">𝑿</text><text font-family="Cambria Math,Cambria Math_MSFontService,sans-serif" font-weight="400" font-size="13.6367" transform="matrix(1 0 0 0.999782 137.293 169)">⊔</text><text font-family="Cambria Math,Cambria Math_MSFontService,sans-serif" font-weight="400" font-size="13.6367" transform="matrix(1 0 0 0.999782 149.992 169)">𝒀</text><text font-family="Cambria Math,Cambria Math_MSFontService,sans-serif" font-weight="400" font-size="13.6367" transform="matrix(1 0 0 0.999782 62.419 19)">𝑿</text><text font-family="Cambria Math,Cambria Math_MSFontService,sans-serif" font-weight="400" font-size="13.6367" transform="matrix(1 0 0 0.999782 206.912 19)">𝒀</text><text font-family="Cambria Math,Cambria Math_MSFontService,sans-serif" font-weight="400" font-size="13.6367" transform="matrix(1 0 0 0.999782 82.4143 127)">𝒊𝒔</text><path d="M45.4541 62.3839 0.251127 1.45816 1.32271 0.663111 46.5257 61.5889ZM1.14371 10.3464-0.00184237-0.00248327 9.57042 4.09438C9.90916 4.23936 10.0662 4.63149 9.92125 4.97023 9.77627 5.30897 9.38414 5.46605 9.0454 5.32107L0.524588 1.67421 1.4502 0.987469 2.46992 10.1996C2.51046 10.5659 2.24644 10.8956 1.88021 10.9361 1.51399 10.9767 1.18424 10.7127 1.14371 10.3464Z" fill="#172C51" transform="matrix(1.00022 0 0 -1 160.5 152.467)"/><path d="M78.0359 90.0828 123.249 151.008 122.177 151.803 76.9641 90.8778ZM122.356 142.12 123.502 152.469 113.927 148.372C113.589 148.227 113.432 147.835 113.577 147.496 113.722 147.158 114.114 147.001 114.453 147.146L122.975 150.792 122.049 151.479 121.03 142.267C120.989 141.901 121.253 141.571 121.619 141.531 121.986 141.49 122.315 141.754 122.356 142.12Z" fill="#172C51"/><path d="M29.2539 2.80693C30.5498 3.14866 31.545 3.88649 32.2396 5.02041 32.9341 6.15433 33.2814 7.52236 33.2814 9.1245 33.2814 10.7311 32.9352 12.0991 32.2429 13.2286 31.5506 14.3581 30.5542 15.0937 29.2539 15.4354L29.0941 14.9228C30.1193 14.5811 30.8815 13.9065 31.3808 12.8991 31.8801 11.8916 32.1297 10.6112 32.1297 9.05793 32.1297 7.55787 31.8812 6.31188 31.3841 5.31998 30.8871 4.32807 30.1171 3.66126 29.0741 3.31952ZM6.9404 2.80693 7.12014 3.31952C6.08164 3.66126 5.31274 4.32807 4.81346 5.31998 4.31418 6.31188 4.06454 7.55787 4.06454 9.05793 4.06454 10.6112 4.31418 11.8916 4.81346 12.8991 5.31274 13.9065 6.07498 14.5811 7.10017 14.9228L6.9404 15.4354C5.64005 15.0937 4.64371 14.3581 3.95137 13.2286 3.25903 12.0991 2.91287 10.7311 2.91287 9.1245 2.91287 7.52236 3.26014 6.15433 3.9547 5.02041 4.64926 3.88649 5.64449 3.14866 6.9404 2.80693Z" fill-rule="evenodd" transform="matrix(1.00022 0 0 1 298.112 114.005)"/><text font-family="Cambria Math,Cambria Math_MSFontService,sans-serif" font-weight="400" font-size="13.6367" transform="matrix(1 0 0 0.999782 305.485 127)">𝟑</text><text font-family="Cambria Math,Cambria Math_MSFontService,sans-serif" font-weight="400" font-size="13.6367" transform="matrix(1 0 0 0.999782 313.66 127)">.</text><text font-family="Cambria Math,Cambria Math_MSFontService,sans-serif" font-weight="400" font-size="13.6367" transform="matrix(1 0 0 0.999782 318.765 127)">𝟒</text><text font-family="Cambria Math,Cambria Math_MSFontService,sans-serif" font-weight="400" font-size="13.6367" transform="matrix(1 0 0 0.999782 189.059 128)">𝒊𝒔</text><rect x="22.5" y="27.494" width="102" height="58.9871" stroke="#000000" stroke-width="1.00095" stroke-linejoin="round" stroke-miterlimit="10" fill="none"/><text font-family="Yu Gothic,Yu Gothic_MSFontService,sans-serif" font-weight="700" font-size="13.6367" transform="matrix(1 0 0 0.999782 31.3491 44)">飛行機の</text><text font-family="Yu Gothic,Yu Gothic_MSFontService,sans-serif" font-weight="700" font-size="13.6367" transform="matrix(1 0 0 0.999782 31.3491 60)">エコノミー</text><text font-family="Yu Gothic,Yu Gothic_MSFontService,sans-serif" font-weight="700" font-size="13.6367" transform="matrix(1 0 0 0.999782 31.3491 76)">クラスの座席</text><rect x="156.5" y="27.494" width="102" height="58.9871" stroke="#000000" stroke-width="1.00095" stroke-linejoin="round" stroke-miterlimit="10" fill="none"/><text font-family="Yu Gothic,Yu Gothic_MSFontService,sans-serif" font-weight="700" font-size="13.6367" transform="matrix(1 0 0 0.999782 165.502 44)">飛行機の</text><text font-family="Yu Gothic,Yu Gothic_MSFontService,sans-serif" font-weight="700" font-size="13.6367" transform="matrix(1 0 0 0.999782 165.502 60)">ファースト</text><text font-family="Yu Gothic,Yu Gothic_MSFontService,sans-serif" font-weight="700" font-size="13.6367" transform="matrix(1 0 0 0.999782 165.502 76)">クラスの座席</text><rect x="107.5" y="174.462" width="74" height="42.9905" stroke="#000000" stroke-width="1.00095" stroke-linejoin="round" stroke-miterlimit="10" fill="none"/><text font-family="Yu Gothic,Yu Gothic_MSFontService,sans-serif" font-weight="700" font-size="13.6367" transform="matrix(1 0 0 0.999782 116.374 192)">飛行機の</text><text font-family="Yu Gothic,Yu Gothic_MSFontService,sans-serif" font-weight="700" font-size="13.6367" transform="matrix(1 0 0 0.999782 116.374 208)">座席</text></g></svg>