<svg width="624" height="113" xmlns="http://www.w3.org/2000/svg" xmlns:xlink="http://www.w3.org/1999/xlink" overflow="hidden"><g><rect x="0" y="0" width="624" height="112.607" fill="#FFFFFF"/><rect x="17.5" y="43.3489" width="98.0001" height="26.9062" stroke="#000000" stroke-width="1.33405" stroke-linejoin="round" stroke-miterlimit="10" fill="none"/><text font-family="Yu Gothic,Yu Gothic_MSFontService,sans-serif" font-weight="700" font-size="14.6235" transform="matrix(1 0 0 0.996526 26.3988 61)">男性と女性</text><rect x="155.5" y="34.3802" width="159" height="44.8437" stroke="#000000" stroke-width="1.33405" stroke-linejoin="round" stroke-miterlimit="10" fill="none"/><text font-family="Yu Gothic,Yu Gothic_MSFontService,sans-serif" font-weight="700" font-size="14.6235" transform="matrix(1 0 0 0.996526 164.981 53)">食事の量</text><text font-family="Calibri,Calibri_MSFontService,sans-serif" font-weight="700" font-size="14.6235" transform="matrix(1 0 0 0.996526 227.014 53)">f</text><text font-family="Yu Gothic,Yu Gothic_MSFontService,sans-serif" font-weight="700" font-size="14.6235" transform="matrix(1 0 0 0.996526 235.019 53)">と、</text><text font-family="Calibri,Calibri_MSFontService,sans-serif" font-weight="700" font-size="14.6235" transform="matrix(1 0 0 0.996526 164.981 69)">f</text><text font-family="Yu Gothic,Yu Gothic_MSFontService,sans-serif" font-weight="700" font-size="14.6235" transform="matrix(1 0 0 0.996526 172.986 69)">を食べた子供</text><text font-family="Calibri,Calibri_MSFontService,sans-serif" font-weight="700" font-size="14.6235" transform="matrix(1 0 0 0.996526 264.368 69)">c</text><rect x="354.5" y="16.4427" width="187" height="80.7185" stroke="#000000" stroke-width="1.33405" stroke-linejoin="round" stroke-miterlimit="10" fill="none"/><text font-family="Yu Gothic,Yu Gothic_MSFontService,sans-serif" font-weight="700" font-size="14.6235" transform="matrix(1 0 0 0.996526 363.799 35)">三つ組</text><text font-family="Calibri,Calibri_MSFontService,sans-serif" font-weight="700" font-size="14.6235" transform="matrix(1 0 0 0.996526 411.158 35)">(p,a,j)</text><text font-family="Yu Gothic,Yu Gothic_MSFontService,sans-serif" font-weight="700" font-size="14.6235" transform="matrix(1 0 0 0.996526 446.51 35)">。</text><text font-family="Yu Gothic,Yu Gothic_MSFontService,sans-serif" font-weight="700" font-size="14.6235" transform="matrix(1 0 0 0.996526 363.799 52)">ここで</text><text font-family="Calibri,Calibri_MSFontService,sans-serif" font-weight="700" font-size="14.6235" transform="matrix(1 0 0 0.996526 411.158 52)">p</text><text font-family="Yu Gothic,Yu Gothic_MSFontService,sans-serif" font-weight="700" font-size="14.6235" transform="matrix(1 0 0 0.996526 422.331 52)">は論文、</text><text font-family="Calibri,Calibri_MSFontService,sans-serif" font-weight="700" font-size="14.6235" transform="matrix(1 0 0 0.996526 363.799 70)">a</text><text font-family="Yu Gothic,Yu Gothic_MSFontService,sans-serif" font-weight="700" font-size="14.6235" transform="matrix(1 0 0 0.996526 374.305 70)">は</text><text font-family="Calibri,Calibri_MSFontService,sans-serif" font-weight="700" font-size="14.6235" transform="matrix(1 0 0 0.996526 392.315 70)">p</text><text font-family="Yu Gothic,Yu Gothic_MSFontService,sans-serif" font-weight="700" font-size="14.6235" transform="matrix(1 0 0 0.996526 403.487 70)">の著者、</text><text font-family="Calibri,Calibri_MSFontService,sans-serif" font-weight="700" font-size="14.6235" transform="matrix(1 0 0 0.996526 363.799 87)">j</text><text font-family="Yu Gothic,Yu Gothic_MSFontService,sans-serif" font-weight="700" font-size="14.6235" transform="matrix(1 0 0 0.996526 370.803 87)">は</text><text font-family="Calibri,Calibri_MSFontService,sans-serif" font-weight="700" font-size="14.6235" transform="matrix(1 0 0 0.996526 388.813 87)">p</text><text font-family="Yu Gothic,Yu Gothic_MSFontService,sans-serif" font-weight="700" font-size="14.6235" transform="matrix(1 0 0 0.996526 399.985 87)">が発表された雑誌</text><path d="M31.923 2.99903C33.3082 3.3643 34.372 4.15294 35.1144 5.36496 35.8568 6.57698 36.228 8.03924 36.228 9.75172 36.228 11.469 35.858 12.9312 35.1179 14.1385 34.3779 15.3458 33.313 16.132 31.923 16.4973L31.7523 15.9494C32.8481 15.5841 33.6628 14.8631 34.1965 13.7863 34.7301 12.7094 34.997 11.3409 34.997 9.68057 34.997 8.07719 34.7313 6.74539 34.2 5.68516 33.6687 4.62494 32.8457 3.9122 31.7309 3.54693ZM7.93215 2.99903 8.12427 3.54693C7.01424 3.9122 6.19239 4.62494 5.65872 5.68516 5.12505 6.74539 4.85822 8.07719 4.85822 9.68057 4.85822 11.3409 5.12505 12.7094 5.65872 13.7863 6.19239 14.8631 7.00712 15.5841 8.10293 15.9494L7.93215 16.4973C6.54224 16.132 5.47727 15.3458 4.73725 14.1385 3.99723 12.9312 3.62722 11.469 3.62722 9.75172 3.62722 8.03924 3.99842 6.57698 4.74081 5.36496 5.4832 4.15294 6.54698 3.3643 7.93215 2.99903Z" fill-rule="evenodd" transform="matrix(1.00349 0 0 1 561.641 47.4282)"/><text font-family="Cambria Math,Cambria Math_MSFontService,sans-serif" font-weight="400" font-size="14.6235" transform="matrix(1 0 0 0.996526 570.085 61)">𝟐</text><text font-family="Cambria Math,Cambria Math_MSFontService,sans-serif" font-weight="400" font-size="14.6235" transform="matrix(1 0 0 0.996526 578.924 61)">.</text><text font-family="Cambria Math,Cambria Math_MSFontService,sans-serif" font-weight="400" font-size="14.6235" transform="matrix(1 0 0 0.996526 584.373 61)">𝟗</text></g></svg>