<svg width="378" height="113" xmlns="http://www.w3.org/2000/svg" xmlns:xlink="http://www.w3.org/1999/xlink" overflow="hidden"><g><rect x="0" y="0" width="378" height="112.668" fill="#FFFFFF"/><rect x="18.5001" y="46.3633" width="34" height="27.9176" stroke="#000000" stroke-width="1.33333" stroke-linejoin="round" stroke-miterlimit="10" fill="none"/><text font-family="Yu Gothic,Yu Gothic_MSFontService,sans-serif" font-weight="700" font-size="14.6235" transform="matrix(1 0 0 0.997059 27.3462 65)">人</text><rect x="133.5" y="46.3633" width="64" height="27.9176" stroke="#000000" stroke-width="1.33333" stroke-linejoin="round" stroke-miterlimit="10" fill="none"/><text font-family="Yu Gothic,Yu Gothic_MSFontService,sans-serif" font-weight="700" font-size="14.6235" transform="matrix(1 0 0 0.997059 142.639 65)">子ども</text><path d="M57.5001 58.6603 126.18 58.6603 126.18 59.9898 57.5001 59.9898ZM118.516 54.098 127.503 59.3251 118.516 64.5522C118.198 64.7371 117.79 64.63 117.604 64.3129 117.419 63.9958 117.526 63.5888 117.844 63.4038L125.844 58.7509 125.844 59.8992 117.844 55.2463C117.526 55.0613 117.419 54.6543 117.604 54.3372 117.79 54.0201 118.198 53.913 118.516 54.098Z" fill="#172C51"/><text font-family="Cambria Math,Cambria Math_MSFontService,sans-serif" font-weight="400" font-size="14.6235" transform="matrix(1 0 0 0.997059 77.6708 51)">𝒉𝒂𝒔</text><path d="M51.0004 3.00063C52.3863 3.36609 53.4506 4.15516 54.1934 5.36783 54.9362 6.5805 55.3076 8.04353 55.3076 9.75694 55.3076 11.4751 54.9374 12.9381 54.197 14.146 53.4565 15.354 52.391 16.1407 51.0004 16.5061L50.8295 15.9579C51.9259 15.5925 52.741 14.871 53.275 13.7936 53.8089 12.7162 54.0759 11.3469 54.0759 9.68574 54.0759 8.08151 53.8101 6.74899 53.2786 5.6882 52.747 4.62741 51.9235 3.91429 50.8081 3.54882ZM7.97502 3.00063 8.16724 3.54882C7.05662 3.91429 6.23433 4.62741 5.70037 5.6882 5.16642 6.74899 4.89944 8.08151 4.89944 9.68574 4.89944 11.3469 5.16642 12.7162 5.70037 13.7936 6.23433 14.871 7.0495 15.5925 8.14588 15.9579L7.97502 16.5061C6.58436 16.1407 5.51883 15.354 4.77841 14.146 4.03799 12.9381 3.66779 11.4751 3.66779 9.75694 3.66779 8.04353 4.03918 6.5805 4.78197 5.36783 5.52476 4.15516 6.58911 3.36609 7.97502 3.00063Z" fill-rule="evenodd" transform="matrix(1.00295 0 0 1 289.916 50.8794)"/><text font-family="Cambria Math,Cambria Math_MSFontService,sans-serif" font-weight="400" font-size="14.6235" transform="matrix(1 0 0 0.997059 298.396 65)">𝟐</text><text font-family="Cambria Math,Cambria Math_MSFontService,sans-serif" font-weight="400" font-size="14.6235" transform="matrix(1 0 0 0.997059 307.229 65)">.</text><text font-family="Cambria Math,Cambria Math_MSFontService,sans-serif" font-weight="400" font-size="14.6235" transform="matrix(1 0 0 0.997059 312.676 65)">𝟏𝟐</text><text font-family="Cambria Math,Cambria Math_MSFontService,sans-serif" font-weight="400" font-size="14.6235" transform="matrix(1 0 0 0.997059 333.603 65)">∗</text></g></svg>