<svg width="416" height="284" xmlns="http://www.w3.org/2000/svg" xmlns:xlink="http://www.w3.org/1999/xlink" overflow="hidden"><defs><clipPath id="clip0"><rect x="0" y="0" width="416" height="284"/></clipPath></defs><g clip-path="url(#clip0)"><rect x="0" y="0" width="416" height="284.273" fill="#FFFFFF"/><path d="M59.0007 129.55 59.531 118.832 61.0986 108.349 63.648 98.2297 67.1273 88.5279 71.4843 79.2971 76.6671 70.5904 82.6236 62.4608 89.3022 54.9613 96.651 48.1447 104.618 42.0641 113.153 36.7726 122.202 32.3235 131.714 28.7703 141.637 26.1665 151.917 24.5653 159.454 24.1768 159.609 27.1782 152.148 27.5626 152.302 27.5467 142.174 29.1242 142.324 29.093 132.549 31.6582 132.693 31.6125 123.322 35.113 123.459 35.0539 114.543 39.4375 114.671 39.3662 106.261 44.5806 106.381 44.4981 98.5287 50.4908 98.6389 50.398 91.3955 57.1168 91.4957 57.0145 84.9125 64.4071 85.0024 64.2959 79.1305 72.3098 79.2096 72.1903 74.1005 80.7734 74.1682 80.6461 69.873 89.746 69.9286 89.6117 66.4987 99.176 66.5414 99.0357 64.0279 109.012 64.057 108.867 62.5113 119.203 62.526 119.055 61.9994 129.699ZM150.955 19.5536 162.507 25.5242 151.628 32.6507C150.935 33.1051 150.004 32.9106 149.55 32.2162 149.096 31.5219 149.291 30.5905 149.984 30.1361L158.709 24.4202 158.843 27.0127 149.577 22.2239C148.841 21.8432 148.552 20.9368 148.932 20.1994 149.313 19.462 150.218 19.1729 150.955 19.5536Z" fill="#07090A"/><path d="M255.576 25.0247 266.082 25.5609 276.36 27.1465 286.282 29.725 295.793 33.2437 304.842 37.6497 313.376 42.8902 321.344 48.9124 328.693 55.6638 335.372 63.0919 341.329 71.1444 346.513 79.7688 350.871 88.9127 354.351 98.5234 356.901 108.548 358.469 118.933 358.851 126.578 355.852 126.728 355.474 119.158 355.489 119.308 353.943 109.071 353.973 109.217 351.46 99.3367 351.503 99.4779 348.073 90.0056 348.129 90.1406 343.834 81.1283 343.903 81.2559 338.794 72.7554 338.874 72.875 333.002 64.9381 333.092 65.0491 326.509 57.7276 326.61 57.8295 319.366 51.1753 319.477 51.2673 311.625 45.3322 311.744 45.4139 303.334 40.2497 303.463 40.3201 294.546 35.9787 294.683 36.0369 285.311 32.57 285.454 32.6149 275.679 30.0744 275.828 30.1051 265.7 28.5428 265.852 28.5584 255.424 28.0261ZM363.482 118.077 357.5 129.631 350.397 118.732C349.944 118.037 350.139 117.106 350.834 116.652 351.528 116.199 352.458 116.395 352.911 117.09L358.609 125.832 356.019 125.961 360.817 116.694C361.198 115.957 362.104 115.67 362.84 116.051 363.576 116.433 363.864 117.34 363.482 118.077Z" fill="#07090A"/><path d="M356.999 155.724 356.474 166.339 354.922 176.723 352.397 186.746 348.951 196.356 344.636 205.5 339.504 214.124 333.605 222.176 326.991 229.605 319.713 236.357 311.823 242.38 303.371 247.621 294.409 252.028 284.988 255.548 275.162 258.127 264.981 259.713 257.546 260.096 257.391 257.095 264.749 256.715 264.596 256.731 274.624 255.169 274.474 255.2 284.154 252.66 284.009 252.706 293.289 249.239 293.152 249.298 301.981 244.956 301.852 245.028 310.179 239.863 310.06 239.946 317.835 234.011 317.725 234.104 324.897 227.449 324.797 227.552 331.316 220.23 331.226 220.341 337.04 212.405 336.961 212.524 342.02 204.024 341.952 204.151 346.206 195.138 346.15 195.273 349.546 185.8 349.504 185.941 351.992 176.06 351.963 176.205 353.494 165.968 353.479 166.116 354.001 155.575ZM266.045 264.719 254.493 258.749 265.371 251.622C266.065 251.168 266.996 251.362 267.45 252.057 267.904 252.751 267.709 253.682 267.016 254.137L258.291 259.853 258.157 257.26 267.423 262.049C268.159 262.43 268.448 263.336 268.068 264.073 267.687 264.811 266.782 265.1 266.045 264.719Z" fill="#07090A"/><path d="M162.424 261.25 151.918 260.714 141.64 259.128 131.718 256.55 122.207 253.031 113.158 248.625 104.624 243.385 96.6565 237.362 89.3073 230.611 82.6281 223.183 76.6708 215.13 71.4872 206.506 67.1293 197.362 63.6492 187.751 61.0991 177.727 59.5311 167.342 59.1491 159.697 62.1478 159.547 62.526 167.117 62.511 166.967 64.0566 177.204 64.0271 177.058 66.5405 186.938 66.4971 186.797 69.927 196.269 69.8706 196.134 74.1658 205.147 74.0972 205.019 79.2064 213.519 79.1264 213.4 84.9983 221.337 84.9077 221.226 91.4909 228.547 91.3902 228.445 98.6336 235.1 98.5232 235.007 106.375 240.943 106.256 240.861 114.666 246.025 114.537 245.955 123.454 250.296 123.317 250.238 132.689 253.705 132.546 253.66 142.321 256.2 142.172 256.17 152.3 257.732 152.148 257.716 162.576 258.249ZM54.5178 168.198 60.4997 156.643 67.6033 167.543C68.0563 168.238 67.8606 169.169 67.1662 169.622 66.4718 170.076 65.5417 169.88 65.0887 169.185L59.3912 160.443 61.9813 160.313 57.1835 169.581C56.8021 170.317 55.8961 170.605 55.16 170.223 54.4238 169.842 54.1363 168.935 54.5178 168.198Z" fill="#07090A"/><rect x="160" y="11.0106" width="93.9999" height="29.0279" stroke="#060808" stroke-width="2.0016" stroke-miterlimit="8" fill="none"/><text fill="#07090A" font-family="Yu Gothic,Yu Gothic_MSFontService,sans-serif" font-weight="700" font-size="14.6925" transform="matrix(1 0 0 1.00096 192.731 31)">観測</text><rect x="305" y="128.123" width="102" height="28.0269" stroke="#060808" stroke-width="2.0016" stroke-miterlimit="8" fill="none"/><text fill="#07090A" font-family="Yu Gothic,Yu Gothic_MSFontService,sans-serif" font-weight="700" font-size="14.6925" transform="matrix(1 0 0 1.00096 341.15 148)">仮説</text><rect x="162" y="244.235" width="91.9999" height="28.0269" stroke="#060808" stroke-width="2.0016" stroke-miterlimit="8" fill="none"/><text fill="#07090A" font-family="Yu Gothic,Yu Gothic_MSFontService,sans-serif" font-weight="700" font-size="14.6925" transform="matrix(1 0 0 1.00096 192.93 264)">予測</text><rect x="8.99997" y="128.123" width="101" height="28.0269" stroke="#060808" stroke-width="2.0016" stroke-miterlimit="8" fill="none"/><text fill="#07090A" font-family="Yu Gothic,Yu Gothic_MSFontService,sans-serif" font-weight="700" font-size="14.6925" transform="matrix(1 0 0 1.00096 44.8509 148)">実験</text><text fill="#07090A" font-family="Yu Gothic,Yu Gothic_MSFontService,sans-serif" font-weight="700" font-size="14.6925" transform="matrix(1 0 0 1.00096 245.507 72)">観測した人</text><text fill="#07090A" font-family="Yu Gothic,Yu Gothic_MSFontService,sans-serif" font-weight="700" font-size="14.6925" transform="matrix(1 0 0 1.00096 245.507 89)">に解析され</text><text fill="#07090A" font-family="Yu Gothic,Yu Gothic_MSFontService,sans-serif" font-weight="700" font-size="14.6925" transform="matrix(1 0 0 1.00096 245.507 107)">る</text><text fill="#07090A" font-family="Yu Gothic,Yu Gothic_MSFontService,sans-serif" font-weight="700" font-size="14.6925" transform="matrix(1 0 0 1.00096 260.185 107)">と</text><text fill="#07090A" font-family="Yu Gothic,Yu Gothic_MSFontService,sans-serif" font-weight="700" font-size="14.6925" transform="matrix(1 0 0 1.00096 274.864 107)">･･･</text><text fill="#07090A" font-family="Yu Gothic,Yu Gothic_MSFontService,sans-serif" font-weight="700" font-size="14.6925" transform="matrix(1 0 0 1.00096 258.253 190)">仮説</text><text fill="#07090A" font-family="Yu Gothic,Yu Gothic_MSFontService,sans-serif" font-weight="700" font-size="14.6925" transform="matrix(1 0 0 1.00096 287.61 190)">を立てた</text><text fill="#07090A" font-family="Yu Gothic,Yu Gothic_MSFontService,sans-serif" font-weight="700" font-size="14.6925" transform="matrix(1 0 0 1.00096 243.574 207)">人により</text><text fill="#07090A" font-family="Yu Gothic,Yu Gothic_MSFontService,sans-serif" font-weight="700" font-size="14.6925" transform="matrix(1 0 0 1.00096 302.288 207)">解析</text><text fill="#07090A" font-family="Yu Gothic,Yu Gothic_MSFontService,sans-serif" font-weight="700" font-size="14.6925" transform="matrix(1 0 0 1.00096 243.574 225)">される</text><text fill="#07090A" font-family="Yu Gothic,Yu Gothic_MSFontService,sans-serif" font-weight="700" font-size="14.6925" transform="matrix(1 0 0 1.00096 287.61 225)">と</text><text fill="#07090A" font-family="Yu Gothic,Yu Gothic_MSFontService,sans-serif" font-weight="700" font-size="14.6925" transform="matrix(1 0 0 1.00096 302.288 225)">･･･</text><text fill="#07090A" font-family="Yu Gothic,Yu Gothic_MSFontService,sans-serif" font-weight="700" font-size="14.6925" transform="matrix(1 0 0 1.00096 76.0907 187)">予測によ</text><text fill="#07090A" font-family="Yu Gothic,Yu Gothic_MSFontService,sans-serif" font-weight="700" font-size="14.6925" transform="matrix(1 0 0 1.00096 134.804 187)">る実験</text><text fill="#07090A" font-family="Yu Gothic,Yu Gothic_MSFontService,sans-serif" font-weight="700" font-size="14.6925" transform="matrix(1 0 0 1.00096 90.7691 204)">仕様に</text><text fill="#07090A" font-family="Yu Gothic,Yu Gothic_MSFontService,sans-serif" font-weight="700" font-size="14.6925" transform="matrix(1 0 0 1.00096 134.804 204)">動機付け</text><text fill="#07090A" font-family="Yu Gothic,Yu Gothic_MSFontService,sans-serif" font-weight="700" font-size="14.6925" transform="matrix(1 0 0 1.00096 105.448 222)">られる</text><text fill="#07090A" font-family="Yu Gothic,Yu Gothic_MSFontService,sans-serif" font-weight="700" font-size="14.6925" transform="matrix(1 0 0 1.00096 149.483 222)">と</text><text fill="#07090A" font-family="Yu Gothic,Yu Gothic_MSFontService,sans-serif" font-weight="700" font-size="14.6925" transform="matrix(1 0 0 1.00096 164.161 222)">･･･</text><text fill="#07090A" font-family="Yu Gothic,Yu Gothic_MSFontService,sans-serif" font-weight="700" font-size="14.6925" transform="matrix(1 0 0 1.00096 89.2543 83)">実験を実施</text><text fill="#07090A" font-family="Yu Gothic,Yu Gothic_MSFontService,sans-serif" font-weight="700" font-size="14.6925" transform="matrix(1 0 0 1.00096 82.5823 100)">した</text><text fill="#07090A" font-family="Yu Gothic,Yu Gothic_MSFontService,sans-serif" font-weight="700" font-size="14.6925" transform="matrix(1 0 0 1.00096 111.939 100)">結果</text><text fill="#07090A" font-family="Yu Gothic,Yu Gothic_MSFontService,sans-serif" font-weight="700" font-size="14.6925" transform="matrix(1 0 0 1.00096 141.296 100)">･･･</text></g></svg>