<svg width="389" height="268" xmlns="http://www.w3.org/2000/svg" xmlns:xlink="http://www.w3.org/1999/xlink" overflow="hidden"><g><rect x="0" y="0" width="389" height="267.896" fill="#FFFFFF"/><text font-family="Calibri,Calibri_MSFontService,sans-serif" font-weight="700" font-size="14.6484" transform="matrix(1 0 0 0.999614 44.3139 19)">X</text><text font-family="Calibri,Calibri_MSFontService,sans-serif" font-weight="700" font-size="14.6484" transform="matrix(1 0 0 0.999614 194.225 19)">Y</text><path d="M6.50005 144.944C6.50005 83.9401 25.3041 34.4867 48.5 34.4867 71.696 34.4867 90.5 83.9401 90.5 144.944 90.5 205.948 71.696 255.401 48.5 255.401 25.3041 255.401 6.50005 205.948 6.50005 144.944Z" stroke="#172C51" stroke-width="1.33219" stroke-miterlimit="8" fill="none" fill-rule="evenodd"/><path d="M46.5 69.4732C46.5 66.7128 48.7386 64.4751 51.5 64.4751 54.2615 64.4751 56.5 66.7128 56.5 69.4732 56.5 72.2335 54.2615 74.4713 51.5 74.4713 48.7386 74.4713 46.5 72.2335 46.5 69.4732Z" stroke="#172C51" stroke-width="1.33219" stroke-miterlimit="8" fill-rule="evenodd"/><path d="M46.5 136.447C46.5 133.687 48.7386 131.449 51.5 131.449 54.2615 131.449 56.5 133.687 56.5 136.447 56.5 139.208 54.2615 141.445 51.5 141.445 48.7386 141.445 46.5 139.208 46.5 136.447Z" stroke="#172C51" stroke-width="1.33219" stroke-miterlimit="8" fill-rule="evenodd"/><path d="M46.5 207.42C46.5 204.659 48.7386 202.422 51.5 202.422 54.2615 202.422 56.5 204.659 56.5 207.42 56.5 210.18 54.2615 212.418 51.5 212.418 48.7386 212.418 46.5 210.18 46.5 207.42Z" stroke="#172C51" stroke-width="1.33219" stroke-miterlimit="8" fill-rule="evenodd"/><path d="M157.5 145.944C157.5 84.9397 176.528 35.4863 200 35.4863 223.472 35.4863 242.5 84.9397 242.5 145.944 242.5 206.947 223.472 256.401 200 256.401 176.528 256.401 157.5 206.947 157.5 145.944Z" stroke="#172C51" stroke-width="1.33219" stroke-miterlimit="8" fill="none" fill-rule="evenodd"/><text font-family="Cambria Math,Cambria Math_MSFontService,sans-serif" font-weight="400" font-size="14.6484" transform="matrix(1 0 0 0.999614 26.6765 71)">𝒙</text><text font-family="Cambria Math,Cambria Math_MSFontService,sans-serif" font-weight="400" font-size="10.6934" transform="matrix(1 0 0 0.999614 35.1692 74)">𝟏</text><text font-family="Cambria Math,Cambria Math_MSFontService,sans-serif" font-weight="400" font-size="14.6484" transform="matrix(1 0 0 0.999614 26.6765 139)">𝒙</text><text font-family="Cambria Math,Cambria Math_MSFontService,sans-serif" font-weight="400" font-size="10.6934" transform="matrix(1 0 0 0.999614 35.1692 142)">𝟐</text><text font-family="Cambria Math,Cambria Math_MSFontService,sans-serif" font-weight="400" font-size="14.6484" transform="matrix(1 0 0 0.999614 26.6765 209)">𝒙</text><text font-family="Cambria Math,Cambria Math_MSFontService,sans-serif" font-weight="400" font-size="10.6934" transform="matrix(1 0 0 0.999614 35.1692 212)">𝟑</text><path d="M192.5 58.4774C192.5 55.717 194.962 53.4793 198 53.4793 201.038 53.4793 203.5 55.717 203.5 58.4774 203.5 61.2378 201.038 63.4755 198 63.4755 194.962 63.4755 192.5 61.2378 192.5 58.4774Z" stroke="#172C51" stroke-width="1.33219" stroke-miterlimit="8" fill-rule="evenodd"/><path d="M192.5 111.957C192.5 108.92 194.962 106.459 198 106.459 201.038 106.459 203.5 108.92 203.5 111.957 203.5 114.993 201.038 117.455 198 117.455 194.962 117.455 192.5 114.993 192.5 111.957Z" stroke="#172C51" stroke-width="1.33219" stroke-miterlimit="8" fill-rule="evenodd"/><path d="M192.5 167.435C192.5 164.675 194.962 162.437 198 162.437 201.038 162.437 203.5 164.675 203.5 167.435 203.5 170.196 201.038 172.433 198 172.433 194.962 172.433 192.5 170.196 192.5 167.435Z" stroke="#172C51" stroke-width="1.33219" stroke-miterlimit="8" fill-rule="evenodd"/><path d="M194.5 221.414C194.5 218.654 196.739 216.416 199.5 216.416 202.261 216.416 204.5 218.654 204.5 221.414 204.5 224.175 202.261 226.412 199.5 226.412 196.739 226.412 194.5 224.175 194.5 221.414Z" stroke="#172C51" stroke-width="1.33219" stroke-miterlimit="8" fill-rule="evenodd"/><text font-family="Cambria Math,Cambria Math_MSFontService,sans-serif" font-weight="400" font-size="14.6484" transform="matrix(1 0 0 0.999614 192.91 79)">𝒚</text><text font-family="Cambria Math,Cambria Math_MSFontService,sans-serif" font-weight="400" font-size="10.6934" transform="matrix(1 0 0 0.999614 201.736 82)">𝟏</text><text font-family="Cambria Math,Cambria Math_MSFontService,sans-serif" font-weight="400" font-size="14.6484" transform="matrix(1 0 0 0.999614 192.91 131)">𝒚</text><text font-family="Cambria Math,Cambria Math_MSFontService,sans-serif" font-weight="400" font-size="10.6934" transform="matrix(1 0 0 0.999614 201.736 134)">𝟐</text><text font-family="Cambria Math,Cambria Math_MSFontService,sans-serif" font-weight="400" font-size="14.6484" transform="matrix(1 0 0 0.999614 190.646 186)">𝒚</text><text font-family="Cambria Math,Cambria Math_MSFontService,sans-serif" font-weight="400" font-size="10.6934" transform="matrix(1 0 0 0.999614 199.472 189)">𝟑</text><text font-family="Cambria Math,Cambria Math_MSFontService,sans-serif" font-weight="400" font-size="14.6484" transform="matrix(1 0 0 0.999614 192.199 240)">𝒚</text><text font-family="Cambria Math,Cambria Math_MSFontService,sans-serif" font-weight="400" font-size="10.6934" transform="matrix(1 0 0 0.999614 201.025 243)">𝟒</text><path d="M0.0542643-0.663624 129.8 9.94562 129.691 11.2729-0.0542643 0.663624ZM128.744 6.51899 136.382 11.1519 128.093 14.4825Z" transform="matrix(1.00039 0 0 -1 56.5 69.6293)"/><text font-family="Calibri,Calibri_MSFontService,sans-serif" font-weight="700" font-size="14.6484" transform="matrix(1 0 0 0.999614 333.839 20)">Z</text><path d="M297.5 146.943C297.5 85.9393 316.304 36.4859 339.5 36.4859 362.696 36.4859 381.5 85.9393 381.5 146.943 381.5 207.947 362.696 257.4 339.5 257.4 316.304 257.4 297.5 207.947 297.5 146.943Z" stroke="#172C51" stroke-width="1.33219" stroke-miterlimit="8" fill="none" fill-rule="evenodd"/><path d="M335.5 81.4685C335.5 78.7082 337.739 76.4705 340.5 76.4705 343.261 76.4705 345.5 78.7082 345.5 81.4685 345.5 84.2289 343.261 86.4666 340.5 86.4666 337.739 86.4666 335.5 84.2289 335.5 81.4685Z" stroke="#172C51" stroke-width="1.33219" stroke-miterlimit="8" fill-rule="evenodd"/><path d="M335.5 189.927C335.5 186.89 337.739 184.429 340.5 184.429 343.261 184.429 345.5 186.89 345.5 189.927 345.5 192.963 343.261 195.424 340.5 195.424 337.739 195.424 335.5 192.963 335.5 189.927Z" stroke="#172C51" stroke-width="1.33219" stroke-miterlimit="8" fill-rule="evenodd"/><text font-family="Cambria Math,Cambria Math_MSFontService,sans-serif" font-weight="400" font-size="14.6484" transform="matrix(1 0 0 0.999614 334.101 117)">𝒛</text><text font-family="Cambria Math,Cambria Math_MSFontService,sans-serif" font-weight="400" font-size="10.6934" transform="matrix(1 0 0 0.999614 341.595 120)">𝟏</text><text font-family="Cambria Math,Cambria Math_MSFontService,sans-serif" font-weight="400" font-size="14.6484" transform="matrix(1 0 0 0.999614 334.101 208)">𝒛</text><text font-family="Cambria Math,Cambria Math_MSFontService,sans-serif" font-weight="400" font-size="10.6934" transform="matrix(1 0 0 0.999614 341.595 211)">𝟐</text><path d="M203.613 57.8213 329.553 79.5915 329.326 80.9037 203.386 59.1335ZM328.808 76.0841 336.003 81.3822 327.446 83.9573Z"/><path d="M0.10939-0.656791 131.725 21.2641 131.506 22.5777-0.10939 0.656791ZM130.959 17.7614 138.184 23.0148 129.646 25.6429Z" transform="matrix(1.00039 0 0 -1 54.5 134.472)"/><path d="M203.812 110.869 335.582 180.629 334.959 181.806 203.188 112.045ZM335.964 177.064 341.157 184.334 332.223 184.125Z"/><path d="M0.33448-0.575729 130.047 74.7832 129.378 75.9347-0.33448 0.575729ZM130.568 71.2356 135.47 78.7038 126.555 78.1444Z" transform="matrix(1.00039 0 0 -1 201.5 164.171)"/><path d="M56.5663 206.757 187.761 219.873 187.628 221.198 56.4338 208.082ZM186.767 216.428 194.323 221.198 185.971 224.378Z"/><path d="M0.154158-0.647747 124.741 29.0028 124.433 30.2983-0.154158 0.647747ZM124.217 25.4558 131.065 31.1922 122.367 33.2288Z" transform="matrix(1.00039 0 0 -1 204.5 221.619)"/></g></svg>