<svg width="401" height="227" xmlns="http://www.w3.org/2000/svg" xmlns:xlink="http://www.w3.org/1999/xlink" overflow="hidden"><g><rect x="0" y="0" width="401" height="226.978" fill="#FFFFFF"/><rect x="96.5" y="56.4945" width="107" height="44.9957" stroke="#000000" stroke-width="1.33444" stroke-linejoin="round" stroke-miterlimit="10" fill="none"/><text font-family="Yu Gothic,Yu Gothic_MSFontService,sans-serif" font-weight="700" font-size="14.6774" transform="matrix(1 0 0 0.999903 106.04 75)">ペア</text><path d="M58.7086 3.02028C60.1035 3.38814 61.1749 4.18237 61.9225 5.40299 62.6702 6.6236 63.044 8.09622 63.044 9.82084 63.044 11.5502 62.6714 13.0229 61.9261 14.2387 61.1808 15.4545 60.1083 16.2464 58.7086 16.6142L58.5366 16.0624C59.6401 15.6946 60.4606 14.9684 60.9981 13.884 61.5355 12.7995 61.8043 11.4213 61.8043 9.74918 61.8043 8.13444 61.5367 6.79319 61.0017 5.72546 60.4666 4.65772 59.6377 3.93992 58.5151 3.57207ZM34.9802 3.02028 35.1737 3.57207C34.0558 3.93992 33.2281 4.65772 32.6907 5.72546 32.1532 6.79319 31.8845 8.13444 31.8845 9.74918 31.8845 11.4213 32.1532 12.7995 32.6907 13.884 33.2281 14.9684 34.0486 15.6946 35.1522 16.0624L34.9802 16.6142C33.5805 16.2464 32.5079 15.4545 31.7627 14.2387 31.0174 13.0229 30.6448 11.5502 30.6448 9.82084 30.6448 8.09622 31.0186 6.6236 31.7663 5.40299 32.5139 4.18237 33.5852 3.38814 34.9802 3.02028Z" fill-rule="evenodd" transform="matrix(1.0001 0 0 1 106.04 60.9216)"/><text font-family="Cambria Math,Cambria Math_MSFontService,sans-serif" font-weight="400" font-size="14.6774" transform="matrix(1 0 0 0.999903 141.49 75)">𝒙</text><text font-family="Cambria Math,Cambria Math_MSFontService,sans-serif" font-weight="400" font-size="14.6774" transform="matrix(1 0 0 0.999903 149.997 75)">,</text><text font-family="Cambria Math,Cambria Math_MSFontService,sans-serif" font-weight="400" font-size="14.6774" transform="matrix(1 0 0 0.999903 155.448 75)">𝒚</text><text font-family="Calibri,Calibri_MSFontService,sans-serif" font-weight="700" font-size="14.6774" transform="matrix(1 0 0 0.999903 170.381 75)">,</text><text font-family="Cambria Math,Cambria Math_MSFontService,sans-serif" font-weight="400" font-size="14.6774" transform="matrix(1 0 0 0.999903 106.04 92)">𝒙</text><text font-family="Yu Gothic,Yu Gothic_MSFontService,sans-serif" font-weight="700" font-size="14.6774" transform="matrix(1 0 0 0.999903 117.884 92)">と</text><text font-family="Cambria Math,Cambria Math_MSFontService,sans-serif" font-weight="400" font-size="14.6774" transform="matrix(1 0 0 0.999903 135.899 92)">𝒚</text><text font-family="Yu Gothic,Yu Gothic_MSFontService,sans-serif" font-weight="700" font-size="14.6774" transform="matrix(1 0 0 0.999903 148.075 92)">は整数</text><rect x="37.5" y="157.485" width="49" height="27.9973" stroke="#000000" stroke-width="1.33444" stroke-linejoin="round" stroke-miterlimit="10" fill="none"/><text font-family="Yu Gothic,Yu Gothic_MSFontService,sans-serif" font-weight="700" font-size="14.6774" transform="matrix(1 0 0 0.999903 46.2009 176)">整数</text><rect x="214.5" y="157.485" width="49" height="27.9973" stroke="#000000" stroke-width="1.33444" stroke-linejoin="round" stroke-miterlimit="10" fill="none"/><text font-family="Yu Gothic,Yu Gothic_MSFontService,sans-serif" font-weight="700" font-size="14.6774" transform="matrix(1 0 0 0.999903 223.435 176)">整数</text><path d="M128.972 109.961 87.9061 151.023 86.9625 150.079 128.028 109.018ZM96.5681 148.838 86.4978 151.487 89.1479 141.418C89.2417 141.062 89.6066 140.849 89.963 140.943 90.3193 141.037 90.5322 141.401 90.4384 141.758L88.0794 150.721 87.2644 149.906 96.2285 147.547C96.5849 147.454 96.9498 147.666 97.0436 148.023 97.1374 148.379 96.9245 148.744 96.5681 148.838Z" fill="#172C51"/><path d="M43.4675 0.47175 1.40589 42.5335 0.462389 41.59 42.524-0.47175ZM10.0671 40.3482-0.00218644 42.9981 2.64761 32.9287C2.74138 32.5724 3.10626 32.3596 3.46259 32.4533 3.81892 32.5471 4.03176 32.912 3.93799 33.2683L1.57926 42.2316 0.764277 41.4166 9.72754 39.0578C10.0839 38.9641 10.4487 39.1769 10.5425 39.5332 10.6363 39.8896 10.4234 40.2545 10.0671 40.3482Z" fill="#172C51" transform="matrix(-1.0001 0 0 1 215.5 107.49)"/><text font-family="Cambria Math,Cambria Math_MSFontService,sans-serif" font-weight="400" font-size="14.6774" transform="matrix(1 0 0 0.999903 147.72 49)">𝑨</text><text font-family="Cambria Math,Cambria Math_MSFontService,sans-serif" font-weight="400" font-size="14.6774" transform="matrix(1 0 0 0.999903 55.517 153)">𝑩</text><text font-family="Cambria Math,Cambria Math_MSFontService,sans-serif" font-weight="400" font-size="14.6774" transform="matrix(1 0 0 0.999903 233.349 153)">𝑩</text><text font-family="Cambria Math,Cambria Math_MSFontService,sans-serif" font-weight="400" font-size="14.6774" transform="matrix(1 0 0 0.999903 95.7092 128)">𝒙</text><text font-family="Cambria Math,Cambria Math_MSFontService,sans-serif" font-weight="400" font-size="14.6774" transform="matrix(1 0 0 0.999903 200.491 127)">𝒚</text><rect x="19.5" y="21.4979" width="267" height="184.982" stroke="#172C51" stroke-width="1.33444" stroke-miterlimit="8" fill="none"/><path d="M40.8821 3.02028C42.2771 3.38814 43.3484 4.18237 44.0961 5.40299 44.8437 6.6236 45.2176 8.09622 45.2176 9.82084 45.2176 11.5502 44.8449 13.0229 44.0997 14.2387 43.3544 15.4545 42.2819 16.2464 40.8821 16.6142L40.7101 16.0624C41.8137 15.6946 42.6342 14.9684 43.1717 13.884 43.7091 12.7995 43.9779 11.4213 43.9779 9.74918 43.9779 8.13444 43.7103 6.79319 43.1753 5.72546 42.6402 4.65772 41.8113 3.93992 40.6886 3.57207ZM7.98039 3.02028 8.17387 3.57207C7.05597 3.93992 6.2283 4.65772 5.69085 5.72546 5.1534 6.79319 4.88467 8.13444 4.88467 9.74918 4.88467 11.4213 5.1534 12.7995 5.69085 13.884 6.2283 14.9684 7.04881 15.6946 8.15238 16.0624L7.98039 16.6142C6.58063 16.2464 5.50811 15.4545 4.76285 14.2387 4.01758 13.0229 3.64495 11.5502 3.64495 9.82084 3.64495 8.09622 4.01878 6.6236 4.76643 5.40299 5.51409 4.18237 6.58541 3.38814 7.98039 3.02028Z" fill-rule="evenodd" transform="matrix(1.0001 0 0 1 326.441 98.5135)"/><text font-family="Cambria Math,Cambria Math_MSFontService,sans-serif" font-weight="400" font-size="14.6774" transform="matrix(1 0 0 0.999903 334.888 113)">𝟐</text><text font-family="Cambria Math,Cambria Math_MSFontService,sans-serif" font-weight="400" font-size="14.6774" transform="matrix(1 0 0 0.999903 343.728 113)">.</text><text font-family="Cambria Math,Cambria Math_MSFontService,sans-serif" font-weight="400" font-size="14.6774" transform="matrix(1 0 0 0.999903 349.179 113)">𝟏𝟓</text></g></svg>