<svg width="284" height="113" xmlns="http://www.w3.org/2000/svg" xmlns:xlink="http://www.w3.org/1999/xlink" overflow="hidden"><defs><clipPath id="clip0"><rect x="0" y="0" width="284" height="113"/></clipPath></defs><g clip-path="url(#clip0)"><rect x="0" y="0" width="284" height="113.465" fill="#FFFFFF"/><rect x="9.49998" y="43.2957" width="35" height="27.8685" stroke="#000000" stroke-width="1.33568" stroke-linejoin="round" stroke-miterlimit="10" fill="none"/><text font-family="Yu Gothic,Yu Gothic_MSFontService,sans-serif" font-weight="700" font-size="14.6235" transform="matrix(1 0 0 0.995303 19.0565 61)">本</text><rect x="155.5" y="43.2957" width="34" height="27.8685" stroke="#000000" stroke-width="1.33568" stroke-linejoin="round" stroke-miterlimit="10" fill="none"/><text font-family="Yu Gothic,Yu Gothic_MSFontService,sans-serif" font-weight="700" font-size="14.6235" transform="matrix(1 0 0 0.995303 164.9 61)">人</text><path d="M49.5 55.5699 148.178 55.5699 148.178 56.8993 49.5 56.8993ZM140.5 51.0075 149.503 56.2346 140.5 61.4617C140.181 61.6467 139.772 61.5396 139.587 61.2225 139.401 60.9054 139.508 60.4984 139.827 60.3134L147.841 55.6605 147.841 56.8088 139.827 52.1559C139.508 51.9709 139.401 51.5639 139.587 51.2468 139.772 50.9297 140.181 50.8226 140.5 51.0075Z" fill="#172C51"/><text font-family="Yu Gothic,Yu Gothic_MSFontService,sans-serif" font-weight="400" font-size="14.6235" transform="matrix(1 0 0 0.995303 58.4071 48)">の第一著者</text><path d="M40.3177 2.99535C41.7012 3.36017 42.7636 4.14784 43.5051 5.35838 44.2466 6.56891 44.6174 8.02937 44.6174 9.73976 44.6174 11.4549 44.2478 12.9153 43.5087 14.1211 42.7696 15.3269 41.7059 16.1122 40.3177 16.4771L40.1471 15.9298C41.2416 15.565 42.0553 14.8449 42.5883 13.7693 43.1214 12.6938 43.3879 11.327 43.3879 9.66869 43.3879 8.06728 43.1226 6.73711 42.5919 5.67819 42.0613 4.61927 41.2392 3.9074 40.1258 3.54258ZM7.51318 2.99535 7.70506 3.54258C6.59639 3.9074 5.77555 4.61927 5.24254 5.67819 4.70952 6.73711 4.44302 8.06728 4.44302 9.66869 4.44302 11.327 4.70952 12.6938 5.24254 13.7693 5.77555 14.8449 6.58929 15.565 7.68374 15.9298L7.51318 16.4771C6.12497 16.1122 5.06131 15.3269 4.3222 14.1211 3.58309 12.9153 3.21353 11.4549 3.21353 9.73976 3.21353 8.02937 3.58427 6.56891 4.32575 5.35838 5.06724 4.14784 6.12971 3.36017 7.51318 2.99535Z" fill-rule="evenodd" transform="matrix(1.00472 0 0 1 227.31 46.5283)"/><text font-family="Cambria Math,Cambria Math_MSFontService,sans-serif" font-weight="400" font-size="14.6235" transform="matrix(1 0 0 0.995303 235.351 60)">𝟐</text><text font-family="Cambria Math,Cambria Math_MSFontService,sans-serif" font-weight="400" font-size="14.6235" transform="matrix(1 0 0 0.995303 244.2 60)">.</text><text font-family="Cambria Math,Cambria Math_MSFontService,sans-serif" font-weight="400" font-size="14.6235" transform="matrix(1 0 0 0.995303 249.656 60)">𝟏𝟒</text></g></svg>