<svg width="151" height="113" xmlns="http://www.w3.org/2000/svg" xmlns:xlink="http://www.w3.org/1999/xlink" overflow="hidden"><defs><clipPath id="clip0"><rect x="0" y="0" width="151" height="113"/></clipPath></defs><g clip-path="url(#clip0)"><rect x="0" y="0" width="151" height="112.792" fill="#FFFFFF"/><path d="M67.5 14.9724C67.5 10.8378 70.8579 7.48616 75 7.48616 79.1421 7.48616 82.5 10.8378 82.5 14.9724 82.5 19.1069 79.1421 22.4586 75 22.4586 70.8579 22.4586 67.5 19.1069 67.5 14.9724Z" stroke="#172C51" stroke-width="1.33186" stroke-miterlimit="8" fill="none" fill-rule="evenodd"/><path d="M71 11.9779C71 11.4267 71.4477 10.9798 72 10.9798 72.5522 10.9798 73 11.4267 73 11.9779 73 12.5292 72.5522 12.9761 72 12.9761 71.4477 12.9761 71 12.5292 71 11.9779Z" fill-rule="evenodd"/><path d="M76 11.9779C76 11.4267 76.4477 10.9798 77 10.9798 77.5523 10.9798 78 11.4267 78 11.9779 78 12.5292 77.5523 12.9761 77 12.9761 76.4477 12.9761 76 12.5292 76 11.9779Z" fill-rule="evenodd"/><path d="M72.0958 16.1165C73.7607 18.2621 76.3073 17.8934 77.2924 16.2757" stroke="#172C51" stroke-width="1.33184" stroke-miterlimit="8" fill="none" fill-rule="evenodd"/><text font-family="Calibri,Calibri_MSFontService,sans-serif" font-weight="700" font-size="14.6235" transform="matrix(1 0 0 0.998159 59.373 20)">{</text><text font-family="Calibri,Calibri_MSFontService,sans-serif" font-weight="700" font-size="14.6235" transform="matrix(1 0 0 0.998159 85.6773 20)">}</text><text font-family="Cambria Math,Cambria Math_MSFontService,sans-serif" font-weight="400" font-size="14.6235" transform="matrix(1 0 0 0.998159 38.3764 56)">𝒛</text><text font-family="Cambria Math,Cambria Math_MSFontService,sans-serif" font-weight="400" font-size="14.6235" transform="matrix(1 0 0 0.998159 16.2513 105)">ℝ</text><path d="M69.0681 26.7982 28.7564 92.552 27.6204 91.8581 67.932 26.1043ZM36.651 88.4156 27.4984 93.3305 27.7175 82.9589C27.7252 82.5919 28.0296 82.3006 28.3973 82.3083 28.765 82.3161 29.0568 82.6199 29.049 82.9869L28.8541 92.2192 27.8728 91.6199 36.02 87.2449C36.3439 87.0709 36.7477 87.192 36.922 87.5153 37.0962 87.8386 36.9749 88.2417 36.651 88.4156Z" fill="#172C51"/><path d="M41.4892 0.350754 1.25896 65.1116 0.129708 64.4101 40.3599-0.350754ZM9.16692 61.0278-0.00162553 65.8811 0.286688 55.5113C0.29689 55.1443 0.602645 54.8551 0.96961 54.8653 1.33658 54.8755 1.62579 55.1812 1.61559 55.5482L1.35894 64.779 0.383513 64.1731 8.54496 59.8528C8.86941 59.6811 9.27166 59.8049 9.44341 60.1293 9.61516 60.4538 9.49137 60.856 9.16692 61.0278Z" fill="#172C51" transform="matrix(-1.00184 0 0 1 123.5 26.4512)"/><text font-family="Cambria Math,Cambria Math_MSFontService,sans-serif" font-weight="400" font-size="14.6235" transform="matrix(1 0 0 0.998159 105.363 56)">𝒛</text><text font-family="Cambria Math,Cambria Math_MSFontService,sans-serif" font-weight="400" font-size="14.6235" transform="matrix(1 0 0 0.998159 122.176 106)">ℝ</text><text font-family="Cambria Math,Cambria Math_MSFontService,sans-serif" font-weight="400" font-size="14.6235" transform="matrix(1 0 0 0.998159 122.176 105)">ℝ</text></g></svg>