<svg width="518" height="386" xmlns="http://www.w3.org/2000/svg" xmlns:xlink="http://www.w3.org/1999/xlink" overflow="hidden"><defs><clipPath id="clip0"><rect x="0" y="0" width="518" height="386"/></clipPath></defs><g clip-path="url(#clip0)"><rect x="0" y="0" width="518" height="386.376" fill="#FFFFFF"/><text font-family="Cambria Math,Cambria Math_MSFontService,sans-serif" font-weight="400" font-size="14.6857" transform="matrix(1 0 0 1.00097 137.298 27)">𝑿</text><text font-family="Cambria Math,Cambria Math_MSFontService,sans-serif" font-weight="400" font-size="14.6857" transform="matrix(1 0 0 1.00097 150.729 27)">×</text><text font-family="Cambria Math,Cambria Math_MSFontService,sans-serif" font-weight="400" font-size="14.6857" transform="matrix(1 0 0 1.00097 164.494 27)">𝒀</text><path d="M37.4513 3.02227C38.8472 3.39037 39.9193 4.18513 40.6674 5.40655 41.4156 6.62796 41.7896 8.10155 41.7896 9.82731 41.7896 11.5579 41.4168 13.0314 40.671 14.2481 39.9252 15.4647 38.852 16.2571 37.4513 16.6252L37.2792 16.073C38.3835 15.7049 39.2046 14.9783 39.7424 13.8931 40.2802 12.808 40.5491 11.4288 40.5491 9.7556 40.5491 8.1398 40.2814 6.79767 39.746 5.72923 39.2106 4.66079 38.3811 3.94252 37.2577 3.57442ZM7.56966 3.02227 7.76327 3.57442C6.64463 3.94252 5.81641 4.66079 5.27861 5.72923 4.7408 6.79767 4.4719 8.1398 4.4719 9.7556 4.4719 11.4288 4.7408 12.808 5.27861 13.8931 5.81641 14.9783 6.63746 15.7049 7.74176 16.073L7.56966 16.6252C6.16898 16.2571 5.09575 15.4647 4.35 14.2481 3.60424 13.0314 3.23136 11.5579 3.23136 9.82731 3.23136 8.10155 3.60543 6.62796 4.35358 5.40655 5.10173 4.18513 6.17376 3.39037 7.56966 3.02227Z" fill-rule="evenodd" transform="matrix(1 0 0 1.00097 237.521 40.9864)"/><text font-family="Cambria Math,Cambria Math_MSFontService,sans-serif" font-weight="400" font-size="14.6857" transform="matrix(1 0 0 1.00097 245.55 55)">𝟔</text><text font-family="Cambria Math,Cambria Math_MSFontService,sans-serif" font-weight="400" font-size="14.6857" transform="matrix(1 0 0 1.00097 254.386 55)">,</text><text font-family="Yu Gothic,Yu Gothic_MSFontService,sans-serif" font-weight="400" font-size="14.6857" transform="matrix(1 0 0 1.00097 259.835 55)">♣</text><path d="M38.1308 1.95435C39.6223 2.34635 40.772 3.36221 41.5799 5.00192 42.3878 6.64163 42.7917 8.58251 42.7917 10.8246 42.7917 13.0666 42.3878 15.0075 41.5799 16.6472 40.772 18.2869 39.6223 19.3028 38.1308 19.6948L37.9515 19.1068C39.1084 18.6718 39.9844 17.724 40.5796 16.2636 41.1747 14.8031 41.4723 12.9925 41.4723 10.8317 41.4723 8.66617 41.1747 6.85197 40.5796 5.38914 39.9844 3.92631 39.1084 2.97738 37.9515 2.54236ZM7.89234 1.95435 8.07161 2.54236C6.91473 2.97738 6.03871 3.92631 5.44353 5.38914 4.84836 6.85197 4.55078 8.66617 4.55078 10.8317 4.55078 12.9925 4.84836 14.8031 5.44353 16.2636 6.03871 17.724 6.91473 18.6718 8.07161 19.1068L7.89234 19.6948C6.40083 19.3028 5.25112 18.2869 4.44322 16.6472 3.63531 15.0075 3.23136 13.0666 3.23136 10.8246 3.23136 8.58251 3.63531 6.64163 4.44322 5.00192 5.25112 3.36221 6.40083 2.34635 7.89234 1.95435Z" fill-rule="evenodd" transform="matrix(1 0 0 1.00097 236.738 87.5404)"/><text font-family="Cambria Math,Cambria Math_MSFontService,sans-serif" font-weight="400" font-size="14.6857" transform="matrix(1 0 0 1.00097 245.268 103)">𝟔</text><text font-family="Cambria Math,Cambria Math_MSFontService,sans-serif" font-weight="400" font-size="14.6857" transform="matrix(1 0 0 1.00097 254.104 103)">,</text><text font-family="Yu Gothic,Yu Gothic_MSFontService,sans-serif" font-weight="400" font-size="14.6857" transform="matrix(1 0 0 1.00097 259.552 103)">♢</text><path d="M37.4513 3.02227C38.8472 3.39037 39.9193 4.18513 40.6674 5.40655 41.4156 6.62796 41.7896 8.10155 41.7896 9.82731 41.7896 11.5579 41.4168 13.0314 40.671 14.2481 39.9252 15.4647 38.852 16.2571 37.4513 16.6252L37.2792 16.073C38.3835 15.7049 39.2046 14.9783 39.7424 13.8931 40.2802 12.808 40.5491 11.4288 40.5491 9.7556 40.5491 8.1398 40.2814 6.79767 39.746 5.72923 39.2106 4.66079 38.3811 3.94252 37.2577 3.57442ZM7.56966 3.02227 7.76327 3.57442C6.64463 3.94252 5.81641 4.66079 5.27861 5.72923 4.7408 6.79767 4.4719 8.1398 4.4719 9.7556 4.4719 11.4288 4.7408 12.808 5.27861 13.8931 5.81641 14.9783 6.63746 15.7049 7.74176 16.073L7.56966 16.6252C6.16898 16.2571 5.09575 15.4647 4.35 14.2481 3.60424 13.0314 3.23136 11.5579 3.23136 9.82731 3.23136 8.10155 3.60543 6.62796 4.35358 5.40655 5.10173 4.18513 6.17376 3.39037 7.56966 3.02227Z" fill-rule="evenodd" transform="matrix(1 0 0 1.00097 237.284 135.921)"/><text font-family="Cambria Math,Cambria Math_MSFontService,sans-serif" font-weight="400" font-size="14.6857" transform="matrix(1 0 0 1.00097 245.313 150)">𝟔</text><text font-family="Cambria Math,Cambria Math_MSFontService,sans-serif" font-weight="400" font-size="14.6857" transform="matrix(1 0 0 1.00097 254.149 150)">,</text><text font-family="Yu Gothic,Yu Gothic_MSFontService,sans-serif" font-weight="400" font-size="14.6857" transform="matrix(1 0 0 1.00097 259.598 150)">♡</text><path d="M37.4513 3.02227C38.8472 3.39037 39.9193 4.18513 40.6674 5.40655 41.4156 6.62796 41.7896 8.10155 41.7896 9.82731 41.7896 11.5579 41.4168 13.0314 40.671 14.2481 39.9252 15.4647 38.852 16.2571 37.4513 16.6252L37.2792 16.073C38.3835 15.7049 39.2046 14.9783 39.7424 13.8931 40.2802 12.808 40.5491 11.4288 40.5491 9.7556 40.5491 8.1398 40.2814 6.79767 39.746 5.72923 39.2106 4.66079 38.3811 3.94252 37.2577 3.57442ZM7.56966 3.02227 7.76327 3.57442C6.64463 3.94252 5.81641 4.66079 5.27861 5.72923 4.7408 6.79767 4.4719 8.1398 4.4719 9.7556 4.4719 11.4288 4.7408 12.808 5.27861 13.8931 5.81641 14.9783 6.63746 15.7049 7.74176 16.073L7.56966 16.6252C6.16898 16.2571 5.09575 15.4647 4.35 14.2481 3.60424 13.0314 3.23136 11.5579 3.23136 9.82731 3.23136 8.10155 3.60543 6.62796 4.35358 5.40655 5.10173 4.18513 6.17376 3.39037 7.56966 3.02227Z" fill-rule="evenodd" transform="matrix(1 0 0 1.00097 237.62 182.938)"/><text font-family="Cambria Math,Cambria Math_MSFontService,sans-serif" font-weight="400" font-size="14.6857" transform="matrix(1 0 0 1.00097 245.649 197)">𝟔</text><text font-family="Cambria Math,Cambria Math_MSFontService,sans-serif" font-weight="400" font-size="14.6857" transform="matrix(1 0 0 1.00097 254.485 197)">,</text><text font-family="Yu Gothic,Yu Gothic_MSFontService,sans-serif" font-weight="400" font-size="14.6857" transform="matrix(1 0 0 1.00097 259.934 197)">♠</text><path d="M37.4513 3.02227C38.8472 3.39037 39.9193 4.18513 40.6674 5.40655 41.4156 6.62796 41.7896 8.10155 41.7896 9.82731 41.7896 11.5579 41.4168 13.0314 40.671 14.2481 39.9252 15.4647 38.852 16.2571 37.4513 16.6252L37.2792 16.073C38.3835 15.7049 39.2046 14.9783 39.7424 13.8931 40.2802 12.808 40.5491 11.4288 40.5491 9.7556 40.5491 8.1398 40.2814 6.79767 39.746 5.72923 39.2106 4.66079 38.3811 3.94252 37.2577 3.57442ZM7.56966 3.02227 7.76327 3.57442C6.64463 3.94252 5.81641 4.66079 5.27861 5.72923 4.7408 6.79767 4.4719 8.1398 4.4719 9.7556 4.4719 11.4288 4.7408 12.808 5.27861 13.8931 5.81641 14.9783 6.63746 15.7049 7.74176 16.073L7.56966 16.6252C6.16898 16.2571 5.09575 15.4647 4.35 14.2481 3.60424 13.0314 3.23136 11.5579 3.23136 9.82731 3.23136 8.10155 3.60543 6.62796 4.35358 5.40655 5.10173 4.18513 6.17376 3.39037 7.56966 3.02227Z" fill-rule="evenodd" transform="matrix(1 0 0 1.00097 194.21 40.87)"/><text font-family="Cambria Math,Cambria Math_MSFontService,sans-serif" font-weight="400" font-size="14.6857" transform="matrix(1 0 0 1.00097 202.239 55)">𝟓</text><text font-family="Cambria Math,Cambria Math_MSFontService,sans-serif" font-weight="400" font-size="14.6857" transform="matrix(1 0 0 1.00097 211.076 55)">,</text><text font-family="Yu Gothic,Yu Gothic_MSFontService,sans-serif" font-weight="400" font-size="14.6857" transform="matrix(1 0 0 1.00097 216.524 55)">♣</text><path d="M38.1308 1.95435C39.6223 2.34635 40.772 3.36221 41.5799 5.00192 42.3878 6.64163 42.7917 8.58251 42.7917 10.8246 42.7917 13.0666 42.3878 15.0075 41.5799 16.6472 40.772 18.2869 39.6223 19.3028 38.1308 19.6948L37.9515 19.1068C39.1084 18.6718 39.9844 17.724 40.5796 16.2636 41.1747 14.8031 41.4723 12.9925 41.4723 10.8317 41.4723 8.66617 41.1747 6.85197 40.5796 5.38914 39.9844 3.92631 39.1084 2.97738 37.9515 2.54236ZM7.89234 1.95435 8.07161 2.54236C6.91473 2.97738 6.03871 3.92631 5.44353 5.38914 4.84836 6.85197 4.55078 8.66617 4.55078 10.8317 4.55078 12.9925 4.84836 14.8031 5.44353 16.2636 6.03871 17.724 6.91473 18.6718 8.07161 19.1068L7.89234 19.6948C6.40083 19.3028 5.25112 18.2869 4.44322 16.6472 3.63531 15.0075 3.23136 13.0666 3.23136 10.8246 3.23136 8.58251 3.63531 6.64163 4.44322 5.00192 5.25112 3.36221 6.40083 2.34635 7.89234 1.95435Z" fill-rule="evenodd" transform="matrix(1 0 0 1.00097 193.427 87.4241)"/><text font-family="Cambria Math,Cambria Math_MSFontService,sans-serif" font-weight="400" font-size="14.6857" transform="matrix(1 0 0 1.00097 201.957 102)">𝟓</text><text font-family="Cambria Math,Cambria Math_MSFontService,sans-serif" font-weight="400" font-size="14.6857" transform="matrix(1 0 0 1.00097 210.793 102)">,</text><text font-family="Yu Gothic,Yu Gothic_MSFontService,sans-serif" font-weight="400" font-size="14.6857" transform="matrix(1 0 0 1.00097 216.241 102)">♢</text><path d="M37.4513 3.02227C38.8472 3.39037 39.9193 4.18513 40.6674 5.40655 41.4156 6.62796 41.7896 8.10155 41.7896 9.82731 41.7896 11.5579 41.4168 13.0314 40.671 14.2481 39.9252 15.4647 38.852 16.2571 37.4513 16.6252L37.2792 16.073C38.3835 15.7049 39.2046 14.9783 39.7424 13.8931 40.2802 12.808 40.5491 11.4288 40.5491 9.7556 40.5491 8.1398 40.2814 6.79767 39.746 5.72923 39.2106 4.66079 38.3811 3.94252 37.2577 3.57442ZM7.56966 3.02227 7.76327 3.57442C6.64463 3.94252 5.81641 4.66079 5.27861 5.72923 4.7408 6.79767 4.4719 8.1398 4.4719 9.7556 4.4719 11.4288 4.7408 12.808 5.27861 13.8931 5.81641 14.9783 6.63746 15.7049 7.74176 16.073L7.56966 16.6252C6.16898 16.2571 5.09575 15.4647 4.35 14.2481 3.60424 13.0314 3.23136 11.5579 3.23136 9.82731 3.23136 8.10155 3.60543 6.62796 4.35358 5.40655 5.10173 4.18513 6.17376 3.39037 7.56966 3.02227Z" fill-rule="evenodd" transform="matrix(1 0 0 1.00097 193.973 135.805)"/><text font-family="Cambria Math,Cambria Math_MSFontService,sans-serif" font-weight="400" font-size="14.6857" transform="matrix(1 0 0 1.00097 202.002 150)">𝟓</text><text font-family="Cambria Math,Cambria Math_MSFontService,sans-serif" font-weight="400" font-size="14.6857" transform="matrix(1 0 0 1.00097 210.839 150)">,</text><text font-family="Yu Gothic,Yu Gothic_MSFontService,sans-serif" font-weight="400" font-size="14.6857" transform="matrix(1 0 0 1.00097 216.287 150)">♡</text><path d="M37.4513 3.02227C38.8472 3.39037 39.9193 4.18513 40.6674 5.40655 41.4156 6.62796 41.7896 8.10155 41.7896 9.82731 41.7896 11.5579 41.4168 13.0314 40.671 14.2481 39.9252 15.4647 38.852 16.2571 37.4513 16.6252L37.2792 16.073C38.3835 15.7049 39.2046 14.9783 39.7424 13.8931 40.2802 12.808 40.5491 11.4288 40.5491 9.7556 40.5491 8.1398 40.2814 6.79767 39.746 5.72923 39.2106 4.66079 38.3811 3.94252 37.2577 3.57442ZM7.56966 3.02227 7.76327 3.57442C6.64463 3.94252 5.81641 4.66079 5.27861 5.72923 4.7408 6.79767 4.4719 8.1398 4.4719 9.7556 4.4719 11.4288 4.7408 12.808 5.27861 13.8931 5.81641 14.9783 6.63746 15.7049 7.74176 16.073L7.56966 16.6252C6.16898 16.2571 5.09575 15.4647 4.35 14.2481 3.60424 13.0314 3.23136 11.5579 3.23136 9.82731 3.23136 8.10155 3.60543 6.62796 4.35358 5.40655 5.10173 4.18513 6.17376 3.39037 7.56966 3.02227Z" fill-rule="evenodd" transform="matrix(1 0 0 1.00097 194.309 182.821)"/><text font-family="Cambria Math,Cambria Math_MSFontService,sans-serif" font-weight="400" font-size="14.6857" transform="matrix(1 0 0 1.00097 202.338 197)">𝟓</text><text font-family="Cambria Math,Cambria Math_MSFontService,sans-serif" font-weight="400" font-size="14.6857" transform="matrix(1 0 0 1.00097 211.174 197)">,</text><text font-family="Yu Gothic,Yu Gothic_MSFontService,sans-serif" font-weight="400" font-size="14.6857" transform="matrix(1 0 0 1.00097 216.623 197)">♠</text><path d="M37.4513 3.02227C38.8472 3.39037 39.9193 4.18513 40.6674 5.40655 41.4156 6.62796 41.7896 8.10155 41.7896 9.82731 41.7896 11.5579 41.4168 13.0314 40.671 14.2481 39.9252 15.4647 38.852 16.2571 37.4513 16.6252L37.2792 16.073C38.3835 15.7049 39.2046 14.9783 39.7424 13.8931 40.2802 12.808 40.5491 11.4288 40.5491 9.7556 40.5491 8.1398 40.2814 6.79767 39.746 5.72923 39.2106 4.66079 38.3811 3.94252 37.2577 3.57442ZM7.56966 3.02227 7.76327 3.57442C6.64463 3.94252 5.81641 4.66079 5.27861 5.72923 4.7408 6.79767 4.4719 8.1398 4.4719 9.7556 4.4719 11.4288 4.7408 12.808 5.27861 13.8931 5.81641 14.9783 6.63746 15.7049 7.74176 16.073L7.56966 16.6252C6.16898 16.2571 5.09575 15.4647 4.35 14.2481 3.60424 13.0314 3.23136 11.5579 3.23136 9.82731 3.23136 8.10155 3.60543 6.62796 4.35358 5.40655 5.10173 4.18513 6.17376 3.39037 7.56966 3.02227Z" fill-rule="evenodd" transform="matrix(1 0 0 1.00097 150.899 41.4518)"/><text font-family="Cambria Math,Cambria Math_MSFontService,sans-serif" font-weight="400" font-size="14.6857" transform="matrix(1 0 0 1.00097 158.929 55)">𝟒</text><text font-family="Cambria Math,Cambria Math_MSFontService,sans-serif" font-weight="400" font-size="14.6857" transform="matrix(1 0 0 1.00097 167.765 55)">,</text><text font-family="Yu Gothic,Yu Gothic_MSFontService,sans-serif" font-weight="400" font-size="14.6857" transform="matrix(1 0 0 1.00097 173.213 55)">♣</text><path d="M38.1308 1.95435C39.6223 2.34635 40.772 3.36221 41.5799 5.00192 42.3878 6.64163 42.7917 8.58251 42.7917 10.8246 42.7917 13.0666 42.3878 15.0075 41.5799 16.6472 40.772 18.2869 39.6223 19.3028 38.1308 19.6948L37.9515 19.1068C39.1084 18.6718 39.9844 17.724 40.5796 16.2636 41.1747 14.8031 41.4723 12.9925 41.4723 10.8317 41.4723 8.66617 41.1747 6.85197 40.5796 5.38914 39.9844 3.92631 39.1084 2.97738 37.9515 2.54236ZM7.89234 1.95435 8.07161 2.54236C6.91473 2.97738 6.03871 3.92631 5.44353 5.38914 4.84836 6.85197 4.55078 8.66617 4.55078 10.8317 4.55078 12.9925 4.84836 14.8031 5.44353 16.2636 6.03871 17.724 6.91473 18.6718 8.07161 19.1068L7.89234 19.6948C6.40083 19.3028 5.25112 18.2869 4.44322 16.6472 3.63531 15.0075 3.23136 13.0666 3.23136 10.8246 3.23136 8.58251 3.63531 6.64163 4.44322 5.00192 5.25112 3.36221 6.40083 2.34635 7.89234 1.95435Z" fill-rule="evenodd" transform="matrix(1 0 0 1.00097 150.117 88.0058)"/><text font-family="Cambria Math,Cambria Math_MSFontService,sans-serif" font-weight="400" font-size="14.6857" transform="matrix(1 0 0 1.00097 158.646 103)">𝟒</text><text font-family="Cambria Math,Cambria Math_MSFontService,sans-serif" font-weight="400" font-size="14.6857" transform="matrix(1 0 0 1.00097 167.482 103)">,</text><text font-family="Yu Gothic,Yu Gothic_MSFontService,sans-serif" font-weight="400" font-size="14.6857" transform="matrix(1 0 0 1.00097 172.931 103)">♢</text><path d="M37.4513 3.02227C38.8472 3.39037 39.9193 4.18513 40.6674 5.40655 41.4156 6.62796 41.7896 8.10155 41.7896 9.82731 41.7896 11.5579 41.4168 13.0314 40.671 14.2481 39.9252 15.4647 38.852 16.2571 37.4513 16.6252L37.2792 16.073C38.3835 15.7049 39.2046 14.9783 39.7424 13.8931 40.2802 12.808 40.5491 11.4288 40.5491 9.7556 40.5491 8.1398 40.2814 6.79767 39.746 5.72923 39.2106 4.66079 38.3811 3.94252 37.2577 3.57442ZM7.56966 3.02227 7.76327 3.57442C6.64463 3.94252 5.81641 4.66079 5.27861 5.72923 4.7408 6.79767 4.4719 8.1398 4.4719 9.7556 4.4719 11.4288 4.7408 12.808 5.27861 13.8931 5.81641 14.9783 6.63746 15.7049 7.74176 16.073L7.56966 16.6252C6.16898 16.2571 5.09575 15.4647 4.35 14.2481 3.60424 13.0314 3.23136 11.5579 3.23136 9.82731 3.23136 8.10155 3.60543 6.62796 4.35358 5.40655 5.10173 4.18513 6.17376 3.39037 7.56966 3.02227Z" fill-rule="evenodd" transform="matrix(1 0 0 1.00097 150.662 136.387)"/><text font-family="Cambria Math,Cambria Math_MSFontService,sans-serif" font-weight="400" font-size="14.6857" transform="matrix(1 0 0 1.00097 158.692 150)">𝟒</text><text font-family="Cambria Math,Cambria Math_MSFontService,sans-serif" font-weight="400" font-size="14.6857" transform="matrix(1 0 0 1.00097 167.528 150)">,</text><text font-family="Yu Gothic,Yu Gothic_MSFontService,sans-serif" font-weight="400" font-size="14.6857" transform="matrix(1 0 0 1.00097 172.976 150)">♡</text><path d="M37.4513 3.02227C38.8472 3.39037 39.9193 4.18513 40.6674 5.40655 41.4156 6.62796 41.7896 8.10155 41.7896 9.82731 41.7896 11.5579 41.4168 13.0314 40.671 14.2481 39.9252 15.4647 38.852 16.2571 37.4513 16.6252L37.2792 16.073C38.3835 15.7049 39.2046 14.9783 39.7424 13.8931 40.2802 12.808 40.5491 11.4288 40.5491 9.7556 40.5491 8.1398 40.2814 6.79767 39.746 5.72923 39.2106 4.66079 38.3811 3.94252 37.2577 3.57442ZM7.56966 3.02227 7.76327 3.57442C6.64463 3.94252 5.81641 4.66079 5.27861 5.72923 4.7408 6.79767 4.4719 8.1398 4.4719 9.7556 4.4719 11.4288 4.7408 12.808 5.27861 13.8931 5.81641 14.9783 6.63746 15.7049 7.74176 16.073L7.56966 16.6252C6.16898 16.2571 5.09575 15.4647 4.35 14.2481 3.60424 13.0314 3.23136 11.5579 3.23136 9.82731 3.23136 8.10155 3.60543 6.62796 4.35358 5.40655 5.10173 4.18513 6.17376 3.39037 7.56966 3.02227Z" fill-rule="evenodd" transform="matrix(1 0 0 1.00097 150.998 183.403)"/><text font-family="Cambria Math,Cambria Math_MSFontService,sans-serif" font-weight="400" font-size="14.6857" transform="matrix(1 0 0 1.00097 159.028 197)">𝟒</text><text font-family="Cambria Math,Cambria Math_MSFontService,sans-serif" font-weight="400" font-size="14.6857" transform="matrix(1 0 0 1.00097 167.864 197)">,</text><text font-family="Yu Gothic,Yu Gothic_MSFontService,sans-serif" font-weight="400" font-size="14.6857" transform="matrix(1 0 0 1.00097 173.312 197)">♠</text><path d="M37.4513 3.02227C38.8472 3.39037 39.9193 4.18513 40.6674 5.40655 41.4156 6.62796 41.7896 8.10155 41.7896 9.82731 41.7896 11.5579 41.4168 13.0314 40.671 14.2481 39.9252 15.4647 38.852 16.2571 37.4513 16.6252L37.2792 16.073C38.3835 15.7049 39.2046 14.9783 39.7424 13.8931 40.2802 12.808 40.5491 11.4288 40.5491 9.7556 40.5491 8.1398 40.2814 6.79767 39.746 5.72923 39.2106 4.66079 38.3811 3.94252 37.2577 3.57442ZM7.56966 3.02227 7.76327 3.57442C6.64463 3.94252 5.81641 4.66079 5.27861 5.72923 4.7408 6.79767 4.4719 8.1398 4.4719 9.7556 4.4719 11.4288 4.7408 12.808 5.27861 13.8931 5.81641 14.9783 6.63746 15.7049 7.74176 16.073L7.56966 16.6252C6.16898 16.2571 5.09575 15.4647 4.35 14.2481 3.60424 13.0314 3.23136 11.5579 3.23136 9.82731 3.23136 8.10155 3.60543 6.62796 4.35358 5.40655 5.10173 4.18513 6.17376 3.39037 7.56966 3.02227Z" fill-rule="evenodd" transform="matrix(1 0 0 1.00097 106.892 40.6372)"/><text font-family="Cambria Math,Cambria Math_MSFontService,sans-serif" font-weight="400" font-size="14.6857" transform="matrix(1 0 0 1.00097 114.921 55)">𝟑</text><text font-family="Cambria Math,Cambria Math_MSFontService,sans-serif" font-weight="400" font-size="14.6857" transform="matrix(1 0 0 1.00097 123.758 55)">,</text><text font-family="Yu Gothic,Yu Gothic_MSFontService,sans-serif" font-weight="400" font-size="14.6857" transform="matrix(1 0 0 1.00097 129.206 55)">♣</text><path d="M38.1308 1.95435C39.6223 2.34635 40.772 3.36221 41.5799 5.00192 42.3878 6.64163 42.7917 8.58251 42.7917 10.8246 42.7917 13.0666 42.3878 15.0075 41.5799 16.6472 40.772 18.2869 39.6223 19.3028 38.1308 19.6948L37.9515 19.1068C39.1084 18.6718 39.9844 17.724 40.5796 16.2636 41.1747 14.8031 41.4723 12.9925 41.4723 10.8317 41.4723 8.66617 41.1747 6.85197 40.5796 5.38914 39.9844 3.92631 39.1084 2.97738 37.9515 2.54236ZM7.89234 1.95435 8.07161 2.54236C6.91473 2.97738 6.03871 3.92631 5.44353 5.38914 4.84836 6.85197 4.55078 8.66617 4.55078 10.8317 4.55078 12.9925 4.84836 14.8031 5.44353 16.2636 6.03871 17.724 6.91473 18.6718 8.07161 19.1068L7.89234 19.6948C6.40083 19.3028 5.25112 18.2869 4.44322 16.6472 3.63531 15.0075 3.23136 13.0666 3.23136 10.8246 3.23136 8.58251 3.63531 6.64163 4.44322 5.00192 5.25112 3.36221 6.40083 2.34635 7.89234 1.95435Z" fill-rule="evenodd" transform="matrix(1 0 0 1.00097 106.109 87.1912)"/><text font-family="Cambria Math,Cambria Math_MSFontService,sans-serif" font-weight="400" font-size="14.6857" transform="matrix(1 0 0 1.00097 114.639 102)">𝟑</text><text font-family="Cambria Math,Cambria Math_MSFontService,sans-serif" font-weight="400" font-size="14.6857" transform="matrix(1 0 0 1.00097 123.475 102)">,</text><text font-family="Yu Gothic,Yu Gothic_MSFontService,sans-serif" font-weight="400" font-size="14.6857" transform="matrix(1 0 0 1.00097 128.923 102)">♢</text><path d="M37.4513 3.02227C38.8472 3.39037 39.9193 4.18513 40.6674 5.40655 41.4156 6.62796 41.7896 8.10155 41.7896 9.82731 41.7896 11.5579 41.4168 13.0314 40.671 14.2481 39.9252 15.4647 38.852 16.2571 37.4513 16.6252L37.2792 16.073C38.3835 15.7049 39.2046 14.9783 39.7424 13.8931 40.2802 12.808 40.5491 11.4288 40.5491 9.7556 40.5491 8.1398 40.2814 6.79767 39.746 5.72923 39.2106 4.66079 38.3811 3.94252 37.2577 3.57442ZM7.56966 3.02227 7.76327 3.57442C6.64463 3.94252 5.81641 4.66079 5.27861 5.72923 4.7408 6.79767 4.4719 8.1398 4.4719 9.7556 4.4719 11.4288 4.7408 12.808 5.27861 13.8931 5.81641 14.9783 6.63746 15.7049 7.74176 16.073L7.56966 16.6252C6.16898 16.2571 5.09575 15.4647 4.35 14.2481 3.60424 13.0314 3.23136 11.5579 3.23136 9.82731 3.23136 8.10155 3.60543 6.62796 4.35358 5.40655 5.10173 4.18513 6.17376 3.39037 7.56966 3.02227Z" fill-rule="evenodd" transform="matrix(1 0 0 1.00097 106.655 135.572)"/><text font-family="Cambria Math,Cambria Math_MSFontService,sans-serif" font-weight="400" font-size="14.6857" transform="matrix(1 0 0 1.00097 114.684 150)">𝟑</text><text font-family="Cambria Math,Cambria Math_MSFontService,sans-serif" font-weight="400" font-size="14.6857" transform="matrix(1 0 0 1.00097 123.52 150)">,</text><text font-family="Yu Gothic,Yu Gothic_MSFontService,sans-serif" font-weight="400" font-size="14.6857" transform="matrix(1 0 0 1.00097 128.969 150)">♡</text><path d="M37.4513 3.02227C38.8472 3.39037 39.9193 4.18513 40.6674 5.40655 41.4156 6.62796 41.7896 8.10155 41.7896 9.82731 41.7896 11.5579 41.4168 13.0314 40.671 14.2481 39.9252 15.4647 38.852 16.2571 37.4513 16.6252L37.2792 16.073C38.3835 15.7049 39.2046 14.9783 39.7424 13.8931 40.2802 12.808 40.5491 11.4288 40.5491 9.7556 40.5491 8.1398 40.2814 6.79767 39.746 5.72923 39.2106 4.66079 38.3811 3.94252 37.2577 3.57442ZM7.56966 3.02227 7.76327 3.57442C6.64463 3.94252 5.81641 4.66079 5.27861 5.72923 4.7408 6.79767 4.4719 8.1398 4.4719 9.7556 4.4719 11.4288 4.7408 12.808 5.27861 13.8931 5.81641 14.9783 6.63746 15.7049 7.74176 16.073L7.56966 16.6252C6.16898 16.2571 5.09575 15.4647 4.35 14.2481 3.60424 13.0314 3.23136 11.5579 3.23136 9.82731 3.23136 8.10155 3.60543 6.62796 4.35358 5.40655 5.10173 4.18513 6.17376 3.39037 7.56966 3.02227Z" fill-rule="evenodd" transform="matrix(1 0 0 1.00097 106.991 182.588)"/><text font-family="Cambria Math,Cambria Math_MSFontService,sans-serif" font-weight="400" font-size="14.6857" transform="matrix(1 0 0 1.00097 115.02 197)">𝟑</text><text font-family="Cambria Math,Cambria Math_MSFontService,sans-serif" font-weight="400" font-size="14.6857" transform="matrix(1 0 0 1.00097 123.856 197)">,</text><text font-family="Yu Gothic,Yu Gothic_MSFontService,sans-serif" font-weight="400" font-size="14.6857" transform="matrix(1 0 0 1.00097 129.305 197)">♠</text><path d="M37.4513 3.02227C38.8472 3.39037 39.9193 4.18513 40.6674 5.40655 41.4156 6.62796 41.7896 8.10155 41.7896 9.82731 41.7896 11.5579 41.4168 13.0314 40.671 14.2481 39.9252 15.4647 38.852 16.2571 37.4513 16.6252L37.2792 16.073C38.3835 15.7049 39.2046 14.9783 39.7424 13.8931 40.2802 12.808 40.5491 11.4288 40.5491 9.7556 40.5491 8.1398 40.2814 6.79767 39.746 5.72923 39.2106 4.66079 38.3811 3.94252 37.2577 3.57442ZM7.56966 3.02227 7.76327 3.57442C6.64463 3.94252 5.81641 4.66079 5.27861 5.72923 4.7408 6.79767 4.4719 8.1398 4.4719 9.7556 4.4719 11.4288 4.7408 12.808 5.27861 13.8931 5.81641 14.9783 6.63746 15.7049 7.74176 16.073L7.56966 16.6252C6.16898 16.2571 5.09575 15.4647 4.35 14.2481 3.60424 13.0314 3.23136 11.5579 3.23136 9.82731 3.23136 8.10155 3.60543 6.62796 4.35358 5.40655 5.10173 4.18513 6.17376 3.39037 7.56966 3.02227Z" fill-rule="evenodd" transform="matrix(1 0 0 1.00097 62.8846 41.9169)"/><text font-family="Cambria Math,Cambria Math_MSFontService,sans-serif" font-weight="400" font-size="14.6857" transform="matrix(1 0 0 1.00097 70.9138 56)">𝟐</text><text font-family="Cambria Math,Cambria Math_MSFontService,sans-serif" font-weight="400" font-size="14.6857" transform="matrix(1 0 0 1.00097 79.75 56)">,</text><text font-family="Yu Gothic,Yu Gothic_MSFontService,sans-serif" font-weight="400" font-size="14.6857" transform="matrix(1 0 0 1.00097 85.1984 56)">♣</text><path d="M38.1308 1.95435C39.6223 2.34635 40.772 3.36221 41.5799 5.00192 42.3878 6.64163 42.7917 8.58251 42.7917 10.8246 42.7917 13.0666 42.3878 15.0075 41.5799 16.6472 40.772 18.2869 39.6223 19.3028 38.1308 19.6948L37.9515 19.1068C39.1084 18.6718 39.9844 17.724 40.5796 16.2636 41.1747 14.8031 41.4723 12.9925 41.4723 10.8317 41.4723 8.66617 41.1747 6.85197 40.5796 5.38914 39.9844 3.92631 39.1084 2.97738 37.9515 2.54236ZM7.89234 1.95435 8.07161 2.54236C6.91473 2.97738 6.03871 3.92631 5.44353 5.38914 4.84836 6.85197 4.55078 8.66617 4.55078 10.8317 4.55078 12.9925 4.84836 14.8031 5.44353 16.2636 6.03871 17.724 6.91473 18.6718 8.07161 19.1068L7.89234 19.6948C6.40083 19.3028 5.25112 18.2869 4.44322 16.6472 3.63531 15.0075 3.23136 13.0666 3.23136 10.8246 3.23136 8.58251 3.63531 6.64163 4.44322 5.00192 5.25112 3.36221 6.40083 2.34635 7.89234 1.95435Z" fill-rule="evenodd" transform="matrix(1 0 0 1.00097 62.1019 88.4709)"/><text font-family="Cambria Math,Cambria Math_MSFontService,sans-serif" font-weight="400" font-size="14.6857" transform="matrix(1 0 0 1.00097 70.6313 104)">𝟐</text><text font-family="Cambria Math,Cambria Math_MSFontService,sans-serif" font-weight="400" font-size="14.6857" transform="matrix(1 0 0 1.00097 79.4675 104)">,</text><text font-family="Yu Gothic,Yu Gothic_MSFontService,sans-serif" font-weight="400" font-size="14.6857" transform="matrix(1 0 0 1.00097 84.9159 104)">♢</text><path d="M37.4513 3.02227C38.8472 3.39037 39.9193 4.18513 40.6674 5.40655 41.4156 6.62796 41.7896 8.10155 41.7896 9.82731 41.7896 11.5579 41.4168 13.0314 40.671 14.2481 39.9252 15.4647 38.852 16.2571 37.4513 16.6252L37.2792 16.073C38.3835 15.7049 39.2046 14.9783 39.7424 13.8931 40.2802 12.808 40.5491 11.4288 40.5491 9.7556 40.5491 8.1398 40.2814 6.79767 39.746 5.72923 39.2106 4.66079 38.3811 3.94252 37.2577 3.57442ZM7.56966 3.02227 7.76327 3.57442C6.64463 3.94252 5.81641 4.66079 5.27861 5.72923 4.7408 6.79767 4.4719 8.1398 4.4719 9.7556 4.4719 11.4288 4.7408 12.808 5.27861 13.8931 5.81641 14.9783 6.63746 15.7049 7.74176 16.073L7.56966 16.6252C6.16898 16.2571 5.09575 15.4647 4.35 14.2481 3.60424 13.0314 3.23136 11.5579 3.23136 9.82731 3.23136 8.10155 3.60543 6.62796 4.35358 5.40655 5.10173 4.18513 6.17376 3.39037 7.56966 3.02227Z" fill-rule="evenodd" transform="matrix(1 0 0 1.00097 62.6475 136.852)"/><text font-family="Cambria Math,Cambria Math_MSFontService,sans-serif" font-weight="400" font-size="14.6857" transform="matrix(1 0 0 1.00097 70.6767 151)">𝟐</text><text font-family="Cambria Math,Cambria Math_MSFontService,sans-serif" font-weight="400" font-size="14.6857" transform="matrix(1 0 0 1.00097 79.5129 151)">,</text><text font-family="Yu Gothic,Yu Gothic_MSFontService,sans-serif" font-weight="400" font-size="14.6857" transform="matrix(1 0 0 1.00097 84.9613 151)">♡</text><path d="M37.4513 3.02227C38.8472 3.39037 39.9193 4.18513 40.6674 5.40655 41.4156 6.62796 41.7896 8.10155 41.7896 9.82731 41.7896 11.5579 41.4168 13.0314 40.671 14.2481 39.9252 15.4647 38.852 16.2571 37.4513 16.6252L37.2792 16.073C38.3835 15.7049 39.2046 14.9783 39.7424 13.8931 40.2802 12.808 40.5491 11.4288 40.5491 9.7556 40.5491 8.1398 40.2814 6.79767 39.746 5.72923 39.2106 4.66079 38.3811 3.94252 37.2577 3.57442ZM7.56966 3.02227 7.76327 3.57442C6.64463 3.94252 5.81641 4.66079 5.27861 5.72923 4.7408 6.79767 4.4719 8.1398 4.4719 9.7556 4.4719 11.4288 4.7408 12.808 5.27861 13.8931 5.81641 14.9783 6.63746 15.7049 7.74176 16.073L7.56966 16.6252C6.16898 16.2571 5.09575 15.4647 4.35 14.2481 3.60424 13.0314 3.23136 11.5579 3.23136 9.82731 3.23136 8.10155 3.60543 6.62796 4.35358 5.40655 5.10173 4.18513 6.17376 3.39037 7.56966 3.02227Z" fill-rule="evenodd" transform="matrix(1 0 0 1.00097 62.9834 183.868)"/><text font-family="Cambria Math,Cambria Math_MSFontService,sans-serif" font-weight="400" font-size="14.6857" transform="matrix(1 0 0 1.00097 71.0127 198)">𝟐</text><text font-family="Cambria Math,Cambria Math_MSFontService,sans-serif" font-weight="400" font-size="14.6857" transform="matrix(1 0 0 1.00097 79.8488 198)">,</text><text font-family="Yu Gothic,Yu Gothic_MSFontService,sans-serif" font-weight="400" font-size="14.6857" transform="matrix(1 0 0 1.00097 85.2973 198)">♠</text><path d="M37.4513 3.02227C38.8472 3.39037 39.9193 4.18513 40.6674 5.40655 41.4156 6.62796 41.7896 8.10155 41.7896 9.82731 41.7896 11.5579 41.4168 13.0314 40.671 14.2481 39.9252 15.4647 38.852 16.2571 37.4513 16.6252L37.2792 16.073C38.3835 15.7049 39.2046 14.9783 39.7424 13.8931 40.2802 12.808 40.5491 11.4288 40.5491 9.7556 40.5491 8.1398 40.2814 6.79767 39.746 5.72923 39.2106 4.66079 38.3811 3.94252 37.2577 3.57442ZM7.56966 3.02227 7.76327 3.57442C6.64463 3.94252 5.81641 4.66079 5.27861 5.72923 4.7408 6.79767 4.4719 8.1398 4.4719 9.7556 4.4719 11.4288 4.7408 12.808 5.27861 13.8931 5.81641 14.9783 6.63746 15.7049 7.74176 16.073L7.56966 16.6252C6.16898 16.2571 5.09575 15.4647 4.35 14.2481 3.60424 13.0314 3.23136 11.5579 3.23136 9.82731 3.23136 8.10155 3.60543 6.62796 4.35358 5.40655 5.10173 4.18513 6.17376 3.39037 7.56966 3.02227Z" fill-rule="evenodd" transform="matrix(1 0 0 1.00097 18.1805 41.1026)"/><text font-family="Cambria Math,Cambria Math_MSFontService,sans-serif" font-weight="400" font-size="14.6857" transform="matrix(1 0 0 1.00097 26.2098 55)">𝟏</text><text font-family="Cambria Math,Cambria Math_MSFontService,sans-serif" font-weight="400" font-size="14.6857" transform="matrix(1 0 0 1.00097 35.046 55)">,</text><text font-family="Yu Gothic,Yu Gothic_MSFontService,sans-serif" font-weight="400" font-size="14.6857" transform="matrix(1 0 0 1.00097 40.4944 55)">♣</text><path d="M38.1308 1.95435C39.6223 2.34635 40.772 3.36221 41.5799 5.00192 42.3878 6.64163 42.7917 8.58251 42.7917 10.8246 42.7917 13.0666 42.3878 15.0075 41.5799 16.6472 40.772 18.2869 39.6223 19.3028 38.1308 19.6948L37.9515 19.1068C39.1084 18.6718 39.9844 17.724 40.5796 16.2636 41.1747 14.8031 41.4723 12.9925 41.4723 10.8317 41.4723 8.66617 41.1747 6.85197 40.5796 5.38914 39.9844 3.92631 39.1084 2.97738 37.9515 2.54236ZM7.89234 1.95435 8.07161 2.54236C6.91473 2.97738 6.03871 3.92631 5.44353 5.38914 4.84836 6.85197 4.55078 8.66617 4.55078 10.8317 4.55078 12.9925 4.84836 14.8031 5.44353 16.2636 6.03871 17.724 6.91473 18.6718 8.07161 19.1068L7.89234 19.6948C6.40083 19.3028 5.25112 18.2869 4.44322 16.6472 3.63531 15.0075 3.23136 13.0666 3.23136 10.8246 3.23136 8.58251 3.63531 6.64163 4.44322 5.00192 5.25112 3.36221 6.40083 2.34635 7.89234 1.95435Z" fill-rule="evenodd" transform="matrix(1 0 0 1.00097 17.3978 87.6567)"/><text font-family="Cambria Math,Cambria Math_MSFontService,sans-serif" font-weight="400" font-size="14.6857" transform="matrix(1 0 0 1.00097 25.9272 103)">𝟏</text><text font-family="Cambria Math,Cambria Math_MSFontService,sans-serif" font-weight="400" font-size="14.6857" transform="matrix(1 0 0 1.00097 34.7634 103)">,</text><text font-family="Yu Gothic,Yu Gothic_MSFontService,sans-serif" font-weight="400" font-size="14.6857" transform="matrix(1 0 0 1.00097 40.2118 103)">♢</text><path d="M37.4513 3.02227C38.8472 3.39037 39.9193 4.18513 40.6674 5.40655 41.4156 6.62796 41.7896 8.10155 41.7896 9.82731 41.7896 11.5579 41.4168 13.0314 40.671 14.2481 39.9252 15.4647 38.852 16.2571 37.4513 16.6252L37.2792 16.073C38.3835 15.7049 39.2046 14.9783 39.7424 13.8931 40.2802 12.808 40.5491 11.4288 40.5491 9.7556 40.5491 8.1398 40.2814 6.79767 39.746 5.72923 39.2106 4.66079 38.3811 3.94252 37.2577 3.57442ZM7.56966 3.02227 7.76327 3.57442C6.64463 3.94252 5.81641 4.66079 5.27861 5.72923 4.7408 6.79767 4.4719 8.1398 4.4719 9.7556 4.4719 11.4288 4.7408 12.808 5.27861 13.8931 5.81641 14.9783 6.63746 15.7049 7.74176 16.073L7.56966 16.6252C6.16898 16.2571 5.09575 15.4647 4.35 14.2481 3.60424 13.0314 3.23136 11.5579 3.23136 9.82731 3.23136 8.10155 3.60543 6.62796 4.35358 5.40655 5.10173 4.18513 6.17376 3.39037 7.56966 3.02227Z" fill-rule="evenodd" transform="matrix(1 0 0 1.00097 17.9434 136.037)"/><text font-family="Cambria Math,Cambria Math_MSFontService,sans-serif" font-weight="400" font-size="14.6857" transform="matrix(1 0 0 1.00097 25.9727 150)">𝟏</text><text font-family="Cambria Math,Cambria Math_MSFontService,sans-serif" font-weight="400" font-size="14.6857" transform="matrix(1 0 0 1.00097 34.8088 150)">,</text><text font-family="Yu Gothic,Yu Gothic_MSFontService,sans-serif" font-weight="400" font-size="14.6857" transform="matrix(1 0 0 1.00097 40.2573 150)">♡</text><path d="M37.4513 3.02227C38.8472 3.39037 39.9193 4.18513 40.6674 5.40655 41.4156 6.62796 41.7896 8.10155 41.7896 9.82731 41.7896 11.5579 41.4168 13.0314 40.671 14.2481 39.9252 15.4647 38.852 16.2571 37.4513 16.6252L37.2792 16.073C38.3835 15.7049 39.2046 14.9783 39.7424 13.8931 40.2802 12.808 40.5491 11.4288 40.5491 9.7556 40.5491 8.1398 40.2814 6.79767 39.746 5.72923 39.2106 4.66079 38.3811 3.94252 37.2577 3.57442ZM7.56966 3.02227 7.76327 3.57442C6.64463 3.94252 5.81641 4.66079 5.27861 5.72923 4.7408 6.79767 4.4719 8.1398 4.4719 9.7556 4.4719 11.4288 4.7408 12.808 5.27861 13.8931 5.81641 14.9783 6.63746 15.7049 7.74176 16.073L7.56966 16.6252C6.16898 16.2571 5.09575 15.4647 4.35 14.2481 3.60424 13.0314 3.23136 11.5579 3.23136 9.82731 3.23136 8.10155 3.60543 6.62796 4.35358 5.40655 5.10173 4.18513 6.17376 3.39037 7.56966 3.02227Z" fill-rule="evenodd" transform="matrix(1 0 0 1.00097 18.2795 183.054)"/><text font-family="Cambria Math,Cambria Math_MSFontService,sans-serif" font-weight="400" font-size="14.6857" transform="matrix(1 0 0 1.00097 26.3087 197)">𝟏</text><text font-family="Cambria Math,Cambria Math_MSFontService,sans-serif" font-weight="400" font-size="14.6857" transform="matrix(1 0 0 1.00097 35.1449 197)">,</text><text font-family="Yu Gothic,Yu Gothic_MSFontService,sans-serif" font-weight="400" font-size="14.6857" transform="matrix(1 0 0 1.00097 40.5933 197)">♠</text><rect x="8.49995" y="32.5317" width="287" height="190.185" stroke="#172C51" stroke-width="1.33376" stroke-miterlimit="8" fill="none"/><text font-family="Cambria Math,Cambria Math_MSFontService,sans-serif" font-weight="400" font-size="14.6857" transform="matrix(1 0 0 1.00097 256.48 325)">𝟔</text><text font-family="Calibri,Calibri_MSFontService,sans-serif" font-weight="700" font-size="14.6857" transform="matrix(1 0 0 1.00097 211.699 325)">5</text><text font-family="Calibri,Calibri_MSFontService,sans-serif" font-weight="700" font-size="14.6857" transform="matrix(1 0 0 1.00097 168.467 325)">4</text><text font-family="Cambria Math,Cambria Math_MSFontService,sans-serif" font-weight="400" font-size="14.6857" transform="matrix(1 0 0 1.00097 125.12 325)">𝟑</text><text font-family="Cambria Math,Cambria Math_MSFontService,sans-serif" font-weight="400" font-size="14.6857" transform="matrix(1 0 0 1.00097 82.7126 325)">𝟐</text><text font-family="Cambria Math,Cambria Math_MSFontService,sans-serif" font-weight="400" font-size="14.6857" transform="matrix(1 0 0 1.00097 37.2975 325)">𝟏</text><rect x="16.5" y="305.798" width="264" height="43.0419" stroke="#172C51" stroke-width="1.33376" stroke-miterlimit="8" fill="none"/><text font-family="Cambria Math,Cambria Math_MSFontService,sans-serif" font-weight="400" font-size="14.6857" transform="matrix(1 0 0 1.00097 148.384 370)">𝑿</text><path d="M255 67.5658C255 65.6309 256.567 64.0624 258.5 64.0624 260.433 64.0624 262 65.6309 262 67.5658 262 69.5007 260.433 71.0692 258.5 71.0692 256.567 71.0692 255 69.5007 255 67.5658Z" fill-rule="evenodd"/><path d="M255 114.612C255 112.677 256.567 111.108 258.5 111.108 260.433 111.108 262 112.677 262 114.612 262 116.546 260.433 118.115 258.5 118.115 256.567 118.115 255 116.546 255 114.612Z" fill-rule="evenodd"/><path d="M255 207.702C255 205.767 256.567 204.199 258.5 204.199 260.433 204.199 262 205.767 262 207.702 262 209.637 260.433 211.206 258.5 211.206 256.567 211.206 255 209.637 255 207.702Z" fill-rule="evenodd"/><path d="M255 159.655C255 157.721 256.567 156.152 258.5 156.152 260.433 156.152 262 157.721 262 159.655 262 161.59 260.433 163.159 258.5 163.159 256.567 163.159 255 161.59 255 159.655Z" fill-rule="evenodd"/><path d="M212 67.5658C212 65.6309 213.567 64.0624 215.5 64.0624 217.433 64.0624 219 65.6309 219 67.5658 219 69.5007 217.433 71.0692 215.5 71.0692 213.567 71.0692 212 69.5007 212 67.5658Z" fill-rule="evenodd"/><path d="M212 114.612C212 112.677 213.567 111.108 215.5 111.108 217.433 111.108 219 112.677 219 114.612 219 116.546 217.433 118.115 215.5 118.115 213.567 118.115 212 116.546 212 114.612Z" fill-rule="evenodd"/><path d="M212 207.702C212 205.767 213.567 204.199 215.5 204.199 217.433 204.199 219 205.767 219 207.702 219 209.637 217.433 211.206 215.5 211.206 213.567 211.206 212 209.637 212 207.702Z" fill-rule="evenodd"/><path d="M212 159.655C212 157.721 213.567 156.152 215.5 156.152 217.433 156.152 219 157.721 219 159.655 219 161.59 217.433 163.159 215.5 163.159 213.567 163.159 212 161.59 212 159.655Z" fill-rule="evenodd"/><path d="M168 67.5658C168 65.6309 169.567 64.0624 171.5 64.0624 173.433 64.0624 175 65.6309 175 67.5658 175 69.5007 173.433 71.0692 171.5 71.0692 169.567 71.0692 168 69.5007 168 67.5658Z" fill-rule="evenodd"/><path d="M168 114.612C168 112.677 169.567 111.108 171.5 111.108 173.433 111.108 175 112.677 175 114.612 175 116.546 173.433 118.115 171.5 118.115 169.567 118.115 168 116.546 168 114.612Z" fill-rule="evenodd"/><path d="M168 207.702C168 205.767 169.567 204.199 171.5 204.199 173.433 204.199 175 205.767 175 207.702 175 209.637 173.433 211.206 171.5 211.206 169.567 211.206 168 209.637 168 207.702Z" fill-rule="evenodd"/><path d="M168 160.656C168 158.722 169.567 157.153 171.5 157.153 173.433 157.153 175 158.722 175 160.656 175 162.591 173.433 164.16 171.5 164.16 169.567 164.16 168 162.591 168 160.656Z" fill-rule="evenodd"/><path d="M125 67.5658C125 65.6309 126.567 64.0624 128.5 64.0624 130.433 64.0624 132 65.6309 132 67.5658 132 69.5007 130.433 71.0692 128.5 71.0692 126.567 71.0692 125 69.5007 125 67.5658Z" fill-rule="evenodd"/><path d="M125 114.111C125 111.9 126.567 110.107 128.5 110.107 130.433 110.107 132 111.9 132 114.111 132 116.322 130.433 118.115 128.5 118.115 126.567 118.115 125 116.322 125 114.111Z" fill-rule="evenodd"/><path d="M125 207.702C125 205.767 126.567 204.199 128.5 204.199 130.433 204.199 132 205.767 132 207.702 132 209.637 130.433 211.206 128.5 211.206 126.567 211.206 125 209.637 125 207.702Z" fill-rule="evenodd"/><path d="M125 159.655C125 157.721 126.567 156.152 128.5 156.152 130.433 156.152 132 157.721 132 159.655 132 161.59 130.433 163.159 128.5 163.159 126.567 163.159 125 161.59 125 159.655Z" fill-rule="evenodd"/><path d="M82 68.5668C82 66.6319 83.567 65.0634 85.5 65.0634 87.433 65.0634 89 66.6319 89 68.5668 89 70.5016 87.433 72.0702 85.5 72.0702 83.567 72.0702 82 70.5016 82 68.5668Z" fill-rule="evenodd"/><path d="M82 115.112C82 112.901 83.567 111.108 85.5 111.108 87.433 111.108 89 112.901 89 115.112 89 117.323 87.433 119.116 85.5 119.116 83.567 119.116 82 117.323 82 115.112Z" fill-rule="evenodd"/><path d="M82 208.203C82 205.991 83.567 204.199 85.5 204.199 87.433 204.199 89 205.991 89 208.203 89 210.414 87.433 212.207 85.5 212.207 83.567 212.207 82 210.414 82 208.203Z" fill-rule="evenodd"/><path d="M82 160.656C82 158.722 83.567 157.153 85.5 157.153 87.433 157.153 89 158.722 89 160.656 89 162.591 87.433 164.16 85.5 164.16 83.567 164.16 82 162.591 82 160.656Z" fill-rule="evenodd"/><path d="M37 67.5658C37 65.6309 38.567 64.0624 40.5 64.0624 42.433 64.0624 44 65.6309 44 67.5658 44 69.5007 42.433 71.0692 40.5 71.0692 38.567 71.0692 37 69.5007 37 67.5658Z" fill-rule="evenodd"/><path d="M37 114.612C37 112.677 38.567 111.108 40.5 111.108 42.433 111.108 44 112.677 44 114.612 44 116.546 42.433 118.115 40.5 118.115 38.567 118.115 37 116.546 37 114.612Z" fill-rule="evenodd"/><path d="M37 207.702C37 205.767 38.567 204.199 40.5 204.199 42.433 204.199 44 205.767 44 207.702 44 209.637 42.433 211.206 40.5 211.206 38.567 211.206 37 209.637 37 207.702Z" fill-rule="evenodd"/><path d="M37 160.156C37 157.945 38.567 156.152 40.5 156.152 42.433 156.152 44 157.945 44 160.156 44 162.367 42.433 164.16 40.5 164.16 38.567 164.16 37 162.367 37 160.156Z" fill-rule="evenodd"/><path d="M255 334.826C255 332.891 256.567 331.323 258.5 331.323 260.433 331.323 262 332.891 262 334.826 262 336.761 260.433 338.329 258.5 338.329 256.567 338.329 255 336.761 255 334.826Z" fill-rule="evenodd"/><path d="M212 334.826C212 332.891 213.567 331.323 215.5 331.323 217.433 331.323 219 332.891 219 334.826 219 336.761 217.433 338.329 215.5 338.329 213.567 338.329 212 336.761 212 334.826Z" fill-rule="evenodd"/><path d="M168 334.826C168 332.891 169.567 331.323 171.5 331.323 173.433 331.323 175 332.891 175 334.826 175 336.761 173.433 338.329 171.5 338.329 169.567 338.329 168 336.761 168 334.826Z" fill-rule="evenodd"/><path d="M125 333.825C125 331.89 126.567 330.322 128.5 330.322 130.433 330.322 132 331.89 132 333.825 132 335.76 130.433 337.329 128.5 337.329 126.567 337.329 125 335.76 125 333.825Z" fill-rule="evenodd"/><path d="M82 334.826C82 332.891 83.567 331.323 85.5 331.323 87.433 331.323 89 332.891 89 334.826 89 336.761 87.433 338.329 85.5 338.329 83.567 338.329 82 336.761 82 334.826Z" fill-rule="evenodd"/><path d="M37 334.826C37 332.891 38.567 331.323 40.5 331.323 42.433 331.323 44 332.891 44 334.826 44 336.761 42.433 338.329 40.5 338.329 38.567 338.329 37 336.761 37 334.826Z" fill-rule="evenodd"/><path d="M407 64.5629C407 62.628 408.567 61.0595 410.5 61.0595 412.433 61.0595 414 62.628 414 64.5629 414 66.4978 412.433 68.0663 410.5 68.0663 408.567 68.0663 407 66.4978 407 64.5629Z" fill-rule="evenodd"/><path d="M407 114.612C407 112.677 408.567 111.108 410.5 111.108 412.433 111.108 414 112.677 414 114.612 414 116.546 412.433 118.115 410.5 118.115 408.567 118.115 407 116.546 407 114.612Z" fill-rule="evenodd"/><path d="M407 207.702C407 205.767 408.567 204.199 410.5 204.199 412.433 204.199 414 205.767 414 207.702 414 209.637 412.433 211.206 410.5 211.206 408.567 211.206 407 209.637 407 207.702Z" fill-rule="evenodd"/><path d="M407 159.655C407 157.721 408.567 156.152 410.5 156.152 412.433 156.152 414 157.721 414 159.655 414 161.59 412.433 163.159 410.5 163.159 408.567 163.159 407 161.59 407 159.655Z" fill-rule="evenodd"/><text font-family="Yu Gothic,Yu Gothic_MSFontService,sans-serif" font-weight="700" font-size="14.6857" transform="matrix(1 0 0 1.00097 402.97 56)">♣</text><text font-family="Yu Gothic,Yu Gothic_MSFontService,sans-serif" font-weight="400" font-size="14.6857" transform="matrix(1 0 0 1.00097 405.04 101)">♢</text><text font-family="Yu Gothic,Yu Gothic_MSFontService,sans-serif" font-weight="700" font-size="14.6857" transform="matrix(1 0 0 1.00097 402.97 150)">♡</text><text font-family="Yu Gothic,Yu Gothic_MSFontService,sans-serif" font-weight="400" font-size="14.6857" transform="matrix(1 0 0 1.00097 405.04 197)">♠</text><rect x="395.5" y="32.5317" width="31" height="186.181" stroke="#172C51" stroke-width="1.33376" stroke-miterlimit="8" fill="none"/><text font-family="Cambria Math,Cambria Math_MSFontService,sans-serif" font-weight="400" font-size="14.6857" transform="matrix(1 0 0 1.00097 408.71 27)">𝒀</text><path d="M304.5 123.954 390.18 123.954 390.18 125.289 304.5 125.289ZM382.513 119.372 391.503 124.621 382.513 129.871C382.195 130.056 381.787 129.949 381.601 129.63 381.415 129.312 381.523 128.903 381.841 128.717L389.844 124.045 389.844 125.198 381.841 120.525C381.523 120.339 381.415 119.931 381.601 119.612 381.787 119.294 382.195 119.186 382.513 119.372Z" fill="#172C51"/><path d="M152.167 229.724 152.167 299.471 150.833 299.471 150.833 229.724ZM156.744 291.797 151.5 300.796 146.256 291.797C146.07 291.479 146.178 291.07 146.496 290.884 146.814 290.699 147.222 290.806 147.408 291.125L152.076 299.135 150.924 299.135 155.592 291.125C155.778 290.806 156.186 290.699 156.504 290.884 156.822 291.07 156.93 291.479 156.744 291.797Z" fill="#172C51"/><text font-family="Cambria Math,Cambria Math_MSFontService,sans-serif" font-weight="400" font-size="14.6857" transform="matrix(1 0 0 1.00097 131.144 266)">𝝅</text><text font-family="Cambria Math,Cambria Math_MSFontService,sans-serif" font-weight="400" font-size="10.7206" transform="matrix(1 0 0 1.00097 141.148 269)">𝟏</text><text font-family="Cambria Math,Cambria Math_MSFontService,sans-serif" font-weight="400" font-size="14.6857" transform="matrix(1 0 0 1.00097 338.218 116)">𝝅</text><text font-family="Cambria Math,Cambria Math_MSFontService,sans-serif" font-weight="400" font-size="10.7206" transform="matrix(1 0 0 1.00097 348.222 119)">𝟐</text><path d="M31.6161 3.02227C33.012 3.39037 34.0841 4.18513 34.8322 5.40655 35.5803 6.62796 35.9544 8.10155 35.9544 9.82731 35.9544 11.5579 35.5815 13.0314 34.8358 14.2481 34.09 15.4647 33.0168 16.2571 31.6161 16.6252L31.444 16.073C32.5483 15.7049 33.3694 14.9783 33.9072 13.8931 34.445 12.808 34.7139 11.4288 34.7139 9.7556 34.7139 8.1398 34.4462 6.79767 33.9108 5.72923 33.3753 4.66079 32.5459 3.94252 31.4225 3.57442ZM7.56966 3.02227 7.76327 3.57442C6.64463 3.94252 5.81641 4.66079 5.27861 5.72923 4.7408 6.79767 4.4719 8.1398 4.4719 9.7556 4.4719 11.4288 4.7408 12.808 5.27861 13.8931 5.81641 14.9783 6.63746 15.7049 7.74176 16.073L7.56966 16.6252C6.16898 16.2571 5.09575 15.4647 4.35 14.2481 3.60424 13.0314 3.23136 11.5579 3.23136 9.82731 3.23136 8.10155 3.60543 6.62796 4.35358 5.40655 5.10173 4.18513 6.17376 3.39037 7.56966 3.02227Z" fill-rule="evenodd" transform="matrix(1 0 0 1.00097 461.405 117.627)"/><text font-family="Cambria Math,Cambria Math_MSFontService,sans-serif" font-weight="400" font-size="14.6857" transform="matrix(1 0 0 1.00097 469.434 132)">𝟑</text><text font-family="Cambria Math,Cambria Math_MSFontService,sans-serif" font-weight="400" font-size="14.6857" transform="matrix(1 0 0 1.00097 478.27 132)">.</text><text font-family="Cambria Math,Cambria Math_MSFontService,sans-serif" font-weight="400" font-size="14.6857" transform="matrix(1 0 0 1.00097 483.719 132)">𝟏</text></g></svg>