<svg width="302" height="257" xmlns="http://www.w3.org/2000/svg" xmlns:xlink="http://www.w3.org/1999/xlink" overflow="hidden"><defs><clipPath id="clip0"><rect x="0" y="0" width="302" height="257"/></clipPath></defs><g clip-path="url(#clip0)"><rect x="0" y="0" width="302" height="257.284" fill="#FFFFFF"/><text font-family="Calibri,Calibri_MSFontService,sans-serif" font-weight="700" font-size="14.6667" transform="matrix(1 0 0 1.0011 41.8733 18)">X</text><text font-family="Calibri,Calibri_MSFontService,sans-serif" font-weight="700" font-size="14.6667" transform="matrix(1 0 0 1.0011 248.497 18)">Y</text><path d="M5.49997 138.152C5.49997 77.0575 24.304 27.5304 47.5 27.5304 70.6959 27.5304 89.5 77.0575 89.5 138.152 89.5 199.247 70.6959 248.774 47.5 248.774 24.304 248.774 5.49997 199.247 5.49997 138.152Z" stroke="#172C51" stroke-width="1.33186" stroke-miterlimit="8" fill="none" fill-rule="evenodd"/><path d="M42.5 64.5712C42.5 61.8067 44.7385 59.5657 47.5 59.5657 50.2614 59.5657 52.5 61.8067 52.5 64.5712 52.5 67.3356 50.2614 69.5767 47.5 69.5767 44.7385 69.5767 42.5 67.3356 42.5 64.5712Z" stroke="#172C51" stroke-width="1.33186" stroke-miterlimit="8" fill-rule="evenodd"/><path d="M42.5 110.622C42.5 107.858 44.7385 105.616 47.5 105.616 50.2614 105.616 52.5 107.858 52.5 110.622 52.5 113.386 50.2614 115.628 47.5 115.628 44.7385 115.628 42.5 113.386 42.5 110.622Z" stroke="#172C51" stroke-width="1.33186" stroke-miterlimit="8" fill-rule="evenodd"/><path d="M42.5 156.673C42.5 153.908 44.7385 151.667 47.5 151.667 50.2614 151.667 52.5 153.908 52.5 156.673 52.5 159.437 50.2614 161.678 47.5 161.678 44.7385 161.678 42.5 159.437 42.5 156.673Z" stroke="#172C51" stroke-width="1.33186" stroke-miterlimit="8" fill-rule="evenodd"/><path d="M43.5 202.223C43.5 199.182 45.9624 196.717 49 196.717 52.0375 196.717 54.5 199.182 54.5 202.223 54.5 205.264 52.0375 207.729 49 207.729 45.9624 207.729 43.5 205.264 43.5 202.223Z" stroke="#172C51" stroke-width="1.33186" stroke-miterlimit="8" fill-rule="evenodd"/><path d="M211.5 138.152C211.5 77.0575 230.528 27.5304 254 27.5304 277.472 27.5304 296.5 77.0575 296.5 138.152 296.5 199.247 277.472 248.774 254 248.774 230.528 248.774 211.5 199.247 211.5 138.152Z" stroke="#172C51" stroke-width="1.33186" stroke-miterlimit="8" fill="none" fill-rule="evenodd"/><text font-family="Cambria Math,Cambria Math_MSFontService,sans-serif" font-weight="400" font-size="14.6667" transform="matrix(1 0 0 1.0011 24.3763 69)">𝒙</text><text font-family="Cambria Math,Cambria Math_MSFontService,sans-serif" font-weight="400" font-size="10.7067" transform="matrix(1 0 0 1.0011 32.8669 72)">𝟏</text><text font-family="Cambria Math,Cambria Math_MSFontService,sans-serif" font-weight="400" font-size="14.6667" transform="matrix(1 0 0 1.0011 22.6869 114)">𝒙</text><text font-family="Cambria Math,Cambria Math_MSFontService,sans-serif" font-weight="400" font-size="10.7067" transform="matrix(1 0 0 1.0011 31.1776 117)">𝟐</text><text font-family="Cambria Math,Cambria Math_MSFontService,sans-serif" font-weight="400" font-size="14.6667" transform="matrix(1 0 0 1.0011 22.6869 159)">𝒙</text><text font-family="Cambria Math,Cambria Math_MSFontService,sans-serif" font-weight="400" font-size="10.7067" transform="matrix(1 0 0 1.0011 31.1776 162)">𝟑</text><text font-family="Cambria Math,Cambria Math_MSFontService,sans-serif" font-weight="400" font-size="14.6667" transform="matrix(1 0 0 1.0011 22.6869 206)">𝒙</text><text font-family="Cambria Math,Cambria Math_MSFontService,sans-serif" font-weight="400" font-size="10.7067" transform="matrix(1 0 0 1.0011 31.1776 209)">𝟒</text><path d="M247.5 64.5712C247.5 61.8067 249.739 59.5657 252.5 59.5657 255.261 59.5657 257.5 61.8067 257.5 64.5712 257.5 67.3356 255.261 69.5767 252.5 69.5767 249.739 69.5767 247.5 67.3356 247.5 64.5712Z" stroke="#172C51" stroke-width="1.33186" stroke-miterlimit="8" fill-rule="evenodd"/><path d="M247.5 110.622C247.5 107.858 249.739 105.616 252.5 105.616 255.261 105.616 257.5 107.858 257.5 110.622 257.5 113.386 255.261 115.628 252.5 115.628 249.739 115.628 247.5 113.386 247.5 110.622Z" stroke="#172C51" stroke-width="1.33186" stroke-miterlimit="8" fill-rule="evenodd"/><path d="M247.5 156.172C247.5 153.131 249.739 150.666 252.5 150.666 255.261 150.666 257.5 153.131 257.5 156.172 257.5 159.213 255.261 161.678 252.5 161.678 249.739 161.678 247.5 159.213 247.5 156.172Z" stroke="#172C51" stroke-width="1.33186" stroke-miterlimit="8" fill-rule="evenodd"/><path d="M247.5 201.722C247.5 198.958 249.739 196.717 252.5 196.717 255.261 196.717 257.5 198.958 257.5 201.722 257.5 204.487 255.261 206.728 252.5 206.728 249.739 206.728 247.5 204.487 247.5 201.722Z" stroke="#172C51" stroke-width="1.33186" stroke-miterlimit="8" fill-rule="evenodd"/><text font-family="Cambria Math,Cambria Math_MSFontService,sans-serif" font-weight="400" font-size="14.6667" transform="matrix(1 0 0 1.0011 260.383 69)">𝒚</text><text font-family="Cambria Math,Cambria Math_MSFontService,sans-serif" font-weight="400" font-size="10.7067" transform="matrix(1 0 0 1.0011 269.207 72)">𝟏</text><text font-family="Cambria Math,Cambria Math_MSFontService,sans-serif" font-weight="400" font-size="14.6667" transform="matrix(1 0 0 1.0011 260.383 114)">𝒚</text><text font-family="Cambria Math,Cambria Math_MSFontService,sans-serif" font-weight="400" font-size="10.7067" transform="matrix(1 0 0 1.0011 269.207 117)">𝟐</text><text font-family="Cambria Math,Cambria Math_MSFontService,sans-serif" font-weight="400" font-size="14.6667" transform="matrix(1 0 0 1.0011 260.383 158)">𝒚</text><text font-family="Cambria Math,Cambria Math_MSFontService,sans-serif" font-weight="400" font-size="10.7067" transform="matrix(1 0 0 1.0011 269.207 161)">𝟑</text><text font-family="Cambria Math,Cambria Math_MSFontService,sans-serif" font-weight="400" font-size="14.6667" transform="matrix(1 0 0 1.0011 260.383 205)">𝒚</text><text font-family="Cambria Math,Cambria Math_MSFontService,sans-serif" font-weight="400" font-size="10.7067" transform="matrix(1 0 0 1.0011 269.207 208)">𝟒</text><path d="M3.5495e-07-0.665932 190.092-0.66583 190.092 0.666033-3.5495e-07 0.665932ZM188.76-3.99549 196.752 0.000104871 188.76 3.99569Z" transform="matrix(1 0 0 -1.0011 52.5 63.5702)"/><path d="M52.641 109.97 242.884 151.258 242.602 152.561 52.3589 111.273ZM242.288 147.718 249.252 153.322 240.595 155.536Z"/><path d="M52.6456 156.022 242.899 198.707 242.608 200.008 52.3543 157.323ZM242.328 195.162 249.252 200.815 240.58 202.969Z"/><path d="M0.285907-0.601433 189.636 89.4109 189.064 90.6138-0.285907 0.601433ZM189.862 85.832 195.364 92.8715 186.431 93.0492Z" transform="matrix(1 0 0 -1.0011 54.5 202.595)"/></g></svg>