<svg width="180" height="217" xmlns="http://www.w3.org/2000/svg" xmlns:xlink="http://www.w3.org/1999/xlink" overflow="hidden"><defs><clipPath id="clip0"><rect x="0" y="0" width="180" height="217"/></clipPath></defs><g clip-path="url(#clip0)"><rect x="0" y="0" width="180" height="217.061" fill="#FFFFFF"/><text font-family="Cambria Math,Cambria Math_MSFontService,sans-serif" font-weight="400" font-size="14.6442" transform="matrix(1 0 0 0.995693 71.7763 208)">𝑿</text><text font-family="Cambria Math,Cambria Math_MSFontService,sans-serif" font-weight="400" font-size="14.6442" transform="matrix(1 0 0 0.995693 85.2403 208)">⊔</text><text font-family="Cambria Math,Cambria Math_MSFontService,sans-serif" font-weight="400" font-size="14.6442" transform="matrix(1 0 0 0.995693 99.0387 208)">𝒀</text><text font-family="Cambria Math,Cambria Math_MSFontService,sans-serif" font-weight="400" font-size="14.6442" transform="matrix(1 0 0 0.995693 87.5347 32)">𝑨</text><text font-family="Cambria Math,Cambria Math_MSFontService,sans-serif" font-weight="400" font-size="14.6442" transform="matrix(1 0 0 0.995693 21.5884 118)">𝑿</text><text font-family="Cambria Math,Cambria Math_MSFontService,sans-serif" font-weight="400" font-size="14.6442" transform="matrix(1 0 0 0.995693 149.79 121)">𝒀</text><text font-family="Cambria Math,Cambria Math_MSFontService,sans-serif" font-weight="400" font-size="14.6442" transform="matrix(1 0 0 0.995693 37.4917 161)">𝒊</text><text font-family="Cambria Math,Cambria Math_MSFontService,sans-serif" font-weight="400" font-size="10.6902" transform="matrix(1 0 0 0.995693 43.007 164)">𝟏</text><text font-family="Cambria Math,Cambria Math_MSFontService,sans-serif" font-weight="400" font-size="14.6442" transform="matrix(1 0 0 0.995693 131.445 163)">𝒊</text><text font-family="Cambria Math,Cambria Math_MSFontService,sans-serif" font-weight="400" font-size="10.6902" transform="matrix(1 0 0 0.995693 136.961 166)">𝟐</text><text font-family="Cambria Math,Cambria Math_MSFontService,sans-serif" font-weight="400" font-size="14.6442" transform="matrix(1 0 0 0.995693 41.1939 77)">𝒇</text><text font-family="Cambria Math,Cambria Math_MSFontService,sans-serif" font-weight="400" font-size="14.6442" transform="matrix(1 0 0 0.995693 133.554 74)">𝒈</text><path d="M80.1742 190.014 31.9633 125.356 33.0368 124.563 81.2477 189.22ZM80.3506 180.353 81.5018 190.678 71.9087 186.593C71.5692 186.449 71.4117 186.057 71.5568 185.719 71.702 185.381 72.0949 185.225 72.4344 185.369L80.9738 189.005 80.0465 189.69 79.0218 180.499C78.981 180.134 79.2455 179.805 79.6124 179.764 79.9794 179.724 80.3099 179.987 80.3506 180.353Z" fill="#172C51"/><path d="M48.4584 65.0673-0.53058 0.401955 0.53058-0.401955 49.5195 64.2634ZM48.5402 55.4046 49.7865 65.7181 40.1955 61.7264C39.8561 61.5851 39.6954 61.1955 39.8367 60.8561 39.978 60.5167 40.3676 60.356 40.707 60.4973L49.2445 64.0506 48.3279 64.745 47.2185 55.5643C47.1744 55.1993 47.4345 54.8677 47.7995 54.8236 48.1645 54.7795 48.4961 55.0396 48.5402 55.4046Z" fill="#172C51" transform="matrix(-1.00433 0 0 1 149.5 125.955)"/><path d="M48.458 65.067-0.53058 0.401954 0.53058-0.401954 49.5192 64.2631ZM48.5402 55.4047 49.7865 65.7182 40.1955 61.7265C39.8561 61.5852 39.6954 61.1956 39.8367 60.8562 39.978 60.5168 40.3676 60.3561 40.707 60.4974L49.2445 64.0507 48.3279 64.7451 47.2185 55.5644C47.1744 55.1995 47.4345 54.8678 47.7995 54.8237 48.1645 54.7796 48.4961 55.0397 48.5402 55.4047Z" fill="#172C51" transform="matrix(1.00433 0 0 -1 32.5 105.046)"/><path d="M101.832 38.9825 151.033 103.648 149.967 104.452 100.766 39.7865ZM101.75 48.6452 100.498 38.3317 110.131 42.3235C110.471 42.4647 110.633 42.8544 110.491 43.1938 110.349 43.5332 109.958 43.6938 109.617 43.5525L101.042 39.9993 101.963 39.3049 103.077 48.4855C103.121 48.8505 102.86 49.1821 102.494 49.2262 102.127 49.2703 101.794 49.0102 101.75 48.6452Z" fill="#172C51"/><path d="M90.8315 189.679 90.8315 184.354 92.1686 184.354 92.1686 189.679ZM90.8315 180.36 90.8315 175.035 92.1686 175.035 92.1686 180.36ZM90.8315 171.041 90.8315 165.716 92.1686 165.716 92.1686 171.041ZM90.8315 161.722 90.8315 156.397 92.1686 156.397 92.1686 161.722ZM90.8315 152.403 90.8315 147.078 92.1686 147.078 92.1686 152.403ZM90.8315 143.084 90.8315 137.759 92.1686 137.759 92.1686 143.084ZM90.8315 133.765 90.8315 128.44 92.1686 128.44 92.1686 133.765ZM90.8315 124.446 90.8315 119.121 92.1686 119.121 92.1686 124.446ZM90.8315 115.127 90.8315 109.802 92.1686 109.802 92.1686 115.127ZM90.8315 105.808 90.8315 100.483 92.1686 100.483 92.1686 105.808ZM90.8315 96.4893 90.8315 91.1641 92.1686 91.1641 92.1686 96.4893ZM90.8315 87.1702 90.8315 81.8451 92.1686 81.8451 92.1686 87.1702ZM90.8315 77.8512 90.8315 72.5261 92.1686 72.5261 92.1686 77.8512ZM90.8315 68.5322 90.8315 63.2071 92.1686 63.2071 92.1686 68.5322ZM90.8315 59.2132 90.8315 53.888 92.1686 53.888 92.1686 59.2132ZM90.8315 49.8942 90.8315 44.569 92.1686 44.569 92.1686 49.8942ZM90.8315 40.5752 90.8315 38.6553 92.1686 38.6553 92.1686 40.5752ZM86.2429 46.3088 91.5 37.3354 96.7572 46.3088C96.9432 46.6263 96.8355 47.0339 96.5166 47.2191 96.1976 47.4044 95.7883 47.2971 95.6023 46.9795L90.9226 38.9918 92.0775 38.9918 87.3978 46.9795C87.2118 47.2971 86.8025 47.4044 86.4835 47.2191 86.1646 47.0339 86.0569 46.6263 86.2429 46.3088Z" fill="#172C51"/><text font-family="Cambria Math,Cambria Math_MSFontService,sans-serif" font-weight="400" font-size="14.6442" transform="matrix(1 0 0 0.995693 77.1458 108)">𝒇</text><text font-family="Cambria Math,Cambria Math_MSFontService,sans-serif" font-weight="400" font-size="14.6442" transform="matrix(1 0 0 0.995693 76.438 123)">𝒈</text><path d="M74.5 128.942C71.7385 128.942 69.5 127.362 69.5 125.413L69.5 115.545C69.5 113.596 67.2614 112.015 64.5 112.015 67.2614 112.015 69.5 110.435 69.5 108.486L69.5 98.6183C69.5 96.669 71.7385 95.0887 74.5 95.0887" stroke="#000000" stroke-width="1.33705" stroke-miterlimit="8" fill="none" fill-rule="evenodd"/></g></svg>