<svg width="835" height="170" xmlns="http://www.w3.org/2000/svg" xmlns:xlink="http://www.w3.org/1999/xlink" overflow="hidden"><defs><clipPath id="clip0"><rect x="0" y="0" width="835" height="170"/></clipPath></defs><g clip-path="url(#clip0)"><rect x="0" y="0" width="835" height="170.068" fill="#FFFFFF"/><rect x="25.5" y="72.5289" width="78" height="45.018" stroke="#000000" stroke-width="0.999601" stroke-linejoin="round" stroke-miterlimit="10" fill="none"/><text font-family="Calibri,Calibri_MSFontService,sans-serif" font-weight="700" font-size="14.6667" transform="matrix(1 0 0 1.0004 34.321 91)">.mp3</text><text font-family="Yu Gothic,Yu Gothic_MSFontService,sans-serif" font-weight="700" font-size="14.6667" transform="matrix(1 0 0 1.0004 34.321 108)">уГХуВбуВдуГл</text><text font-family="Yu Gothic,Yu Gothic_MSFontService,sans-serif" font-weight="700" font-size="14.6667" transform="matrix(1 0 0 1.0004 125.84 51)">уАМ</text><text font-family="Calibri,Calibri_MSFontService,sans-serif" font-weight="700" font-size="14.6667" transform="matrix(1 0 0 1.0004 140.501 51)">.mp3</text><text font-family="Yu Gothic,Yu Gothic_MSFontService,sans-serif" font-weight="700" font-size="14.6667" transform="matrix(1 0 0 1.0004 175.154 51)">уГХуВбуВдуГлуАНуБи</text><text font-family="Yu Gothic,Yu Gothic_MSFontService,sans-serif" font-weight="700" font-size="14.6667" transform="matrix(1 0 0 1.0004 125.84 68)">уВ┐уВ░ф╗ШуБСуБХуВМуБЯх╛МуБо</text><text font-family="Yu Gothic,Yu Gothic_MSFontService,sans-serif" font-weight="700" font-size="14.6667" transform="matrix(1 0 0 1.0004 125.84 86)">я╜Ю</text><text font-family="Yu Gothic,Yu Gothic_MSFontService,sans-serif" font-weight="700" font-size="14.6667" transform="matrix(1 0 0 1.0004 140.501 86)">уБп</text><text font-family="Yu Gothic,Yu Gothic_MSFontService,sans-serif" font-weight="700" font-size="14.6667" transform="matrix(1 0 0 1.0004 155.161 86)">я╜ея╜ея╜е</text><text font-family="Yu Gothic,Yu Gothic_MSFontService,sans-serif" font-weight="700" font-size="14.6667" transform="matrix(1 0 0 1.0004 177.153 86)">уБзуБВуВЛ</text><text font-family="Yu Gothic,Yu Gothic_MSFontService,sans-serif" font-weight="700" font-size="14.6667" transform="matrix(1 0 0 1.0004 574.766 51)">уАМ</text><text font-family="Calibri,Calibri_MSFontService,sans-serif" font-weight="700" font-size="14.6667" transform="matrix(1 0 0 1.0004 589.427 51)">.wav</text><text font-family="Yu Gothic,Yu Gothic_MSFontService,sans-serif" font-weight="700" font-size="14.6667" transform="matrix(1 0 0 1.0004 621.914 51)">уГХуВбуВдуГлуАНуБи</text><text font-family="Yu Gothic,Yu Gothic_MSFontService,sans-serif" font-weight="700" font-size="14.6667" transform="matrix(1 0 0 1.0004 574.766 68)">уВ┐уВ░ф╗ШуБСуБХуВМуБЯх╛МуБо</text><text font-family="Yu Gothic,Yu Gothic_MSFontService,sans-serif" font-weight="700" font-size="14.6667" transform="matrix(1 0 0 1.0004 574.766 86)">я╜Ю</text><text font-family="Yu Gothic,Yu Gothic_MSFontService,sans-serif" font-weight="700" font-size="14.6667" transform="matrix(1 0 0 1.0004 589.427 86)">уБп</text><text font-family="Yu Gothic,Yu Gothic_MSFontService,sans-serif" font-weight="700" font-size="14.6667" transform="matrix(1 0 0 1.0004 604.087 86)">я╜ея╜ея╜е</text><text font-family="Yu Gothic,Yu Gothic_MSFontService,sans-serif" font-weight="700" font-size="14.6667" transform="matrix(1 0 0 1.0004 626.079 86)">уБзуБВуВЛ</text><rect x="726.5" y="72.5289" width="78.9999" height="45.018" stroke="#000000" stroke-width="0.999601" stroke-linejoin="round" stroke-miterlimit="10" fill="none"/><text font-family="Calibri,Calibri_MSFontService,sans-serif" font-weight="700" font-size="14.6667" transform="matrix(1 0 0 1.0004 735.692 91)">.wav</text><text font-family="Yu Gothic,Yu Gothic_MSFontService,sans-serif" font-weight="700" font-size="14.6667" transform="matrix(1 0 0 1.0004 735.692 108)">уГХуВбуВдуГл</text><rect x="288.5" y="45.5182" width="248" height="99.0395" stroke="#000000" stroke-width="0.999601" stroke-linejoin="round" stroke-miterlimit="10" fill="none"/><text font-family="Calibri,Calibri_MSFontService,sans-serif" font-weight="700" font-size="14.6667" transform="matrix(1 0 0 1.0004 297.771 64)">.mp3</text><text font-family="Yu Gothic,Yu Gothic_MSFontService,sans-serif" font-weight="700" font-size="14.6667" transform="matrix(1 0 0 1.0004 329.092 64)">уГХуВбуВдуГл</text><text font-family="Calibri,Calibri_MSFontService,sans-serif" font-weight="700" font-size="14.6667" transform="matrix(1 0 0 1.0004 387.736 64)">(</text><text font-family="Yu Gothic,Yu Gothic_MSFontService,sans-serif" font-weight="700" font-size="14.6667" transform="matrix(1 0 0 1.0004 392.234 64)">уАМ</text><text font-family="Calibri,Calibri_MSFontService,sans-serif" font-weight="700" font-size="14.6667" transform="matrix(1 0 0 1.0004 406.895 64)">.mp3</text><text font-family="Yu Gothic,Yu Gothic_MSFontService,sans-serif" font-weight="700" font-size="14.6667" transform="matrix(1 0 0 1.0004 438.215 64)">уГХуВбуВдуГлуАНуБи</text><text font-family="Yu Gothic,Yu Gothic_MSFontService,sans-serif" font-weight="700" font-size="14.6667" transform="matrix(1 0 0 1.0004 297.771 81)">шбишиШуБХуВМуБжуБДуВЛ</text><text font-family="Calibri,Calibri_MSFontService,sans-serif" font-weight="700" font-size="14.6667" transform="matrix(1 0 0 1.0004 400.397 81)">)</text><text font-family="Yu Gothic,Yu Gothic_MSFontService,sans-serif" font-weight="700" font-size="14.6667" transform="matrix(1 0 0 1.0004 297.771 99)">уБ╛уБЯуБп</text><text font-family="Calibri,Calibri_MSFontService,sans-serif" font-weight="700" font-size="14.6667" transform="matrix(1 0 0 1.0004 297.771 116)">.wav</text><text font-family="Yu Gothic,Yu Gothic_MSFontService,sans-serif" font-weight="700" font-size="14.6667" transform="matrix(1 0 0 1.0004 326.926 116)">уГХуВбуВдуГл</text><text font-family="Calibri,Calibri_MSFontService,sans-serif" font-weight="700" font-size="14.6667" transform="matrix(1 0 0 1.0004 385.57 116)">(</text><text font-family="Yu Gothic,Yu Gothic_MSFontService,sans-serif" font-weight="700" font-size="14.6667" transform="matrix(1 0 0 1.0004 390.068 116)">уАМ</text><text font-family="Calibri,Calibri_MSFontService,sans-serif" font-weight="700" font-size="14.6667" transform="matrix(1 0 0 1.0004 404.729 116)">.wav</text><text font-family="Yu Gothic,Yu Gothic_MSFontService,sans-serif" font-weight="700" font-size="14.6667" transform="matrix(1 0 0 1.0004 433.884 116)">уГХуВбуВдуГлуАН</text><text font-family="Yu Gothic,Yu Gothic_MSFontService,sans-serif" font-weight="700" font-size="14.6667" transform="matrix(1 0 0 1.0004 297.771 134)">уБишбишиШуБХуВМуБжуБДуВЛ</text><path d="M112.5 92.8707 282.181 92.8707 282.181 94.204 112.5 94.204ZM274.519 88.2948 283.503 93.5373 274.519 98.7798C274.202 98.9654 273.794 98.8579 273.608 98.5399 273.423 98.2219 273.53 97.8137 273.848 97.6281L281.845 92.9615 281.845 94.1132 273.848 89.4465C273.53 89.261 273.423 88.8528 273.608 88.5347 273.794 88.2167 274.202 88.1093 274.519 88.2948Z" fill="#172C51"/><path d="M546.82 93.8711 716.5 93.8711 716.5 95.2044 546.82 95.2044ZM554.481 99.7803 545.497 94.5377 554.481 89.2952C554.798 89.1097 555.207 89.2171 555.392 89.5352 555.577 89.8532 555.47 90.2614 555.152 90.4469L547.155 95.1136 547.155 93.9619 555.152 98.6286C555.47 98.8141 555.577 99.2223 555.392 99.5403 555.207 99.8584 554.798 99.9658 554.481 99.7803Z" fill="#172C51"/><text font-family="Cambria Math,Cambria Math_MSFontService,sans-serif" font-weight="400" font-size="14.6667" transform="matrix(1 0 0 1.0004 61.8884 69)">ЁЭСи</text><text font-family="Cambria Math,Cambria Math_MSFontService,sans-serif" font-weight="400" font-size="14.6667" transform="matrix(1 0 0 1.0004 759.39 66)">ЁЭСй</text><text font-family="Cambria Math,Cambria Math_MSFontService,sans-serif" font-weight="400" font-size="14.6667" transform="matrix(1 0 0 1.0004 378.54 40)">ЁЭСк</text><text font-family="Cambria Math,Cambria Math_MSFontService,sans-serif" font-weight="400" font-size="14.6667" transform="matrix(1 0 0 1.0004 391.775 40)">=</text><text font-family="Cambria Math,Cambria Math_MSFontService,sans-serif" font-weight="400" font-size="14.6667" transform="matrix(1 0 0 1.0004 406.843 40)">ЁЭСи</text><text font-family="Cambria Math,Cambria Math_MSFontService,sans-serif" font-weight="400" font-size="14.6667" transform="matrix(1 0 0 1.0004 419.764 40)">тКФ</text><text font-family="Cambria Math,Cambria Math_MSFontService,sans-serif" font-weight="400" font-size="14.6667" transform="matrix(1 0 0 1.0004 433.519 40)">ЁЭСй</text><rect x="7.5" y="10.5041" width="818" height="150.06" stroke="#172C51" stroke-width="1.3328" stroke-miterlimit="8" fill="none"/></g></svg>