<svg width="633" height="406" xmlns="http://www.w3.org/2000/svg" xmlns:xlink="http://www.w3.org/1999/xlink" overflow="hidden"><g><rect x="0" y="0" width="633" height="405.667" fill="#FFFFFF"/><text font-family="Yu Gothic,Yu Gothic_MSFontService,sans-serif" font-weight="700" font-size="14.6546" transform="matrix(1 0 0 0.99918 17.8119 46)">♣</text><path d="M22 54.4553C22 52.5239 23.7909 50.9582 26 50.9582 28.2091 50.9582 30 52.5239 30 54.4553 30 56.3867 28.2091 57.9524 26 57.9524 23.7909 57.9524 22 56.3867 22 54.4553Z" fill-rule="evenodd"/><text font-family="Yu Gothic,Yu Gothic_MSFontService,sans-serif" font-weight="700" font-size="14.6546" transform="matrix(1 0 0 0.99918 18.2561 100)">♢</text><path d="M22 108.411C22 106.48 23.7909 104.914 26 104.914 28.2091 104.914 30 106.48 30 108.411 30 110.342 28.2091 111.908 26 111.908 23.7909 111.908 22 110.342 22 108.411Z" fill-rule="evenodd"/><text font-family="Yu Gothic,Yu Gothic_MSFontService,sans-serif" font-weight="700" font-size="14.6546" transform="matrix(1 0 0 0.99918 17.8117 155)">♡</text><path d="M22 163.865C22 161.658 23.7909 159.869 26 159.869 28.2091 159.869 30 161.658 30 163.865 30 166.073 28.2091 167.862 26 167.862 23.7909 167.862 22 166.073 22 163.865Z" fill-rule="evenodd"/><text font-family="Yu Gothic,Yu Gothic_MSFontService,sans-serif" font-weight="700" font-size="14.6546" transform="matrix(1 0 0 0.99918 17.8117 210)">♠</text><path d="M22 218.321C22 216.389 23.7909 214.824 26 214.824 28.2091 214.824 30 216.389 30 218.321 30 220.252 28.2091 221.818 26 221.818 23.7909 221.818 22 220.252 22 218.321Z" fill-rule="evenodd"/><text font-family="Calibri,Calibri_MSFontService,sans-serif" font-weight="700" font-size="14.6546" transform="matrix(1 0 0 0.99918 76.0337 46)">1</text><path d="M77 54.4553C77 52.5239 78.567 50.9582 80.5 50.9582 82.433 50.9582 84 52.5239 84 54.4553 84 56.3867 82.433 57.9524 80.5 57.9524 78.567 57.9524 77 56.3867 77 54.4553Z" fill-rule="evenodd"/><text font-family="Calibri,Calibri_MSFontService,sans-serif" font-weight="700" font-size="14.6546" transform="matrix(1 0 0 0.99918 131.145 46)">2</text><path d="M132 54.9549C132 52.7476 133.567 50.9582 135.5 50.9582 137.433 50.9582 139 52.7476 139 54.9549 139 57.1622 137.433 58.9516 135.5 58.9516 133.567 58.9516 132 57.1622 132 54.9549Z" fill-rule="evenodd"/><text font-family="Calibri,Calibri_MSFontService,sans-serif" font-weight="700" font-size="14.6546" transform="matrix(1 0 0 0.99918 185.811 46)">3</text><path d="M186 54.4553C186 52.5239 187.791 50.9582 190 50.9582 192.209 50.9582 194 52.5239 194 54.4553 194 56.3867 192.209 57.9524 190 57.9524 187.791 57.9524 186 56.3867 186 54.4553Z" fill-rule="evenodd"/><text font-family="Calibri,Calibri_MSFontService,sans-serif" font-weight="700" font-size="14.6546" transform="matrix(1 0 0 0.99918 240.033 45)">4</text><path d="M241 53.9557C241 51.7484 242.567 49.959 244.5 49.959 246.433 49.959 248 51.7484 248 53.9557 248 56.163 246.433 57.9524 244.5 57.9524 242.567 57.9524 241 56.163 241 53.9557Z" fill-rule="evenodd"/><text font-family="Calibri,Calibri_MSFontService,sans-serif" font-weight="700" font-size="14.6546" transform="matrix(1 0 0 0.99918 295.144 46)">5</text><path d="M296 54.4553C296 52.5239 297.567 50.9582 299.5 50.9582 301.433 50.9582 303 52.5239 303 54.4553 303 56.3867 301.433 57.9524 299.5 57.9524 297.567 57.9524 296 56.3867 296 54.4553Z" fill-rule="evenodd"/><text font-family="Calibri,Calibri_MSFontService,sans-serif" font-weight="700" font-size="14.6546" transform="matrix(1 0 0 0.99918 349.809 46)">6</text><path d="M350 54.4553C350 52.5239 351.791 50.9582 354 50.9582 356.209 50.9582 358 52.5239 358 54.4553 358 56.3867 356.209 57.9524 354 57.9524 351.791 57.9524 350 56.3867 350 54.4553Z" fill-rule="evenodd"/><text font-family="Calibri,Calibri_MSFontService,sans-serif" font-weight="700" font-size="14.6546" transform="matrix(1 0 0 0.99918 75.367 364)">1</text><path d="M76 373.693C76 371.486 77.7909 369.696 80 369.696 82.2091 369.696 84 371.486 84 373.693 84 375.901 82.2091 377.69 80 377.69 77.7909 377.69 76 375.901 76 373.693Z" fill-rule="evenodd"/><text font-family="Calibri,Calibri_MSFontService,sans-serif" font-weight="700" font-size="14.6546" transform="matrix(1 0 0 0.99918 130.478 365)">2</text><path d="M131 373.693C131 371.486 132.791 369.696 135 369.696 137.209 369.696 139 371.486 139 373.693 139 375.901 137.209 377.69 135 377.69 132.791 377.69 131 375.901 131 373.693Z" fill-rule="evenodd"/><text font-family="Calibri,Calibri_MSFontService,sans-serif" font-weight="700" font-size="14.6546" transform="matrix(1 0 0 0.99918 185.145 364)">3</text><path d="M186 373.693C186 371.486 187.567 369.696 189.5 369.696 191.433 369.696 193 371.486 193 373.693 193 375.901 191.433 377.69 189.5 377.69 187.567 377.69 186 375.901 186 373.693Z" fill-rule="evenodd"/><text font-family="Calibri,Calibri_MSFontService,sans-serif" font-weight="700" font-size="14.6546" transform="matrix(1 0 0 0.99918 239.366 364)">4</text><path d="M240 373.194C240 371.262 241.791 369.696 244 369.696 246.209 369.696 248 371.262 248 373.194 248 375.125 246.209 376.691 244 376.691 241.791 376.691 240 375.125 240 373.194Z" fill-rule="evenodd"/><text font-family="Calibri,Calibri_MSFontService,sans-serif" font-weight="700" font-size="14.6546" transform="matrix(1 0 0 0.99918 294.477 364)">5</text><path d="M295 373.693C295 371.486 296.791 369.696 299 369.696 301.209 369.696 303 371.486 303 373.693 303 375.901 301.209 377.69 299 377.69 296.791 377.69 295 375.901 295 373.693Z" fill-rule="evenodd"/><text font-family="Calibri,Calibri_MSFontService,sans-serif" font-weight="700" font-size="14.6546" transform="matrix(1 0 0 0.99918 349.143 364)">6</text><path d="M350 373.693C350 371.486 351.567 369.696 353.5 369.696 355.433 369.696 357 371.486 357 373.693 357 375.901 355.433 377.69 353.5 377.69 351.567 377.69 350 375.901 350 373.693Z" fill-rule="evenodd"/><text font-family="Yu Gothic,Yu Gothic_MSFontService,sans-serif" font-weight="700" font-size="14.6546" transform="matrix(1 0 0 0.99918 481.812 47)">♣</text><path d="M486 55.9541C486 53.7467 487.791 51.9573 490 51.9573 492.209 51.9573 494 53.7467 494 55.9541 494 58.1614 492.209 59.9508 490 59.9508 487.791 59.9508 486 58.1614 486 55.9541Z" fill-rule="evenodd"/><text font-family="Yu Gothic,Yu Gothic_MSFontService,sans-serif" font-weight="700" font-size="14.6546" transform="matrix(1 0 0 0.99918 482.256 101)">♢</text><path d="M486 109.91C486 107.702 487.791 105.913 490 105.913 492.209 105.913 494 107.702 494 109.91 494 112.117 492.209 113.906 490 113.906 487.791 113.906 486 112.117 486 109.91Z" fill-rule="evenodd"/><text font-family="Yu Gothic,Yu Gothic_MSFontService,sans-serif" font-weight="700" font-size="14.6546" transform="matrix(1 0 0 0.99918 481.812 156)">♡</text><path d="M486 164.865C486 162.657 487.791 160.868 490 160.868 492.209 160.868 494 162.657 494 164.865 494 167.072 492.209 168.861 490 168.861 487.791 168.861 486 167.072 486 164.865Z" fill-rule="evenodd"/><text font-family="Yu Gothic,Yu Gothic_MSFontService,sans-serif" font-weight="700" font-size="14.6546" transform="matrix(1 0 0 0.99918 481.812 211)">♠</text><path d="M486 219.82C486 217.612 487.791 215.823 490 215.823 492.209 215.823 494 217.612 494 219.82 494 222.027 492.209 223.816 490 223.816 487.791 223.816 486 222.027 486 219.82Z" fill-rule="evenodd"/><rect x="53.5001" y="334.226" width="325" height="60.95" stroke="#172C51" stroke-width="1.33333" stroke-miterlimit="8" fill="none"/><rect x="462.5" y="27.4775" width="54" height="209.828" stroke="#172C51" stroke-width="1.33333" stroke-miterlimit="8" fill="none"/><rect x="8.50005" y="9.49226" width="370" height="244.799" stroke="#172C51" stroke-width="1.33333" stroke-miterlimit="8" fill="none"/><text font-family="Cambria Math,Cambria Math_MSFontService,sans-serif" font-weight="400" font-size="14.6546" transform="matrix(1 0 0 0.99918 227.284 301)">𝒊</text><text font-family="Cambria Math,Cambria Math_MSFontService,sans-serif" font-weight="400" font-size="10.6979" transform="matrix(1 0 0 0.99918 232.784 304)">𝟏</text><text font-family="Cambria Math,Cambria Math_MSFontService,sans-serif" font-weight="400" font-size="14.6546" transform="matrix(1 0 0 0.99918 416.827 125)">𝒊</text><text font-family="Cambria Math,Cambria Math_MSFontService,sans-serif" font-weight="400" font-size="10.6979" transform="matrix(1 0 0 0.99918 422.327 128)">𝟐</text><path d="M455.5 136.055 387.82 136.055 387.82 134.723 455.5 134.723ZM395.484 140.627 386.497 135.389 395.484 130.151C395.802 129.965 396.21 130.073 396.396 130.39 396.581 130.708 396.474 131.116 396.156 131.301L388.156 135.964 388.156 134.814 396.156 139.476C396.474 139.662 396.581 140.07 396.396 140.387 396.21 140.705 395.802 140.812 395.484 140.627Z" fill="#172C51"/><path d="M215.833 328.231 215.833 259.607 217.167 259.607 217.167 328.231ZM211.258 267.265 216.5 258.285 221.743 267.265C221.928 267.582 221.821 267.99 221.503 268.176 221.185 268.361 220.776 268.254 220.591 267.936L215.924 259.943 217.076 259.943 212.409 267.936C212.224 268.254 211.816 268.361 211.497 268.176 211.179 267.99 211.072 267.582 211.258 267.265Z" fill="#172C51"/><path d="M31.9922 3.01341C33.384 3.38043 34.4529 4.17285 35.1988 5.39069 35.9448 6.60852 36.3178 8.07779 36.3178 9.79849 36.3178 11.524 35.946 12.9932 35.2024 14.2063 34.4588 15.4194 33.3888 16.2094 31.9922 16.5764L31.8206 16.0259C32.9216 15.6589 33.7403 14.9344 34.2765 13.8524 34.8127 12.7704 35.0809 11.3953 35.0809 9.72699 35.0809 8.11592 34.8139 6.77773 34.2801 5.71243 33.7462 4.64712 32.9193 3.93096 31.7991 3.56394ZM7.96393 3.01341 8.15697 3.56394C7.04162 3.93096 6.21582 4.64712 5.67959 5.71243 5.14337 6.77773 4.87525 8.11592 4.87525 9.72699 4.87525 11.3953 5.14337 12.7704 5.67959 13.8524 6.21582 14.9344 7.03447 15.6589 8.13552 16.0259L7.96393 16.5764C6.56735 16.2094 5.49728 15.4194 4.75371 14.2063 4.01014 12.9932 3.63835 11.524 3.63835 9.79849 3.63835 8.07779 4.01133 6.60852 4.75728 5.39069 5.50324 4.17285 6.57212 3.38043 7.96393 3.01341Z" fill-rule="evenodd" transform="matrix(1.00082 0 0 1 572.837 135.812)"/><text font-family="Cambria Math,Cambria Math_MSFontService,sans-serif" font-weight="400" font-size="14.6546" transform="matrix(1 0 0 0.99918 581.277 150)">𝟑</text><text font-family="Cambria Math,Cambria Math_MSFontService,sans-serif" font-weight="400" font-size="14.6546" transform="matrix(1 0 0 0.99918 590.111 150)">.</text><text font-family="Cambria Math,Cambria Math_MSFontService,sans-serif" font-weight="400" font-size="14.6546" transform="matrix(1 0 0 0.99918 595.557 150)">𝟓</text></g></svg>