<svg width="284" height="125" xmlns="http://www.w3.org/2000/svg" xmlns:xlink="http://www.w3.org/1999/xlink" overflow="hidden"><defs><clipPath id="clip0"><rect x="0" y="0" width="284" height="125"/></clipPath></defs><g clip-path="url(#clip0)"><rect x="0" y="0" width="284" height="125.114" fill="#FFFFFF"/><text font-family="Cambria Math,Cambria Math_MSFontService,sans-serif" font-weight="400" font-size="14.7059" transform="matrix(1 0 0 1.00091 66.3247 113)">𝑿</text><text font-family="Cambria Math,Cambria Math_MSFontService,sans-serif" font-weight="400" font-size="14.7059" transform="matrix(1 0 0 1.00091 79.7751 113)">⊔</text><text font-family="Cambria Math,Cambria Math_MSFontService,sans-serif" font-weight="400" font-size="14.7059" transform="matrix(1 0 0 1.00091 93.5594 113)">𝒀</text><text font-family="Cambria Math,Cambria Math_MSFontService,sans-serif" font-weight="400" font-size="14.7059" transform="matrix(1 0 0 1.00091 11.7874 22)">𝑿</text><text font-family="Cambria Math,Cambria Math_MSFontService,sans-serif" font-weight="400" font-size="14.7059" transform="matrix(1 0 0 1.00091 141.032 23)">𝒀</text><text font-family="Cambria Math,Cambria Math_MSFontService,sans-serif" font-weight="400" font-size="14.7059" transform="matrix(1 0 0 1.00091 30.2613 68)">𝒊</text><text font-family="Cambria Math,Cambria Math_MSFontService,sans-serif" font-weight="400" font-size="10.7353" transform="matrix(1 0 0 1.00091 35.771 71)">𝟏</text><text font-family="Cambria Math,Cambria Math_MSFontService,sans-serif" font-weight="400" font-size="14.7059" transform="matrix(1 0 0 1.00091 125.933 67)">𝒊</text><text font-family="Cambria Math,Cambria Math_MSFontService,sans-serif" font-weight="400" font-size="10.7353" transform="matrix(1 0 0 1.00091 131.443 70)">𝟐</text><path d="M48.4638 66.3981 0.252162 1.46 1.3246 0.663795 49.5362 65.6019ZM1.14818 10.3567-0.00184513-0.00248531 9.58156 4.09555C9.92069 4.24056 10.0781 4.63305 9.93303 4.97218 9.78802 5.31132 9.39553 5.46868 9.0564 5.32366L0.52566 1.67577 1.45201 0.988022 2.47571 10.2093C2.5164 10.5759 2.25222 10.9061 1.88563 10.9468 1.51904 10.9875 1.18887 10.7233 1.14818 10.3567Z" fill="#172C51" transform="matrix(1 0 0 -1.00091 93.5 95.5868)"/><path d="M23.0323 29.1232 72.2336 94.1277 71.1689 94.935 21.9677 29.9305ZM71.2515 85.2323 72.5019 95.5892 62.8792 91.5807C62.5387 91.4389 62.3775 91.0476 62.5192 90.7067 62.661 90.3659 63.0519 90.2046 63.3924 90.3464L71.9581 93.9147 71.0385 94.612 69.9254 85.3927C69.8812 85.0262 70.1421 84.6931 70.5083 84.6488 70.8745 84.6046 71.2072 84.8658 71.2515 85.2323Z" fill="#172C51"/><path d="M31.6617 3.02643C33.0595 3.39503 34.133 4.19088 34.8822 5.41398 35.6313 6.63708 36.0059 8.11269 36.0059 9.84083 36.0059 11.5737 35.6325 13.0494 34.8857 14.2677 34.139 15.486 33.0643 16.2794 31.6617 16.648L31.4893 16.0951C32.5951 15.7265 33.4173 14.9989 33.9559 13.9122 34.4944 12.8256 34.7637 11.4445 34.7637 9.76902 34.7637 8.15099 34.4956 6.80702 33.9595 5.73711 33.4233 4.6672 32.5927 3.94794 31.4678 3.57934ZM7.5802 3.02643 7.77407 3.57934C6.6539 3.94794 5.82454 4.6672 5.28599 5.73711 4.74745 6.80702 4.47818 8.15099 4.47818 9.76902 4.47818 11.4445 4.74745 12.8256 5.28599 13.9122 5.82454 14.9989 6.64672 15.7265 7.75253 16.0951L7.5802 16.648C6.17759 16.2794 5.10289 15.486 4.35611 14.2677 3.60932 13.0494 3.23593 11.5737 3.23593 9.84083 3.23593 8.11269 3.61052 6.63708 4.3597 5.41398 5.10887 4.19088 6.18237 3.39503 7.5802 3.02643Z" fill-rule="evenodd" transform="matrix(1 0 0 1.00091 240.57 54.0817)"/><text font-family="Cambria Math,Cambria Math_MSFontService,sans-serif" font-weight="400" font-size="14.7059" transform="matrix(1 0 0 1.00091 248.611 68)">𝟑</text><text font-family="Cambria Math,Cambria Math_MSFontService,sans-serif" font-weight="400" font-size="14.7059" transform="matrix(1 0 0 1.00091 257.459 68)">.</text><text font-family="Cambria Math,Cambria Math_MSFontService,sans-serif" font-weight="400" font-size="14.7059" transform="matrix(1 0 0 1.00091 262.916 68)">𝟑</text></g></svg>