<svg width="473" height="314" xmlns="http://www.w3.org/2000/svg" xmlns:xlink="http://www.w3.org/1999/xlink" overflow="hidden"><defs><clipPath id="clip0"><rect x="0" y="0" width="473" height="314"/></clipPath></defs><g clip-path="url(#clip0)"><rect x="0" y="0" width="473" height="314.001" fill="#FFFFFF"/><rect x="28.5" y="47.5002" width="33.9999" height="28.0001" stroke="#000000" stroke-width="1.33474" stroke-linejoin="round" stroke-miterlimit="10" fill="none"/><text font-family="Yu Gothic,Yu Gothic_MSFontService,sans-serif" font-weight="700" font-size="14.6823" transform="matrix(1 0 0 1 37.519 66)">母</text><rect x="202.5" y="47.5002" width="64" height="28.0001" stroke="#000000" stroke-width="1.33474" stroke-linejoin="round" stroke-miterlimit="10" fill="none"/><text font-family="Yu Gothic,Yu Gothic_MSFontService,sans-serif" font-weight="700" font-size="14.6823" transform="matrix(1 0 0 1 211.926 66)">子ども</text><rect x="403.5" y="47.5002" width="34.9999" height="28.0001" stroke="#000000" stroke-width="1.33474" stroke-linejoin="round" stroke-miterlimit="10" fill="none"/><text font-family="Yu Gothic,Yu Gothic_MSFontService,sans-serif" font-weight="700" font-size="14.6823" transform="matrix(1 0 0 1 413.028 66)">父</text><rect x="112.5" y="106.5" width="48.9999" height="28.0001" stroke="#000000" stroke-width="1.33474" stroke-linejoin="round" stroke-miterlimit="10" fill="none"/><text font-family="Yu Gothic,Yu Gothic_MSFontService,sans-serif" font-weight="700" font-size="14.6823" transform="matrix(1 0 0 1 121.912 125)">女性</text><rect x="312.5" y="108.5" width="49" height="28.0001" stroke="#000000" stroke-width="1.33474" stroke-linejoin="round" stroke-miterlimit="10" fill="none"/><text font-family="Yu Gothic,Yu Gothic_MSFontService,sans-serif" font-weight="700" font-size="14.6823" transform="matrix(1 0 0 1 321.374 127)">男性</text><rect x="219.5" y="164.501" width="35" height="27.0001" stroke="#000000" stroke-width="1.33474" stroke-linejoin="round" stroke-miterlimit="10" fill="none"/><text font-family="Yu Gothic,Yu Gothic_MSFontService,sans-serif" font-weight="700" font-size="14.6823" transform="matrix(1 0 0 1 228.916 182)">人</text><rect x="218.5" y="256.501" width="34" height="27.0001" stroke="#000000" stroke-width="1.33474" stroke-linejoin="round" stroke-miterlimit="10" fill="none"/><text font-family="Yu Gothic,Yu Gothic_MSFontService,sans-serif" font-weight="700" font-size="14.6823" transform="matrix(1 0 0 1 227.641 275)">親</text><path d="M196.5 63.1676 71.8214 63.1676 71.8214 61.8329 196.5 61.8329ZM79.4936 67.7484 70.4969 62.5003 79.4936 57.2522C79.812 57.0665 80.2206 57.174 80.4064 57.4924 80.5921 57.8107 80.4845 58.2194 80.1662 58.4051L72.1577 63.0767 72.1577 61.9238 80.1662 66.5954C80.4845 66.7811 80.5921 67.1898 80.4064 67.5082 80.2206 67.8265 79.812 67.9341 79.4936 67.7484Z" fill="#172C51"/><path d="M398.179 62.1676 274.5 62.1676 274.5 60.8329 398.179 60.8329ZM390.506 56.2522 399.503 61.5002 390.506 66.7483C390.188 66.9341 389.779 66.8265 389.594 66.5081 389.408 66.1898 389.516 65.7811 389.834 65.5954L397.842 60.9238 397.842 62.0767 389.834 57.4051C389.516 57.2194 389.408 56.8107 389.594 56.4924 389.779 56.174 390.188 56.0664 390.506 56.2522Z" fill="#172C51"/><path d="M70.8414 75.9268 111.706 100.251 111.023 101.398 70.1587 77.0738ZM107.456 92.3908 112.503 101.502 102.088 101.41C101.719 101.407 101.423 101.105 101.426 100.737 101.429 100.368 101.731 100.072 102.099 100.075L111.37 100.157 110.781 101.148 106.289 93.0375C106.11 92.715 106.227 92.3089 106.549 92.1303 106.871 91.9517 107.278 92.0683 107.456 92.3908Z" fill="#172C51"/><path d="M0.331109-0.579441 41.1838 22.7649 40.5216 23.9238-0.331109 0.579441ZM36.7951 14.9813 42.0027 24.0015 31.5876 24.0945C31.219 24.0978 30.9176 23.8017 30.9143 23.4331 30.911 23.0645 31.2071 22.7631 31.5757 22.7598L40.8467 22.677 40.2747 23.678 35.6392 15.6486C35.4549 15.3294 35.5643 14.9213 35.8835 14.737 36.2027 14.5527 36.6109 14.6621 36.7951 14.9813Z" fill="#172C51" transform="matrix(-1 0 0 1 403.5 80.5004)"/><path d="M0.34135-0.573468 41.2059 23.7506 40.5232 24.8976-0.34135 0.573468ZM36.9561 15.8903 42.0026 25.0016 31.5876 24.9095C31.219 24.9063 30.9228 24.6049 30.9261 24.2363 30.9294 23.8677 31.2308 23.5716 31.5993 23.5748L40.8704 23.6568 40.2807 24.6475 35.7885 16.537C35.61 16.2146 35.7266 15.8084 36.049 15.6298 36.3714 15.4512 36.7776 15.5678 36.9561 15.8903Z" fill="#172C51" transform="matrix(-1 0 0 1 308.5 137.501)"/><path d="M164.835 135.924 206.693 160.26 206.022 161.413 164.165 137.078ZM202.363 152.443 207.503 161.502 197.087 161.517C196.719 161.518 196.419 161.219 196.419 160.851 196.418 160.482 196.717 160.183 197.085 160.183L206.357 160.169 205.777 161.166 201.202 153.102C201.02 152.781 201.132 152.374 201.453 152.192 201.774 152.01 202.181 152.123 202.363 152.443Z" fill="#172C51"/><text font-family="Cambria Math,Cambria Math_MSFontService,sans-serif" font-weight="400" font-size="14.6823" transform="matrix(1 0 0 1 36.3217 42)">𝑴</text><text font-family="Cambria Math,Cambria Math_MSFontService,sans-serif" font-weight="400" font-size="14.6823" transform="matrix(1 0 0 1 229.335 43)">𝑪</text><text font-family="Cambria Math,Cambria Math_MSFontService,sans-serif" font-weight="400" font-size="14.6823" transform="matrix(1 0 0 1 415.309 43)">𝑭</text><text font-family="Cambria Math,Cambria Math_MSFontService,sans-serif" font-weight="400" font-size="14.6823" transform="matrix(1 0 0 1 129.754 103)">𝑾</text><text font-family="Cambria Math,Cambria Math_MSFontService,sans-serif" font-weight="400" font-size="14.6823" transform="matrix(1 0 0 1 330.262 100)">𝑴</text><text font-family="Cambria Math,Cambria Math_MSFontService,sans-serif" font-weight="400" font-size="10.718" transform="matrix(1 0 0 1 343.61 95)">′</text><text font-family="Cambria Math,Cambria Math_MSFontService,sans-serif" font-weight="400" font-size="14.6823" transform="matrix(1 0 0 1 231.611 159)">𝑷</text><text font-family="Cambria Math,Cambria Math_MSFontService,sans-serif" font-weight="400" font-size="14.6823" transform="matrix(1 0 0 1 230.332 253)">𝑷</text><text font-family="Calibri,Calibri_MSFontService,sans-serif" font-weight="700" font-size="14.6823" transform="matrix(1 0 0 1 240.343 253)">'</text><path d="M237.167 77.5003 237.167 139.179 235.833 139.179 235.833 77.5003ZM241.748 131.507 236.5 140.504 231.252 131.507C231.066 131.189 231.174 130.78 231.492 130.594 231.81 130.409 232.219 130.516 232.405 130.834L237.076 138.843 235.924 138.843 240.595 130.834C240.781 130.516 241.189 130.409 241.508 130.594 241.826 130.78 241.934 131.189 241.748 131.507Z" fill="#172C51"/><path d="M-0.667372 41-0.667372 1.32136 0.667372 1.32136 0.667372 41ZM-5.24807 8.99359 0-0.00309321 5.24807 8.99359C5.43378 9.31196 5.32625 9.72061 5.00787 9.90633 4.6895 10.092 4.28086 9.9845 4.09514 9.66613L-0.576462 1.65767 0.576462 1.65767-4.09514 9.66613C-4.28086 9.9845-4.6895 10.092-5.00787 9.90633-5.32625 9.72061-5.43378 9.31196-5.24807 8.99359Z" fill="#172C51" transform="matrix(-1 0 0 1 237.5 193.501)"/><path d="M47.0724 80.1572 55.0648 93.4909 55.0528 93.4718 63.308 106.243 63.2952 106.224 71.8249 118.477 71.8115 118.459 80.6275 130.236 80.6135 130.218 89.7276 141.562 89.7132 141.544 99.1371 152.499 99.1155 152.475 118.94 173.386 118.912 173.358 140.117 193.226 140.097 193.208 151.247 202.859 151.235 202.849 162.765 212.368 162.754 212.359 174.676 221.789 174.667 221.781 186.993 231.166 186.984 231.16 199.726 240.541 199.719 240.536 211.814 249.189 211.037 250.275 198.939 241.619 186.189 232.231 173.853 222.84 161.921 213.401 150.379 203.873 139.214 194.209 117.985 174.318 98.1358 153.381 88.6941 142.406 79.5658 131.045 70.7361 119.249 62.1932 106.978 53.9257 94.1868 45.9276 80.8435ZM208.239 241 212.503 250.503 202.132 249.536C201.765 249.502 201.495 249.177 201.529 248.81 201.564 248.443 201.889 248.173 202.256 248.207L211.487 249.068 210.816 250.005 207.022 241.546C206.871 241.21 207.021 240.815 207.357 240.664 207.694 240.513 208.089 240.663 208.239 241Z" fill="#172C51"/><path d="M0.573325-0.34159 8.51755 12.992 8.50571 12.9729 16.7111 25.7446 16.6985 25.7255 25.1768 37.9783 25.1634 37.9597 33.9263 49.7366 33.9123 49.7185 42.9715 61.0625 42.9572 61.0453 52.3244 71.9995 52.3029 71.9755 72.0079 92.8865 71.9799 92.8586 93.0571 112.727 93.0376 112.709 104.12 122.359 104.108 122.349 115.569 131.868 115.558 131.859 127.408 141.289 127.399 141.282 139.65 150.666 139.642 150.66 152.307 160.041 152.3 160.036 164.317 168.686 163.538 169.77 151.516 161.117 138.843 151.729 126.582 142.337 114.721 132.899 103.249 123.371 92.1512 113.707 71.05 93.8163 51.3204 72.8792 41.9355 61.9042 32.8622 50.5425 24.0857 38.7472 15.5943 26.4756 7.37667 13.6849-0.573325 0.34159ZM160.767 160.487 165.002 170.002 154.635 169.005C154.268 168.97 153.999 168.644 154.034 168.277 154.07 167.91 154.396 167.641 154.762 167.677L163.991 168.564 163.318 169.499 159.547 161.029C159.397 160.693 159.549 160.298 159.885 160.148 160.222 159.998 160.617 160.15 160.767 160.487Z" fill="#172C51" transform="matrix(-1 0 0 1 422.5 81.5004)"/><text font-family="Cambria Math,Cambria Math_MSFontService,sans-serif" font-weight="400" font-size="14.6823" transform="matrix(1 0 0 1 89.8441 84)">𝒊𝒔</text><text font-family="Cambria Math,Cambria Math_MSFontService,sans-serif" font-weight="400" font-size="14.6823" transform="matrix(1 0 0 1 175.268 141)">𝒊𝒔</text><text font-family="Cambria Math,Cambria Math_MSFontService,sans-serif" font-weight="400" font-size="14.6823" transform="matrix(1 0 0 1 276.709 145)">𝒊𝒔</text><text font-family="Cambria Math,Cambria Math_MSFontService,sans-serif" font-weight="400" font-size="14.6823" transform="matrix(1 0 0 1 369.251 90)">𝒊𝒔</text><text font-family="Cambria Math,Cambria Math_MSFontService,sans-serif" font-weight="400" font-size="14.6823" transform="matrix(1 0 0 1 349.675 189)">𝒊𝒔</text><text font-family="Cambria Math,Cambria Math_MSFontService,sans-serif" font-weight="400" font-size="14.6823" transform="matrix(1 0 0 1 105.861 189)">𝒊𝒔</text><text font-family="Cambria Math,Cambria Math_MSFontService,sans-serif" font-weight="400" font-size="14.6823" transform="matrix(1 0 0 1 129.135 55)">𝒉𝒂𝒔</text><text font-family="Cambria Math,Cambria Math_MSFontService,sans-serif" font-weight="400" font-size="14.6823" transform="matrix(1 0 0 1 321.339 55)">𝒉𝒂𝒔</text><rect x="8.50001" y="14.5001" width="455" height="286.001" stroke="#172C51" stroke-width="1.33474" stroke-miterlimit="8" fill="none"/><text font-family="Segoe UI Symbol,Segoe UI Symbol_MSFontService,sans-serif" font-weight="700" font-size="14.6823" transform="matrix(1 0 0 1 139.232 166)">✔</text><text font-family="Segoe UI Symbol,Segoe UI Symbol_MSFontService,sans-serif" font-weight="700" font-size="14.6823" transform="matrix(1 0 0 1 311.643 170)">✔</text></g></svg>