<svg width="284" height="132" xmlns="http://www.w3.org/2000/svg" xmlns:xlink="http://www.w3.org/1999/xlink" overflow="hidden"><defs><clipPath id="clip0"><rect x="0" y="0" width="284" height="132"/></clipPath></defs><g clip-path="url(#clip0)"><rect x="0" y="0" width="284" height="132.431" fill="#FFFFFF"/><text font-family="Cambria Math,Cambria Math_MSFontService,sans-serif" font-weight="400" font-size="14.6297" transform="matrix(1 0 0 0.995725 21.1057 45)">𝑨</text><text font-family="Cambria Math,Cambria Math_MSFontService,sans-serif" font-weight="400" font-size="14.6297" transform="matrix(1 0 0 0.995725 107.66 45)">𝑩</text><text font-family="Cambria Math,Cambria Math_MSFontService,sans-serif" font-weight="400" font-size="14.6297" transform="matrix(1 0 0 0.995725 107.66 108)">𝑪</text><path d="M41.5 41.6533 98.1777 41.6533 98.1777 42.9833 41.5 42.9833ZM90.5001 37.089 99.5031 42.3183 90.5001 47.5476C90.1815 47.7327 89.7726 47.6255 89.5867 47.3083 89.4009 46.9911 89.5085 46.5839 89.8271 46.3988L97.8412 41.7439 97.8412 42.8927 89.8271 38.2378C89.5085 38.0528 89.4009 37.6456 89.5867 37.3284 89.7726 37.0111 90.1815 36.904 90.5001 37.089Z" fill="#172C51"/><path d="M113.168 50.2841 113.168 91.7837 111.832 91.7837 111.832 50.2841ZM117.752 84.1389 112.5 93.1034 107.248 84.1389C107.062 83.8216 107.17 83.4145 107.489 83.2294 107.807 83.0444 108.216 83.1515 108.402 83.4687L113.077 91.4486 111.923 91.4486 116.598 83.4687C116.784 83.1515 117.193 83.0444 117.511 83.2294 117.83 83.4145 117.938 83.8216 117.752 84.1389Z" fill="#172C51"/><path d="M41.9035 49.7542 102.85 95.7578 102.043 96.8177 41.0966 50.8141ZM99.5005 87.5022 103.502 97.085 93.1553 95.8368C92.7891 95.7926 92.5283 95.4612 92.5726 95.0966 92.617 94.732 92.9498 94.4723 93.316 94.5164L102.527 95.6276 101.83 96.5431 98.2672 88.0129C98.1256 87.6738 98.2869 87.2845 98.6275 87.1435 98.968 87.0025 99.3589 87.1631 99.5005 87.5022Z" fill="#172C51"/><text font-family="Cambria Math,Cambria Math_MSFontService,sans-serif" font-weight="400" font-size="14.6297" transform="matrix(1 0 0 0.995725 67.5666 31)">𝒇</text><text font-family="Cambria Math,Cambria Math_MSFontService,sans-serif" font-weight="400" font-size="14.6297" transform="matrix(1 0 0 0.995725 116.363 68)">𝒈</text><text font-family="Cambria Math,Cambria Math_MSFontService,sans-serif" font-weight="400" font-size="14.6297" transform="matrix(1 0 0 0.995725 57.4613 83)">𝒉</text><path d="M31.9362 2.99789C33.3208 3.36301 34.3842 4.15136 35.1263 5.36292 35.8684 6.57448 36.2395 8.03618 36.2395 9.74801 36.2395 11.4646 35.8696 12.9263 35.1299 14.1331 34.3901 15.3399 33.3256 16.1259 31.9362 16.491L31.7655 15.9433C32.8609 15.5782 33.6753 14.8574 34.2088 13.781 34.7422 12.7046 35.009 11.3366 35.009 9.67688 35.009 8.07411 34.7434 6.74282 34.2123 5.683 33.6812 4.62318 32.8585 3.91071 31.7441 3.54558ZM7.93102 2.99789 8.12306 3.54558C7.01346 3.91071 6.19192 4.62318 5.65845 5.683 5.12499 6.74282 4.85825 8.07411 4.85825 9.67688 4.85825 11.3366 5.12499 12.7046 5.65845 13.781 6.19192 14.8574 7.00634 15.5782 8.10173 15.9433L7.93102 16.491C6.54164 16.1259 5.47707 15.3399 4.73733 14.1331 3.99759 12.9263 3.62772 11.4646 3.62772 9.74801 3.62772 8.03618 3.99878 6.57448 4.74089 5.36292 5.483 4.15136 6.54638 3.36301 7.93102 2.99789Z" fill-rule="evenodd" transform="matrix(1.00429 0 0 1 227.64 58.279)"/><text font-family="Cambria Math,Cambria Math_MSFontService,sans-serif" font-weight="400" font-size="14.6297" transform="matrix(1 0 0 0.995725 236.095 72)">𝟐</text><text font-family="Cambria Math,Cambria Math_MSFontService,sans-serif" font-weight="400" font-size="14.6297" transform="matrix(1 0 0 0.995725 244.944 72)">.</text><text font-family="Cambria Math,Cambria Math_MSFontService,sans-serif" font-weight="400" font-size="14.6297" transform="matrix(1 0 0 0.995725 250.4 72)">𝟔</text></g></svg>