<svg width="454" height="204" xmlns="http://www.w3.org/2000/svg" xmlns:xlink="http://www.w3.org/1999/xlink" overflow="hidden"><g><rect x="0" y="0" width="454" height="203.609" fill="#FFFFFF"/><path d="M38.4665 3.01011C39.8568 3.37673 40.9245 4.16829 41.6697 5.3848 42.4148 6.6013 42.7874 8.06896 42.7874 9.78778 42.7874 11.5114 42.416 12.979 41.6732 14.1908 40.9305 15.4025 39.8616 16.1917 38.4665 16.5583L38.2951 16.0084C39.395 15.6418 40.2127 14.918 40.7483 13.8372 41.284 12.7564 41.5518 11.3828 41.5518 9.71636 41.5518 8.10705 41.2852 6.77032 40.7519 5.70618 40.2187 4.64204 39.3926 3.92666 38.2737 3.56004ZM5.60639 3.01011 5.79922 3.56004C4.68508 3.92666 3.8602 4.64204 3.32455 5.70618 2.78891 6.77032 2.52109 8.10705 2.52109 9.71636 2.52109 11.3828 2.78891 12.7564 3.32455 13.8372 3.8602 14.918 4.67794 15.6418 5.7778 16.0084L5.60639 16.5583C4.21134 16.1917 3.14244 15.4025 2.39968 14.1908 1.65692 12.979 1.28554 11.5114 1.28554 9.78778 1.28554 8.06896 1.65811 6.6013 2.40325 5.3848 3.14839 4.16829 4.2161 3.37673 5.60639 3.01011Z" fill-rule="evenodd" transform="matrix(1.00192 0 0 1 392.553 92.9961)"/><text font-family="Cambria Math,Cambria Math_MSFontService,sans-serif" font-weight="400" font-size="14.6547" transform="matrix(1 0 0 0.998083 398.646 107)">𝟐</text><text font-family="Cambria Math,Cambria Math_MSFontService,sans-serif" font-weight="400" font-size="14.6547" transform="matrix(1 0 0 0.998083 407.49 107)">.</text><text font-family="Cambria Math,Cambria Math_MSFontService,sans-serif" font-weight="400" font-size="14.6547" transform="matrix(1 0 0 0.998083 412.942 107)">𝟐𝟏</text><rect x="23.5" y="31.4396" width="34" height="27.9463" stroke="#000000" stroke-width="1.3348" stroke-linejoin="round" stroke-miterlimit="10" fill="none"/><text font-family="Yu Gothic,Yu Gothic_MSFontService,sans-serif" font-weight="700" font-size="14.6547" transform="matrix(1 0 0 0.998083 32.4734 50)">人</text><rect x="218.5" y="31.4396" width="49" height="27.9463" stroke="#000000" stroke-width="1.3348" stroke-linejoin="round" stroke-miterlimit="10" fill="none"/><text font-family="Yu Gothic,Yu Gothic_MSFontService,sans-serif" font-weight="700" font-size="14.6547" transform="matrix(1 0 0 0.998083 227.355 50)">住所</text><rect x="218.5" y="150.212" width="49" height="26.9483" stroke="#000000" stroke-width="1.3348" stroke-linejoin="round" stroke-miterlimit="10" fill="none"/><text font-family="Yu Gothic,Yu Gothic_MSFontService,sans-serif" font-weight="700" font-size="14.6547" transform="matrix(1 0 0 0.998083 227.355 168)">都市</text><text font-family="Yu Gothic,Yu Gothic_MSFontService,sans-serif" font-weight="700" font-size="14.6547" transform="matrix(1 0 0 0.998083 81.8757 40)">～</text><text font-family="Yu Gothic,Yu Gothic_MSFontService,sans-serif" font-weight="700" font-size="14.6547" transform="matrix(1 0 0 0.998083 96.5585 40)">には</text><text font-family="Yu Gothic,Yu Gothic_MSFontService,sans-serif" font-weight="700" font-size="14.6547" transform="matrix(1 0 0 0.998083 125.924 40)">･･･</text><text font-family="Yu Gothic,Yu Gothic_MSFontService,sans-serif" font-weight="700" font-size="14.6547" transform="matrix(1 0 0 0.998083 147.948 40)">がある</text><text font-family="Yu Gothic,Yu Gothic_MSFontService,sans-serif" font-weight="700" font-size="14.6547" transform="matrix(1 0 0 0.998083 251.885 96)">～</text><text font-family="Yu Gothic,Yu Gothic_MSFontService,sans-serif" font-weight="700" font-size="14.6547" transform="matrix(1 0 0 0.998083 266.568 96)">は</text><text font-family="Yu Gothic,Yu Gothic_MSFontService,sans-serif" font-weight="700" font-size="14.6547" transform="matrix(1 0 0 0.998083 281.251 96)">･･･</text><text font-family="Yu Gothic,Yu Gothic_MSFontService,sans-serif" font-weight="700" font-size="14.6547" transform="matrix(1 0 0 0.998083 303.275 96)">に</text><text font-family="Yu Gothic,Yu Gothic_MSFontService,sans-serif" font-weight="700" font-size="14.6547" transform="matrix(1 0 0 0.998083 251.885 113)">ある</text><text font-family="Yu Gothic,Yu Gothic_MSFontService,sans-serif" font-weight="700" font-size="14.6547" transform="matrix(1 0 0 0.998083 53.6058 115)">～</text><text font-family="Yu Gothic,Yu Gothic_MSFontService,sans-serif" font-weight="700" font-size="14.6547" transform="matrix(1 0 0 0.998083 68.2887 115)">は</text><text font-family="Yu Gothic,Yu Gothic_MSFontService,sans-serif" font-weight="700" font-size="14.6547" transform="matrix(1 0 0 0.998083 82.9715 115)">･･･</text><text font-family="Yu Gothic,Yu Gothic_MSFontService,sans-serif" font-weight="700" font-size="14.6547" transform="matrix(1 0 0 0.998083 104.996 115)">に</text><text font-family="Yu Gothic,Yu Gothic_MSFontService,sans-serif" font-weight="700" font-size="14.6547" transform="matrix(1 0 0 0.998083 53.6058 132)">住んでいる</text><path d="M62.5 45.7448 212.179 45.7448 212.179 47.077 62.5 47.077ZM204.506 41.1727 213.503 46.4109 204.506 51.6491C204.188 51.8345 203.779 51.7272 203.593 51.4094 203.408 51.0916 203.515 50.6837 203.833 50.4984L211.842 45.8355 211.842 46.9863 203.833 42.3234C203.515 42.1381 203.408 41.7302 203.593 41.4124 203.779 41.0946 204.188 40.9873 204.506 41.1727Z" fill="#172C51"/><path d="M243.167 62.3802 243.167 126.935 241.833 126.935 241.833 62.3802ZM247.748 119.277 242.5 128.257 237.252 119.277C237.066 118.959 237.174 118.551 237.492 118.366 237.81 118.181 238.219 118.288 238.405 118.606L243.077 126.599 241.924 126.599 246.595 118.606C246.781 118.288 247.19 118.181 247.508 118.366 247.827 118.551 247.934 118.959 247.748 119.277Z" fill="#172C51"/><path d="M61.8182 63.7909 213.656 146.002 213.019 147.173 61.1817 64.9619ZM209.097 138.332 214.503 147.219 204.092 147.541C203.723 147.553 203.415 147.264 203.404 146.896 203.393 146.528 203.682 146.221 204.05 146.21L213.318 145.923 212.768 146.934 207.956 139.024C207.765 138.709 207.865 138.3 208.18 138.109 208.495 137.918 208.906 138.018 209.097 138.332Z" fill="#172C51"/><rect x="6.49997" y="7.48564" width="338" height="186.642" stroke="#172C51" stroke-width="1.3348" stroke-miterlimit="8" fill="none"/><text font-family="Cambria Math,Cambria Math_MSFontService,sans-serif" font-weight="400" font-size="14.6547" transform="matrix(1 0 0 0.998083 36.2364 27)">𝑨</text><text font-family="Cambria Math,Cambria Math_MSFontService,sans-serif" font-weight="400" font-size="14.6547" transform="matrix(1 0 0 0.998083 237.433 28)">𝑩</text><text font-family="Cambria Math,Cambria Math_MSFontService,sans-serif" font-weight="400" font-size="14.6547" transform="matrix(1 0 0 0.998083 236.107 143)">𝑪</text></g></svg>